<svg width="196" height="118" viewBox="0 0 196 118" fill="none" xmlns="http://www.w3.org/2000/svg">
<path d="M184.881 1.09371C184.986 1.03802 185.238 0.963765 185.441 0.926639C185.651 0.889513 185.928 0.864763 186.057 0.864763C186.193 0.87095 186.353 0.889513 186.421 0.914264C186.488 0.932827 186.686 0.926639 186.852 0.895701C187.037 0.858575 187.191 0.858575 187.24 0.895701C187.277 0.926639 187.351 0.939015 187.394 0.926639C187.431 0.914264 187.517 0.95139 187.579 1.00708C187.677 1.09989 187.683 1.09989 187.653 0.963765C187.634 0.889513 187.646 0.827637 187.683 0.827637C187.72 0.827637 187.745 0.864763 187.745 0.901889C187.745 0.963765 187.763 0.963765 187.819 0.908076C187.868 0.864763 187.961 0.852387 188.053 0.883326C188.139 0.908076 188.595 0.920452 189.069 0.914264C189.704 0.908076 189.969 0.926639 190.073 0.988516C190.19 1.06277 190.209 1.06277 190.209 0.982328C190.209 0.932827 190.252 0.889513 190.301 0.889513C190.35 0.889513 190.406 0.914264 190.424 0.95139C190.443 0.988516 190.492 0.994703 190.566 0.957578C190.621 0.926639 190.96 0.908076 191.317 0.926639C191.675 0.939015 192.081 0.969953 192.229 0.982328C192.371 1.00089 192.5 0.982328 192.519 0.95139C192.537 0.914264 192.697 0.895701 192.882 0.901889C193.067 0.914264 193.202 0.901889 193.19 0.87095C193.178 0.8462 193.221 0.827637 193.288 0.827637C193.362 0.827637 193.412 0.87095 193.412 0.932827C193.412 0.994703 193.424 1.02564 193.442 0.994703C193.461 0.969953 193.633 1.06277 193.83 1.1989C194.138 1.41546 194.194 1.44021 194.305 1.36596C194.373 1.32265 194.545 1.29171 194.687 1.29171C194.834 1.29171 194.952 1.27315 194.952 1.24221C194.952 1.21746 195.001 1.1989 195.062 1.1989C195.149 1.1989 195.142 1.21127 195.032 1.29171C194.952 1.34121 194.865 1.37215 194.828 1.35359C194.791 1.33502 194.748 1.35978 194.73 1.3969C194.711 1.44021 194.724 1.50209 194.767 1.53922C194.816 1.58253 194.853 1.57016 194.896 1.48972C194.927 1.43403 194.995 1.38453 195.044 1.38453C195.093 1.38453 195.124 1.40928 195.105 1.4464C195.087 1.47734 195.093 1.52065 195.124 1.53303C195.149 1.55159 195.155 1.63203 195.136 1.72485C195.112 1.85479 195.136 1.89191 195.247 1.92904C195.327 1.95379 195.377 2.00329 195.352 2.04661C195.333 2.08992 195.364 2.17036 195.413 2.21986C195.463 2.26936 195.506 2.36836 195.506 2.43643C195.506 2.50449 195.537 2.57874 195.58 2.60349C195.625 2.6365 195.635 2.74994 195.611 2.94382C195.574 3.19132 195.58 3.23464 195.66 3.20989C195.715 3.19132 195.752 3.21607 195.752 3.27176C195.752 3.32126 195.697 3.4017 195.629 3.43883C195.561 3.48214 195.506 3.55639 195.506 3.59352C195.506 3.63683 195.407 3.78534 195.29 3.92147C195.173 4.05759 195.069 4.2061 195.069 4.24322C195.062 4.28654 195.062 4.34223 195.069 4.36698C195.069 4.39792 195.05 4.47217 195.013 4.54023C194.97 4.63305 194.921 4.65161 194.847 4.6083C194.767 4.57117 194.705 4.58973 194.631 4.67017C194.57 4.73824 194.533 4.83105 194.551 4.88055C194.57 4.93005 194.557 5.01668 194.52 5.06618C194.483 5.11568 194.422 5.14662 194.385 5.12806C194.336 5.1095 194.274 5.17137 194.231 5.28275C194.182 5.39413 194.108 5.46838 194.046 5.46838C193.984 5.46219 193.898 5.49932 193.861 5.54263C193.818 5.58595 193.8 5.64782 193.83 5.67876C193.855 5.7097 193.83 5.72207 193.781 5.70351C193.72 5.67876 193.633 5.74683 193.535 5.89533C193.449 6.01908 193.325 6.16759 193.258 6.22946C193.19 6.29134 193.116 6.33465 193.091 6.33465C193.061 6.33465 193.042 6.29753 193.042 6.25421C193.036 6.20471 193.017 6.2109 192.962 6.27278C192.919 6.32846 192.82 6.3594 192.734 6.34084C192.599 6.32228 192.586 6.33465 192.623 6.46459C192.654 6.58835 192.605 6.66879 192.297 6.95342C192.1 7.13905 191.921 7.28136 191.903 7.2628C191.884 7.24424 191.872 7.26899 191.872 7.30611C191.872 7.34943 191.829 7.37418 191.779 7.35562C191.73 7.33705 191.687 7.34324 191.687 7.36799C191.687 7.39893 191.582 7.47318 191.459 7.54125C191.33 7.60931 191.102 7.78256 190.948 7.92488C190.782 8.08576 190.665 8.16001 190.652 8.11051C190.64 8.07338 190.578 8.12907 190.511 8.23426C190.449 8.34564 190.357 8.43846 190.32 8.43846C190.277 8.43227 190.184 8.49415 190.116 8.56221C190.049 8.63027 189.925 8.69215 189.839 8.69215C189.753 8.68596 189.617 8.74165 189.531 8.80972C189.445 8.87778 189.303 8.93347 189.211 8.93347C189.112 8.93347 189.038 8.97059 189.038 9.00772C189.038 9.05103 188.872 9.24904 188.669 9.44086C188.398 9.70693 188.281 9.78118 188.225 9.73786C188.182 9.70074 188.121 9.67599 188.084 9.6698C188.047 9.6698 187.985 9.76262 187.936 9.87399C187.887 9.98537 187.776 10.1524 187.69 10.2514C187.603 10.3443 187.492 10.4185 187.455 10.4185C187.412 10.4185 187.375 10.4618 187.375 10.5113C187.375 10.5608 187.326 10.6289 187.271 10.666C187.209 10.697 187.184 10.7217 187.221 10.7217C187.258 10.7217 187.228 10.7836 187.16 10.8516C187.092 10.9197 187 10.9816 186.963 10.9754C186.92 10.9754 186.87 11.0187 186.852 11.0682C186.833 11.1239 186.772 11.1487 186.698 11.1301C186.612 11.1053 186.562 11.1363 186.532 11.2353C186.507 11.3157 186.495 11.4147 186.501 11.4518C186.507 11.4952 186.488 11.5199 186.451 11.5013C186.415 11.4828 186.291 11.5137 186.174 11.5632C186.031 11.6251 185.969 11.687 185.99 11.7489C186.008 11.7984 185.959 11.8974 185.885 11.9654C185.805 12.0397 185.675 12.1263 185.589 12.1634C185.503 12.2006 185.367 12.3367 185.281 12.4666C185.195 12.5904 185.103 12.6832 185.066 12.6708C185.029 12.6523 184.986 12.6832 184.961 12.7327C184.93 12.7884 184.869 12.8317 184.819 12.8317C184.77 12.8317 184.684 12.8998 184.634 12.9864C184.585 13.073 184.499 13.1411 184.45 13.1411C184.4 13.1411 184.357 13.1782 184.357 13.2153C184.357 13.2586 184.29 13.37 184.216 13.4566C184.142 13.5433 184.019 13.6361 183.945 13.6547C183.865 13.6794 183.778 13.7537 183.741 13.8217C183.704 13.8898 183.655 13.9455 183.618 13.9455C183.581 13.9455 183.507 13.9888 183.452 14.0383C183.39 14.0878 183.218 14.2363 183.07 14.36C182.922 14.49 182.75 14.6447 182.688 14.7004C182.62 14.7622 182.546 14.8117 182.509 14.8117C182.472 14.8117 182.448 14.8427 182.448 14.8736C182.448 14.9046 182.374 14.9541 182.282 14.9726C182.183 14.9912 182.035 15.0964 181.949 15.2016C181.801 15.381 181.776 15.3934 181.678 15.3068C181.586 15.2263 181.567 15.2263 181.524 15.3068C181.487 15.3686 181.432 15.3872 181.345 15.3501C181.253 15.3191 181.167 15.3439 181.062 15.4305C180.976 15.4986 180.908 15.5976 180.908 15.6471C180.908 15.6966 180.859 15.7399 180.803 15.7399C180.699 15.7461 180.699 15.7461 180.803 15.8018C180.859 15.8389 180.908 15.9131 180.908 15.9688C180.908 16.0617 180.896 16.0678 180.853 15.9874C180.803 15.9131 180.76 15.9317 180.588 16.105C180.428 16.272 180.378 16.2968 180.372 16.2163C180.36 16.1607 180.311 16.1112 180.261 16.1112C180.206 16.1112 180.163 16.1792 180.157 16.2782C180.144 16.3834 180.101 16.4515 180.046 16.4515C179.99 16.4515 179.867 16.5134 179.768 16.5876C179.664 16.668 179.541 16.767 179.491 16.8165C179.442 16.8599 179.307 16.9155 179.202 16.9403C179.079 16.965 178.999 17.0146 178.999 17.0702C178.999 17.1197 178.955 17.1631 178.906 17.1631C178.851 17.1631 178.826 17.2002 178.845 17.2559C178.863 17.3116 178.838 17.3487 178.783 17.3487C178.734 17.3487 178.691 17.3796 178.691 17.4106C178.691 17.4415 178.666 17.4601 178.629 17.4415C178.592 17.4229 178.567 17.4477 178.567 17.4848C178.567 17.5281 178.506 17.6086 178.432 17.6581C178.352 17.7076 178.272 17.7385 178.247 17.7323C178.216 17.7261 178.142 17.8066 178.075 17.9056C178.007 18.0046 177.908 18.0912 177.859 18.0912C177.81 18.0912 177.767 18.1407 177.767 18.1964C177.767 18.2583 177.711 18.3696 177.643 18.4439C177.545 18.5615 177.483 18.58 177.323 18.5367C177.145 18.4996 177.132 18.5058 177.169 18.6295C177.194 18.71 177.175 18.8275 177.138 18.8894C177.077 18.9884 177.034 19.0008 176.935 18.9451C176.843 18.9018 176.8 18.9018 176.769 18.9699C176.744 19.0132 176.713 19.0317 176.695 19.0008C176.676 18.976 176.621 18.9946 176.572 19.0317C176.522 19.075 176.498 19.1245 176.51 19.1431C176.522 19.1617 176.467 19.2483 176.381 19.3411C176.295 19.4401 176.227 19.5577 176.227 19.6072C176.227 19.6567 176.134 19.7804 176.03 19.8856C175.919 19.9846 175.802 20.0713 175.765 20.0713C175.728 20.0713 175.636 20.1393 175.549 20.2259C175.463 20.3126 175.358 20.3806 175.321 20.3806C175.278 20.3806 175.223 20.4301 175.198 20.4858C175.174 20.5477 175.1 20.6467 175.032 20.7086C174.958 20.7705 174.853 20.8138 174.798 20.8138C174.736 20.8138 174.687 20.8447 174.687 20.8756C174.687 20.9066 174.625 20.9375 174.551 20.9313C174.471 20.9251 174.373 20.9251 174.336 20.9313C174.293 20.9375 174.256 20.9808 174.256 21.0303C174.256 21.0798 174.207 21.1479 174.151 21.1788C174.089 21.2036 173.979 21.3335 173.905 21.4573C173.825 21.581 173.689 21.7172 173.597 21.7543C173.511 21.7976 173.357 21.909 173.258 22.0018C173.166 22.1008 173.061 22.1627 173.024 22.1441C172.987 22.1256 172.87 22.1998 172.765 22.305C172.574 22.4906 172.556 22.4968 172.482 22.3854C172.439 22.3174 172.408 22.2988 172.408 22.3298C172.408 22.3607 172.377 22.3483 172.34 22.2988C172.291 22.2246 172.279 22.2431 172.297 22.3731C172.309 22.4659 172.291 22.5463 172.254 22.5463C172.217 22.5401 172.211 22.5587 172.242 22.5773C172.266 22.5958 172.236 22.6577 172.18 22.7196C172.094 22.8062 172.032 22.8186 171.903 22.7814C171.755 22.7381 171.706 22.7567 171.57 22.93C171.478 23.0413 171.386 23.1341 171.367 23.1341C171.349 23.1341 171.336 23.1527 171.349 23.1775C171.355 23.2084 171.305 23.2826 171.238 23.3507C171.17 23.4188 171.096 23.4745 171.071 23.4745C171.041 23.4745 170.887 23.5735 170.714 23.7034C170.548 23.8272 170.351 23.9819 170.283 24.0437C170.215 24.1056 170.123 24.1551 170.086 24.1551C170.043 24.1551 170 24.1242 169.993 24.0932C169.981 24.0561 169.92 24.0685 169.839 24.1242C169.745 24.186 169.708 24.2582 169.729 24.3407C169.747 24.415 169.722 24.4769 169.667 24.4954C169.618 24.514 169.562 24.5821 169.544 24.6501C169.525 24.7182 169.476 24.7739 169.439 24.7739C169.396 24.7739 169.26 24.8729 169.143 24.9904C169.026 25.108 168.866 25.2132 168.786 25.2194C168.712 25.2318 168.651 25.2751 168.651 25.3122C168.651 25.3555 168.571 25.4793 168.466 25.5783C168.367 25.6773 168.3 25.7763 168.33 25.7948C168.355 25.8134 168.33 25.8258 168.281 25.8258C168.232 25.8258 168.152 25.8815 168.115 25.9495C168.072 26.0176 167.992 26.0733 167.942 26.0733C167.893 26.0733 167.85 26.1042 167.85 26.1352C167.85 26.1661 167.813 26.1785 167.776 26.1475C167.723 26.1187 167.712 26.129 167.745 26.1785C167.77 26.228 167.751 26.2713 167.696 26.2899C167.647 26.3084 167.604 26.3765 167.604 26.4445C167.604 26.5126 167.579 26.5559 167.542 26.5374C167.505 26.5188 167.48 26.5497 167.48 26.5992C167.48 26.6487 167.425 26.7044 167.357 26.723C167.289 26.7416 167.166 26.822 167.08 26.9086C167 26.9952 166.895 27.0633 166.852 27.0633C166.809 27.0633 166.71 27.1437 166.637 27.2489C166.557 27.3479 166.495 27.4469 166.495 27.4655C166.495 27.4841 166.458 27.5336 166.421 27.5769C166.378 27.6202 166.292 27.6759 166.236 27.7006C166.175 27.7254 166.125 27.7192 166.125 27.6821C166.125 27.6511 166.101 27.6326 166.064 27.6511C166.027 27.6697 166.021 27.744 166.039 27.8182C166.064 27.9234 166.033 27.9853 165.928 28.0533C165.848 28.1028 165.78 28.14 165.774 28.1276C165.762 28.1214 165.688 28.1895 165.602 28.2823C165.516 28.3813 165.399 28.505 165.337 28.5607C165.281 28.6226 165.214 28.6535 165.189 28.6412C165.158 28.6226 165.072 28.6968 164.986 28.7959C164.9 28.8949 164.82 28.9629 164.801 28.932C164.783 28.9072 164.77 28.9196 164.77 28.9505C164.77 28.9815 164.69 29.0557 164.585 29.1052C164.481 29.1547 164.395 29.2166 164.401 29.2414C164.401 29.2723 164.376 29.2909 164.339 29.2909C164.302 29.2909 164.191 29.3651 164.087 29.4579C163.982 29.5569 163.846 29.6807 163.791 29.7426C163.735 29.7983 163.649 29.8478 163.6 29.8478C163.551 29.8478 163.44 29.9158 163.354 30.0024C163.267 30.0891 163.181 30.1571 163.156 30.1571C163.126 30.1571 163.052 30.2128 162.984 30.2809C162.916 30.349 162.781 30.4046 162.676 30.4046C162.578 30.4046 162.497 30.4232 162.497 30.448C162.504 30.4789 162.504 30.5408 162.504 30.5903C162.497 30.6707 162.485 30.6707 162.399 30.5903C162.331 30.5222 162.3 30.5222 162.306 30.5717C162.306 30.615 162.27 30.6955 162.22 30.745C162.171 30.7945 162.103 30.8378 162.066 30.8378C162.029 30.8378 161.9 30.9306 161.783 31.0358C161.666 31.1472 161.574 31.2276 161.574 31.209C161.574 31.1905 161.537 31.2152 161.493 31.2524C161.45 31.2957 161.395 31.3142 161.37 31.2833C161.346 31.2585 161.309 31.2895 161.29 31.3452C161.272 31.407 161.222 31.4565 161.185 31.4565C161.142 31.4565 161.038 31.5122 160.951 31.5803C160.865 31.6546 160.711 31.7041 160.6 31.7041C160.44 31.7041 160.397 31.7288 160.397 31.8278C160.397 31.8959 160.292 32.032 160.169 32.1372C160.04 32.2424 159.91 32.3228 159.874 32.3228C159.837 32.3228 159.738 32.3909 159.646 32.4775C159.547 32.5641 159.485 32.6508 159.504 32.6755C159.516 32.7065 159.473 32.7745 159.393 32.8364C159.319 32.8983 159.208 32.9292 159.153 32.9106C159.091 32.8921 159.042 32.9106 159.042 32.9416C159.042 32.9725 158.98 33.022 158.906 33.0406C158.826 33.0653 158.759 33.0777 158.753 33.0715C158.74 33.0715 158.666 33.1272 158.58 33.2015C158.494 33.2819 158.408 33.4304 158.389 33.5294C158.364 33.6346 158.241 33.814 158.093 33.9502C157.958 34.0739 157.804 34.1791 157.767 34.1791C157.724 34.1791 157.65 34.1853 157.613 34.1915C157.57 34.2039 157.527 34.2472 157.521 34.2843C157.508 34.3276 157.502 34.3833 157.502 34.4081C157.502 34.439 157.471 34.4142 157.441 34.3647C157.385 34.2843 157.367 34.2905 157.287 34.3957C157.231 34.4699 157.213 34.5689 157.231 34.6432C157.268 34.7422 157.256 34.7546 157.188 34.6927C157.12 34.637 157.077 34.6679 156.979 34.8659C156.911 35.0021 156.837 35.1073 156.812 35.1073C156.788 35.1073 156.695 35.1753 156.609 35.262C156.523 35.3486 156.455 35.4352 156.455 35.46C156.455 35.4909 156.332 35.5466 156.178 35.5837C155.962 35.6456 155.907 35.6889 155.931 35.7693C155.944 35.8374 155.895 35.9364 155.808 36.0168C155.722 36.0973 155.642 36.1406 155.624 36.1097C155.605 36.0849 155.513 36.1282 155.42 36.2025C155.303 36.2953 155.211 36.32 155.112 36.2953C154.995 36.2582 154.958 36.2829 154.927 36.3943C154.903 36.4747 154.835 36.549 154.78 36.5614C154.718 36.5799 154.595 36.6604 154.502 36.747C154.404 36.8336 154.281 36.9079 154.225 36.9017C154.164 36.9017 154.096 36.9388 154.077 36.9759C154.047 37.0378 154.022 37.0316 153.985 36.9636C153.942 36.8893 153.93 36.9017 153.93 37.0069C153.93 37.1059 153.862 37.1925 153.714 37.2729C153.597 37.341 153.499 37.4276 153.499 37.4586C153.499 37.4895 153.462 37.5205 153.425 37.5205C153.381 37.5205 153.277 37.5885 153.191 37.669C153.104 37.7556 153 37.8113 152.963 37.7927C152.92 37.7803 152.883 37.7989 152.883 37.8298C152.883 37.8608 152.846 37.8917 152.809 37.8917C152.766 37.8917 152.593 38.0216 152.421 38.1763C152.254 38.3248 152.063 38.4548 152.008 38.4486C151.946 38.4486 151.909 38.4795 151.928 38.5105C151.946 38.5414 151.885 38.628 151.792 38.6961C151.694 38.7704 151.583 38.826 151.546 38.8199C151.503 38.8199 151.454 38.8755 151.435 38.9436C151.417 39.0117 151.355 39.0674 151.3 39.0674C151.238 39.0674 151.152 39.1354 151.115 39.2221C151.072 39.3087 151.01 39.3767 150.973 39.3767C150.936 39.3767 150.85 39.4448 150.776 39.5253C150.696 39.6119 150.585 39.6861 150.517 39.6985C150.456 39.7109 150.283 39.8346 150.135 39.9769C149.975 40.1316 149.827 40.2306 149.772 40.2121C149.723 40.1935 149.68 40.2121 149.68 40.243C149.68 40.274 149.643 40.3049 149.606 40.3049C149.563 40.3049 149.476 40.3544 149.415 40.4163C149.353 40.472 149.304 40.5648 149.304 40.6143C149.304 40.6638 149.181 40.7813 149.033 40.8742C148.879 40.9732 148.706 41.134 148.651 41.233C148.589 41.3382 148.522 41.4001 148.491 41.3754C148.466 41.3444 148.448 41.363 148.448 41.4001C148.448 41.4434 148.405 41.4682 148.355 41.4496C148.306 41.4311 148.263 41.4496 148.263 41.4806C148.263 41.5115 148.22 41.5857 148.171 41.6352C148.121 41.6847 148.078 41.7095 148.078 41.6786C148.078 41.6538 148.029 41.7033 147.973 41.7837C147.893 41.8889 147.826 41.9137 147.727 41.8889C147.629 41.8642 147.567 41.8827 147.53 41.957C147.505 42.0189 147.487 42.1055 147.499 42.1426C147.512 42.1859 147.468 42.2354 147.401 42.254C147.333 42.2726 147.277 42.3159 147.277 42.3468C147.277 42.3778 147.228 42.4273 147.173 42.452C147.111 42.4768 146.988 42.5696 146.902 42.6562C146.816 42.7428 146.674 42.8666 146.594 42.9347C146.514 42.9965 146.44 43.0398 146.434 43.0275C146.427 43.0089 146.366 43.046 146.292 43.1017C146.224 43.1636 146.156 43.2131 146.138 43.2131C146.119 43.2131 145.99 43.2935 145.848 43.3925C145.701 43.4915 145.54 43.5534 145.491 43.5349C145.442 43.5163 145.417 43.5287 145.442 43.5596C145.467 43.5905 145.423 43.6772 145.337 43.7514C145.251 43.8319 145.146 43.8937 145.109 43.8937C145.066 43.8876 144.949 43.9556 144.844 44.0299C144.746 44.1103 144.635 44.1722 144.598 44.1784C144.567 44.1846 144.5 44.1907 144.463 44.1907C144.419 44.1969 144.383 44.2526 144.383 44.3083C144.383 44.3702 144.37 44.4011 144.352 44.3702C144.333 44.3454 144.272 44.3702 144.216 44.4259C144.155 44.4816 144.056 44.5063 144.001 44.4878C143.939 44.4692 143.89 44.4816 143.89 44.5125C143.89 44.5434 143.871 44.5682 143.847 44.5682C143.816 44.562 143.754 44.562 143.705 44.5682C143.656 44.5682 143.545 44.6301 143.459 44.6981C143.372 44.7662 143.323 44.8405 143.348 44.8714C143.372 44.8961 143.366 44.9642 143.335 45.0199C143.298 45.0818 143.218 45.1313 143.151 45.1313C143.083 45.1313 143.015 45.1746 142.997 45.2241C142.978 45.2736 142.941 45.3045 142.904 45.286C142.867 45.2674 142.83 45.286 142.812 45.3169C142.793 45.3478 142.738 45.3664 142.689 45.3478C142.639 45.3293 142.596 45.3478 142.596 45.3788C142.596 45.4097 142.522 45.5211 142.43 45.6139C142.331 45.7129 142.208 45.8057 142.153 45.8305C142.085 45.8552 142.042 45.8428 142.042 45.7934C142.042 45.7562 142.005 45.7872 141.962 45.8614C141.925 45.9419 141.808 46.0532 141.703 46.1089C141.605 46.1708 141.5 46.245 141.475 46.276C141.444 46.3131 141.401 46.3007 141.358 46.245C141.309 46.1708 141.303 46.1832 141.327 46.2884C141.358 46.3997 141.327 46.4431 141.198 46.4987C141.1 46.5297 140.97 46.5482 140.902 46.5297C140.798 46.4987 140.785 46.5173 140.81 46.672C140.829 46.771 140.835 46.8391 140.829 46.8267C140.816 46.8143 140.705 46.9009 140.582 47.0185C140.428 47.1608 140.33 47.2103 140.286 47.1732C140.25 47.1361 140.188 47.1113 140.151 47.1113C140.108 47.1113 140.077 47.1608 140.077 47.2165C140.083 47.2784 140.083 47.365 140.077 47.4021C140.071 47.4578 139.997 47.4702 139.843 47.4516C139.714 47.4331 139.646 47.4331 139.689 47.4516C139.738 47.4702 139.701 47.5445 139.584 47.6682C139.486 47.7734 139.381 47.8538 139.35 47.8538C139.326 47.8538 139.264 47.9095 139.227 47.9776C139.184 48.0457 139.159 48.1447 139.178 48.1942C139.196 48.256 139.172 48.287 139.104 48.287C139.042 48.287 138.882 48.3984 138.747 48.5345C138.611 48.6706 138.439 48.7944 138.365 48.8129C138.279 48.8315 138.18 48.9367 138.118 49.0666C138.044 49.2151 137.952 49.3018 137.835 49.3327C137.743 49.3513 137.669 49.3822 137.669 49.4008C137.669 49.4193 137.607 49.4379 137.533 49.4503C137.453 49.4564 137.355 49.4998 137.311 49.5431C137.268 49.5802 137.25 49.6668 137.268 49.7225C137.287 49.7968 137.256 49.8586 137.176 49.8958C137.09 49.9391 137.065 49.9886 137.102 50.0566C137.133 50.1309 137.121 50.1556 137.053 50.1433C137.004 50.1371 136.911 50.1309 136.856 50.1371C136.788 50.1433 136.757 50.1804 136.776 50.2361C136.794 50.298 136.776 50.3165 136.733 50.2918C136.689 50.267 136.579 50.3413 136.486 50.4465C136.388 50.5578 136.277 50.6259 136.221 50.6073C136.172 50.5888 136.129 50.6135 136.129 50.6507C136.135 50.694 136.098 50.7682 136.055 50.8115C136.012 50.8487 135.926 50.892 135.87 50.9044C135.815 50.9105 135.692 50.991 135.593 51.0776C135.501 51.1642 135.242 51.3684 135.02 51.5231C134.798 51.684 134.583 51.8078 134.546 51.8139C134.503 51.8139 134.447 51.8511 134.423 51.9006C134.392 51.9501 134.275 52.0553 134.158 52.1419C134.041 52.2223 133.881 52.309 133.807 52.3275C133.727 52.3523 133.61 52.4389 133.542 52.5255C133.437 52.6555 133.388 52.674 133.222 52.6369C133.049 52.606 133.025 52.6121 133.068 52.6988C133.098 52.7792 133.068 52.8225 132.926 52.8782C132.821 52.9215 132.741 52.9772 132.741 53.002C132.741 53.0329 132.735 53.0762 132.729 53.101C132.717 53.1319 132.661 53.2 132.606 53.2557C132.544 53.3175 132.464 53.3423 132.421 53.3114C132.372 53.2866 132.359 53.2928 132.384 53.3299C132.409 53.3609 132.402 53.4351 132.365 53.4846C132.329 53.5465 132.31 53.5506 132.31 53.497C132.31 53.4599 132.242 53.4908 132.156 53.5774C132.076 53.6641 131.971 53.7321 131.928 53.7321C131.885 53.7321 131.805 53.7878 131.756 53.8559C131.706 53.9239 131.626 53.9796 131.589 53.9796C131.546 53.9796 131.509 54.0106 131.509 54.0415C131.509 54.0724 131.454 54.1157 131.386 54.1343C131.318 54.1529 131.263 54.2086 131.263 54.2581C131.263 54.3076 131.226 54.3447 131.189 54.3385C131.146 54.3385 131.035 54.3633 130.943 54.4004C130.838 54.4499 130.77 54.5241 130.77 54.5984C130.77 54.6665 130.727 54.7221 130.678 54.7221C130.628 54.7221 130.585 54.7531 130.585 54.784C130.585 54.815 130.542 54.8459 130.493 54.8459C130.444 54.8459 130.388 54.914 130.37 55.0006C130.351 55.0872 130.29 55.1676 130.234 55.1862C130.173 55.1986 129.932 55.3904 129.692 55.6132C129.458 55.8297 129.218 56.0463 129.169 56.0958C129.113 56.1391 128.972 56.2691 128.842 56.3742C128.688 56.5166 128.584 56.5661 128.516 56.5289C128.454 56.5042 128.399 56.5228 128.362 56.5784C128.331 56.6279 128.306 56.7269 128.306 56.795C128.3 56.8631 128.226 56.9806 128.134 57.0549C128.042 57.1291 127.955 57.1786 127.937 57.1663C127.918 57.1477 127.727 57.3024 127.506 57.5066C127.284 57.7108 127.087 57.8593 127.062 57.8469C127.031 57.8283 126.976 57.8593 126.939 57.915C126.89 57.9768 126.81 57.9954 126.723 57.9768C126.619 57.9459 126.569 57.9707 126.539 58.0635C126.508 58.1377 126.452 58.1749 126.415 58.1563C126.372 58.1377 126.335 58.1687 126.335 58.2182C126.335 58.2677 126.28 58.3234 126.212 58.3419C126.144 58.3605 126.089 58.4038 126.089 58.4347C126.089 58.4657 126.009 58.509 125.904 58.5276C125.806 58.5461 125.732 58.5894 125.75 58.6204C125.769 58.6513 125.726 58.7379 125.658 58.806C125.584 58.8802 125.535 58.8988 125.535 58.8493C125.535 58.8122 125.485 58.8369 125.424 58.9112C125.368 58.9854 125.245 59.0597 125.153 59.0783C125.054 59.0968 124.98 59.1463 124.98 59.1773C124.98 59.2082 124.962 59.2329 124.937 59.2268C124.906 59.2206 124.808 59.2886 124.703 59.3814C124.574 59.499 124.481 59.5423 124.395 59.5114C124.29 59.4804 124.284 59.4866 124.352 59.5547C124.395 59.6042 124.426 59.6785 124.426 59.7156C124.426 59.7589 124.389 59.7836 124.352 59.7713C124.309 59.7589 124.278 59.7094 124.29 59.6661C124.303 59.6166 124.223 59.6785 124.124 59.796C124.019 59.9136 123.933 60.025 123.933 60.0435C123.933 60.0621 123.816 60.1302 123.674 60.192C123.527 60.2601 123.36 60.3653 123.305 60.4272C123.231 60.5014 123.157 60.52 123.089 60.489C123.003 60.4519 122.991 60.4705 123.028 60.5695C123.065 60.6623 123.028 60.7304 122.898 60.8479C122.812 60.9294 122.665 61.0491 122.566 61.13L122.547 61.1449C122.399 61.2563 122.344 61.2687 122.282 61.2068C122.221 61.1387 122.202 61.1511 122.202 61.2501C122.202 61.3182 122.165 61.4296 122.116 61.4976C122.042 61.5904 121.981 61.609 121.851 61.5781C121.703 61.5471 121.685 61.5533 121.703 61.6894C121.716 61.807 121.679 61.8441 121.525 61.8813C121.42 61.9122 121.303 61.9679 121.26 62.0112C121.223 62.0545 121.155 62.0916 121.118 62.0855C121.075 62.0855 121.051 62.1164 121.069 62.1473C121.088 62.1783 121.075 62.2092 121.038 62.2092C121.001 62.2092 120.977 62.2525 120.977 62.302C120.977 62.3639 120.936 62.3845 120.853 62.3639C120.786 62.3453 120.675 62.3453 120.607 62.3639C120.539 62.3825 120.496 62.4258 120.515 62.4567C120.533 62.4876 120.521 62.531 120.484 62.5495C120.447 62.5681 120.422 62.6362 120.422 62.7042C120.422 62.7723 120.379 62.8403 120.33 62.8589C120.281 62.8775 120.238 62.9332 120.238 62.9827C120.238 63.0322 120.157 63.094 120.053 63.1188C119.948 63.1497 119.868 63.1807 119.868 63.1992C119.868 63.2178 119.788 63.3292 119.689 63.4467C119.585 63.5643 119.498 63.6262 119.498 63.5829C119.498 63.5457 119.474 63.521 119.437 63.5396C119.4 63.5581 119.388 63.6014 119.406 63.6324C119.424 63.6633 119.357 63.7747 119.252 63.8799C119.129 64.0036 119.036 64.0531 118.969 64.016C118.913 63.9913 118.852 64.0036 118.833 64.0346C118.809 64.0655 118.728 64.1521 118.648 64.2202C118.525 64.3254 118.494 64.3316 118.445 64.2511C118.396 64.1707 118.384 64.1707 118.334 64.2511C118.303 64.3006 118.291 64.3811 118.303 64.4182C118.316 64.4615 118.303 64.511 118.267 64.5296C118.23 64.5481 118.205 64.5296 118.205 64.4986C118.205 64.4677 118.162 64.4368 118.106 64.4368C118.057 64.4368 117.971 64.4801 117.922 64.5296C117.872 64.5791 117.835 64.6657 117.835 64.7152C117.835 64.7647 117.743 64.8947 117.638 64.9998C117.527 65.0988 117.343 65.2288 117.238 65.2783C117.127 65.3278 116.973 65.4206 116.899 65.4949C116.819 65.5629 116.714 65.6062 116.653 65.5877C116.579 65.5629 116.511 65.6 116.456 65.6867C116.369 65.829 116.369 65.829 116.308 65.7052C116.252 65.5939 116.246 65.6 116.209 65.7795C116.191 65.8909 116.129 65.9961 116.08 66.0146C116.031 66.0332 115.963 66.0332 115.926 66.0146C115.889 65.9961 115.852 66.0332 115.834 66.0889C115.815 66.1507 115.692 66.2374 115.556 66.2745C115.421 66.3178 115.31 66.3859 115.31 66.4168C115.31 66.4478 115.267 66.4787 115.218 66.4787C115.168 66.4787 115.119 66.5034 115.113 66.5344C115.101 66.5653 115.051 66.6024 115.002 66.6148C114.953 66.6272 114.873 66.6829 114.836 66.7386C114.793 66.8004 114.731 66.85 114.694 66.85C114.657 66.85 114.645 66.819 114.663 66.7881C114.682 66.7571 114.676 66.7262 114.651 66.7262C114.62 66.72 114.491 66.85 114.355 66.9985C114.22 67.1531 114.06 67.2831 114.004 67.2831C113.943 67.2831 113.893 67.2521 113.893 67.2212C113.893 67.1903 113.85 67.1717 113.801 67.1903C113.745 67.2088 113.721 67.2645 113.739 67.3264C113.764 67.4007 113.719 67.477 113.604 67.5553C113.511 67.6234 113.37 67.6729 113.296 67.6667C113.197 67.6605 113.136 67.7038 113.093 67.809C113.056 67.908 112.994 67.9514 112.939 67.9328C112.889 67.9142 112.828 67.9513 112.803 68.007C112.778 68.0689 112.723 68.1555 112.68 68.1927C112.618 68.2607 112.581 68.2545 112.507 68.1803C112.458 68.1308 112.403 68.0875 112.384 68.0875C112.366 68.0875 112.366 68.1617 112.384 68.2545C112.409 68.3721 112.384 68.4587 112.31 68.5268C112.243 68.5949 112.162 68.6134 112.107 68.5825C112.058 68.5516 111.978 68.5516 111.935 68.5701C111.891 68.5949 111.867 68.6444 111.885 68.6753C111.898 68.7063 111.861 68.7867 111.793 68.8424C111.731 68.9043 111.62 68.9599 111.553 68.9661C111.485 68.9785 111.43 68.9971 111.43 69.0156C111.436 69.0342 111.349 69.0899 111.245 69.1394C111.109 69.2074 111.066 69.2631 111.091 69.3374C111.115 69.424 111.066 69.4611 110.875 69.5106C110.746 69.5416 110.598 69.6282 110.555 69.6963C110.512 69.7643 110.456 69.82 110.432 69.82C110.401 69.82 110.395 69.7891 110.413 69.7581C110.432 69.7272 110.401 69.7086 110.352 69.7272C110.278 69.752 110.272 69.7767 110.339 69.851C110.401 69.9314 110.395 69.95 110.29 69.95C110.222 69.95 110.05 70.0737 109.908 70.2408C109.76 70.4017 109.643 70.5625 109.643 70.5935C109.643 70.6244 109.52 70.7358 109.366 70.841C109.218 70.9462 109.089 71.0452 109.089 71.0699C109.089 71.1009 109.015 71.138 108.923 71.1627C108.824 71.1813 108.726 71.1937 108.689 71.1875C108.652 71.1751 108.645 71.1937 108.676 71.2246C108.701 71.2494 108.658 71.336 108.584 71.4164C108.504 71.4907 108.418 71.5526 108.381 71.5526C108.344 71.5526 108.276 71.6083 108.227 71.6763C108.177 71.7444 108.097 71.8001 108.06 71.8001C108.017 71.8001 107.943 71.8558 107.906 71.9238C107.863 71.9919 107.789 72.0476 107.752 72.0476C107.709 72.0476 107.672 72.0661 107.672 72.0909C107.672 72.1218 107.586 72.1961 107.475 72.258C107.364 72.326 107.223 72.425 107.167 72.4931C107.106 72.555 107.001 72.6045 106.933 72.6045C106.865 72.6045 106.798 72.6478 106.779 72.6973C106.761 72.753 106.705 72.7777 106.644 72.753C106.564 72.7282 106.508 72.7654 106.459 72.8767C106.416 72.9634 106.33 73.0562 106.274 73.0809C106.212 73.1057 106.095 73.1861 106.009 73.2665C105.923 73.347 105.837 73.4089 105.812 73.4089C105.781 73.4089 105.763 73.4522 105.763 73.5017C105.763 73.5512 105.683 73.6378 105.578 73.6873C105.461 73.743 105.381 73.7554 105.362 73.7183C105.344 73.6873 105.307 73.6687 105.27 73.6873C105.233 73.7059 105.221 73.7678 105.239 73.8234C105.252 73.8853 105.245 73.9658 105.221 73.9967C105.196 74.0276 105.073 74.1081 104.95 74.1638C104.728 74.2689 104.716 74.2689 104.679 74.1638C104.648 74.0771 104.636 74.0709 104.599 74.1514C104.58 74.2009 104.512 74.3123 104.457 74.3989C104.395 74.4855 104.34 74.7145 104.322 74.9248C104.309 75.16 104.328 75.3704 104.383 75.4941C104.432 75.6055 104.512 75.7107 104.562 75.7292C104.611 75.7478 104.697 75.9149 104.747 76.1005C104.814 76.3418 104.82 76.4779 104.777 76.5646C104.74 76.6326 104.716 76.7316 104.716 76.7811C104.716 76.8492 104.753 76.8616 104.857 76.8368C104.968 76.8059 104.981 76.8121 104.913 76.8801C104.87 76.9296 104.839 77.0039 104.839 77.041C104.839 77.0843 104.882 77.1215 104.931 77.1215C104.981 77.1215 105.048 77.1772 105.085 77.2452C105.141 77.3566 105.128 77.369 104.981 77.3442C104.833 77.3257 104.82 77.3318 104.913 77.3875C104.974 77.4308 105.011 77.4803 104.993 77.5051C104.974 77.536 105.011 77.6289 105.073 77.7155C105.172 77.8702 105.172 77.8825 105.073 77.963C105.011 78.0125 104.987 78.062 105.024 78.0805C105.061 78.0991 105.073 78.1424 105.055 78.1734C105.036 78.2043 105.067 78.2476 105.116 78.2662C105.165 78.2847 105.233 78.3528 105.27 78.4209C105.313 78.5137 105.307 78.5694 105.239 78.6374C105.159 78.7179 105.159 78.7364 105.239 78.7612C105.313 78.7859 105.319 78.8478 105.289 79.0706C105.252 79.281 105.258 79.349 105.319 79.349C105.356 79.349 105.381 79.3181 105.362 79.2871C105.344 79.2562 105.356 79.2253 105.393 79.2253C105.43 79.2253 105.449 79.281 105.443 79.349C105.43 79.4171 105.387 79.4851 105.35 79.5037C105.307 79.5223 105.282 79.5656 105.301 79.5965C105.319 79.6275 105.375 79.646 105.424 79.6275C105.473 79.6089 105.516 79.6151 105.523 79.6398C105.523 79.6708 105.535 79.7327 105.553 79.7822C105.566 79.8317 105.603 80.0111 105.64 80.1844C105.67 80.3514 105.738 80.5556 105.775 80.6361C105.837 80.7474 105.837 80.8031 105.787 80.8836C105.732 80.964 105.732 81.0754 105.8 81.36C105.849 81.5642 105.874 81.8241 105.855 81.9293C105.831 82.084 105.849 82.1335 105.917 82.1335C105.972 82.1335 106.015 82.2015 106.034 82.3005C106.046 82.3995 106.077 82.5295 106.108 82.5975C106.151 82.7027 106.145 82.7151 106.052 82.6718C105.972 82.6408 105.954 82.6532 105.991 82.7337C106.009 82.7955 106.077 82.9131 106.126 82.9997C106.182 83.0802 106.225 83.1544 106.225 83.1606C106.225 83.1606 106.188 83.2101 106.151 83.2658C106.083 83.3524 106.089 83.4081 106.163 83.5566C106.237 83.6989 106.237 83.7484 106.182 83.767C106.132 83.7856 106.163 83.8474 106.268 83.9403C106.391 84.0454 106.447 84.1754 106.496 84.4538C106.527 84.658 106.607 85.0602 106.668 85.3511C106.73 85.6419 106.773 85.9389 106.767 86.0131C106.755 86.0936 106.724 86.1431 106.687 86.1245C106.65 86.1059 106.625 86.1121 106.625 86.1369C106.625 86.1678 106.699 86.2483 106.779 86.3225C106.865 86.4029 106.939 86.5267 106.945 86.601C106.945 86.6814 106.958 86.8113 106.97 86.898C106.976 86.9846 107.001 87.1145 107.019 87.1888C107.05 87.294 107.032 87.3311 106.952 87.3311C106.865 87.3373 106.878 87.362 107.013 87.4548C107.118 87.5353 107.18 87.6343 107.18 87.7333C107.18 87.8199 107.204 87.9437 107.241 88.0117C107.278 88.0798 107.315 88.2531 107.327 88.3954C107.34 88.5439 107.37 88.7171 107.395 88.7852C107.42 88.8533 107.463 88.977 107.487 89.0636C107.518 89.1503 107.561 89.3854 107.586 89.5896C107.611 89.7938 107.666 90.0351 107.709 90.1279C107.777 90.264 107.777 90.3074 107.722 90.3321C107.678 90.3507 107.641 90.4064 107.641 90.4559C107.641 90.5054 107.66 90.5487 107.691 90.5487C107.715 90.5487 107.722 90.5672 107.703 90.592C107.691 90.6229 107.746 90.6848 107.832 90.7343C107.925 90.79 108.036 90.9571 108.103 91.1489C108.171 91.3283 108.245 91.5696 108.264 91.6748C108.282 91.7862 108.301 91.9657 108.307 92.0708C108.313 92.176 108.356 92.306 108.399 92.3617C108.436 92.4174 108.461 92.504 108.448 92.5411C108.436 92.5844 108.461 92.6772 108.504 92.7453C108.561 92.8278 108.572 92.9206 108.535 93.0238C108.504 93.1227 108.516 93.2465 108.559 93.3641C108.602 93.4693 108.689 93.6858 108.744 93.8591C108.806 94.0261 108.861 94.2551 108.867 94.3665C108.867 94.4778 108.916 94.614 108.966 94.6758C109.015 94.7377 109.064 94.8553 109.07 94.9419C109.077 95.0285 109.095 95.1585 109.101 95.2389C109.114 95.3132 109.151 95.3998 109.194 95.4246C109.237 95.4493 109.372 95.8453 109.489 96.3032C109.613 96.7611 109.717 97.1818 109.717 97.2313C109.717 97.2809 109.754 97.4294 109.803 97.5531C109.853 97.683 109.877 97.8192 109.859 97.8501C109.84 97.8811 109.884 97.9615 109.945 98.0172C110.013 98.0791 110.111 98.2585 110.161 98.4194C110.216 98.5864 110.259 98.7721 110.259 98.8401C110.259 98.9082 110.216 98.9639 110.167 98.9639C110.118 98.9639 110.074 98.9948 110.074 99.0258C110.074 99.0567 110.111 99.0691 110.155 99.0505C110.191 99.032 110.259 99.0567 110.296 99.1C110.333 99.1433 110.389 99.2918 110.413 99.428C110.444 99.5641 110.475 99.7435 110.481 99.8302C110.487 99.9168 110.555 100.195 110.623 100.449C110.727 100.826 110.734 100.925 110.666 100.975C110.623 101.006 110.598 101.074 110.61 101.111C110.616 101.154 110.672 101.191 110.721 101.191C110.77 101.191 110.826 101.235 110.844 101.284C110.863 101.334 110.875 101.445 110.875 101.532C110.875 101.618 110.9 101.699 110.937 101.717C110.974 101.736 110.992 101.798 110.986 101.854C110.986 101.915 110.998 102.008 111.017 102.058C111.041 102.107 111.085 102.231 111.128 102.336C111.165 102.441 111.208 102.633 111.22 102.769C111.239 102.905 111.276 103.085 111.306 103.172C111.337 103.258 111.423 103.549 111.491 103.821C111.565 104.093 111.627 104.347 111.639 104.378C111.645 104.409 111.676 104.539 111.701 104.657C111.725 104.774 111.768 104.929 111.793 104.997C111.824 105.065 111.879 105.232 111.91 105.368C111.947 105.504 111.996 105.795 112.027 106.012C112.052 106.228 112.095 106.414 112.126 106.426C112.15 106.439 112.144 106.488 112.113 106.525C112.076 106.575 112.089 106.76 112.138 107.008C112.181 107.231 112.218 107.373 112.224 107.33C112.224 107.292 112.255 107.268 112.292 107.286C112.329 107.305 112.335 107.361 112.31 107.416C112.28 107.472 112.292 107.534 112.329 107.552C112.36 107.577 112.452 107.862 112.532 108.184C112.612 108.505 112.68 108.938 112.692 109.143C112.698 109.347 112.735 109.588 112.772 109.681C112.815 109.78 112.834 109.879 112.815 109.916C112.797 109.953 112.828 110.015 112.877 110.052C112.945 110.108 112.976 110.232 112.969 110.423C112.969 110.59 112.994 110.733 113.031 110.751C113.068 110.77 113.093 110.832 113.093 110.888C113.093 110.949 113.136 111.079 113.185 111.185C113.24 111.29 113.277 111.42 113.277 111.475C113.277 111.537 113.253 111.599 113.216 111.618C113.179 111.636 113.173 111.723 113.203 111.847C113.234 111.958 113.302 112.15 113.357 112.267C113.413 112.385 113.511 112.694 113.573 112.948C113.641 113.202 113.709 113.561 113.733 113.734C113.758 113.938 113.745 114.062 113.709 114.062C113.672 114.062 113.69 114.124 113.739 114.198C113.789 114.278 113.832 114.39 113.832 114.445C113.832 114.507 113.807 114.544 113.77 114.526C113.733 114.507 113.709 114.52 113.709 114.557C113.709 114.594 113.745 114.619 113.789 114.625C113.85 114.625 113.85 114.631 113.789 114.656C113.733 114.674 113.721 114.761 113.745 114.94C113.764 115.089 113.819 115.25 113.869 115.299C113.912 115.349 113.955 115.417 113.955 115.454C113.961 115.491 113.912 115.473 113.85 115.423C113.789 115.374 113.758 115.361 113.782 115.392C113.807 115.429 113.782 115.485 113.721 115.528C113.665 115.572 113.641 115.609 113.678 115.609C113.715 115.609 113.739 115.664 113.739 115.726C113.739 115.794 113.678 115.906 113.604 115.974C113.524 116.048 113.462 116.085 113.462 116.054C113.462 116.029 113.438 116.042 113.413 116.079C113.388 116.11 113.302 116.19 113.216 116.246C113.13 116.308 113.062 116.388 113.062 116.425C113.062 116.463 113.019 116.506 112.969 116.518C112.889 116.543 112.889 116.537 112.969 116.487C113.049 116.438 113.049 116.425 112.957 116.388C112.883 116.364 112.846 116.382 112.846 116.444C112.846 116.494 112.809 116.524 112.772 116.5C112.729 116.481 112.668 116.518 112.643 116.58C112.6 116.679 112.588 116.679 112.538 116.599C112.489 116.518 112.458 116.518 112.292 116.611C112.193 116.673 112.07 116.704 112.033 116.673C111.978 116.642 111.972 116.661 112.002 116.753C112.045 116.852 112.039 116.865 111.972 116.797C111.928 116.753 111.873 116.722 111.848 116.722C111.818 116.722 111.799 116.766 111.799 116.815C111.799 116.865 111.762 116.908 111.725 116.908C111.682 116.908 111.584 116.896 111.51 116.877C111.405 116.852 111.38 116.821 111.411 116.735C111.448 116.654 111.423 116.667 111.319 116.766C111.245 116.846 111.14 116.908 111.091 116.908C111.041 116.908 110.998 116.883 110.998 116.846C110.998 116.809 110.937 116.797 110.863 116.809C110.783 116.821 110.672 116.846 110.616 116.871C110.543 116.896 110.506 116.877 110.506 116.815C110.506 116.766 110.493 116.722 110.475 116.722C110.456 116.722 110.395 116.704 110.339 116.679C110.259 116.648 110.241 116.654 110.278 116.71C110.302 116.747 110.309 116.809 110.29 116.846C110.272 116.883 110.167 116.852 110.031 116.778C109.84 116.667 109.773 116.654 109.662 116.716C109.582 116.753 109.52 116.766 109.52 116.735C109.52 116.71 109.459 116.698 109.378 116.698C109.305 116.704 109.249 116.741 109.261 116.778C109.268 116.815 109.181 116.865 109.077 116.883C108.966 116.908 108.707 116.92 108.504 116.92C108.301 116.914 108.11 116.883 108.073 116.846C108.036 116.815 107.986 116.803 107.962 116.834C107.937 116.859 107.919 116.84 107.919 116.797C107.919 116.741 107.869 116.747 107.703 116.815C107.586 116.865 107.451 116.89 107.414 116.865C107.37 116.84 107.253 116.828 107.149 116.834C107.013 116.846 106.989 116.834 107.056 116.797C107.124 116.753 107.13 116.729 107.075 116.698C107.032 116.679 106.945 116.679 106.89 116.704C106.828 116.722 106.761 116.772 106.736 116.809C106.711 116.852 106.422 116.883 106.028 116.883C105.664 116.89 105.295 116.908 105.208 116.927C105.122 116.951 104.888 116.982 104.685 117.001C104.482 117.026 104.18 117.057 104.007 117.069C103.841 117.081 103.687 117.106 103.669 117.125C103.65 117.137 103.589 117.125 103.533 117.094C103.472 117.057 103.422 117.05 103.422 117.075C103.422 117.106 103.293 117.125 103.139 117.125C102.985 117.125 102.843 117.106 102.831 117.075C102.819 117.05 102.757 117.094 102.702 117.162C102.615 117.267 102.548 117.292 102.375 117.261C102.258 117.242 102.11 117.255 102.055 117.286C101.987 117.323 101.913 117.316 101.87 117.279C101.815 117.236 101.765 117.242 101.716 117.292C101.673 117.341 101.494 117.372 101.254 117.366C101.039 117.366 100.823 117.341 100.774 117.31C100.712 117.273 100.675 117.286 100.669 117.329C100.657 117.372 100.601 117.403 100.54 117.403C100.478 117.403 100.41 117.415 100.398 117.434C100.386 117.453 100.25 117.477 100.096 117.49C99.9422 117.502 99.782 117.496 99.7451 117.484C99.702 117.477 99.6773 117.44 99.6958 117.403C99.7143 117.366 99.6588 117.347 99.5726 117.354C99.4741 117.366 99.4309 117.403 99.4494 117.446C99.4679 117.49 99.4433 117.527 99.4063 117.533C99.3632 117.533 99.1907 117.539 99.0306 117.545C98.8643 117.552 98.7165 117.539 98.7041 117.508C98.6918 117.484 98.6364 117.477 98.5871 117.496C98.5378 117.515 98.4578 117.502 98.4208 117.465C98.3674 117.428 98.2956 117.438 98.2052 117.496C98.0882 117.57 98.0389 117.576 97.928 117.508C97.848 117.471 97.7679 117.409 97.7433 117.372C97.7186 117.335 97.6878 117.354 97.6693 117.415C97.6385 117.508 97.5585 117.527 97.2197 117.527C96.9857 117.527 96.7578 117.533 96.7085 117.533C96.6592 117.533 96.4621 117.515 96.2773 117.49C96.0925 117.465 95.8462 117.453 95.7414 117.459C95.5875 117.465 95.5382 117.44 95.5382 117.354C95.532 117.255 95.532 117.255 95.4766 117.354C95.4396 117.422 95.3411 117.465 95.2179 117.465C95.107 117.465 95.0023 117.453 94.9838 117.434C94.9654 117.415 94.6327 117.391 94.2447 117.378L94.1499 117.375C93.7708 117.363 93.2795 117.347 93.0128 117.347C92.7233 117.347 92.2552 117.354 91.9657 117.366C91.6331 117.378 91.3559 117.354 91.2143 117.304C91.0849 117.255 90.9679 117.236 90.9556 117.261C90.9432 117.292 90.8077 117.316 90.6599 117.316C90.5182 117.323 90.3704 117.31 90.3335 117.286C90.2965 117.267 90.2472 117.248 90.2103 117.248C90.1733 117.248 90.1364 117.267 90.1179 117.298C90.0994 117.323 89.9208 117.36 89.7175 117.372C89.5143 117.385 89.2186 117.36 89.0585 117.323C88.7874 117.255 88.7566 117.261 88.6396 117.385C88.5472 117.496 88.4795 117.515 88.3501 117.484C88.2516 117.465 88.1407 117.44 88.1037 117.44C88.0606 117.434 88.0237 117.397 88.0237 117.354C88.0237 117.298 87.9867 117.304 87.8882 117.372C87.8081 117.422 87.728 117.465 87.7034 117.465C87.6726 117.465 87.6603 117.415 87.6726 117.354C87.6911 117.255 87.6787 117.255 87.4755 117.354C87.3338 117.415 87.2229 117.434 87.1798 117.397C87.1306 117.366 87.0874 117.366 87.069 117.403C87.0505 117.44 86.724 117.465 86.2867 117.465C85.8679 117.471 85.295 117.477 85.0055 117.49C84.7161 117.496 84.4266 117.527 84.3588 117.552C84.2911 117.583 84.1987 117.583 84.1617 117.564C84.1186 117.545 84.0693 117.552 84.0508 117.589C84.0323 117.626 83.8722 117.651 83.6997 117.644C83.4821 117.644 83.3384 117.609 83.2686 117.539C83.1762 117.453 83.1454 117.446 83.0838 117.515C83.0222 117.576 82.8682 117.583 82.4494 117.552C82.1476 117.533 81.8396 117.508 81.7718 117.496C81.7041 117.49 81.5316 117.465 81.39 117.44C81.1867 117.415 81.1005 117.428 81.0204 117.508C80.928 117.595 80.9095 117.595 80.8972 117.521C80.8849 117.471 80.811 117.397 80.7247 117.354C80.6015 117.292 80.5707 117.292 80.5707 117.354C80.5769 117.397 80.5338 117.477 80.4784 117.527C80.3921 117.607 80.3798 117.607 80.386 117.508C80.386 117.453 80.3613 117.403 80.3244 117.403C80.2936 117.403 80.2566 117.434 80.2505 117.471C80.2381 117.514 80.1827 117.552 80.1273 117.564C80.0534 117.583 80.0287 117.558 80.0472 117.496C80.0657 117.446 80.0287 117.378 79.9733 117.347C79.9117 117.323 79.8255 117.304 79.7885 117.316C79.7454 117.329 79.7084 117.298 79.7084 117.248C79.7084 117.199 79.6838 117.156 79.6468 117.156C79.616 117.156 79.5852 117.118 79.5852 117.075C79.5852 117.038 79.5113 116.939 79.4313 116.859C79.345 116.784 79.2588 116.735 79.2341 116.753C79.2034 116.766 79.1294 116.673 79.0678 116.549C79.0001 116.425 78.9385 116.277 78.9262 116.227C78.9139 116.178 78.8954 116.023 78.8769 115.887C78.8584 115.751 78.8338 115.633 78.8153 115.621C78.7968 115.615 78.7476 115.646 78.7106 115.695C78.6675 115.745 78.5997 115.763 78.5566 115.745C78.5135 115.72 78.4889 115.59 78.495 115.435C78.5012 115.275 78.5381 115.176 78.5874 115.176C78.6305 115.176 78.6429 115.132 78.6182 115.064C78.5997 115.008 78.5505 114.947 78.5197 114.928C78.4889 114.909 78.495 114.792 78.5443 114.65C78.5874 114.513 78.6244 114.303 78.6244 114.186C78.6305 114.068 78.6798 113.895 78.7414 113.796C78.7968 113.703 78.8831 113.629 78.9262 113.629C78.9631 113.629 79.0494 113.554 79.1048 113.462C79.1726 113.35 79.191 113.251 79.1541 113.196C79.1294 113.146 79.1294 113.022 79.1602 112.917C79.191 112.812 79.2834 112.632 79.3697 112.515C79.4497 112.397 79.5236 112.218 79.5298 112.113C79.536 112.007 79.5236 111.822 79.499 111.692C79.4805 111.568 79.4805 111.426 79.5052 111.383C79.5298 111.345 79.5606 111.284 79.5668 111.246C79.5729 111.209 79.616 111.061 79.6591 110.906C79.7023 110.751 79.7639 110.609 79.8008 110.584C79.8419 110.551 79.8419 110.537 79.8008 110.541C79.7639 110.541 79.77 110.504 79.8131 110.461C79.8501 110.417 79.8994 110.207 79.9178 109.99C79.9363 109.78 79.9671 109.588 79.9856 109.557C79.9979 109.532 80.0287 109.446 80.0472 109.359C80.0718 109.273 80.1088 109.105 80.1334 108.988C80.1642 108.87 80.2258 108.666 80.2813 108.536C80.3428 108.412 80.4168 108.307 80.4476 108.307C80.4845 108.307 80.5091 108.239 80.5091 108.153C80.5091 108.066 80.5399 107.986 80.5707 107.967C80.6077 107.948 80.6139 107.899 80.5892 107.856C80.5646 107.818 80.5461 107.732 80.5399 107.676C80.5399 107.614 80.5584 107.565 80.5892 107.565C80.6139 107.565 80.6755 107.361 80.7247 107.113C80.7802 106.872 80.8479 106.569 80.8787 106.451C80.9095 106.333 80.9526 106.166 80.9773 106.08C81.0019 105.993 81.0142 105.919 81.0081 105.906C81.0081 105.9 81.045 105.783 81.0943 105.647C81.1436 105.51 81.1744 105.374 81.1559 105.337C81.1374 105.306 81.1559 105.263 81.1867 105.244C81.2236 105.226 81.2483 105.139 81.2483 105.04C81.2544 104.947 81.2976 104.836 81.3592 104.793C81.4146 104.743 81.4269 104.725 81.39 104.743C81.3407 104.768 81.316 104.743 81.3284 104.669C81.3345 104.613 81.39 104.496 81.4515 104.409C81.507 104.322 81.5439 104.155 81.5378 104.032C81.5316 103.908 81.5624 103.759 81.6055 103.704C81.6671 103.623 81.6671 103.598 81.6055 103.58C81.5501 103.561 81.5624 103.518 81.6486 103.45C81.7226 103.394 81.778 103.258 81.7903 103.134C81.7965 103.011 81.7718 102.912 81.7287 102.893C81.6856 102.874 81.6425 102.806 81.6363 102.738C81.624 102.652 81.6548 102.615 81.741 102.615C81.8088 102.615 81.8766 102.565 81.8889 102.503C81.9012 102.448 81.9135 102.305 81.9074 102.194C81.9012 102.082 81.8581 101.971 81.815 101.946C81.7534 101.909 81.7595 101.854 81.8334 101.668C81.8827 101.544 81.9258 101.371 81.9258 101.284C81.9258 101.198 81.9566 101.13 81.9874 101.13C82.0244 101.13 82.0675 101.037 82.086 100.925C82.1106 100.82 82.1352 100.647 82.1476 100.542C82.1599 100.437 82.1907 100.245 82.2215 100.109C82.2461 99.9725 82.2954 99.8178 82.3262 99.7683C82.357 99.7188 82.3816 99.595 82.3755 99.4898C82.3632 99.3166 82.3632 99.3166 82.4063 99.4589C82.4494 99.6074 82.4555 99.6074 82.5295 99.3785C82.5726 99.2362 82.5787 99.1495 82.5418 99.1495C82.511 99.1495 82.4925 99.0938 82.511 99.0258C82.5295 98.9577 82.511 98.8958 82.474 98.8835C82.4309 98.8773 82.4309 98.8154 82.4802 98.6854C82.5233 98.5803 82.591 98.4318 82.628 98.3513C82.665 98.2709 82.6896 98.0852 82.6834 97.9491C82.6834 97.8068 82.6711 97.6521 82.665 97.6026C82.6588 97.5531 82.6711 97.4108 82.6957 97.2932C82.7142 97.1757 82.7635 97.0457 82.7943 97.0148C82.8251 96.9838 82.8621 96.7425 82.8805 96.4888C82.8929 96.2351 82.9175 95.9567 82.936 95.8701C82.9483 95.7834 82.9668 95.6659 82.9668 95.604C82.9729 95.5421 83.016 95.505 83.0715 95.5112C83.1331 95.5236 83.1823 95.4802 83.1947 95.406C83.2008 95.3379 83.2501 95.0038 83.2994 94.6635C83.3487 94.3232 83.3918 93.89 83.3979 93.7044C83.4041 93.5188 83.4226 93.2527 83.441 93.1166C83.4595 92.9804 83.4842 92.8134 83.4965 92.7453C83.5088 92.6772 83.5211 92.6092 83.5334 92.5906C83.5396 92.5721 83.5519 92.5287 83.5581 92.4978C83.5642 92.4669 83.5889 92.2936 83.6197 92.1265C83.6443 91.9533 83.6936 91.7862 83.7244 91.7553C83.7552 91.7243 83.7737 91.5882 83.7613 91.4645C83.749 91.3077 83.7696 91.2293 83.8229 91.2293C83.8599 91.2293 83.9092 91.1984 83.9276 91.1674C83.9461 91.1365 83.94 91.0684 83.9092 91.0251C83.8845 90.988 83.866 90.8395 83.8722 90.7034C83.8722 90.5672 83.903 90.3012 83.94 90.1155C83.9769 89.9299 84.0077 89.7195 84.0077 89.6515C84.0077 89.5834 84.0447 89.404 84.0816 89.2493C84.1186 89.0946 84.1617 88.8471 84.1679 88.6924C84.1802 88.5377 84.211 88.4078 84.2418 88.3954C84.2726 88.3892 84.2911 88.2407 84.2849 88.0736C84.2726 87.9004 84.2972 87.69 84.3342 87.591C84.3773 87.4982 84.4019 87.3063 84.3958 87.1578C84.3958 87.0032 84.4266 86.8608 84.482 86.8051C84.5436 86.7433 84.5641 86.6401 84.5436 86.4958C84.5251 86.3782 84.5066 86.2606 84.5005 86.2297C84.4943 86.2049 84.5066 86.0379 84.5313 85.8584C84.5621 85.6109 84.6052 85.5181 84.7161 85.4686C84.8146 85.4191 84.8269 85.3882 84.7715 85.3572C84.7161 85.3325 84.6976 85.252 84.7222 85.1159C84.7407 85.0107 84.8084 84.8932 84.87 84.856C84.9686 84.8003 84.9686 84.8003 84.87 84.7942C84.8084 84.7942 84.7468 84.7508 84.7284 84.7013C84.7099 84.6518 84.7161 84.6085 84.7469 84.6085C84.7715 84.6085 84.8516 84.4848 84.9316 84.3301C85.0055 84.1754 85.0671 84.0393 85.0671 84.0207C85.0671 84.0021 85.024 84.0021 84.9747 84.0207C84.907 84.0455 84.8885 84.0083 84.9008 83.866C84.907 83.7484 84.9563 83.668 85.024 83.6494C85.1103 83.6247 85.1226 83.5814 85.0856 83.4329C85.0487 83.2967 85.061 83.2472 85.1164 83.2472C85.1595 83.2472 85.178 83.1977 85.1595 83.1235C85.141 83.0431 85.0979 83.0183 85.0548 83.043C84.9994 83.0802 84.9932 83.0492 85.024 82.9379C85.0487 82.8512 85.0671 82.7089 85.0671 82.6099C85.0671 82.5047 85.1287 82.3872 85.2396 82.2882C85.3566 82.1768 85.3751 82.1335 85.3135 82.1273C85.2642 82.1211 85.2027 82.1211 85.178 82.1273C85.1472 82.1273 85.1287 82.0963 85.1287 82.053C85.1287 82.0159 85.1719 81.9293 85.2211 81.8674C85.2889 81.7931 85.295 81.7313 85.2519 81.6508C85.2211 81.5951 85.2088 81.5333 85.2211 81.5147C85.2396 81.4961 85.2642 81.4033 85.2766 81.2981C85.2889 81.1929 85.3012 81.0939 85.3074 81.063C85.3074 81.0382 85.3566 81.0197 85.4059 81.0197C85.4552 81.0197 85.4983 81.0011 85.4983 80.9702C85.4983 80.9454 85.4737 80.8341 85.4367 80.7227C85.3956 80.5907 85.3956 80.5247 85.4367 80.5247C85.4778 80.5247 85.4778 80.4731 85.4367 80.37C85.4059 80.2834 85.3936 80.2277 85.4244 80.2462C85.449 80.2586 85.5168 80.2153 85.5784 80.1534C85.6523 80.0606 85.6646 80.0049 85.6215 79.9368C85.5907 79.8873 85.5352 79.8564 85.4983 79.875C85.4675 79.8935 85.4367 79.8935 85.4367 79.875C85.4367 79.8564 85.5045 79.8131 85.5907 79.7822C85.6769 79.7512 85.7447 79.677 85.7447 79.6275C85.7447 79.578 85.72 79.5223 85.6831 79.5037C85.6461 79.4851 85.6646 79.4295 85.72 79.3614C85.7755 79.3057 85.8001 79.2067 85.7816 79.1448C85.7632 79.0891 85.7632 79.0458 85.794 79.0458C85.8186 79.052 85.8556 79.052 85.8864 79.0458C85.911 79.0458 85.8863 78.9778 85.8371 78.8973C85.7878 78.8231 85.7447 78.7241 85.7447 78.6807C85.7447 78.6436 85.7878 78.6189 85.8371 78.6374C85.911 78.6622 85.9233 78.6312 85.8925 78.4642C85.8679 78.3404 85.8925 78.1919 85.9541 78.062C86.0157 77.9444 86.0342 77.833 85.9972 77.7835C85.9664 77.7464 85.9356 77.6165 85.9233 77.5051C85.9048 77.3504 85.9295 77.2823 86.0403 77.2143C86.1143 77.1648 86.1635 77.0905 86.145 77.0596C86.1266 77.0286 86.145 76.9977 86.1758 76.9977C86.2128 76.9977 86.1943 76.8987 86.145 76.7626C86.0896 76.6388 86.0527 76.4965 86.0527 76.4532C86.0527 76.4161 85.9726 76.2676 85.8679 76.1314C85.7262 75.9458 85.6584 75.8963 85.5784 75.9272C85.4921 75.9644 85.4798 75.952 85.5168 75.8654C85.5414 75.8097 85.5352 75.7478 85.4983 75.7292C85.4675 75.7107 85.449 75.6674 85.4675 75.6364C85.486 75.6055 85.4552 75.5622 85.4059 75.5436C85.3566 75.525 85.3135 75.5436 85.3135 75.5745C85.3135 75.6055 85.2704 75.6364 85.2211 75.6364C85.1719 75.6364 85.0795 75.5745 85.0179 75.4941C84.9624 75.4199 84.7715 75.2466 84.6052 75.1167C84.4327 74.9867 84.2295 74.7949 84.1432 74.7021C84.057 74.6093 83.8907 74.5103 83.7737 74.4855C83.6566 74.4608 83.5211 74.4175 83.4842 74.3927C83.4411 74.3618 83.4164 74.3061 83.4349 74.2751C83.4534 74.2442 83.4226 74.2133 83.3733 74.2133C83.324 74.2133 83.2932 74.1823 83.3117 74.1514C83.3302 74.1205 83.2624 74.0771 83.1577 74.0586C83.0592 74.04 82.9852 74.0091 83.0037 73.9781C83.0161 73.9534 82.9791 73.8729 82.9113 73.7925C82.8374 73.7121 82.7204 73.6564 82.6218 73.6564C82.5233 73.6626 82.4186 73.6254 82.3755 73.5821C82.3385 73.5388 82.3015 73.4707 82.2954 73.4398C82.2892 73.4089 82.2584 73.3841 82.2276 73.3903C82.1968 73.4027 82.166 73.3717 82.1599 73.3284C82.1599 73.2913 82.1476 73.2232 82.1414 73.1923C82.1291 73.1614 82.1229 73.0933 82.1168 73.05C82.1168 73.0129 82.0552 72.9757 81.9874 72.9757C81.9197 72.9757 81.8642 73.0067 81.8642 73.0376C81.8642 73.0685 81.9012 73.1119 81.9443 73.1304C81.9813 73.1428 81.9628 73.149 81.895 73.1428C81.8273 73.1366 81.6733 73.0314 81.5563 72.9077C81.4392 72.7839 81.2791 72.654 81.2052 72.6107C81.1251 72.5735 81.0512 72.4745 81.0327 72.3879C81.0142 72.3013 80.9773 72.2332 80.9403 72.2332C80.9095 72.2332 80.7986 72.1713 80.6939 72.0909C80.5954 72.0166 80.5276 71.9362 80.5399 71.9053C80.5584 71.8805 80.5461 71.862 80.5091 71.862C80.4784 71.862 80.4476 71.8929 80.4476 71.9238C80.4476 71.9548 80.3244 71.9176 80.1704 71.831C80.0164 71.7444 79.8501 71.6763 79.8008 71.6763C79.7515 71.6763 79.7084 71.6454 79.7084 71.6144C79.7084 71.5835 79.653 71.4969 79.5852 71.4288C79.5113 71.3546 79.4805 71.2741 79.5113 71.2308C79.5401 71.1772 79.5298 71.1669 79.4805 71.1999C79.4313 71.2246 79.3881 71.2061 79.3697 71.1504C79.3512 71.1009 79.2957 71.0576 79.2465 71.0576C79.1972 71.0576 79.1541 71.0142 79.1541 70.9647C79.1541 70.9152 79.0555 70.8286 78.9385 70.7791C78.8215 70.7296 78.7106 70.6554 78.6921 70.6244C78.6736 70.5935 78.612 70.5625 78.5566 70.5625C78.495 70.5625 78.3287 70.4945 78.187 70.4202C78.0454 70.346 77.9407 70.2655 77.953 70.2346C77.9715 70.2098 77.8852 70.1356 77.7682 70.0675C77.6512 69.9995 77.5526 69.9252 77.5526 69.8943C77.5526 69.8695 77.4541 69.8138 77.337 69.7705C77.1892 69.721 77.1338 69.6653 77.1523 69.6035C77.1707 69.554 77.1461 69.5106 77.1091 69.5106C77.066 69.5106 76.9552 69.4797 76.8628 69.4364C76.7642 69.3931 76.6903 69.3374 76.6903 69.3064C76.6903 69.2817 76.6533 69.2631 76.6164 69.2631C76.5733 69.2631 76.4686 69.2136 76.3823 69.1456C76.2961 69.0775 76.1791 68.9723 76.1175 68.9104C76.062 68.8486 76.0128 68.7681 76.0189 68.7372C76.0251 68.7063 76.0251 68.6382 76.0189 68.5949C76.0189 68.5577 75.9881 68.533 75.9512 68.5516C75.9204 68.5701 75.9019 68.6134 75.9204 68.6444C75.9389 68.6753 75.9265 68.7063 75.8896 68.7063C75.8588 68.7063 75.8157 68.6506 75.7972 68.5825C75.7787 68.5144 75.7171 68.4587 75.6617 68.4587C75.6001 68.4649 75.4769 68.3907 75.3845 68.3041C75.2736 68.205 75.1689 68.1617 75.1073 68.1865C75.0334 68.2112 74.9451 68.1638 74.8425 68.0442C74.7562 67.9452 74.6146 67.8462 74.5222 67.8214C74.3805 67.7843 74.3497 67.7472 74.3682 67.6172C74.3744 67.5182 74.3436 67.444 74.2881 67.4192C74.2388 67.4007 74.1773 67.3573 74.1526 67.3202C74.128 67.2831 74.0849 67.2521 74.0602 67.2521C74.0356 67.246 73.9494 67.2274 73.8754 67.2026C73.7954 67.1779 73.7338 67.1284 73.7338 67.0975C73.7338 67.0665 73.5983 66.9551 73.4258 66.85C73.2595 66.7448 73.1178 66.6458 73.1178 66.6148C73.124 66.5901 73.0439 66.5344 72.9515 66.4973C72.8591 66.4539 72.7421 66.3487 72.7051 66.2621C72.662 66.1755 72.582 66.1074 72.5327 66.1074C72.4772 66.1074 72.428 66.0332 72.4095 65.9218C72.3787 65.7547 72.3664 65.7424 72.2555 65.8104C72.1508 65.8785 72.12 65.8723 72.0399 65.7485C71.9907 65.6743 71.9044 65.6124 71.8551 65.6124C71.7935 65.6124 71.7751 65.5815 71.812 65.5134C71.849 65.433 71.8305 65.4206 71.732 65.4639C71.6396 65.501 71.6211 65.4949 71.658 65.4392C71.6827 65.3958 71.658 65.3464 71.5965 65.3216C71.5349 65.303 71.4363 65.2412 71.3809 65.1855C71.3193 65.1298 71.2946 65.0555 71.3193 65.0246C71.3439 64.9875 71.3316 64.9813 71.2823 65.006C71.2392 65.037 71.1406 64.9937 71.0421 64.9008C70.9436 64.8142 70.8204 64.7338 70.7649 64.7152C70.7033 64.6966 70.6417 64.6162 70.6233 64.5296C70.6048 64.443 70.5555 64.3749 70.5185 64.3749C70.4754 64.3811 70.3276 64.2944 70.1921 64.1893C70.0566 64.0841 69.8164 63.8799 69.6562 63.7252C69.4899 63.5705 69.3359 63.4467 69.299 63.4467C69.2682 63.4467 69.1327 63.3477 69.0095 63.224C68.8801 63.1064 68.6769 62.9765 68.5598 62.9394C68.4428 62.9022 68.3073 62.8465 68.2704 62.8218C68.2272 62.7908 68.1964 62.7413 68.2088 62.7166C68.2149 62.6857 68.1164 62.5619 67.9932 62.4381C67.8577 62.3082 67.7222 62.2216 67.6667 62.2401C67.6174 62.2587 67.5743 62.2401 67.5743 62.2092C67.5743 62.1783 67.5312 62.1473 67.4819 62.1473C67.4327 62.1473 67.2848 62.0483 67.1617 61.9308C67.0323 61.807 66.8845 61.6956 66.8352 61.6833C66.7859 61.6709 66.7243 61.6028 66.6997 61.5286C66.6689 61.4605 66.595 61.3862 66.5272 61.3553C66.441 61.3244 66.4225 61.2872 66.4656 61.2316C66.5026 61.1944 66.5149 61.1387 66.5026 61.1078C66.4903 61.0831 66.3794 61.0459 66.2562 61.015C66.133 60.9902 66.0345 60.9531 66.0345 60.9222C66.0345 60.8974 65.9236 60.8232 65.7881 60.7551C65.6526 60.687 65.5417 60.6128 65.5417 60.5819C65.5417 60.5571 65.4308 60.4272 65.2953 60.291C65.1598 60.1549 65.0059 60.0435 64.9566 60.0435C64.9073 60.0435 64.8457 60.0064 64.8211 59.9631C64.7903 59.9136 64.6548 59.827 64.5069 59.7589C64.3653 59.697 64.2482 59.6228 64.2482 59.5918C64.2482 59.5671 64.1497 59.4495 64.0327 59.3319C63.9156 59.2144 63.7924 59.1278 63.7555 59.1463C63.7247 59.1649 63.6939 59.1463 63.6939 59.1154C63.6939 59.0844 63.6508 59.0535 63.6015 59.0535C63.5522 59.0535 63.4968 59.004 63.4783 58.9421C63.466 58.8864 63.3921 58.8184 63.312 58.7936C63.2011 58.7627 63.1827 58.7256 63.2196 58.6389C63.2689 58.5461 63.2566 58.5337 63.1457 58.5709C63.0595 58.6039 63.0164 58.5936 63.0164 58.5399C63.0164 58.5028 62.9363 58.3419 62.8377 58.1872C62.7269 58.014 62.6468 57.9397 62.6221 57.983C62.5914 58.0449 62.5236 58.0325 62.3388 57.9397C62.2033 57.8717 62.0924 57.8345 62.0924 57.8593C62.0924 57.8902 62 57.8036 61.8769 57.6737C61.7598 57.5499 61.649 57.4447 61.6305 57.4447C61.612 57.4447 61.4765 57.321 61.3225 57.1663C61.1624 57.0054 60.9899 56.8878 60.9098 56.8878C60.8298 56.8878 60.7189 56.8507 60.6634 56.8074C60.6019 56.7641 60.5587 56.6836 60.5526 56.6218C60.5526 56.5661 60.5095 56.5166 60.4602 56.5166C60.4109 56.5166 60.2569 56.4114 60.1276 56.2814C59.9921 56.1577 59.7888 55.972 59.6656 55.8669C59.5486 55.7617 59.4316 55.6194 59.4131 55.5389C59.3946 55.4523 59.3515 55.4152 59.2899 55.4337C59.2406 55.4523 59.0989 55.3718 58.9819 55.2605C58.8587 55.1553 58.7479 55.013 58.7355 54.9511C58.7171 54.883 58.6555 54.8521 58.5692 54.8583C58.4707 54.8706 58.4091 54.8273 58.3537 54.7036C58.3105 54.6108 58.2305 54.5365 58.1812 54.5365C58.1319 54.5365 58.0518 54.487 58.0149 54.4251C57.9718 54.3694 57.8301 54.2643 57.6946 54.1962C57.5653 54.1281 57.4236 54.0229 57.3866 53.9611C57.3497 53.9054 57.2942 53.8559 57.2573 53.8559C57.2265 53.8559 57.1464 53.7631 57.0848 53.6579C57.0232 53.5403 56.8631 53.398 56.7152 53.3237C56.5736 53.2495 56.4319 53.1319 56.395 53.0577C56.3642 52.9896 56.2841 52.9277 56.2287 52.9277C56.1671 52.9277 56.0993 52.8906 56.0747 52.8473C56.05 52.8102 56.0377 52.7173 56.05 52.6493C56.0685 52.5503 56.0562 52.5379 55.9884 52.5998C55.9207 52.6555 55.8714 52.6431 55.7667 52.5503C55.6866 52.4884 55.625 52.4141 55.625 52.3832C55.625 52.3585 55.5758 52.3028 55.5203 52.2595C55.4587 52.2161 55.2801 52.0924 55.12 51.981C54.9598 51.8758 54.8428 51.7706 54.8551 51.7521C54.8736 51.7335 54.7873 51.6283 54.6703 51.5169C54.5533 51.4117 54.4547 51.288 54.4547 51.257C54.4547 51.2261 54.4116 51.1952 54.3623 51.1952C54.3131 51.1952 54.2761 51.1704 54.2884 51.1395C54.2946 51.1085 54.2761 51.0838 54.2392 51.0838C54.2084 51.0838 54.1591 51.0405 54.1344 50.9848C54.1036 50.9291 54.0421 50.8858 53.9928 50.8858C53.9435 50.8858 53.7464 50.7311 53.5616 50.5455C53.3768 50.3598 53.2044 50.1371 53.1797 50.0505C53.1489 49.9515 53.0997 49.902 53.0565 49.9267C53.0134 49.9453 52.8594 49.8834 52.7178 49.7906C52.5699 49.6978 52.3975 49.5554 52.3297 49.4812C52.262 49.4008 52.1696 49.3389 52.1326 49.3389C52.0895 49.3389 51.9663 49.2646 51.8678 49.1656C51.7631 49.0728 51.6953 48.9924 51.7138 48.98C51.7323 48.9738 51.6645 48.8934 51.5721 48.7944C51.4797 48.7015 51.3873 48.5902 51.375 48.5469C51.3565 48.5035 51.2641 48.4602 51.1594 48.4479C51.0239 48.4355 50.9562 48.386 50.9131 48.2622C50.8823 48.1756 50.8268 48.1013 50.7899 48.1013C50.7591 48.1013 50.5989 48.0085 50.4388 47.8848C50.2725 47.7672 50.1246 47.6682 50.1 47.6682C50.0692 47.6682 49.9522 47.5692 49.8352 47.4516C49.7181 47.3341 49.5826 47.2351 49.5457 47.2351C49.5025 47.2351 49.4471 47.1732 49.4286 47.0928C49.404 47.0185 49.3424 46.9009 49.2808 46.8329C49.2192 46.7648 49.1576 46.6658 49.1453 46.6163C49.1268 46.5668 49.0652 46.5235 48.9975 46.5173C48.9359 46.5173 48.8065 46.5111 48.7141 46.5049C48.6156 46.4987 48.5417 46.4616 48.5417 46.4307C48.5417 46.3997 48.4986 46.3255 48.4493 46.276C48.4 46.2265 48.3015 46.1832 48.2337 46.1832C48.1516 46.1832 48.1105 46.1419 48.1105 46.0594C48.1105 45.9914 48.0859 45.9357 48.0489 45.9357C48.0181 45.9357 47.9442 45.8923 47.8949 45.8428C47.8457 45.7933 47.7102 45.7067 47.6054 45.6572C47.4946 45.6077 47.433 45.5706 47.4638 45.5706C47.5007 45.5706 47.4638 45.5211 47.3899 45.4592C47.3159 45.3973 47.162 45.2674 47.0388 45.1622C46.9217 45.057 46.8417 44.9456 46.854 44.9147C46.8725 44.8838 46.8601 44.791 46.8232 44.7105C46.7739 44.6053 46.7308 44.5868 46.663 44.6363C46.5953 44.6858 46.5275 44.6548 46.4044 44.5063C46.3058 44.4011 46.0779 44.2093 45.8931 44.0856C45.7083 43.9556 45.388 43.6957 45.1848 43.5039C44.9815 43.3121 44.7536 43.1017 44.6797 43.0337C44.5996 42.9594 44.5134 42.9037 44.4764 42.9037C44.4456 42.9037 44.4148 42.8728 44.4148 42.8418C44.4148 42.8109 44.3656 42.7676 44.3101 42.749C44.2485 42.7366 44.1377 42.6686 44.0638 42.5943C43.9837 42.5263 43.9283 42.452 43.9283 42.4211C43.9344 42.3963 43.879 42.3468 43.8051 42.3159C43.7373 42.2849 43.6757 42.2169 43.6757 42.1736C43.6757 42.1364 43.6511 42.1117 43.6141 42.1303C43.5833 42.1488 43.5033 42.1241 43.4478 42.0808C43.3862 42.0313 43.2877 41.9756 43.2322 41.957C43.1645 41.9323 43.1214 41.8518 43.1214 41.759C43.1214 41.6724 43.0844 41.6043 43.0475 41.6043C43.0043 41.6043 42.8935 41.5734 42.8072 41.5301C42.7087 41.4806 42.6594 41.4125 42.684 41.3568C42.7046 41.2949 42.6902 41.2784 42.6409 41.3073C42.5978 41.3382 42.5239 41.3011 42.4623 41.2145C42.4007 41.1402 42.3453 41.0598 42.3391 41.0289C42.3268 41.0041 42.3206 40.9546 42.3206 40.9237C42.3206 40.8927 42.2652 40.8742 42.1975 40.8927C42.1174 40.9113 42.0373 40.8742 41.9696 40.7813C41.908 40.7071 41.7478 40.6019 41.6123 40.5462C41.4768 40.4967 41.3413 40.3915 41.3043 40.3173C41.2735 40.243 41.1935 40.1688 41.138 40.1502C41.0764 40.1316 41.0333 40.1007 41.0333 40.0698C41.0395 40.045 41.0395 39.9955 41.0333 39.9646C41.0272 39.9336 41.0025 39.9398 40.9779 39.9831C40.9471 40.045 40.8855 40.0141 40.7377 39.8779C40.6268 39.7728 40.5098 39.6861 40.4728 39.6861C40.442 39.6861 40.4112 39.649 40.4112 39.6057C40.4112 39.5686 40.3496 39.4881 40.2757 39.4386C40.1956 39.3891 40.0478 39.253 39.9369 39.1416C39.8261 39.0364 39.7398 38.9065 39.7398 38.8632C39.746 38.826 39.746 38.7518 39.7398 38.7085C39.7398 38.6714 39.6598 38.6342 39.5674 38.6342C39.4811 38.6342 39.4257 38.6157 39.4442 38.5847C39.4688 38.56 39.4072 38.4981 39.3087 38.4486C39.2101 38.3991 39.0192 38.2692 38.8837 38.1702C38.742 38.0712 38.6311 37.9474 38.625 37.9041C38.625 37.867 38.5695 37.8175 38.5018 37.7989C38.4279 37.7803 38.3909 37.7308 38.4094 37.6751C38.434 37.6071 38.3848 37.5761 38.2554 37.5514C38.1322 37.5328 37.9228 37.3719 37.6271 37.0688C37.3808 36.8212 37.1406 36.6232 37.1036 36.6356C37.0605 36.648 37.0235 36.6109 37.0235 36.5614C37.0235 36.5119 36.9989 36.4809 36.9619 36.4995C36.9311 36.5181 36.888 36.4747 36.8695 36.4067C36.8511 36.3386 36.7771 36.2705 36.7032 36.252C36.6232 36.2396 36.4445 36.0973 36.3029 35.9426C36.155 35.7879 36.0134 35.6765 35.9764 35.6951C35.9456 35.7137 35.8409 35.6147 35.7485 35.4785C35.65 35.3362 35.5514 35.2248 35.5145 35.2248C35.4837 35.231 35.496 35.2063 35.5453 35.1691C35.5945 35.1382 35.6192 35.0887 35.5884 35.0639C35.5637 35.0392 35.5083 35.0454 35.4652 35.0887C35.4097 35.1444 35.3605 35.1382 35.2434 35.0578C35.1634 35.0021 35.0587 34.8845 35.0155 34.7979C34.9724 34.7113 34.9478 34.6246 34.9724 34.5937C34.9909 34.5689 34.9601 34.5504 34.8924 34.5504C34.8308 34.5442 34.7199 34.4823 34.6521 34.4019C34.5844 34.3276 34.4735 34.241 34.4058 34.2224C34.338 34.1977 34.1902 34.0987 34.0855 34.0059C33.9746 33.913 33.9007 33.8202 33.913 33.7893C33.9315 33.7645 33.8699 33.6965 33.7775 33.6346C33.6913 33.5789 33.525 33.3809 33.4079 33.2015C33.2971 33.0282 33.18 32.8797 33.1431 32.8797C33.1123 32.8797 33.0938 32.8488 33.1123 32.8178C33.1308 32.7869 33.1184 32.756 33.0815 32.756C33.0507 32.756 33.0199 32.7126 33.0199 32.6631C33.0199 32.6136 32.9706 32.5703 32.9152 32.5703C32.8536 32.5703 32.755 32.5208 32.6934 32.4589C32.6318 32.4033 32.5826 32.3228 32.5826 32.2919C32.5826 32.2609 32.5087 32.1619 32.4163 32.0753C32.3239 31.9949 32.2068 31.9268 32.1576 31.9206C32.1083 31.9206 32.0713 31.8711 32.0837 31.8092C32.0898 31.7288 32.0713 31.7164 31.9913 31.7474C31.9235 31.7783 31.8989 31.7721 31.9235 31.735C31.9481 31.6979 31.9174 31.6174 31.8496 31.5494C31.7818 31.4813 31.7449 31.407 31.7572 31.3761C31.7757 31.3514 31.7449 31.3452 31.6956 31.3637C31.6463 31.3823 31.6032 31.3637 31.6032 31.3328C31.6032 31.3019 31.5663 31.2338 31.5231 31.1905C31.48 31.1534 31.363 31.0729 31.2644 31.0234C31.1597 30.9677 31.0735 30.8935 31.0673 30.8502C31.055 30.8068 31.0489 30.7264 31.0489 30.6645C31.055 30.5779 31.0365 30.5717 30.9565 30.6336C30.8826 30.7017 30.8579 30.6955 30.821 30.6274C30.7902 30.5779 30.6731 30.4851 30.5561 30.4232C30.4391 30.3551 30.3405 30.2685 30.3405 30.2252C30.3405 30.1819 30.2297 30.0396 30.0942 29.9034C29.9586 29.7673 29.7123 29.5631 29.5398 29.4579C29.3735 29.3466 29.1518 29.1857 29.047 29.0867C28.9485 28.9939 28.8438 28.9196 28.8191 28.9196C28.7884 28.9196 28.7576 28.8515 28.7391 28.7649C28.7206 28.6783 28.6836 28.6226 28.6467 28.6412C28.6159 28.6597 28.5851 28.6226 28.5851 28.5607C28.5851 28.505 28.542 28.3998 28.4927 28.3318C28.4352 28.2493 28.4003 28.2348 28.388 28.2885C28.3757 28.3442 28.3326 28.3318 28.234 28.239C28.1539 28.1709 28.0677 28.1152 28.0307 28.1152C27.9999 28.1152 27.9014 28.041 27.8152 27.942C27.7289 27.8491 27.655 27.7378 27.6612 27.6945C27.6612 27.6573 27.6365 27.6326 27.5996 27.6511C27.5688 27.6697 27.4271 27.5707 27.2916 27.4346C27.1561 27.2984 27.0452 27.1437 27.0452 27.0942C27.0452 27.0386 26.9528 26.9767 26.8297 26.9396C26.7126 26.9086 26.6141 26.8467 26.6141 26.8158C26.6141 26.7849 26.571 26.7539 26.5217 26.7539C26.4724 26.7539 26.4293 26.723 26.4293 26.692C26.4293 26.6611 26.3923 26.6302 26.3554 26.6302C26.3123 26.6302 26.226 26.5807 26.1644 26.5188C26.1028 26.4631 26.0536 26.3579 26.0597 26.2899C26.0597 26.2218 26.0228 26.1661 25.9735 26.1661C25.9304 26.1661 25.8996 26.2032 25.9119 26.2403C25.9242 26.2837 25.9181 26.3208 25.8934 26.3208C25.8626 26.3146 25.7949 26.2527 25.7333 26.1785C25.6717 26.1042 25.6286 25.9928 25.6286 25.931C25.6286 25.8691 25.5793 25.8258 25.5054 25.8258C25.4376 25.8258 25.3822 25.7825 25.3822 25.733C25.3822 25.6711 25.3411 25.6505 25.259 25.6711C25.1851 25.6896 25.0557 25.6401 24.9387 25.5473C24.8278 25.4607 24.6738 25.337 24.5999 25.2689C24.5199 25.2008 24.3905 25.1328 24.3043 25.1142C24.2181 25.0956 24.1441 25.0461 24.138 25.0028C24.138 24.9657 24.1257 24.8976 24.1195 24.8667C24.1072 24.8358 24.101 24.7739 24.101 24.7429C24.0949 24.712 24.0456 24.7244 23.9902 24.7739C23.8978 24.8543 23.8793 24.8543 23.7746 24.7244C23.7068 24.6501 23.6452 24.5882 23.6267 24.5882C23.6083 24.5882 23.6083 24.6377 23.6267 24.6934C23.6514 24.7801 23.6267 24.7739 23.5344 24.6625C23.4666 24.5882 23.3865 24.5264 23.3496 24.5264C23.3188 24.5264 23.2633 24.4336 23.2387 24.3222C23.2017 24.186 23.1525 24.1304 23.0847 24.1365C23.0231 24.1489 22.9615 24.1056 22.9369 24.0437C22.9061 23.988 22.826 23.9324 22.7521 23.92C22.672 23.9138 22.5735 23.8705 22.5304 23.8272C22.4811 23.79 22.4626 23.7096 22.4811 23.6601C22.4996 23.5982 22.4811 23.5797 22.4195 23.6106C22.3702 23.6353 22.2347 23.5858 22.1054 23.4992C21.976 23.4188 21.8467 23.3507 21.8097 23.3507C21.7728 23.3507 21.7666 23.3012 21.7912 23.2393C21.8282 23.1527 21.8159 23.1403 21.7173 23.1775C21.6249 23.2146 21.551 23.1836 21.4401 23.0723C21.3539 22.9856 21.2677 22.9114 21.243 22.9176C21.2122 22.9176 21.2061 22.8866 21.2246 22.8557C21.243 22.8248 21.1938 22.7814 21.1199 22.7691C21.0151 22.7505 20.9905 22.7134 21.0275 22.6453C21.0583 22.5711 21.0398 22.5525 20.9474 22.5773C20.855 22.602 20.8057 22.5587 20.738 22.404C20.6887 22.2988 20.6641 22.1874 20.6764 22.1565C20.6887 22.1317 20.6517 22.0946 20.5963 22.0699C20.5347 22.0451 20.3992 22.0266 20.2945 22.0266C20.1836 22.0204 20.042 21.9647 19.968 21.8966C19.8941 21.8285 19.8325 21.7914 19.8387 21.8162C19.8387 21.8471 19.7956 21.8224 19.7463 21.7729C19.697 21.7234 19.6539 21.6677 19.6539 21.6491C19.6539 21.6305 19.617 21.5749 19.58 21.5254C19.5369 21.4697 19.4322 21.3583 19.3459 21.2717C19.2597 21.1912 19.1735 21.1232 19.1488 21.1232C19.118 21.1232 19.0072 21.0365 18.9025 20.9375C18.7916 20.8323 18.6746 20.7519 18.6376 20.7519C18.6068 20.7519 18.5329 20.6838 18.4836 20.5972C18.4343 20.5044 18.3296 20.424 18.2557 20.4054C18.1756 20.393 18.114 20.3621 18.114 20.3311C18.114 20.3064 18.0401 20.2569 17.9477 20.2136C17.8492 20.1764 17.7568 20.0713 17.7322 19.9846C17.7014 19.898 17.6459 19.8237 17.609 19.8237C17.5659 19.8237 17.4242 19.7309 17.301 19.6072C17.1717 19.4896 17.0669 19.3597 17.0669 19.3287C17.0669 19.2978 16.9684 19.2545 16.8514 19.2359C16.7343 19.2174 16.6358 19.1864 16.6358 19.1555C16.6358 19.1307 16.5434 19.0565 16.4202 18.9884C16.2765 18.9059 16.1923 18.8028 16.1677 18.679C16.143 18.58 16.0938 18.4625 16.0568 18.4253C16.0198 18.3882 15.9274 18.3696 15.8535 18.382C15.7735 18.3882 15.7119 18.3696 15.7119 18.3387C15.7119 18.3078 15.6749 18.2768 15.638 18.2768C15.5948 18.2768 15.5148 18.2088 15.4655 18.1221C15.4162 18.0355 15.3238 17.9489 15.2684 17.9365C15.2068 17.9179 15.1575 17.8623 15.1575 17.8128C15.1575 17.7633 15.1082 17.7014 15.0528 17.6766C14.9912 17.6581 14.9235 17.6457 14.8988 17.6457C14.868 17.6519 14.8557 17.6086 14.868 17.5529C14.8742 17.4662 14.8372 17.4477 14.6832 17.4601C14.5539 17.4662 14.48 17.4415 14.4738 17.392C14.4677 17.3549 14.4615 17.2868 14.4492 17.2559L14.4245 17.1321C14.4184 17.1012 14.3937 17.1136 14.363 17.1631C14.3198 17.2435 14.2706 17.2249 14.055 17.0702C13.9195 16.9712 13.8148 16.8475 13.8332 16.8042C13.8517 16.7609 13.8271 16.7423 13.7593 16.7609C13.6916 16.7732 13.5992 16.7237 13.5253 16.6247C13.4267 16.501 13.4206 16.4577 13.4822 16.4267C13.5499 16.3958 13.5499 16.371 13.4698 16.2782C13.4144 16.2225 13.359 16.173 13.3405 16.173C13.322 16.173 13.322 16.2287 13.3405 16.2968C13.359 16.3648 13.3528 16.4205 13.3282 16.4205C13.2974 16.4205 13.1495 16.2968 12.9894 16.1421C12.8231 15.9874 12.6753 15.8636 12.6506 15.8636C12.6198 15.8636 12.5582 15.8141 12.5028 15.7585C12.4535 15.6966 12.3673 15.5419 12.318 15.4119C12.2687 15.2882 12.2133 15.183 12.1887 15.183C12.1579 15.183 12.084 15.2139 12.0162 15.2449C11.9115 15.2944 11.8745 15.2758 11.7698 15.1211C11.7021 15.0221 11.5974 14.9355 11.5419 14.9355C11.4495 14.9355 11.4434 14.9231 11.5234 14.8798C11.6035 14.8303 11.5974 14.8179 11.4927 14.787C11.4249 14.7684 11.3017 14.6509 11.2155 14.5333C11.1128 14.3889 11.041 14.3374 10.9999 14.3786C10.9691 14.4157 10.889 14.4281 10.8336 14.4095C10.7474 14.3848 10.735 14.3539 10.7843 14.2549C10.8213 14.1868 10.8459 14.1187 10.8459 14.1002C10.8459 14.0816 10.7905 14.1064 10.7289 14.1435C10.6303 14.2115 10.5934 14.2054 10.5071 14.1311C10.4517 14.0816 10.4086 14.0012 10.4148 13.9578C10.4148 13.9207 10.3901 13.8836 10.3532 13.8836C10.3224 13.8836 10.2115 13.797 10.1068 13.698C10.0082 13.599 9.90352 13.5185 9.87888 13.5247C9.84808 13.5309 9.76801 13.5185 9.6941 13.4938C9.61402 13.469 9.54011 13.3948 9.52163 13.3267C9.50315 13.2586 9.50315 13.172 9.52163 13.1411C9.54011 13.1101 9.48468 13.0792 9.39844 13.0792C9.31221 13.0792 9.24446 13.0483 9.24446 13.0173C9.24446 12.9864 9.19518 12.9369 9.13975 12.9121C9.07815 12.8874 8.94264 12.8131 8.84409 12.7389C8.73938 12.6708 8.54228 12.5099 8.41293 12.3862C8.27742 12.2562 8.14808 12.1511 8.12344 12.1511C8.09264 12.1511 7.96945 12.0459 7.84626 11.9159C7.71692 11.786 7.42126 11.5261 7.18104 11.3467C6.94699 11.1672 6.58974 10.8578 6.3988 10.6598C6.20169 10.4556 5.99227 10.2824 5.93684 10.2638C5.87524 10.2514 5.64735 10.0658 5.4256 9.85543C5.20387 9.65124 4.95133 9.44086 4.85894 9.39136C4.76039 9.34185 4.63104 9.24904 4.56328 9.18097C4.48937 9.10672 4.45241 9.00772 4.47089 8.93347C4.48937 8.86541 4.46473 8.79115 4.42778 8.7664C4.37439 8.7334 4.36413 8.74371 4.39698 8.79734C4.42778 8.84684 4.39082 8.87159 4.28611 8.87159C4.19372 8.87159 4.10749 8.82209 4.07053 8.74784C4.03973 8.67978 3.97198 8.62409 3.93502 8.62409C3.89191 8.62409 3.74408 8.50652 3.60857 8.35802C3.47306 8.2157 3.36835 8.06101 3.38067 8.0177C3.38683 7.97438 3.34987 7.95582 3.2698 7.97438C3.17741 7.99913 3.15277 7.98057 3.17741 7.91251C3.19589 7.85063 3.14661 7.79494 3.02958 7.73925C2.93103 7.70213 2.85712 7.64644 2.8756 7.6155C2.88792 7.59075 2.8448 7.59693 2.77705 7.63406C2.6785 7.68356 2.6477 7.67119 2.62306 7.58456C2.60458 7.52887 2.50603 7.42987 2.40748 7.36799C2.30277 7.3123 2.2227 7.21949 2.2227 7.16999C2.2227 7.12049 2.18574 7.07717 2.14878 7.07717C2.10567 7.07717 1.95784 6.96579 1.82233 6.82348C1.68683 6.68735 1.42813 6.47697 1.25567 6.3594C1.07704 6.24184 0.929215 6.11808 0.929215 6.08715C0.929215 6.05002 0.87994 6.02527 0.824505 6.02527C0.76291 6.02527 0.652041 5.98196 0.578127 5.93245C0.498055 5.88295 0.344069 5.84583 0.0360968 5.87058L0.0422562 5.43744C0.0484157 5.19612 0.066894 4.82486 0.0915317 4.60211C0.11001 4.37935 0.140807 4.18754 0.159286 4.16897C0.171604 4.15041 0.140807 4.1071 0.0792129 4.06378C0.0176185 4.02047 0.00529961 3.98953 0.0545751 3.98334C0.0915317 3.98334 0.116169 3.9524 0.0976912 3.92147C0.0792129 3.88434 0.122329 3.82865 0.190083 3.79771C0.257837 3.76059 0.300953 3.71727 0.282474 3.68633C0.270155 3.66158 0.214721 3.68633 0.159286 3.73584C0.0792129 3.81628 0.0730534 3.78534 0.0976912 3.45739C0.11001 3.24082 0.159286 3.06757 0.202402 3.04282C0.245518 3.01807 0.288634 2.87575 0.294793 2.73344C0.307112 2.58493 0.344069 2.43024 0.387185 2.38693C0.43646 2.34361 0.584287 2.31267 0.744432 2.31886C0.898418 2.32505 1.10784 2.28174 1.20639 2.23224C1.3419 2.15798 1.42197 2.1518 1.51436 2.2013C1.58212 2.23842 1.68683 2.2508 1.74842 2.22605C1.80386 2.20748 1.84697 2.1518 1.84081 2.10848C1.82849 2.07136 1.87161 2.04042 1.9332 2.04661C1.98864 2.05898 2.03791 2.04661 2.03791 2.01567C2.03791 1.99092 2.13031 1.96617 2.23502 1.95998C2.34589 1.95379 2.47523 1.97854 2.51835 2.00948C2.56763 2.04661 2.62922 2.04042 2.68465 1.98473C2.74009 1.9476 2.78321 1.93523 2.77705 1.97235C2.77705 2.00948 2.80784 2.00329 2.85096 1.95998C2.90024 1.91048 2.97415 1.90429 3.05422 1.94142C3.12198 1.96617 3.28212 1.98473 3.40531 1.98473C3.53466 1.97854 3.64553 1.9971 3.65785 2.03423C3.67017 2.07136 3.7256 2.05898 3.78719 2.00329C3.87959 1.92904 3.91654 1.92285 4.01509 1.98473C4.10749 2.05279 4.16908 2.04661 4.31691 1.97235C4.48321 1.88573 4.50785 1.89191 4.60024 1.98473C4.64952 2.04661 4.68031 2.05898 4.66183 2.01567C4.64336 1.97854 4.65568 1.94142 4.68647 1.94142C4.72343 1.94142 4.76039 1.96617 4.77886 2.00329C4.79734 2.03423 4.82814 2.05279 4.85894 2.04042C4.88357 2.02185 5.01292 2.03423 5.14843 2.06517C5.33321 2.10848 5.43176 2.09611 5.53648 2.03423C5.64119 1.95998 5.67814 1.95998 5.69046 2.01567C5.70894 2.07136 5.73974 2.06517 5.81365 1.98473C5.88756 1.91048 5.97995 1.88573 6.12162 1.91048C6.22633 1.92285 6.49119 1.95379 6.70677 1.97235C7.04554 1.9971 7.11329 1.98473 7.32271 1.84241C7.49518 1.72485 7.59989 1.69391 7.75387 1.71866C7.85858 1.73722 7.95097 1.73722 7.95097 1.70628C7.95097 1.68153 8.05569 1.6506 8.17887 1.63822C8.30822 1.62584 8.57308 1.61966 8.77018 1.62584C8.96112 1.62584 9.12127 1.61347 9.12127 1.58253C9.12127 1.55778 9.27525 1.55159 9.4662 1.57016C9.65098 1.58872 9.84192 1.58253 9.8912 1.55159C9.94047 1.52684 10.2238 1.52065 10.5256 1.53922C10.8213 1.55159 11.1539 1.59491 11.2648 1.63203C11.3962 1.67328 11.4721 1.67328 11.4927 1.63203C11.5111 1.59491 11.622 1.56397 11.739 1.55159C11.8561 1.54541 11.9669 1.56397 11.9854 1.60109C12.0039 1.63822 12.0285 1.63203 12.047 1.58253C12.0655 1.54541 12.0963 1.52065 12.1271 1.53303C12.1517 1.55159 12.3796 1.57634 12.6321 1.58872C12.8847 1.60109 13.1803 1.59491 13.2789 1.57016C13.3836 1.54541 13.5253 1.55159 13.6053 1.57634C13.6854 1.61347 13.7532 1.60728 13.7716 1.57016C13.7901 1.53303 13.9564 1.52065 14.1905 1.54541C14.3999 1.56397 14.6216 1.60728 14.6832 1.63822C14.7387 1.66916 14.8249 1.67535 14.868 1.6506C14.905 1.62584 15.4285 1.61347 16.0198 1.61966C16.6111 1.61966 17.264 1.63822 17.4673 1.6506C17.6706 1.66297 17.8738 1.69391 17.9169 1.71247C17.9539 1.73722 18.0278 1.71866 18.0709 1.66916C18.1264 1.60109 18.3851 1.58253 19.2535 1.58253C19.8633 1.58253 20.4115 1.59491 20.4731 1.60728C20.5347 1.61966 20.5655 1.66916 20.547 1.72485C20.5285 1.77435 20.547 1.81766 20.5778 1.81766C20.6148 1.81766 20.6394 1.77435 20.6394 1.72485C20.6394 1.67535 20.6887 1.62584 20.7503 1.62584C20.8057 1.61966 20.8981 1.61347 20.9474 1.60728C20.9967 1.60728 21.0583 1.62584 21.0829 1.66297C21.1075 1.70422 21.1486 1.70216 21.2061 1.65678C21.2492 1.61966 21.3909 1.58872 21.5202 1.58253C21.6434 1.57634 21.7604 1.59491 21.7789 1.63203C21.7974 1.66297 21.9144 1.68153 22.0438 1.66297C22.167 1.64441 22.3086 1.66297 22.3517 1.69391C22.401 1.73516 22.4359 1.73516 22.4565 1.69391C22.4749 1.65678 22.6597 1.62584 22.8753 1.62584C23.0847 1.61966 23.6514 1.61966 24.138 1.62584C24.6184 1.62584 25.0434 1.64441 25.0742 1.66297C25.1112 1.68153 25.1728 1.66916 25.2159 1.63822C25.2528 1.60728 25.6224 1.59491 26.0289 1.60728C26.4354 1.61966 26.7989 1.62584 26.8297 1.63203C26.8666 1.63203 27.0329 1.60728 27.1992 1.57634C27.3717 1.54541 27.5811 1.48972 27.6797 1.45259C27.7844 1.40928 27.846 1.40928 27.846 1.4464C27.846 1.47734 27.8952 1.48972 27.9568 1.47115C28.0123 1.45259 28.117 1.40928 28.1847 1.37215C28.271 1.32884 28.3695 1.32884 28.4927 1.37215C28.6036 1.40928 28.7144 1.41546 28.7699 1.37834C28.8192 1.3474 29.1456 1.32265 29.4967 1.32265C29.8416 1.32265 30.1804 1.3474 30.2481 1.38453C30.3303 1.42578 30.3816 1.42578 30.4021 1.38453C30.4206 1.3474 30.5561 1.32265 30.7101 1.32265C30.8641 1.32265 30.9996 1.3474 31.0181 1.38453C31.0365 1.42165 31.092 1.42784 31.1597 1.39071C31.2152 1.35978 31.3322 1.32884 31.4184 1.32265C31.5047 1.31646 31.6463 1.31027 31.7449 1.31646C31.8742 1.32265 31.8989 1.34121 31.8681 1.42784C31.8311 1.50209 31.8434 1.52065 31.9112 1.4959C31.9605 1.47734 31.9913 1.42165 31.9851 1.37834C31.9666 1.30409 32.0775 1.2979 32.6318 1.34121C32.9952 1.36596 33.3833 1.40309 33.4818 1.40928C33.5866 1.42165 33.6974 1.40928 33.7282 1.38453C33.7652 1.35359 33.9438 1.32884 34.1286 1.32265C34.3134 1.31646 34.4982 1.31646 34.529 1.32265C34.5659 1.32884 34.8554 1.32884 35.1757 1.32265C35.5145 1.31646 35.8163 1.33502 35.9025 1.37834C35.9887 1.42165 36.0503 1.42784 36.0688 1.38453C36.0873 1.3474 36.3337 1.32265 36.6232 1.32265C36.9127 1.32265 37.159 1.3474 37.1775 1.38453C37.198 1.42578 37.2596 1.42578 37.3623 1.38453C37.465 1.34327 37.5676 1.34327 37.6703 1.38453C37.7729 1.42578 37.814 1.42578 37.7935 1.38453C37.775 1.3474 37.8304 1.32265 37.9166 1.32265C38.0152 1.32265 38.0706 1.35978 38.0706 1.41546C38.0706 1.47115 38.1199 1.50209 38.1877 1.48972C38.2492 1.48353 38.2924 1.44021 38.28 1.3969C38.2616 1.34121 38.4032 1.32265 38.859 1.31646C39.1855 1.31646 39.5551 1.30409 39.6721 1.29171C39.7891 1.28552 39.9616 1.29171 40.0601 1.31646C40.1525 1.33502 40.2326 1.3969 40.2326 1.4464C40.2326 1.52684 40.2388 1.52684 40.3065 1.4464C40.3619 1.37215 40.5159 1.3474 40.904 1.33502C41.3659 1.32884 41.4337 1.34121 41.5076 1.4464C41.5446 1.51447 41.6185 1.57016 41.6616 1.57016C41.6985 1.57016 41.7848 1.52065 41.8525 1.45878C41.9388 1.37834 42.0927 1.3474 42.4993 1.34121C42.7888 1.32884 43.5156 1.32265 44.1069 1.32265C44.6982 1.32265 45.2402 1.33502 45.308 1.3474C45.3757 1.36596 45.4312 1.37834 45.4312 1.38453C45.4312 1.39071 45.6036 1.40309 45.813 1.40928C46.0286 1.40928 46.2011 1.40309 46.2011 1.38453C46.2011 1.36596 46.6938 1.3474 47.2913 1.34121C47.8949 1.34121 48.437 1.35978 48.4986 1.39071C48.554 1.42165 48.6033 1.42784 48.6033 1.3969C48.6033 1.37215 48.8312 1.3474 49.1083 1.34121C49.4594 1.32884 49.6319 1.3474 49.6627 1.40309C49.6996 1.45878 49.7366 1.45878 49.8352 1.3969C49.9214 1.3474 50.2971 1.32265 51.0855 1.31646C51.7015 1.31646 52.3051 1.31646 52.4221 1.32265C52.5392 1.32884 53.112 1.34121 53.6848 1.3474C54.2638 1.35978 54.7442 1.37834 54.7627 1.38453C54.7812 1.39071 54.812 1.3969 54.8428 1.39071C54.8674 1.39071 55.1015 1.37215 55.3663 1.35978C55.625 1.34121 55.8714 1.32265 55.9022 1.31646C55.9392 1.31027 56.0377 1.32265 56.1363 1.34121C56.2287 1.36596 56.3026 1.42165 56.3026 1.45878C56.3026 1.50209 56.3395 1.48353 56.3888 1.41546C56.4381 1.3474 56.4997 1.31646 56.5305 1.3474C56.5551 1.37834 56.5428 1.40928 56.5058 1.42165C56.4627 1.43403 56.4258 1.46497 56.4258 1.48972C56.4258 1.52065 56.5181 1.54541 56.629 1.55159C56.7707 1.55778 56.8261 1.53303 56.8261 1.45878C56.8261 1.38453 56.9 1.35978 57.1526 1.34121C57.4297 1.32265 57.4913 1.34121 57.6145 1.47734C57.6884 1.56397 57.7685 1.60728 57.7931 1.58253C57.8178 1.55778 57.8239 1.50209 57.8055 1.45878C57.7931 1.42165 57.8116 1.38453 57.8424 1.38453C57.8794 1.38453 57.904 1.40928 57.904 1.4464C57.904 1.47734 57.9471 1.46497 57.9964 1.41546C58.0703 1.34121 58.2428 1.32265 58.8834 1.33502C59.3207 1.3474 59.7026 1.37215 59.7334 1.3969C59.758 1.42784 59.8134 1.42165 59.8442 1.38453C59.8812 1.35359 60.0105 1.3474 60.1337 1.37215C60.2569 1.3969 60.3493 1.43403 60.3308 1.45878C60.3185 1.48972 60.3185 1.50828 60.337 1.50828C60.3555 1.50828 60.4109 1.52065 60.4602 1.53922C60.5218 1.55984 60.5526 1.5289 60.5526 1.4464C60.5526 1.34121 60.5957 1.32265 60.799 1.32265C60.9899 1.32265 61.0392 1.34121 61.0145 1.41546C60.9961 1.47734 61.0207 1.50828 61.0946 1.50828C61.15 1.50828 61.2424 1.48353 61.2917 1.4464C61.3533 1.40928 61.4149 1.41546 61.4703 1.46497C61.5319 1.52065 61.5689 1.52065 61.6243 1.44021C61.6798 1.35978 61.8091 1.3474 62.4312 1.36596C62.8377 1.37834 63.2812 1.40309 63.4167 1.42165C63.5522 1.44021 63.7001 1.42165 63.7432 1.39071C63.7801 1.35359 63.9095 1.33502 64.0203 1.35359C64.1251 1.37215 64.2667 1.44021 64.3283 1.50828C64.3838 1.57634 64.47 1.62584 64.5131 1.61347C64.5501 1.60109 64.5993 1.52684 64.6055 1.44021C64.6301 1.29171 64.6363 1.29171 65.0982 1.33502C65.3631 1.35978 65.6588 1.39071 65.7573 1.40309C65.862 1.41546 65.9852 1.4464 66.0345 1.47115C66.0899 1.4959 66.1638 1.47115 66.2193 1.41546C66.2685 1.35978 66.3548 1.31646 66.404 1.31646C66.4533 1.32265 66.5334 1.35359 66.5765 1.3969C66.6319 1.45878 66.6812 1.45878 66.7613 1.40928C66.8167 1.37215 67.0877 1.33502 67.3588 1.32265C67.6298 1.31646 67.8823 1.31027 67.9131 1.31027C67.9501 1.31646 68.529 1.31646 69.2066 1.31646C69.8841 1.31646 70.4877 1.31646 70.5493 1.32265C70.6048 1.32265 70.7157 1.32884 70.7957 1.32884C70.8696 1.33502 71.1653 1.33502 71.4548 1.33502C71.7443 1.32884 72.2925 1.32884 72.6744 1.32265C73.1856 1.32265 73.3642 1.34121 73.3642 1.3969C73.3642 1.45878 73.3765 1.45878 73.4381 1.3969C73.4812 1.35978 73.6599 1.32265 73.8385 1.32265C74.1157 1.32265 74.1773 1.34121 74.3066 1.60109L74.362 1.45878C74.3867 1.37834 74.4606 1.32265 74.5345 1.32265C74.6084 1.32265 74.6823 1.37834 74.7624 1.60109L74.8302 1.45878C74.8733 1.38453 74.9533 1.32265 75.0149 1.32265C75.0704 1.32265 75.1504 1.3474 75.1812 1.38453C75.2182 1.42165 75.3044 1.42784 75.3968 1.3969C75.483 1.37215 76.0066 1.35359 76.5671 1.35978C77.1276 1.36596 77.7559 1.38453 77.9653 1.3969C78.1809 1.40309 78.3533 1.3969 78.3533 1.36596C78.3533 1.34121 78.3903 1.34121 78.4334 1.36596C78.4704 1.39071 78.5751 1.40309 78.6613 1.3969C78.7476 1.38453 78.8276 1.40309 78.8461 1.44021C78.8646 1.48353 78.9693 1.47734 79.1541 1.42165C79.345 1.36596 79.8994 1.34121 80.9095 1.33502C82.0613 1.32884 82.4124 1.34121 82.511 1.40928C82.6157 1.47734 82.6465 1.47734 82.7142 1.40928C82.7574 1.35978 82.8805 1.32265 82.9791 1.32265C83.0776 1.32265 83.2316 1.35359 83.3302 1.38453C83.4411 1.42784 83.515 1.42784 83.5519 1.38453C83.5889 1.35359 83.6751 1.32265 83.7552 1.32265C83.8353 1.32265 83.94 1.33502 83.9892 1.35359C84.0385 1.37215 84.0816 1.43403 84.0816 1.48972C84.0755 1.58872 84.0878 1.58872 84.211 1.47734C84.2787 1.40928 84.3526 1.35978 84.365 1.36596C84.3773 1.37834 84.4266 1.37215 84.4697 1.35359C84.5066 1.33502 84.7961 1.33502 85.0979 1.35359C85.4059 1.37215 85.6954 1.38453 85.7447 1.38453C85.7939 1.38453 86.0527 1.37215 86.3175 1.35359C86.6008 1.33502 86.8041 1.3474 86.8226 1.38453C86.841 1.42165 86.915 1.42784 87.0258 1.39071C87.1182 1.36596 87.3153 1.33502 87.4693 1.32884C87.6233 1.32265 87.7896 1.31646 87.8389 1.32265C87.8882 1.32265 88.2762 1.32884 88.7012 1.32884C89.1262 1.32884 89.5697 1.35359 89.6867 1.37834C89.8037 1.40309 89.9577 1.40928 90.0255 1.38453C90.0932 1.35978 90.2164 1.36596 90.3027 1.39071C90.3889 1.42165 90.4813 1.42165 90.5182 1.39071C90.5552 1.35978 91.0048 1.33502 91.5222 1.32884C92.3538 1.32265 92.4646 1.33502 92.5139 1.42784C92.5632 1.52065 92.5817 1.52684 92.6063 1.4464C92.6371 1.37834 92.7664 1.3474 93.136 1.33502C93.524 1.32884 93.6596 1.3474 93.7827 1.42784C93.8628 1.48972 93.9121 1.56397 93.8875 1.58872C93.8628 1.61966 93.9306 1.61966 94.0291 1.58872C94.1338 1.56397 94.3248 1.54541 94.4603 1.55778C94.5958 1.56397 94.7313 1.59491 94.7683 1.62584C94.8052 1.6506 94.8914 1.69391 94.9715 1.71866C95.0701 1.74341 95.107 1.73103 95.107 1.66297C95.107 1.58872 95.1563 1.57634 95.3411 1.61347C95.4643 1.63203 95.6675 1.6506 95.7846 1.6506C95.9016 1.6506 96.1418 1.63203 96.3081 1.60728C96.5299 1.57634 96.653 1.58872 96.7393 1.65678C96.8255 1.71866 96.9056 1.72485 97.0164 1.68772C97.1027 1.6506 97.3367 1.62584 97.54 1.63203C97.7433 1.63203 98.3962 1.62584 98.9875 1.61347C99.8067 1.59491 100.096 1.61347 100.207 1.67535C100.293 1.72485 100.355 1.73103 100.373 1.69391C100.392 1.65678 100.441 1.63822 100.484 1.64441C100.521 1.6506 100.663 1.63822 100.792 1.61347C100.94 1.58253 101.051 1.59491 101.112 1.64441C101.193 1.70628 101.211 1.70628 101.205 1.64441C101.205 1.58872 101.359 1.57634 101.87 1.60109C102.233 1.61966 102.93 1.63203 103.422 1.63203C103.915 1.63822 104.402 1.63822 104.5 1.63822H105.178C105.449 1.63822 105.917 1.63203 106.212 1.61966C106.662 1.60728 106.779 1.61966 106.878 1.70628C106.939 1.76816 107.019 1.81766 107.056 1.81766C107.093 1.81766 107.13 1.78054 107.143 1.73722C107.155 1.68772 107.327 1.65678 107.648 1.64441C107.919 1.63203 108.159 1.62584 108.196 1.62584C108.233 1.62584 108.399 1.64441 108.565 1.66297C108.738 1.68153 108.91 1.71866 108.953 1.75579C109.003 1.7991 109.034 1.79291 109.058 1.73722C109.07 1.7001 109.144 1.64441 109.212 1.61347C109.28 1.58872 109.348 1.59491 109.366 1.63203C109.385 1.66297 109.452 1.68153 109.52 1.66297C109.588 1.64441 109.68 1.66297 109.723 1.69391C109.76 1.73103 109.84 1.74341 109.89 1.72485C109.939 1.71247 110.105 1.68153 110.259 1.66297C110.402 1.6458 110.67 1.62334 110.885 1.60538L110.937 1.60109C111.159 1.58872 111.454 1.56397 111.602 1.54541C111.744 1.52684 111.861 1.47734 111.861 1.4464C111.861 1.40928 111.898 1.40309 111.941 1.42784C111.978 1.45259 112.027 1.47734 112.045 1.48353C112.064 1.48353 112.132 1.50828 112.199 1.53922C112.273 1.57016 112.366 1.55778 112.434 1.51447C112.514 1.46497 112.557 1.46497 112.631 1.53922C112.68 1.58872 112.766 1.63203 112.815 1.63203C112.877 1.63203 112.902 1.58253 112.895 1.48972C112.877 1.37834 112.908 1.3474 113.062 1.33502C113.191 1.32265 113.271 1.35359 113.327 1.4464C113.376 1.53303 113.425 1.55159 113.481 1.50828C113.518 1.47115 113.598 1.46497 113.647 1.48353C113.696 1.50209 113.807 1.48353 113.893 1.44021C113.996 1.38659 114.273 1.3639 114.725 1.37215C115.101 1.37834 115.526 1.3969 115.68 1.40928C115.834 1.42165 116.012 1.40309 116.08 1.37215C116.148 1.33502 116.295 1.32884 116.406 1.3474C116.511 1.36596 116.603 1.42165 116.603 1.45878C116.603 1.50209 116.659 1.54541 116.727 1.55159C116.813 1.56397 116.856 1.52684 116.881 1.42784C116.905 1.29171 116.918 1.29171 117.478 1.3474C117.792 1.37215 118.119 1.42165 118.205 1.4464C118.303 1.47734 118.433 1.46497 118.562 1.40928C118.698 1.3474 118.79 1.34121 118.852 1.38453C118.901 1.41546 119.012 1.43403 119.098 1.41546C119.221 1.39071 119.258 1.41546 119.289 1.52065C119.307 1.60109 119.338 1.63822 119.363 1.61347C119.388 1.58253 119.406 1.52684 119.406 1.48972C119.406 1.4464 119.523 1.40309 119.665 1.38453C119.813 1.36596 119.93 1.37215 119.93 1.3969C119.93 1.42784 119.967 1.42784 120.01 1.40928C120.047 1.38453 120.324 1.36596 120.619 1.35978C120.921 1.35978 121.161 1.37215 121.161 1.3969C121.161 1.42784 121.254 1.43403 121.365 1.41546C121.469 1.3969 121.63 1.37215 121.716 1.35978C121.802 1.3474 121.888 1.36596 121.919 1.40928C121.944 1.45259 121.981 1.45878 122.011 1.41546C122.036 1.37834 122.714 1.3474 123.767 1.33502C124.771 1.32884 125.516 1.3474 125.584 1.38453C125.652 1.42165 125.713 1.42165 125.75 1.37834C125.787 1.3474 125.966 1.32884 126.151 1.33502C126.385 1.3474 126.483 1.37834 126.477 1.42784C126.465 1.47115 126.477 1.50209 126.508 1.48972C126.532 1.48353 126.631 1.43403 126.73 1.38453C126.89 1.2979 126.908 1.30409 126.988 1.41546C127.068 1.52684 127.075 1.53303 127.105 1.42784C127.13 1.34121 127.179 1.32884 127.432 1.36596C127.592 1.38453 127.764 1.3969 127.814 1.39071C127.863 1.39071 127.992 1.38453 128.091 1.38453C128.196 1.39071 128.294 1.42165 128.319 1.46497C128.352 1.51447 128.368 1.50209 128.368 1.42784C128.368 1.3474 128.405 1.32884 128.54 1.35978C128.633 1.38453 128.731 1.3969 128.768 1.39071C128.805 1.38453 129.261 1.37834 129.785 1.36596C130.308 1.35359 130.832 1.36596 130.943 1.3969C131.047 1.42165 131.14 1.48353 131.14 1.52065C131.134 1.57634 131.164 1.57634 131.238 1.50828C131.318 1.43403 131.546 1.41546 132.273 1.40928C132.784 1.40309 133.259 1.42165 133.326 1.4464C133.4 1.47115 133.499 1.45878 133.573 1.40928C133.665 1.3474 133.924 1.32884 134.589 1.3474C135.082 1.35359 135.531 1.38453 135.593 1.40309C135.648 1.42784 135.735 1.42165 135.778 1.39071C135.815 1.36596 135.975 1.34121 136.123 1.3474C136.283 1.35359 136.406 1.38453 136.418 1.42784C136.431 1.48972 136.474 1.48972 136.609 1.41546C136.733 1.35359 136.917 1.33502 137.299 1.35359C137.589 1.37215 137.915 1.39071 138.026 1.3969C138.143 1.40928 138.248 1.3969 138.26 1.36596C138.272 1.34121 138.445 1.32265 138.642 1.32884C138.833 1.32884 139.098 1.35978 139.227 1.39071C139.35 1.42165 139.455 1.42784 139.455 1.3969C139.455 1.37215 139.972 1.35978 140.613 1.36596C141.247 1.37215 141.943 1.39071 142.165 1.40309C142.387 1.41546 142.621 1.4464 142.689 1.47734C142.763 1.50209 142.867 1.4959 142.954 1.45259C143.034 1.41546 143.077 1.40928 143.058 1.4464C143.04 1.47734 143.052 1.50828 143.089 1.50828C143.126 1.50828 143.157 1.47734 143.169 1.4464C143.175 1.40928 143.496 1.37834 143.927 1.36596C144.45 1.35978 144.703 1.37834 144.771 1.42784C144.838 1.47734 144.888 1.48353 144.906 1.4464C144.925 1.40928 144.98 1.3969 145.029 1.41546C145.079 1.43403 145.122 1.42784 145.122 1.3969C145.122 1.37215 145.319 1.3474 145.553 1.33502C145.91 1.32265 146.009 1.34121 146.126 1.4464C146.255 1.56397 146.267 1.56397 146.354 1.45259C146.44 1.35359 146.581 1.3474 148.201 1.35359C149.168 1.35359 149.981 1.37215 150.018 1.38453C150.055 1.3969 150.129 1.38453 150.191 1.36596C150.246 1.34121 150.333 1.3474 150.376 1.38453C150.413 1.41546 150.585 1.42784 150.758 1.40309C150.93 1.38453 151.109 1.36596 151.158 1.36596C151.207 1.37215 151.318 1.37215 151.404 1.37215C151.491 1.37215 151.7 1.37834 151.866 1.37834C152.039 1.37834 152.267 1.3969 152.377 1.41546C152.513 1.43403 152.575 1.48353 152.575 1.55159C152.581 1.65678 152.581 1.65678 152.667 1.55159C152.753 1.45259 152.778 1.45259 153.117 1.55778C153.308 1.61966 153.609 1.66297 153.776 1.6506C153.948 1.64441 154.25 1.63203 154.453 1.62584C154.687 1.61966 154.829 1.64441 154.841 1.68772C154.847 1.73722 154.878 1.73722 154.934 1.69391C154.977 1.6506 155.155 1.64441 155.408 1.66916C155.63 1.69391 155.851 1.71866 155.901 1.71866C155.95 1.72485 156.067 1.70628 156.166 1.68153C156.264 1.6506 156.344 1.65678 156.363 1.69391C156.381 1.72485 156.43 1.73722 156.474 1.71247C156.51 1.68772 157.108 1.66297 157.798 1.6506C158.771 1.63822 159.06 1.6506 159.122 1.71247C159.159 1.76197 159.245 1.79291 159.307 1.79291C159.362 1.78672 159.412 1.76816 159.412 1.73722C159.412 1.71247 159.609 1.7001 159.849 1.70628C160.089 1.71866 160.299 1.70628 160.311 1.67535C160.323 1.6506 160.372 1.64441 160.416 1.66297C160.452 1.67535 160.6 1.7001 160.736 1.71247C160.871 1.72485 161.044 1.76816 161.124 1.80529C161.198 1.8486 161.303 1.86716 161.352 1.8486C161.401 1.83004 161.444 1.78672 161.444 1.75579C161.444 1.71866 161.617 1.7001 161.875 1.70628C162.183 1.71866 162.325 1.7496 162.362 1.81766C162.405 1.8981 162.417 1.8981 162.454 1.7991C162.473 1.74341 162.541 1.7001 162.602 1.70628C162.658 1.71247 162.781 1.7001 162.879 1.67535C162.972 1.6506 163.046 1.6506 163.046 1.67535C163.046 1.70628 163.434 1.71866 163.908 1.70628C164.69 1.69391 164.77 1.70628 164.776 1.7991C164.776 1.86098 164.789 1.87335 164.807 1.83004C164.82 1.79291 164.857 1.76816 164.893 1.78672C164.93 1.80529 164.937 1.86716 164.918 1.92285C164.887 2.01567 164.893 2.01567 164.943 1.94142C164.974 1.89191 165.035 1.86716 165.072 1.89191C165.109 1.92285 165.183 1.92285 165.238 1.89191C165.294 1.86716 165.331 1.83004 165.331 1.7991C165.325 1.77435 165.325 1.71866 165.325 1.67535C165.318 1.63203 165.374 1.6506 165.454 1.72485C165.565 1.83623 165.589 1.83623 165.651 1.7496C165.694 1.7001 165.799 1.65678 165.891 1.65678C165.978 1.66297 166.076 1.68153 166.107 1.71247C166.132 1.73722 166.249 1.74341 166.359 1.72485C166.501 1.7001 166.55 1.71247 166.526 1.76816C166.507 1.81147 166.55 1.87954 166.63 1.91666C166.741 1.97235 166.772 1.96617 166.772 1.90429C166.772 1.85479 166.735 1.83004 166.698 1.8486C166.655 1.86716 166.618 1.83623 166.618 1.78672C166.618 1.71247 166.723 1.69391 167.222 1.70628C167.548 1.70628 167.856 1.69391 167.899 1.67535C167.936 1.6506 168.016 1.67535 168.066 1.72485C168.121 1.78054 168.17 1.79291 168.189 1.75579C168.207 1.71866 168.263 1.69391 168.312 1.69391C168.361 1.69391 168.447 1.73722 168.497 1.78672C168.577 1.86716 168.589 1.86716 168.589 1.78672C168.589 1.73722 168.638 1.68772 168.7 1.67535C168.755 1.66297 168.854 1.66297 168.916 1.67535C168.977 1.68772 169.008 1.73103 168.989 1.78672C168.971 1.83623 168.965 1.87954 168.977 1.87954C168.983 1.87954 169.076 1.84241 169.174 1.79291C169.279 1.73722 169.599 1.68772 169.913 1.67535C170.215 1.66297 170.529 1.67535 170.609 1.70628C170.683 1.73103 170.733 1.78054 170.714 1.81766C170.696 1.8486 170.72 1.87954 170.763 1.87954C170.807 1.87954 170.868 1.85479 170.905 1.82385C170.936 1.79291 171.078 1.75579 171.225 1.73103C171.447 1.7001 171.484 1.71247 171.484 1.7991C171.484 1.89191 171.496 1.8981 171.546 1.81766C171.601 1.73722 171.613 1.73722 171.669 1.81766C171.718 1.8981 171.73 1.89191 171.73 1.7991C171.73 1.74341 171.786 1.68153 171.854 1.66297C171.94 1.63822 171.977 1.66297 171.977 1.73722C171.977 1.82385 171.989 1.83004 172.051 1.76816C172.094 1.73103 172.186 1.69391 172.266 1.69391C172.346 1.69391 172.426 1.74341 172.451 1.7991C172.488 1.90429 172.494 1.8981 172.568 1.78672C172.624 1.70628 172.685 1.68153 172.747 1.70628C172.796 1.73722 172.839 1.73722 172.839 1.70628C172.839 1.68153 173.135 1.65678 173.504 1.6506C173.991 1.63822 174.188 1.61347 174.256 1.53922C174.305 1.48972 174.373 1.45259 174.41 1.45259C174.447 1.45259 174.521 1.4959 174.588 1.55778C174.699 1.65678 174.699 1.65678 174.662 1.52065C174.625 1.39071 174.644 1.38453 174.921 1.39071H175.703C175.974 1.38453 176.264 1.40309 176.35 1.42165C176.436 1.44021 176.67 1.45259 176.874 1.44021C177.077 1.43403 177.36 1.42784 177.502 1.42165C177.637 1.41546 177.742 1.3969 177.73 1.36596C177.717 1.34121 177.767 1.30409 177.847 1.28552C177.921 1.26077 178.032 1.26077 178.093 1.28552C178.149 1.30409 178.21 1.29171 178.229 1.26077C178.247 1.22365 178.321 1.20508 178.401 1.21127C178.475 1.21746 178.561 1.20508 178.598 1.18652C178.635 1.16177 178.826 1.13702 179.029 1.13083C179.233 1.11846 179.467 1.13702 179.553 1.16796C179.639 1.1989 179.756 1.21746 179.818 1.21127C179.873 1.20508 179.966 1.23602 180.021 1.27315C180.101 1.34121 180.113 1.33502 180.101 1.26077C180.083 1.18652 180.163 1.16796 180.6 1.17415C180.963 1.18033 181.117 1.1989 181.111 1.2484C181.099 1.2979 181.142 1.29171 181.234 1.22983C181.315 1.18033 181.395 1.16177 181.432 1.19271C181.469 1.22365 181.61 1.22983 181.77 1.1989C181.924 1.16796 182.152 1.14321 182.282 1.13702C182.405 1.13702 182.509 1.16177 182.509 1.1989C182.509 1.24015 182.551 1.24015 182.633 1.1989C182.7 1.16177 182.824 1.13702 182.91 1.13702C182.996 1.13702 183.107 1.18033 183.156 1.22983C183.236 1.31027 183.255 1.31027 183.279 1.22983C183.298 1.18033 183.353 1.13702 183.403 1.13702C183.452 1.13702 183.495 1.18033 183.495 1.22983C183.495 1.27934 183.526 1.34121 183.563 1.36596C183.6 1.3969 183.655 1.37215 183.68 1.32265C183.711 1.26696 183.766 1.2484 183.828 1.27315C183.883 1.30409 183.938 1.29171 183.957 1.26077C183.975 1.22365 184.099 1.21127 184.228 1.22365C184.37 1.23602 184.505 1.21127 184.567 1.16177C184.622 1.11227 184.671 1.09989 184.684 1.13702C184.69 1.16796 184.776 1.14939 184.881 1.09371Z" fill="#FF5D00"/>
</svg>
