<svg width="140" height="118" viewBox="0 0 140 118" fill="none" xmlns="http://www.w3.org/2000/svg">
<path fill-rule="evenodd" clip-rule="evenodd" d="M42.5429 0.829927C43.3349 0.838535 43.5328 0.864361 43.662 0.993491C43.8083 1.12262 43.8341 1.12262 43.8944 1.01071C43.9375 0.924622 44.0838 0.881578 44.3679 0.881578C44.5917 0.881578 44.9533 0.907404 45.1857 0.941839C45.4095 0.984882 45.5903 1.03653 45.5903 1.07958C45.5903 1.11401 45.5645 1.13123 45.53 1.13123C45.487 1.12262 45.4009 1.12262 45.332 1.13123C45.2201 1.13984 45.2201 1.14845 45.332 1.22592C45.4095 1.26897 45.4956 1.26897 45.5472 1.21732C45.5989 1.17427 45.6678 1.16566 45.7022 1.20871C45.7452 1.24314 45.7452 1.2001 45.7022 1.1054C45.6419 0.967665 45.6678 0.950448 45.8916 0.976274C46.0637 0.99923 46.1441 0.973404 46.1326 0.898796C46.1154 0.821318 46.1843 0.812709 46.4339 0.881578C46.6061 0.924622 46.7783 0.967665 46.8213 0.967665C46.8557 0.967665 46.8643 0.924622 46.8385 0.881578C46.8127 0.838535 46.8816 0.847144 46.9935 0.907404C47.0968 0.959056 47.2517 1.06236 47.3378 1.12262C47.4325 1.19149 47.5358 1.2001 47.6391 1.14845C47.7424 1.08819 47.8629 1.11401 48.0265 1.20871C48.1556 1.28619 48.2589 1.38088 48.2589 1.42392C48.2589 1.45836 48.3794 1.61331 48.5258 1.76827C48.7582 2.0007 48.8615 2.04375 49.2403 2.05236C49.4813 2.05236 49.7482 2.06957 49.8343 2.06957C49.9376 2.08679 49.972 2.14705 49.9634 2.30201C49.9462 2.41392 49.9806 2.51722 50.0236 2.51722C50.0753 2.51722 50.1786 2.5947 50.2647 2.6894C50.3422 2.78409 50.4024 2.98209 50.4024 3.14565C50.3938 3.292 50.4282 3.52444 50.4885 3.66217C50.5402 3.7913 50.5832 3.95487 50.5832 4.02374C50.5832 4.09261 50.5229 4.15287 50.4541 4.15287C50.3852 4.15287 50.3249 4.19591 50.3249 4.23895C50.3249 4.282 50.3077 4.3853 50.2819 4.45417C50.2561 4.53165 50.2905 4.5833 50.368 4.5833C50.4369 4.5833 50.4971 4.62634 50.4971 4.66939C50.4971 4.71243 50.4455 4.77269 50.3938 4.78991C50.3163 4.81573 50.3336 4.87599 50.6262 5.09982H50.4541C50.2991 5.09121 50.2991 5.10843 50.411 5.22895C50.5057 5.32364 50.5057 5.36669 50.4369 5.35808C50.3594 5.35808 50.368 5.42695 50.4799 5.59051C50.5832 5.75408 50.6004 5.82295 50.5229 5.84877C50.4455 5.86599 50.4282 5.96929 50.4627 6.15868C50.4971 6.31364 50.4713 6.52886 50.411 6.64938C50.3508 6.7699 50.3077 7.09703 50.3077 7.38111C50.3077 7.6652 50.2819 7.97511 50.2389 8.06981C50.2044 8.1645 50.2044 8.43998 50.2561 8.67241C50.2991 8.91345 50.3508 9.3525 50.368 9.66241C50.3766 9.97232 50.411 10.3081 50.4455 10.42C50.4713 10.5233 50.4627 10.6696 50.411 10.7385C50.3536 10.8246 50.3536 10.882 50.411 10.9107C50.4627 10.9365 50.4971 11.1087 50.4971 11.2981C50.4971 11.5477 50.4627 11.6424 50.368 11.6424C50.2991 11.6424 50.2216 11.694 50.2044 11.7543C50.1872 11.806 50.2216 11.9523 50.2819 12.0728C50.3422 12.1934 50.3766 12.4344 50.3594 12.6152C50.3422 12.7873 50.2905 12.9165 50.2389 12.8907C50.1958 12.8648 50.1528 12.8648 50.1528 12.8907C50.1528 12.9165 50.1958 13.0284 50.2389 13.1489C50.3077 13.3211 50.2991 13.3727 50.1958 13.4072C50.1183 13.433 50.0925 13.4933 50.1269 13.5621C50.1614 13.6138 50.1872 13.9667 50.1872 14.3369C50.1958 14.8362 50.17 14.9912 50.0925 14.9567C50.0064 14.9223 50.0064 14.9739 50.0925 15.1978C50.17 15.3958 50.1872 15.8434 50.1528 16.8592C50.1183 18.0214 50.0839 18.2797 49.9634 18.4088C49.8773 18.5035 49.8084 18.5982 49.8084 18.6412C49.8084 18.6757 49.8687 18.6843 49.9376 18.6585C50.0323 18.624 50.0667 18.6843 50.0667 18.8995C50.0753 19.1491 50.0581 19.1664 49.9376 19.0458C49.8601 18.977 49.7998 18.9425 49.8084 18.9856C49.8084 19.02 49.8687 19.3471 49.9462 19.7173C50.0323 20.1592 50.061 20.6097 50.0323 21.0689C50.0064 21.4477 49.9634 21.9728 49.929 22.231C49.9031 22.4893 49.8429 22.7476 49.8084 22.7906C49.7654 22.8337 49.7826 22.937 49.8343 23.0144C49.8945 23.0919 50.1528 23.221 50.411 23.2985C50.7984 23.4276 50.8931 23.4363 50.9448 23.3416C50.9878 23.2383 51.0394 23.2383 51.2461 23.333C51.3838 23.4018 51.5043 23.4104 51.5301 23.3674C51.556 23.3157 51.8228 23.2899 52.1327 23.3071C52.4426 23.3157 52.7095 23.333 52.7353 23.3502C52.7611 23.3588 52.8731 23.3588 52.9936 23.3502C53.1141 23.3416 53.2346 23.3846 53.2604 23.4535C53.2949 23.5223 53.424 23.5568 53.6048 23.5396C53.7856 23.5137 53.9233 23.5482 53.9577 23.6256C54.0094 23.7031 54.0266 23.7117 54.0266 23.6343C54.0266 23.5654 54.0696 23.5482 54.1385 23.5826C54.2074 23.6285 54.2217 23.6142 54.1816 23.5396C54.1385 23.4879 54.1557 23.419 54.1988 23.3932C54.2504 23.3674 54.3021 23.4104 54.3279 23.4793C54.3623 23.5826 54.3968 23.5912 54.5087 23.5051C54.6206 23.4104 54.6378 23.419 54.6206 23.5223C54.5948 23.6084 54.6636 23.6601 54.8272 23.6773C55.008 23.6859 55.051 23.6601 55.0424 23.5482C55.0252 23.4363 55.0768 23.3932 55.2318 23.3932C55.3523 23.3932 55.4642 23.3674 55.49 23.3243C55.5159 23.2899 55.7655 23.2383 56.0496 23.2124C56.3337 23.1866 56.6952 23.1694 56.8502 23.1694C57.0224 23.178 57.1429 23.1263 57.1687 23.0489C57.1945 22.9628 57.3236 22.9197 57.5389 22.9197C57.711 22.9197 57.9607 22.9111 58.0898 22.9025C58.2189 22.8853 58.3308 22.9025 58.3308 22.9456C58.3308 22.98 58.4169 22.9972 58.5288 22.9886C58.6321 22.98 58.744 22.9283 58.7785 22.8767C58.8244 22.8193 58.8473 22.8279 58.8473 22.9025C58.8473 22.9714 58.9679 22.9972 59.2606 22.9628C59.4844 22.937 59.7943 22.8939 59.9406 22.8595C60.1731 22.7992 60.2505 22.825 60.3538 22.9628C60.4657 23.1177 60.4743 23.1177 60.483 22.9886C60.483 22.9025 60.5346 22.8337 60.5949 22.8337C60.6465 22.8337 60.8273 22.8595 60.9823 22.8939C61.163 22.937 61.2491 23.0058 61.2147 23.0747C61.1889 23.1263 61.1975 23.178 61.2405 23.178C61.2749 23.178 61.361 23.1177 61.4299 23.0403C61.4988 22.9714 61.6709 22.9111 61.8173 22.9025C61.9636 22.9025 62.0841 22.9456 62.1014 22.9972C62.11 23.0661 62.196 23.0661 62.4027 23.0058C62.549 22.9542 62.7556 22.9197 62.8503 22.9197C62.945 22.9197 63.1085 22.9972 63.2205 23.0919C63.3754 23.2383 63.4185 23.2469 63.4529 23.135C63.4787 23.0661 63.5734 23.0058 63.6681 23.0058C63.7628 23.0058 63.8403 23.0489 63.8403 23.0919C63.8403 23.1436 63.978 23.1608 64.1674 23.135C64.3396 23.1091 64.7614 23.0919 65.0885 23.0833C65.4156 23.0747 65.9321 23.0919 66.2334 23.1263C66.6466 23.1694 66.793 23.1522 66.8877 23.0489C66.9565 22.98 67.0685 22.9197 67.1287 22.9197C67.189 22.9197 67.3095 22.9886 67.3956 23.0747C67.4817 23.1522 67.5419 23.178 67.5419 23.135C67.5419 23.0919 67.6883 23.0058 67.8604 22.9542C68.0412 22.9025 68.2909 22.8509 68.4286 22.8423C68.5663 22.8423 68.6782 22.8853 68.7041 22.9628C68.7299 23.0316 68.8246 23.0919 68.9193 23.0919C69.014 23.0919 69.1087 23.0489 69.1345 23.0058C69.1603 22.9628 69.2894 22.9197 69.4358 22.9197C69.5821 22.9197 69.7113 22.8767 69.7371 22.8337C69.7629 22.782 69.9781 22.7648 70.2536 22.7906C70.6324 22.825 70.7271 22.8078 70.7271 22.7045C70.7271 22.5926 70.7443 22.5926 70.8562 22.7045C70.9251 22.7734 71.0456 22.8164 71.1144 22.7906C71.1833 22.7648 71.2436 22.7045 71.2436 22.6615C71.2436 22.6012 71.321 22.6098 71.4846 22.6615C71.6137 22.7131 71.8376 22.7476 71.9925 22.7303C72.1819 22.7131 72.311 22.7562 72.4229 22.8853C72.5262 23.0144 72.6468 23.0661 72.8189 23.0403C72.9481 23.023 73.0513 22.9628 73.0513 22.9197C73.0513 22.8767 73.1547 22.8078 73.2924 22.7734C73.4215 22.739 73.6109 22.7217 73.7228 22.7303C73.8261 22.739 73.9983 22.825 74.1102 22.9197C74.291 23.0919 74.3082 23.0919 74.4029 22.9456C74.4976 22.8078 74.5234 22.8078 74.6439 22.9197C74.7644 23.0316 74.8075 23.0316 74.971 22.9283C75.0916 22.8509 75.2465 22.8336 75.4187 22.8767C75.565 22.9197 75.8319 22.9542 76.0213 22.9628C76.2107 22.98 76.4517 22.9542 76.5636 22.9111C76.7014 22.8509 76.7702 22.8681 76.8219 22.9714C76.8735 23.0919 76.9166 23.0919 77.1834 22.9886C77.347 22.9283 77.6139 22.8853 77.7688 22.8939C77.9496 22.9111 78.0443 22.9628 78.0443 23.0489C78.0443 23.1177 78.1045 23.1694 78.1734 23.1608C78.2509 23.1436 78.3456 23.0747 78.3886 23.0058C78.446 22.9197 78.4747 22.914 78.4747 22.9886C78.4747 23.0403 78.5522 23.0919 78.6469 23.0919C78.7502 23.0919 78.819 23.0316 78.819 22.9456C78.819 22.8595 78.8621 22.7476 78.9223 22.6873C79.0084 22.6184 79.1289 22.6184 79.3786 22.6873C79.568 22.7303 79.7488 22.8164 79.7746 22.8681C79.8176 22.937 79.8435 22.9283 79.8865 22.8595C79.9123 22.7992 79.9726 22.7476 80.0242 22.7476C80.0759 22.7476 80.0931 22.7906 80.0673 22.8337C80.0414 22.8767 80.0587 22.9197 80.1103 22.9197C80.162 22.9197 80.1964 22.8595 80.1964 22.7906C80.1964 22.7131 80.248 22.6787 80.3255 22.7045C80.4116 22.7303 80.4374 22.7992 80.3944 22.9025C80.3686 22.98 80.446 22.937 80.5666 22.7906C80.7818 22.5323 80.7904 22.5323 81.0056 22.6873C81.1261 22.7648 81.3069 22.8337 81.4016 22.8337C81.4963 22.8337 81.5824 22.7906 81.5996 22.7303C81.6082 22.6615 81.6943 22.6615 81.875 22.7217C82.0816 22.782 82.1591 22.7734 82.2883 22.6443C82.3829 22.541 82.469 22.5151 82.5465 22.5668C82.5982 22.6098 82.7531 22.627 82.8909 22.6098C83.0544 22.584 83.1233 22.6098 83.1233 22.7045C83.1233 22.7992 83.1749 22.8164 83.3213 22.782C83.4246 22.7476 83.5451 22.6959 83.5967 22.6529C83.6484 22.6184 83.812 22.6529 83.9755 22.7303C84.251 22.8681 84.2682 22.8681 84.3629 22.7217C84.4232 22.627 84.5351 22.5754 84.6728 22.5926C84.7933 22.6098 84.8794 22.6701 84.8708 22.7303C84.8536 22.782 84.9052 22.8337 84.9741 22.8337C85.043 22.8337 85.1291 22.825 85.1721 22.8164C85.2065 22.7992 85.2238 22.7648 85.2151 22.7303C85.1979 22.6873 85.284 22.6615 85.4045 22.6615C85.5767 22.6615 85.6111 22.6959 85.5767 22.8337C85.5509 22.9283 85.5681 23.023 85.6197 23.0489C85.6714 23.0747 85.7058 23.0316 85.7058 22.9628C85.7058 22.8853 85.8091 22.8164 85.9641 22.7906C86.1104 22.7648 86.2826 22.7992 86.3687 22.8595C86.4462 22.9111 86.7647 22.9714 87.0746 22.98C87.3845 22.9886 87.6772 22.9628 87.7288 22.9197C87.7805 22.8853 88.0301 22.8337 88.2884 22.8164C88.6671 22.782 88.7963 22.8078 88.934 22.937C89.0287 23.023 89.1406 23.0833 89.1923 23.0661C89.2439 23.0403 89.3558 23.0661 89.4505 23.1177C89.6055 23.2038 89.6141 23.1952 89.5538 23.0403C89.485 22.8939 89.5022 22.8853 89.7863 22.9456C90.0187 22.9886 90.122 22.9714 90.2081 22.8767C90.2597 22.7992 90.3458 22.7562 90.3974 22.7734C90.4491 22.7906 90.5782 22.7734 90.6987 22.7303C90.8537 22.6787 90.9742 22.6959 91.112 22.7906C91.2153 22.8595 91.3358 22.9197 91.3874 22.9197C91.4391 22.9197 91.4735 22.8595 91.4735 22.7906C91.4735 22.7217 91.5596 22.6443 91.6715 22.627C91.7748 22.6012 91.9298 22.6184 92.0159 22.6701C92.1105 22.7217 92.1794 22.7131 92.2052 22.6615C92.2311 22.6184 92.3344 22.5754 92.4463 22.5754C92.5496 22.5754 92.6873 22.6184 92.7476 22.6787C92.8423 22.7734 92.8595 22.7648 92.8337 22.6615C92.8164 22.584 92.8853 22.5237 93.0058 22.5151C93.1091 22.4979 93.1952 22.5323 93.1952 22.5754C93.1952 22.6357 93.2813 22.627 93.4362 22.5668C93.617 22.4979 93.6859 22.5065 93.7548 22.6098C93.8322 22.7303 93.8581 22.7303 93.97 22.6098C94.0561 22.5151 94.2541 22.4807 94.5726 22.4807C94.8308 22.4893 95.1752 22.5237 95.3301 22.5754C95.4765 22.6184 95.6658 22.6443 95.7347 22.6184C95.8122 22.5926 95.8983 22.6529 95.9499 22.7476C96.0016 22.8423 96.0963 22.9197 96.1651 22.9197C96.234 22.9197 96.2943 22.8767 96.2943 22.8337C96.2943 22.782 96.587 22.7648 97.0949 22.7992C97.5253 22.825 97.9041 22.8767 97.9299 22.9111C97.9557 22.9456 98.0418 23.0058 98.1279 23.0316C98.214 23.0661 98.257 23.0575 98.2312 23.0058C98.2053 22.9628 98.2656 22.9197 98.3603 22.9197C98.455 22.9197 98.5411 22.9628 98.5583 23.023C98.5669 23.0919 98.6444 23.0747 98.7907 22.9714C98.9112 22.8939 99.1781 22.8164 99.3933 22.7992C99.6085 22.7906 99.8151 22.7562 99.8668 22.7303C99.9184 22.7045 100.048 22.6959 100.168 22.7045C100.289 22.7131 100.418 22.6959 100.469 22.6529C100.521 22.6098 100.685 22.584 100.84 22.6012C100.986 22.6098 101.115 22.6357 101.115 22.6615C101.115 22.6873 101.184 22.7045 101.261 22.7131C101.347 22.7131 101.468 22.6701 101.528 22.6012C101.588 22.541 101.718 22.4893 101.812 22.4893C101.898 22.4893 102.028 22.4807 102.088 22.4635C102.139 22.4463 102.243 22.4635 102.303 22.5065C102.355 22.541 102.458 22.5496 102.518 22.5151C102.57 22.4893 102.871 22.4549 103.181 22.4463C103.491 22.4377 103.758 22.4635 103.784 22.5065C103.809 22.5496 104.18 22.5926 104.601 22.6098C105.023 22.627 105.411 22.6615 105.462 22.6873C105.514 22.7131 105.678 22.7045 105.832 22.6615C106.048 22.5926 106.134 22.6012 106.22 22.7045C106.272 22.782 106.409 22.8423 106.521 22.8337C106.624 22.8337 106.711 22.8767 106.711 22.9197C106.711 22.9628 106.805 23.0058 106.926 23.0058C107.098 23.0058 107.124 22.9714 107.081 22.8681C107.02 22.7476 107.055 22.7303 107.313 22.782C107.477 22.8164 108.2 22.8595 108.906 22.8853C109.62 22.9197 110.214 22.9714 110.24 23.0144C110.266 23.0575 110.438 23.1177 110.627 23.1522C110.929 23.2038 110.963 23.1952 110.911 23.0661C110.86 22.9542 110.894 22.9111 111.041 22.8767C111.144 22.8509 111.307 22.825 111.402 22.8337C111.497 22.8337 111.669 22.8423 111.79 22.8423C111.91 22.8509 112.306 22.8336 112.668 22.825C113.193 22.7992 113.339 22.8164 113.356 22.9111C113.382 23.0144 113.408 23.0144 113.537 22.8939C113.615 22.8164 113.795 22.7303 113.942 22.7045C114.122 22.6701 114.209 22.6959 114.243 22.7906C114.277 22.8853 114.329 22.9025 114.458 22.8337C114.553 22.7906 114.682 22.7734 114.742 22.7992C114.794 22.825 114.923 22.825 115.018 22.782C115.112 22.7476 115.25 22.7131 115.328 22.7131C115.414 22.7045 115.457 22.7303 115.44 22.7734C115.422 22.8078 115.483 22.8337 115.577 22.8337C115.672 22.8337 115.749 22.7906 115.749 22.7476C115.749 22.7045 115.887 22.6615 116.051 22.6615C116.214 22.6615 116.352 22.7045 116.352 22.7476C116.352 22.7992 116.464 22.8164 116.61 22.7906C116.8 22.7562 116.912 22.7906 117.023 22.9197C117.127 23.0403 117.273 23.0919 117.54 23.0919C117.755 23.0919 117.91 23.0489 117.927 22.9886C117.953 22.9025 118.211 22.8767 118.866 22.8767C119.374 22.8767 119.761 22.9025 119.744 22.9456C119.727 22.98 119.89 22.9886 120.123 22.9714C120.346 22.9542 120.613 22.9025 120.725 22.8423C120.828 22.7906 120.949 22.7476 121.001 22.7476C121.052 22.7476 121.078 22.7992 121.069 22.8595C121.052 22.9197 121.069 22.98 121.113 22.9886C121.147 22.9972 121.207 23.0058 121.259 23.0058C121.311 23.0058 121.336 22.937 121.328 22.8595C121.311 22.739 121.362 22.7045 121.56 22.6959C121.707 22.6959 121.896 22.6443 121.991 22.6012C122.085 22.5496 122.498 22.5065 122.92 22.4979C123.394 22.4893 123.652 22.5237 123.626 22.5754C123.6 22.6184 123.618 22.6615 123.669 22.6615C123.721 22.6615 123.773 22.6098 123.79 22.5582C123.816 22.4721 123.85 22.4807 123.919 22.5754C123.996 22.6787 124.039 22.6873 124.186 22.6012C124.28 22.541 124.392 22.5065 124.444 22.5323C124.496 22.5582 124.547 22.5323 124.573 22.4893C124.599 22.4463 124.771 22.4032 124.961 22.4032C125.176 22.4032 125.305 22.4463 125.305 22.5151C125.313 22.584 125.339 22.5754 125.417 22.4893C125.477 22.4204 125.58 22.3688 125.649 22.3688C125.718 22.3774 125.83 22.386 125.89 22.3946C125.942 22.3946 125.994 22.4635 125.994 22.5323C125.994 22.6443 126.019 22.6443 126.252 22.5323C126.407 22.4549 126.665 22.4204 126.88 22.4377C127.078 22.4549 127.552 22.4377 127.93 22.3946C128.326 22.3602 128.636 22.3602 128.662 22.4032C128.688 22.4463 128.843 22.4463 129.032 22.3946C129.205 22.3516 129.377 22.3171 129.42 22.3085C129.454 22.3085 129.497 22.343 129.523 22.386C129.549 22.4377 129.798 22.4807 130.083 22.4893C130.367 22.4979 130.814 22.4807 131.073 22.4463C131.408 22.4032 131.684 22.4204 132.019 22.5237C132.321 22.6098 132.51 22.627 132.536 22.5754C132.562 22.5237 132.811 22.4549 133.096 22.4118C133.38 22.3688 133.664 22.3516 133.724 22.3688C133.776 22.386 133.827 22.4463 133.827 22.4893C133.827 22.541 134.025 22.5668 134.301 22.5582C134.559 22.541 134.774 22.5065 134.774 22.4721C134.774 22.429 134.921 22.429 135.101 22.4635C135.273 22.4893 135.437 22.5496 135.463 22.5926C135.489 22.6443 135.532 22.6701 135.575 22.6701C135.609 22.6615 135.626 22.6873 135.618 22.7217C135.601 22.7476 135.919 22.8423 136.324 22.9197C136.728 22.9972 137.159 23.0489 137.296 23.0316C137.443 23.0144 137.546 23.0489 137.572 23.135C137.598 23.2038 137.675 23.2641 137.744 23.2641C137.813 23.2641 137.865 23.3157 137.856 23.376C137.839 23.4363 137.908 23.4707 138.028 23.4621C138.183 23.4363 138.226 23.4879 138.269 23.7203C138.304 23.8667 138.355 24.013 138.398 24.0389C138.433 24.0647 138.484 24.2799 138.519 24.5123C138.545 24.7534 138.588 25.0375 138.622 25.158C138.648 25.2785 138.691 25.4507 138.708 25.5454C138.726 25.6401 138.76 25.9414 138.777 26.2169C138.803 26.5095 138.786 26.7075 138.734 26.7075C138.682 26.7075 138.648 26.7506 138.648 26.7936C138.648 26.8367 138.682 26.8625 138.734 26.8367C138.786 26.8108 138.829 26.94 138.846 27.138C138.855 27.3274 138.837 27.4823 138.803 27.4823C138.76 27.4823 138.769 27.5684 138.82 27.6803C138.863 27.7836 138.88 27.8869 138.863 27.9128C138.846 27.9386 138.803 28.1021 138.777 28.2829C138.751 28.4551 138.769 28.6789 138.82 28.7736C138.878 28.8884 138.878 28.9601 138.82 28.9888C138.763 29.0175 138.763 29.1323 138.82 29.3332C138.878 29.5341 138.878 29.6919 138.82 29.8067C138.76 29.9272 138.769 30.0219 138.846 30.1252C138.915 30.2199 138.949 30.6073 138.949 31.3304C138.949 31.976 138.915 32.3893 138.863 32.3893C138.812 32.3893 138.846 32.4323 138.932 32.4753C139.07 32.5614 139.07 32.57 138.932 32.7939C138.846 32.923 138.829 33.0005 138.889 32.966C138.949 32.9316 138.992 32.9574 138.992 33.0349C138.992 33.1038 138.941 33.1813 138.889 33.1985C138.803 33.2243 138.803 33.2587 138.872 33.3104C138.923 33.3448 139.018 33.7064 139.078 34.111C139.13 34.5156 139.173 34.8944 139.173 34.9546C139.165 35.0063 139.165 35.144 139.165 35.2559C139.165 35.3592 139.173 35.7208 139.19 36.0479C139.208 36.3751 139.19 36.6936 139.156 36.7366C139.121 36.7797 139.13 37.0379 139.173 37.2962C139.242 37.6836 139.233 37.7955 139.13 37.8988C139.035 37.9935 139.018 38.0968 139.07 38.2862C139.104 38.4325 139.13 38.6994 139.121 38.8888C139.113 39.0782 139.078 39.302 139.044 39.3881C139.018 39.4656 139.018 39.5344 139.061 39.5344C139.096 39.5344 139.121 39.9477 139.121 40.4556C139.121 41.1184 139.096 41.3767 139.018 41.4025C138.932 41.4197 138.941 41.48 139.035 41.6436C139.104 41.7641 139.139 41.9104 139.113 41.9707C139.07 42.0482 139.035 42.0396 138.984 41.9449C138.923 41.833 138.906 41.8416 138.906 41.9707C138.906 42.0482 138.967 42.117 139.035 42.117C139.121 42.117 139.182 42.229 139.216 42.4442C139.242 42.6163 139.225 42.8574 139.182 42.9779C139.139 43.0984 139.13 43.2878 139.165 43.4083C139.19 43.5289 139.225 44.0368 139.233 44.5533C139.242 45.0612 139.216 45.5519 139.165 45.6466C139.104 45.7671 139.113 45.8704 139.19 45.9995C139.276 46.1459 139.268 46.1889 139.121 46.3008C138.984 46.4042 138.949 46.5419 138.932 46.9637C138.923 47.2564 138.889 47.6352 138.855 47.7987C138.803 48.0226 138.812 48.0828 138.889 48.0398C138.958 47.9967 139.01 48.0484 139.035 48.1861C139.061 48.3067 139.078 48.8318 139.078 49.3483C139.078 49.8648 139.096 50.3383 139.121 50.3813C139.147 50.4244 139.13 50.5191 139.096 50.5793C139.053 50.631 139.027 51.1647 139.035 51.7587C139.044 52.3527 139.018 52.8865 138.975 52.9467C138.941 52.9984 138.932 53.0672 138.975 53.0845C139.01 53.1017 139.027 53.3685 139.018 53.6698C139.01 53.9625 138.975 54.3413 138.949 54.4963C138.923 54.6426 138.88 54.7718 138.846 54.7718C138.803 54.7718 138.769 54.8665 138.76 54.987C138.743 55.1075 138.76 55.2022 138.803 55.2022C138.837 55.2022 138.872 55.5207 138.88 55.9081C138.889 56.3041 138.855 56.6743 138.812 56.7345C138.769 56.7862 138.76 56.8895 138.794 56.9497C138.829 57.0014 138.855 57.2769 138.863 57.5524C138.863 57.9139 138.837 58.0344 138.76 58C138.7 57.9742 138.648 58 138.648 58.0431C138.648 58.0861 138.7 58.1464 138.76 58.155C138.829 58.1808 138.872 58.3874 138.889 58.7576C138.906 59.2569 138.889 59.3344 138.76 59.343C138.614 59.3516 138.614 59.3602 138.76 59.386C138.837 59.4032 138.906 59.4807 138.906 59.5496C138.906 59.627 138.855 59.6615 138.777 59.6357C138.708 59.6098 138.648 59.6098 138.648 59.6357C138.648 59.6615 138.7 59.782 138.769 59.9197C138.829 60.0489 138.906 60.3071 138.941 60.4965C138.967 60.6859 138.958 60.8753 138.923 60.9097C138.889 60.9528 138.863 61.1852 138.863 61.4263C138.863 61.6759 138.889 61.8911 138.923 61.9169C138.949 61.9428 139.001 62.4162 139.027 62.9758C139.07 63.7678 139.053 63.9658 138.975 63.9228C138.906 63.8797 138.915 63.9228 138.992 64.0433C139.078 64.1552 139.104 64.336 139.078 64.534C139.044 64.7664 139.001 64.8353 138.906 64.8008C138.803 64.7664 138.803 64.775 138.915 64.8611C138.992 64.9214 139.078 65.0763 139.104 65.2141C139.139 65.3518 139.13 65.4465 139.078 65.4465C139.027 65.4465 139.01 65.5068 139.035 65.5756C139.061 65.6445 139.027 65.7048 138.975 65.7048C138.889 65.7048 138.889 65.722 138.967 65.7736C139.018 65.8081 139.104 65.9286 139.147 66.0491C139.19 66.1696 139.216 66.5914 139.199 66.996C139.19 67.4007 139.216 67.745 139.259 67.7708C139.302 67.7967 139.354 68.0635 139.371 68.3734C139.388 68.6833 139.38 68.976 139.354 69.0191C139.328 69.0621 139.311 69.3893 139.319 69.7336C139.328 70.0779 139.302 70.3706 139.251 70.3965C139.19 70.4223 139.199 70.5514 139.259 70.7666C139.328 70.9991 139.328 71.0938 139.259 71.111C139.19 71.1196 139.19 71.1971 139.259 71.3692C139.302 71.4984 139.328 71.8341 139.302 72.1182C139.285 72.4023 139.225 72.6433 139.173 72.6605C139.104 72.6692 139.104 72.7208 139.165 72.8069C139.222 72.893 139.222 72.9791 139.165 73.0652C139.107 73.1512 139.107 73.2086 139.165 73.2373C139.216 73.2632 139.251 73.3665 139.251 73.4784C139.251 73.5817 139.276 73.7022 139.311 73.7452C139.354 73.7797 139.388 73.9432 139.406 74.1068C139.414 74.2704 139.388 74.4167 139.337 74.4425C139.285 74.4684 139.276 74.5631 139.328 74.6836C139.371 74.7869 139.397 74.9677 139.388 75.0882C139.38 75.2087 139.397 75.3723 139.44 75.4584C139.483 75.5444 139.474 75.6047 139.423 75.6047C139.371 75.6047 139.363 75.665 139.414 75.7597C139.449 75.8371 139.474 75.9835 139.457 76.0782C139.449 76.1729 139.474 76.3278 139.526 76.4225C139.578 76.5431 139.578 76.6205 139.517 76.6808C139.457 76.7411 139.457 76.8185 139.509 76.9218C139.569 77.0165 139.561 77.1112 139.492 77.1973C139.406 77.3092 139.406 77.335 139.492 77.3264C139.569 77.3264 139.595 77.5244 139.586 78.041C139.586 78.4283 139.552 78.7641 139.509 78.7899C139.466 78.8157 139.466 79.0051 139.517 79.2203C139.561 79.4356 139.569 79.6249 139.526 79.6508C139.492 79.6766 139.449 79.866 139.44 80.0812C139.431 80.2964 139.397 80.9335 139.38 81.5016C139.354 82.0698 139.319 83.0598 139.302 83.6968C139.285 84.3339 139.242 84.9881 139.199 85.1431C139.156 85.298 139.096 85.4186 139.061 85.4186C139.018 85.4186 138.992 85.4788 138.992 85.5477C138.992 85.6166 139.027 85.6768 139.078 85.6768C139.13 85.6768 139.147 85.9093 139.113 86.3053C139.087 86.641 139.035 86.9853 139.01 87.0542C138.975 87.1231 138.949 87.6396 138.949 88.1906C138.949 88.7501 138.932 89.2064 138.906 89.2064C138.88 89.2064 138.855 89.2839 138.846 89.3786C138.829 89.4733 138.855 89.5507 138.906 89.5507C138.958 89.5507 138.975 89.6454 138.949 89.7659C138.923 89.8865 138.941 90.0759 138.992 90.1964C139.044 90.3169 139.053 90.4632 139.018 90.5235C138.984 90.5752 138.958 90.7818 138.967 90.9712C138.967 91.1605 138.992 91.3672 139.018 91.4274C139.053 91.4791 139.044 91.5479 138.992 91.5738C138.941 91.5996 138.906 91.7804 138.906 91.987C138.906 92.185 138.906 92.4605 138.906 92.6068C138.898 92.7532 138.949 92.8909 139.01 92.9253C139.096 92.9684 139.104 93.0114 139.018 93.1147C138.932 93.2266 138.932 93.2611 139.018 93.2955C139.104 93.3299 139.104 93.3471 139.018 93.3816C138.932 93.416 138.923 93.5538 138.975 93.9325C139.018 94.2855 139.001 94.4749 138.932 94.5524C138.846 94.647 138.855 94.6815 138.992 94.7418C139.139 94.7934 139.165 94.8881 139.165 95.3013C139.165 95.5682 139.173 95.9384 139.19 96.1191C139.199 96.3085 139.19 96.4635 139.165 96.4807C139.139 96.4979 139.121 96.6012 139.13 96.7131C139.13 96.8164 139.156 96.9542 139.182 96.9972C139.216 97.0403 139.208 97.3416 139.156 97.6687C139.113 97.9872 139.096 98.2885 139.121 98.3316C139.147 98.3746 139.173 98.7189 139.173 99.0891C139.182 99.4507 139.147 99.8381 139.087 99.95C139.01 100.096 139.018 100.165 139.121 100.269C139.19 100.337 139.251 100.441 139.251 100.484C139.251 100.527 139.182 100.544 139.104 100.518C138.984 100.475 138.967 100.492 139.053 100.587C139.113 100.647 139.139 100.863 139.121 101.086C139.104 101.302 139.061 101.491 139.044 101.517C139.018 101.543 139.035 101.62 139.07 101.689C139.113 101.758 139.147 102.05 139.139 102.335C139.13 102.619 139.156 102.886 139.182 102.937C139.208 102.989 139.242 103.135 139.251 103.282C139.268 103.428 139.242 103.609 139.199 103.695C139.147 103.798 139.156 103.876 139.216 103.91C139.285 103.953 139.302 104.151 139.259 104.547C139.225 104.977 139.233 105.141 139.319 105.175C139.388 105.21 139.371 105.287 139.035 105.735L139.208 105.916C139.363 106.079 139.363 106.105 139.242 106.191C139.165 106.252 139.121 106.355 139.147 106.424C139.173 106.493 139.225 106.57 139.259 106.596C139.302 106.622 139.345 106.854 139.354 107.13C139.371 107.396 139.406 107.594 139.449 107.577C139.483 107.56 139.5 107.681 139.492 107.853C139.474 108.025 139.44 108.18 139.406 108.197C139.363 108.214 139.414 108.309 139.509 108.404C139.604 108.498 139.681 108.636 139.681 108.705C139.681 108.774 139.647 108.851 139.595 108.877C139.538 108.906 139.538 108.963 139.595 109.049C139.647 109.118 139.655 109.265 139.629 109.376C139.595 109.48 139.578 109.798 139.578 110.082C139.578 110.366 139.543 110.754 139.492 110.943C139.431 111.133 139.397 111.313 139.406 111.356C139.414 111.391 139.388 111.468 139.337 111.529C139.294 111.58 139.242 111.959 139.225 112.364C139.208 112.768 139.173 113.147 139.139 113.207C139.104 113.259 139.113 113.328 139.165 113.354C139.216 113.379 139.251 113.526 139.242 113.681C139.233 113.827 139.233 113.982 139.242 114.025C139.251 114.06 139.251 114.111 139.242 114.154C139.233 114.189 139.199 114.206 139.156 114.197C139.113 114.18 139.096 114.232 139.121 114.301C139.147 114.378 139.096 114.447 138.992 114.473C138.898 114.499 138.82 114.55 138.82 114.602C138.82 114.654 138.855 114.671 138.906 114.645C138.958 114.619 138.975 114.662 138.949 114.731C138.923 114.817 138.846 114.843 138.717 114.8C138.519 114.748 138.519 114.748 138.674 114.972C138.751 115.101 138.82 115.213 138.82 115.23C138.82 115.239 138.648 115.308 138.433 115.377C138.166 115.463 138.037 115.557 138.028 115.678C138.011 115.773 137.934 115.859 137.856 115.867C137.761 115.885 137.701 115.842 137.701 115.764C137.701 115.695 137.649 115.618 137.598 115.601C137.538 115.575 137.46 115.583 137.417 115.618C137.383 115.652 137.357 115.704 137.357 115.747C137.357 115.781 137.417 115.807 137.486 115.807C137.555 115.807 137.615 115.842 137.615 115.893C137.615 115.945 137.555 115.962 137.486 115.936C137.408 115.91 137.34 115.962 137.314 116.065C137.288 116.16 137.288 116.272 137.314 116.324C137.34 116.375 137.305 116.41 137.253 116.41C137.193 116.41 137.09 116.375 137.03 116.341C136.952 116.306 136.926 116.203 136.961 116.091C136.987 115.979 136.987 115.893 136.952 115.893C136.909 115.893 136.823 115.988 136.754 116.108C136.677 116.246 136.548 116.324 136.436 116.324C136.324 116.324 136.238 116.358 136.238 116.41C136.238 116.461 136.289 116.513 136.35 116.53C136.427 116.556 136.427 116.582 136.341 116.677C136.246 116.78 136.22 116.78 136.152 116.668C136.083 116.565 136.048 116.565 136.005 116.651C135.962 116.711 135.781 116.771 135.592 116.789C135.403 116.806 135.23 116.823 135.205 116.832C135.179 116.832 135.205 116.883 135.265 116.943C135.317 117.004 135.342 117.098 135.308 117.15C135.273 117.202 135.144 117.262 135.015 117.279C134.886 117.296 134.774 117.279 134.774 117.228C134.774 117.176 134.714 117.219 134.645 117.314C134.542 117.451 134.542 117.494 134.619 117.537C134.705 117.581 134.697 117.606 134.602 117.641C134.533 117.667 134.387 117.589 134.086 117.271L134.284 117.167C134.387 117.116 134.525 117.021 134.585 116.952C134.654 116.883 134.662 116.84 134.611 116.84C134.559 116.84 134.533 116.806 134.559 116.754C134.585 116.702 134.585 116.668 134.559 116.668C134.533 116.668 134.438 116.745 134.172 117.012L133.956 116.797C133.836 116.677 133.681 116.582 133.612 116.582C133.543 116.582 133.466 116.556 133.448 116.522C133.431 116.479 133.268 116.427 133.087 116.393C132.855 116.349 132.734 116.367 132.691 116.436C132.648 116.504 132.338 116.547 131.804 116.565C131.202 116.573 130.986 116.556 130.986 116.479C130.986 116.418 130.943 116.436 130.9 116.522C130.84 116.625 130.771 116.651 130.668 116.591C130.582 116.547 130.453 116.513 130.384 116.53C130.315 116.539 130.169 116.591 130.065 116.651C129.902 116.737 129.85 116.728 129.764 116.625C129.669 116.504 129.635 116.504 129.48 116.616C129.325 116.728 129.291 116.728 129.153 116.599C129.024 116.47 128.92 116.461 128.404 116.539C128.068 116.591 127.732 116.599 127.655 116.573C127.569 116.539 127.448 116.565 127.38 116.616C127.311 116.668 127.138 116.72 126.992 116.728C126.846 116.737 126.338 116.737 125.864 116.737C125.391 116.737 124.814 116.72 124.573 116.694C124.341 116.668 124.005 116.642 123.841 116.625C123.678 116.616 123.488 116.634 123.437 116.677C123.377 116.72 123.256 116.728 123.179 116.702C123.092 116.677 122.912 116.642 122.765 116.616C122.619 116.599 122.292 116.565 122.034 116.547C121.775 116.522 121.543 116.496 121.517 116.487C121.491 116.487 121.242 116.479 120.958 116.479C120.674 116.479 120.407 116.461 120.355 116.427C120.303 116.401 120.028 116.384 119.735 116.393C119.27 116.41 119.193 116.384 119.193 116.263C119.193 116.177 119.158 116.143 119.124 116.195C119.09 116.246 118.986 116.281 118.892 116.272C118.797 116.272 118.668 116.315 118.599 116.358C118.53 116.41 118.375 116.453 118.255 116.453C118.134 116.453 117.927 116.41 117.798 116.349C117.661 116.289 117.54 116.238 117.514 116.238C117.488 116.238 117.471 116.298 117.471 116.367C117.471 116.444 117.411 116.487 117.325 116.47C117.239 116.453 117.058 116.41 116.912 116.367C116.765 116.332 116.619 116.263 116.567 116.229C116.516 116.186 116.369 116.203 116.223 116.281C116.077 116.349 115.861 116.41 115.732 116.41C115.594 116.41 115.508 116.375 115.534 116.324C115.56 116.272 115.405 116.246 115.138 116.263C114.828 116.272 114.682 116.246 114.622 116.151C114.576 116.065 114.55 116.06 114.544 116.134C114.544 116.186 114.467 116.272 114.372 116.324C114.257 116.381 114.214 116.381 114.243 116.324C114.269 116.272 114.183 116.229 114.054 116.229C113.916 116.22 113.761 116.22 113.709 116.229C113.649 116.229 113.58 116.177 113.554 116.108C113.528 116.04 113.451 115.979 113.382 115.979C113.313 115.979 113.236 116.031 113.219 116.091C113.193 116.143 113.176 116.126 113.176 116.048C113.167 115.953 113.072 115.876 112.934 115.85C112.745 115.807 112.65 115.85 112.306 116.238L112.117 116.065C111.944 115.91 111.91 115.91 111.858 116.022C111.798 116.134 111.755 116.134 111.445 116.022C111.178 115.919 111.092 115.919 111.058 116.005C111.023 116.091 111.006 116.091 110.972 116.005C110.946 115.945 110.851 115.893 110.757 115.893C110.662 115.893 110.567 115.928 110.541 115.979C110.515 116.031 110.447 116.014 110.369 115.936C110.283 115.85 110.154 115.824 110.008 115.859C109.844 115.893 109.741 115.876 109.706 115.799C109.672 115.73 109.637 115.712 109.637 115.764C109.637 115.816 109.371 115.859 109.035 115.876C108.544 115.893 108.406 115.867 108.286 115.738C108.165 115.618 108.096 115.601 107.959 115.669C107.864 115.721 107.761 115.799 107.726 115.85C107.692 115.902 107.649 115.876 107.623 115.79C107.589 115.695 107.52 115.652 107.442 115.678C107.373 115.704 107.322 115.764 107.339 115.816C107.348 115.867 107.279 115.928 107.184 115.945C107.089 115.953 106.848 115.997 106.659 116.04C106.409 116.091 106.254 116.074 106.16 116.005C106.048 115.91 105.996 115.919 105.876 116.04C105.764 116.143 105.566 116.186 105.152 116.186C104.842 116.195 104.533 116.238 104.464 116.289C104.369 116.367 104.24 116.358 103.93 116.246C103.56 116.126 103.508 116.126 103.439 116.238C103.379 116.341 103.336 116.341 103.25 116.263C103.164 116.186 103.086 116.186 102.923 116.263C102.802 116.315 102.63 116.418 102.544 116.487C102.424 116.591 102.372 116.599 102.355 116.522C102.329 116.444 102.217 116.427 102.002 116.461C101.726 116.504 101.692 116.496 101.786 116.401C101.847 116.332 101.89 116.255 101.89 116.22C101.89 116.177 101.761 116.151 101.614 116.151C101.459 116.151 101.244 116.169 101.141 116.195C101.009 116.223 100.94 116.304 100.934 116.436C100.934 116.539 100.917 116.573 100.891 116.522C100.874 116.461 100.797 116.427 100.728 116.453C100.659 116.479 100.599 116.461 100.599 116.41C100.599 116.358 100.555 116.349 100.504 116.393C100.452 116.427 100.375 116.393 100.332 116.324C100.271 116.212 100.254 116.22 100.254 116.349C100.254 116.436 100.185 116.496 100.082 116.496C99.9873 116.496 99.9098 116.461 99.9098 116.41C99.9098 116.358 99.8496 116.341 99.7807 116.367C99.7118 116.393 99.5913 116.375 99.5224 116.324C99.4277 116.263 99.3847 116.272 99.3503 116.367C99.3245 116.436 99.2556 116.496 99.2039 116.496C99.1437 116.504 99.0232 116.418 98.7993 116.108L98.7477 116.306C98.7219 116.41 98.6702 116.496 98.6186 116.496C98.5669 116.496 98.5497 116.418 98.5755 116.324C98.6099 116.195 98.5755 116.151 98.4464 116.151C98.3517 116.151 98.257 116.212 98.2312 116.281C98.2053 116.349 98.0934 116.41 97.9729 116.41C97.8524 116.41 97.7577 116.375 97.7577 116.324C97.7577 116.272 97.6802 116.22 97.5855 116.195C97.4822 116.169 97.3961 116.203 97.3703 116.281C97.3359 116.375 97.2842 116.393 97.1379 116.332C96.9829 116.263 96.9055 116.289 96.7936 116.418C96.6558 116.565 96.6214 116.573 96.4492 116.453C96.3373 116.384 96.2168 116.349 96.1824 116.384C96.1393 116.427 95.9671 116.461 95.795 116.47C95.6228 116.47 95.3904 116.504 95.2871 116.53C95.1752 116.556 95.046 116.53 94.9858 116.47C94.9255 116.41 94.805 116.332 94.7275 116.298C94.6242 116.255 94.5553 116.281 94.5295 116.367C94.5037 116.436 94.4262 116.496 94.3487 116.496C94.2799 116.496 94.1594 116.556 94.0905 116.625C94.013 116.694 93.8581 116.754 93.7289 116.754C93.5998 116.763 93.4362 116.702 93.3674 116.625C93.2985 116.547 93.1866 116.487 93.135 116.496C93.0747 116.496 93.023 116.556 93.023 116.625C93.023 116.728 92.98 116.737 92.8078 116.668C92.6443 116.599 92.5754 116.608 92.5065 116.711C92.4463 116.806 92.3688 116.823 92.2311 116.763C92.1191 116.728 91.9728 116.711 91.9039 116.737C91.8351 116.763 91.749 116.832 91.7146 116.892C91.6629 116.987 91.6026 116.969 91.4649 116.823C91.2927 116.625 91.2841 116.625 91.1722 116.797C91.0689 116.952 91.0517 116.961 91.0087 116.823C90.9828 116.737 90.9226 116.668 90.8709 116.668C90.8193 116.668 90.802 116.737 90.8279 116.823C90.8537 116.909 90.8193 116.969 90.7504 116.969C90.6815 116.969 90.6471 116.952 90.6643 116.926C90.6815 116.9 90.5954 116.832 90.4835 116.78C90.363 116.72 90.2339 116.685 90.1822 116.711C90.1306 116.737 90.0962 116.814 90.0962 116.883C90.0962 116.952 90.0617 117.012 90.0101 117.012C89.9584 117.012 89.9412 116.978 89.967 116.926C89.9929 116.875 89.9154 116.84 89.7949 116.84C89.6743 116.84 89.5796 116.875 89.5796 116.926C89.5796 116.978 89.4505 117.012 89.3042 117.012C89.1492 117.012 88.8824 116.978 88.7188 116.926C88.495 116.866 88.4003 116.875 88.3572 116.952C88.3142 117.03 88.2712 117.03 88.1851 116.961C88.099 116.883 88.0129 116.892 87.8149 116.987C87.6169 117.09 87.5136 117.098 87.3673 117.021C87.2381 116.961 87.1693 116.961 87.1693 117.012C87.1693 117.064 87.109 117.081 87.0401 117.055C86.9713 117.03 86.8938 117.047 86.868 117.098C86.8421 117.15 86.7044 117.159 86.5495 117.133C86.3945 117.098 86.2396 117.021 86.2051 116.961C86.1449 116.857 86.1018 116.866 85.9641 116.995C85.8091 117.124 85.7833 117.124 85.6542 117.012C85.5681 116.943 85.3959 116.875 85.2582 116.866C85.1291 116.849 85.0171 116.866 85.0171 116.909C85.0171 116.943 84.845 116.969 84.6298 116.969C84.3543 116.969 84.2166 116.926 84.1219 116.797C84.0444 116.702 83.9841 116.659 83.9841 116.711C83.9841 116.763 83.9411 116.737 83.898 116.668C83.8378 116.573 83.7947 116.565 83.7517 116.642C83.7087 116.694 83.5795 116.737 83.459 116.728C83.3299 116.72 83.2438 116.737 83.261 116.78C83.2782 116.814 83.218 116.84 83.1233 116.84C83.0286 116.84 82.9339 116.806 82.9081 116.754C82.8822 116.702 82.7962 116.685 82.7187 116.711C82.6326 116.737 82.5121 116.702 82.4518 116.651C82.3916 116.591 82.3399 116.573 82.3399 116.625C82.3485 116.677 82.2796 116.711 82.1936 116.711C82.1161 116.702 81.987 116.668 81.9181 116.625C81.8492 116.573 81.6168 116.539 81.4016 116.539C81.1605 116.539 80.9798 116.591 80.9109 116.668C80.8593 116.737 80.7818 116.763 80.7387 116.728C80.7043 116.694 80.7301 116.625 80.799 116.582C80.9023 116.522 80.9023 116.504 80.7559 116.479C80.6613 116.461 80.4202 116.53 80.2222 116.642C80.0156 116.754 79.8262 116.832 79.7918 116.832C79.7488 116.823 79.7057 116.832 79.6799 116.84C79.6541 116.849 79.568 116.866 79.4905 116.892C79.3786 116.918 79.3528 116.883 79.3786 116.797C79.4044 116.728 79.3872 116.651 79.3355 116.625C79.2839 116.599 79.2495 116.651 79.2409 116.737C79.2409 116.814 79.2236 116.832 79.1978 116.78C79.172 116.694 79.1203 116.711 78.9912 116.823C78.819 116.961 78.8104 116.961 78.819 116.823C78.819 116.728 78.7588 116.668 78.6469 116.668C78.5522 116.668 78.4575 116.728 78.4317 116.797C78.4058 116.866 78.3197 116.918 78.2423 116.918C78.1562 116.909 78.0701 116.918 78.0443 116.926C78.0184 116.935 77.8291 116.961 77.6138 116.969C77.3986 116.987 77.1748 116.952 77.1146 116.9C77.0285 116.823 76.9768 116.823 76.9166 116.926C76.8477 117.038 76.8305 117.038 76.7616 116.926C76.6927 116.832 76.598 116.814 76.3484 116.866C76.1676 116.9 76.0041 116.961 75.9782 117.004C75.9524 117.038 75.8577 117.064 75.763 117.047C75.6683 117.03 75.5822 116.987 75.565 116.952C75.5564 116.918 75.5134 116.832 75.4789 116.771C75.4445 116.711 75.3584 116.685 75.2896 116.711C75.2207 116.737 75.1604 116.814 75.1604 116.883C75.1604 116.961 75.2121 116.995 75.2896 116.961C75.3584 116.935 75.3843 116.943 75.3498 116.987C75.3068 117.021 75.0141 117.064 74.7042 117.073C74.3857 117.081 73.9552 117.03 73.74 116.961C73.5076 116.892 73.3182 116.866 73.2666 116.918C73.2149 116.961 73.103 116.961 73.0083 116.918C72.9136 116.883 72.8706 116.849 72.9222 116.849C72.9739 116.849 72.9653 116.797 72.905 116.737C72.8534 116.677 72.6812 116.634 72.5176 116.651C72.3627 116.668 72.1044 116.737 71.9581 116.806C71.7084 116.909 71.6396 116.909 71.4157 116.797C71.2694 116.728 71.08 116.668 70.9853 116.668C70.8906 116.668 70.7959 116.702 70.7701 116.754C70.7443 116.806 70.6754 116.814 70.6238 116.789C70.5635 116.754 70.3052 116.737 70.0642 116.745C69.7457 116.754 69.5821 116.72 69.5219 116.625C69.4788 116.556 69.4014 116.513 69.3497 116.539C69.3067 116.565 68.8246 116.582 68.2995 116.591C67.7657 116.599 67.2578 116.599 67.1804 116.591C67.0943 116.582 67.0254 116.53 67.0254 116.479C67.0254 116.418 66.9565 116.367 66.8791 116.358C66.793 116.349 66.6983 116.393 66.6639 116.444C66.6294 116.496 66.6466 116.565 66.7069 116.599C66.7672 116.642 66.7327 116.668 66.6208 116.668C66.5089 116.668 66.4056 116.616 66.3798 116.565C66.354 116.504 66.2076 116.453 66.044 116.453C65.8547 116.453 65.7686 116.487 65.7858 116.565C65.803 116.625 65.7427 116.668 65.648 116.668C65.5189 116.668 65.4931 116.625 65.5275 116.522C65.562 116.418 65.5161 116.438 65.3898 116.582C65.2693 116.72 65.1918 116.763 65.166 116.694C65.1488 116.625 65.0455 116.599 64.9163 116.625C64.7958 116.651 64.6839 116.634 64.6581 116.582C64.6322 116.53 64.4687 116.496 64.2965 116.496C64.1157 116.496 63.8919 116.556 63.7972 116.625C63.7025 116.702 63.5992 116.754 63.5648 116.754C63.5218 116.754 63.4959 116.668 63.4873 116.367L63.384 116.565C63.3238 116.685 63.2032 116.754 63.0913 116.754C62.9794 116.754 62.8159 116.789 62.7212 116.84C62.6265 116.892 62.5576 116.9 62.5576 116.866C62.5662 116.823 62.5662 116.737 62.5576 116.668C62.549 116.573 62.5318 116.565 62.4801 116.642C62.44 116.711 62.3137 116.725 62.1014 116.685C61.8345 116.634 61.7828 116.651 61.7398 116.797C61.7054 116.935 61.6709 116.943 61.5849 116.866C61.5074 116.789 61.4213 116.789 61.3008 116.849C61.2061 116.9 61.0769 116.918 61.0253 116.892C60.965 116.866 60.9306 116.789 60.9564 116.737C60.9909 116.651 60.8359 116.625 60.3538 116.625C59.9837 116.625 59.7082 116.659 59.7082 116.711C59.7082 116.763 59.6651 116.737 59.6221 116.668C59.5647 116.582 59.536 116.576 59.536 116.651C59.536 116.72 59.4499 116.74 59.2778 116.711C59.1314 116.685 58.9679 116.659 58.9162 116.642C58.856 116.634 58.7527 116.591 58.701 116.556C58.6407 116.522 58.4858 116.539 58.3567 116.591C58.2189 116.651 58.0468 116.694 57.9693 116.702C57.8832 116.711 57.8143 116.659 57.8143 116.608C57.8143 116.547 57.7541 116.496 57.6852 116.496C57.6163 116.496 57.5389 116.53 57.513 116.582C57.4872 116.634 57.3925 116.651 57.2978 116.625C57.2031 116.599 57.0482 116.616 56.9535 116.668C56.8157 116.737 56.7555 116.72 56.6608 116.565C56.5575 116.375 56.5403 116.375 56.4025 116.522C56.3165 116.599 56.2132 116.668 56.1701 116.668C56.1271 116.668 56.0926 116.634 56.0926 116.582C56.0926 116.53 55.9377 116.444 55.7483 116.393C55.4814 116.306 55.3781 116.306 55.292 116.384C55.2146 116.461 55.1457 116.461 55.0166 116.393C54.8874 116.324 54.8358 116.324 54.8272 116.401C54.81 116.453 54.7411 116.496 54.6722 116.496C54.6034 116.496 54.5431 116.436 54.5431 116.367C54.5431 116.298 54.5087 116.238 54.457 116.238C54.414 116.238 54.3537 116.263 54.3365 116.306C54.3193 116.341 54.2332 116.393 54.1471 116.427C54.0524 116.453 53.8803 116.427 53.7511 116.358C53.5617 116.263 53.4584 116.255 53.2777 116.332C53.1399 116.384 52.7439 116.444 52.391 116.461C52.038 116.479 51.5818 116.496 51.3752 116.513C51.1514 116.53 50.962 116.496 50.9017 116.427C50.8415 116.367 50.7295 116.315 50.6521 116.324C50.566 116.324 50.4971 116.384 50.4971 116.453C50.4971 116.522 50.4196 116.582 50.3249 116.582C50.2216 116.582 50.1528 116.522 50.1528 116.436C50.1442 116.298 50.1269 116.306 49.9806 116.479C49.8429 116.634 49.7654 116.651 49.576 116.591C49.4383 116.556 49.2575 116.547 49.1628 116.591C49.0681 116.625 48.939 116.659 48.8873 116.659C48.8185 116.668 48.7926 116.608 48.8185 116.522C48.8529 116.375 48.8443 116.375 48.7496 116.513C48.6635 116.625 48.6119 116.634 48.4569 116.556C48.302 116.47 48.2245 116.479 48.0523 116.608C47.9318 116.685 47.751 116.737 47.6563 116.711C47.5616 116.685 47.4669 116.702 47.4411 116.754C47.4153 116.806 47.3034 116.763 47.1828 116.668C46.9935 116.522 46.959 116.513 46.9074 116.625C46.8557 116.72 46.6922 116.763 46.365 116.771C45.926 116.789 45.8916 116.771 45.9174 116.599C45.926 116.47 45.8916 116.41 45.7883 116.41C45.7022 116.41 45.5903 116.496 45.5386 116.599C45.4612 116.763 45.3665 116.797 44.9963 116.823C44.7553 116.832 44.54 116.814 44.5228 116.78C44.5056 116.737 44.3162 116.72 44.1096 116.72C43.9116 116.728 43.7222 116.702 43.6964 116.659C43.6706 116.616 43.5587 116.565 43.4382 116.539C43.3176 116.513 43.2057 116.47 43.1799 116.453C43.1541 116.427 43.0594 116.461 42.9647 116.53C42.87 116.591 42.6462 116.651 42.474 116.659C42.2932 116.659 42.1297 116.642 42.1124 116.608C42.0952 116.565 41.7767 116.547 41.3979 116.565C40.8642 116.582 40.6748 116.556 40.4682 116.427C40.3133 116.332 40.055 116.272 39.8226 116.272C39.5643 116.281 39.4438 116.315 39.461 116.393C39.4696 116.461 39.3663 116.496 39.1167 116.487C38.9101 116.487 38.7293 116.487 38.7035 116.496C38.6777 116.513 38.5313 116.522 38.385 116.53C38.23 116.53 38.1009 116.513 38.1009 116.479C38.1009 116.436 38.032 116.436 37.9545 116.461C37.8685 116.487 37.6274 116.539 37.4122 116.582C37.0765 116.651 37.0076 116.634 36.8785 116.496C36.7321 116.332 36.7235 116.332 36.6805 116.479C36.6547 116.565 36.5428 116.634 36.405 116.642C36.2673 116.659 36.0865 116.677 35.9918 116.694C35.8971 116.711 35.7077 116.694 35.5614 116.642C35.3634 116.582 35.2859 116.591 35.2171 116.677C35.1597 116.757 34.9531 116.797 34.5972 116.797C34.2959 116.797 34.0549 116.763 34.0549 116.711C34.0549 116.659 34.0119 116.685 33.9688 116.754C33.8913 116.866 33.8827 116.866 33.8913 116.754C33.8913 116.642 33.8741 116.642 33.745 116.754C33.6331 116.849 33.3921 116.883 32.8153 116.883C32.2213 116.883 32.0061 116.918 31.9372 117.012C31.8511 117.124 31.8339 117.124 31.7909 116.995C31.7564 116.909 31.6962 116.84 31.6445 116.84C31.6015 116.84 31.5757 116.866 31.5929 116.909C31.6101 116.943 31.4465 116.952 31.2227 116.935C31.0075 116.918 30.7234 116.832 30.5943 116.745C30.4566 116.651 30.293 116.582 30.2241 116.582C30.1553 116.582 30.0778 116.547 30.052 116.496C30.0261 116.444 29.9573 116.453 29.8798 116.522C29.8023 116.573 29.7421 116.677 29.7507 116.737C29.7507 116.789 29.699 116.84 29.6474 116.84C29.5871 116.84 29.4924 116.797 29.4321 116.737C29.3461 116.651 29.303 116.642 29.1911 116.737C29.1222 116.789 29.0017 116.823 28.9329 116.797C28.864 116.771 28.8209 116.72 28.8468 116.668C28.8726 116.616 28.8382 116.608 28.7865 116.634C28.7262 116.659 28.6143 116.616 28.5455 116.539C28.4766 116.461 28.313 116.401 28.1839 116.41C28.0462 116.41 27.9343 116.453 27.9257 116.504C27.9084 116.556 27.633 116.608 27.2972 116.625C26.884 116.642 26.6344 116.608 26.5053 116.53C26.3245 116.418 26.2901 116.427 25.8682 116.883L25.6358 116.651C25.5067 116.522 25.3517 116.41 25.3001 116.41C25.2398 116.41 25.1882 116.444 25.1882 116.496C25.1882 116.547 25.1279 116.565 25.059 116.539C24.9816 116.513 24.9299 116.547 24.9299 116.625C24.9299 116.694 24.9041 116.754 24.8696 116.754C24.8266 116.754 24.7663 116.728 24.7319 116.694C24.6889 116.659 24.5684 116.616 24.4737 116.616C24.3704 116.608 24.2326 116.651 24.1638 116.702C24.0691 116.771 24.0346 116.771 24.0088 116.694C24.0002 116.634 23.9572 116.599 23.9227 116.616C23.8797 116.642 23.7161 116.677 23.5526 116.711C23.389 116.737 22.9586 116.771 22.6056 116.789C22.2527 116.806 21.9083 116.806 21.8567 116.789C21.7964 116.771 21.7448 116.694 21.7448 116.625C21.7448 116.556 21.7103 116.496 21.6587 116.496C21.6156 116.496 21.5726 116.53 21.5726 116.582C21.5726 116.634 21.5123 116.668 21.4435 116.668C21.3746 116.668 21.2971 116.728 21.2713 116.797C21.2455 116.883 21.0905 116.935 20.7978 116.952C20.4965 116.961 20.3674 116.935 20.3674 116.866C20.3674 116.806 20.2899 116.72 20.1952 116.668C20.0805 116.611 20.0374 116.611 20.0661 116.668C20.0919 116.72 20.0489 116.771 19.98 116.797C19.9112 116.823 19.7906 116.789 19.7132 116.737C19.6099 116.642 19.5668 116.651 19.5238 116.737C19.4893 116.806 19.2569 116.866 18.947 116.892C18.5252 116.918 18.4133 116.9 18.3358 116.771C18.2497 116.651 18.2067 116.642 18.0948 116.737C17.9829 116.823 17.9484 116.814 17.9054 116.694C17.8623 116.547 17.8537 116.547 17.7332 116.694C17.6299 116.823 17.5955 116.823 17.4836 116.711C17.4147 116.642 17.3544 116.608 17.3544 116.651C17.3631 116.685 17.3028 116.651 17.2253 116.582C17.1478 116.513 17.0876 116.479 17.0962 116.522C17.0962 116.556 17.0962 116.608 17.1048 116.651C17.1048 116.685 17.0704 116.728 17.0273 116.754C16.9757 116.78 16.6744 116.789 16.3472 116.78C16.0287 116.771 15.6844 116.763 15.5897 116.754C15.4434 116.754 15.4347 116.737 15.5294 116.625C15.6155 116.522 15.6155 116.487 15.5294 116.461C15.4692 116.436 15.3314 116.479 15.2281 116.547C15.1162 116.616 14.9957 116.651 14.9441 116.625C14.901 116.599 14.7977 116.616 14.7289 116.668C14.6428 116.725 14.5653 116.725 14.4964 116.668C14.4362 116.625 14.264 116.591 14.109 116.608C13.9369 116.616 13.7819 116.565 13.6614 116.453C13.4892 116.289 13.4806 116.289 13.4204 116.444C13.3601 116.591 13.2826 116.599 12.5767 116.539C12.1549 116.513 11.7847 116.47 11.7589 116.453C11.7331 116.427 11.647 116.453 11.5695 116.496C11.4576 116.556 11.406 116.547 11.3715 116.453C11.3371 116.349 11.3027 116.341 11.1994 116.436C11.0875 116.522 11.0616 116.513 11.0702 116.393C11.0702 116.306 11.0358 116.238 10.9842 116.238C10.9411 116.238 10.9067 116.289 10.9239 116.341C10.9325 116.401 10.855 116.461 10.7517 116.47C10.6398 116.487 10.571 116.461 10.5968 116.41C10.6226 116.358 10.6054 116.324 10.5537 116.324C10.5107 116.324 10.3816 116.384 10.2783 116.453C10.1664 116.522 9.89088 116.608 9.64985 116.634C9.41742 116.651 9.12473 116.677 9.00421 116.668C8.88369 116.668 8.6943 116.616 8.57378 116.547C8.39301 116.461 8.34136 116.461 8.25527 116.556C8.19501 116.616 8.0831 116.651 8.01423 116.625C7.94537 116.599 7.86789 116.616 7.84206 116.668C7.81624 116.72 7.73015 116.754 7.65268 116.754C7.51494 116.745 7.51494 116.737 7.66989 116.634C7.82485 116.522 7.83346 116.504 7.69572 116.461C7.60103 116.427 7.4719 116.479 7.3686 116.582C7.2653 116.685 7.12756 116.737 7.02426 116.711C6.92956 116.685 6.83487 116.702 6.80905 116.754C6.78322 116.806 6.67992 116.84 6.57662 116.84C6.46471 116.832 6.33558 116.771 6.27532 116.685C6.17202 116.547 6.17202 116.547 6.16341 116.694C6.16341 116.771 6.12897 116.84 6.07732 116.84C6.03428 116.84 6.00846 116.789 6.03428 116.737C6.06011 116.677 6.01706 116.625 5.9482 116.625C5.87072 116.625 5.83629 116.677 5.86211 116.78C5.89655 116.9 5.8535 116.926 5.62968 116.926C5.47473 116.935 5.13039 116.926 4.87214 116.926C4.61388 116.918 4.38145 116.892 4.35563 116.857C4.3298 116.823 4.06294 116.797 3.75303 116.797C3.28817 116.797 3.15905 116.763 2.99549 116.608C2.89218 116.496 2.8061 116.358 2.79749 116.306C2.79749 116.246 2.75445 116.289 2.71141 116.41C2.63393 116.608 2.62532 116.616 2.47898 116.479C2.4015 116.401 2.32402 116.212 2.30681 116.048C2.2982 115.893 2.27237 115.687 2.24655 115.592C2.22933 115.497 2.21211 115.368 2.21211 115.316C2.2035 115.256 2.14325 115.222 2.07438 115.248C1.98829 115.273 1.94525 115.23 1.94525 115.101C1.94525 114.938 1.92803 114.929 1.85917 115.032C1.78169 115.144 1.75586 115.136 1.63534 114.989C1.56648 114.895 1.51483 114.697 1.53204 114.542C1.54926 114.395 1.53204 114.24 1.49761 114.197C1.46317 114.163 1.45457 114.077 1.48039 114.025C1.49761 113.965 1.48039 113.896 1.42874 113.87C1.3857 113.844 1.34266 113.715 1.34266 113.569C1.34266 113.397 1.29961 113.311 1.21353 113.311C1.14466 113.311 1.07579 113.242 1.05858 113.164C1.04136 113.078 1.04136 112.587 1.04997 112.062C1.06718 111.537 1.07579 111.003 1.07579 110.857C1.0844 110.711 1.06718 110.521 1.05858 110.427C1.04136 110.332 1.10162 110.177 1.1877 110.082C1.27379 109.988 1.32544 109.859 1.29961 109.807C1.27379 109.747 1.29961 109.678 1.34266 109.652C1.39431 109.626 1.42874 109.574 1.42874 109.523C1.42874 109.471 1.35987 109.437 1.2824 109.437C1.15327 109.437 1.12744 109.359 1.12744 108.963C1.12744 108.645 1.16188 108.49 1.23935 108.49C1.29101 108.49 1.34266 108.455 1.34266 108.404C1.34266 108.352 1.2824 108.318 1.21353 108.318C1.12744 108.318 1.0844 108.232 1.0844 108.042C1.0844 107.887 1.11884 107.698 1.16188 107.629C1.20492 107.551 1.19631 107.414 1.12744 107.285C1.04997 107.147 1.03275 107.009 1.0844 106.897C1.13605 106.785 1.12744 106.682 1.05858 106.613C0.981099 106.527 0.989708 106.475 1.09301 106.398C1.21353 106.312 1.21353 106.277 1.11884 106.191C1.04997 106.131 0.998316 106.045 0.998316 105.993C0.998316 105.942 1.04136 105.907 1.0844 105.907C1.13605 105.907 1.13605 105.838 1.07579 105.718C1.01553 105.606 0.955274 105.305 0.938057 105.046C0.92084 104.788 0.895015 104.487 0.886406 104.383C0.877798 104.289 0.843364 104.168 0.80893 104.125C0.774496 104.091 0.774496 103.996 0.800321 103.927C0.826147 103.858 0.929449 103.729 1.03275 103.652C1.1877 103.523 1.19631 103.497 1.06718 103.497C0.981099 103.497 0.912232 103.445 0.903623 103.393C0.903623 103.333 0.895015 103.135 0.886406 102.963C0.877798 102.748 0.903623 102.636 0.981099 102.636C1.03275 102.636 1.0844 102.601 1.0844 102.55C1.0844 102.498 1.04997 102.455 1.00692 102.446C0.972491 102.429 0.912232 102.335 0.877798 102.231C0.834755 102.076 0.860581 102.033 0.998316 102.033C1.12744 102.033 1.16188 101.99 1.12744 101.861C1.10162 101.766 1.04997 101.689 0.998316 101.689C0.955274 101.689 0.912232 101.62 0.92084 101.543C0.92084 101.457 0.903623 101.276 0.877798 101.129C0.843364 100.949 0.877798 100.819 0.989708 100.699C1.12744 100.544 1.13605 100.501 1.03275 100.294C0.938057 100.114 0.938057 100.071 1.02414 100.114C1.09301 100.157 1.07579 100.096 0.998316 99.9672C0.92084 99.8467 0.869189 99.6917 0.869189 99.6229C0.877798 99.554 0.92084 99.5023 0.981099 99.5196C1.04997 99.5282 1.05858 99.4851 1.02414 99.399C0.972491 99.2957 0.989708 99.2699 1.07579 99.2871C1.15327 99.3043 1.21353 99.2441 1.23935 99.1494C1.25657 99.0547 1.22214 98.9342 1.17049 98.8911C1.11023 98.8309 1.0844 98.8481 1.0844 98.96C1.0844 99.0375 1.03275 99.1236 0.981099 99.1408C0.903623 99.158 0.869189 99.0461 0.869189 98.7534C0.869189 98.521 0.886406 98.3316 0.912232 98.3316C0.938057 98.3316 0.955274 98.2455 0.946666 98.1336C0.946666 98.0303 0.989708 97.8925 1.03275 97.8236C1.11023 97.7203 1.09301 97.7117 0.981099 97.7548C0.895015 97.7892 0.826147 97.7892 0.826147 97.7548C0.826147 97.7117 0.860581 97.6256 0.903623 97.5568C0.955274 97.4793 0.946665 97.3502 0.886406 97.221C0.800321 97.0575 0.80893 97.0058 0.938057 96.9025C1.01553 96.8336 1.06718 96.739 1.04136 96.6959C1.01553 96.6529 0.972491 96.429 0.946666 96.2052C0.92084 95.9728 0.860581 95.6629 0.817538 95.5165C0.765887 95.3357 0.774496 95.1722 0.826147 95.0603C0.886406 94.9397 0.877798 94.845 0.80893 94.759C0.714236 94.647 0.722845 94.6212 0.851972 94.6298C0.938057 94.6298 0.998316 94.5696 0.998316 94.4835C0.998316 94.3974 0.963883 94.2855 0.92084 94.2424C0.877798 94.1994 0.817538 94.0617 0.791713 93.9411C0.774496 93.8206 0.80893 93.614 0.877798 93.4677C0.946666 93.3213 0.989708 93.1233 0.963883 93.02C0.929449 92.8995 0.955274 92.8134 1.01553 92.8048C1.07579 92.7876 1.09301 92.6929 1.05858 92.5638C1.03275 92.4432 0.92084 92.3055 0.80893 92.2538C0.628152 92.1678 0.610934 92.0989 0.610934 91.5824C0.610934 91.2725 0.63676 91.0142 0.679802 91.0142C0.714236 91.0142 0.714236 90.9625 0.679802 90.9109C0.653977 90.8506 0.610935 90.6526 0.593718 90.4805C0.576501 90.2136 0.593718 90.1533 0.722845 90.1447C0.800321 90.1447 0.817538 90.1275 0.765887 90.1017C0.679802 90.0759 0.679802 90.0156 0.783104 89.852C0.895015 89.6626 0.895015 89.6368 0.783104 89.6368C0.714236 89.6368 0.628152 89.5335 0.602326 89.4044C0.576501 89.2666 0.576501 89.0945 0.602326 89.017C0.63676 88.9137 0.610934 88.862 0.52485 88.862C0.447373 88.862 0.404331 88.7932 0.412939 88.6726C0.421548 88.5607 0.46459 88.4574 0.507633 88.4316C0.550675 88.4058 0.533458 88.2422 0.46459 88.0614C0.378505 87.8032 0.369897 87.7085 0.46459 87.5707C0.542067 87.4416 0.542067 87.3469 0.473199 87.2092C0.404331 87.0628 0.404331 86.8734 0.473199 86.4947C0.533458 86.1934 0.550675 85.6166 0.52485 85.1173C0.499024 84.6438 0.473199 84.1187 0.473199 83.9551C0.473199 83.7915 0.430156 83.6021 0.387114 83.5505C0.344071 83.4902 0.326854 83.3955 0.35268 83.3525C0.378505 83.3094 0.344071 83.2664 0.292421 83.2664C0.232161 83.2664 0.257987 83.2061 0.52485 82.9909L0.35268 83.0512C0.214944 83.0942 0.197727 83.0856 0.283812 82.9909C0.35268 82.9135 0.361288 82.8274 0.309638 82.7327C0.249378 82.6208 0.257987 82.5261 0.35268 82.4055C0.447373 82.2764 0.455982 82.2248 0.378505 82.2075C0.292421 82.1817 0.266595 81.9407 0.283812 81.3209C0.283812 80.856 0.301029 80.3911 0.309638 80.2964C0.318246 80.2017 0.301029 79.5475 0.275204 78.833C0.24077 78.127 0.214944 77.4986 0.214944 77.4556C0.214944 77.4125 0.24077 77.137 0.266595 76.853C0.309638 76.4742 0.301029 76.3709 0.232161 76.4656C0.154685 76.5775 0.137468 76.5775 0.137468 76.4483C0.137468 76.3623 0.197727 76.2934 0.266595 76.2934C0.369897 76.2934 0.387114 76.2159 0.344071 75.9318C0.318246 75.7252 0.292421 75.5444 0.292421 75.5186C0.292421 75.4928 0.292421 75.4239 0.301029 75.3723C0.301029 75.312 0.335463 75.2776 0.378505 75.2948C0.412939 75.312 0.447373 75.2001 0.46459 75.0365C0.473199 74.873 0.447373 74.7438 0.395722 74.7438C0.35268 74.7438 0.318246 74.5975 0.318246 74.4253C0.326854 74.2445 0.283812 74.0121 0.232161 73.9088C0.163293 73.7538 0.163293 73.7108 0.249378 73.7108C0.326854 73.7108 0.326854 73.6936 0.24077 73.6419C0.18051 73.6075 0.137468 73.5386 0.146076 73.4956C0.154685 73.4525 0.137468 73.3492 0.103034 73.2804C0.0685999 73.2115 0.0599914 72.9791 0.0858169 72.7638C0.111642 72.5486 0.146076 71.7739 0.163293 71.0421C0.18051 70.3104 0.223553 69.6561 0.249378 69.6045C0.283812 69.5442 0.283812 69.4926 0.249378 69.4926C0.206336 69.4926 0.197727 69.174 0.214944 68.778C0.232161 68.3906 0.24077 67.9602 0.24077 67.8139C0.232161 67.6675 0.232161 67.4781 0.232161 67.3834C0.24077 67.2887 0.24077 67.1338 0.249378 67.0391C0.249378 66.9444 0.223553 66.7034 0.197727 66.5054C0.154685 66.2385 0.163293 66.1352 0.249378 66.1352C0.318246 66.1352 0.321115 66.1122 0.257987 66.0663C0.206336 66.0319 0.163293 65.9372 0.171902 65.8597C0.18051 65.7736 0.197727 65.7048 0.223553 65.7048C0.249378 65.7048 0.266595 65.5068 0.266595 65.2657C0.266595 64.9128 0.301029 64.8095 0.610934 64.6459L0.438765 64.5254C0.283812 64.4135 0.266595 64.2929 0.249378 63.1394C0.232161 62.0202 0.24077 61.8653 0.378505 61.762C0.455982 61.7017 0.473199 61.6673 0.412939 61.6759C0.335463 61.6931 0.292421 61.5812 0.275204 61.3143C0.257987 61.0475 0.292421 60.8753 0.387114 60.772C0.478938 60.6687 0.493285 60.597 0.430156 60.5568C0.378505 60.5223 0.309638 60.4276 0.283812 60.3502C0.249378 60.2641 0.266595 60.1952 0.309638 60.1952C0.361288 60.1952 0.395722 60.0919 0.395722 59.9628C0.395722 59.825 0.344071 59.6443 0.275204 59.5496C0.214944 59.4549 0.146076 59.3343 0.137468 59.2913C0.128859 59.2483 0.163293 59.188 0.214944 59.1622C0.266595 59.1363 0.318246 59.0417 0.318246 58.947C0.318246 58.8523 0.292421 58.2497 0.249378 57.604C0.197727 56.7087 0.206336 56.3988 0.292421 56.2869C0.35268 56.2008 0.361288 56.1319 0.309638 56.1061C0.266595 56.0803 0.223553 55.9253 0.223553 55.7618C0.223553 55.5724 0.266595 55.4604 0.335463 55.4604C0.421548 55.4691 0.421548 55.4432 0.335463 55.3313C0.257987 55.2452 0.249378 55.1505 0.309638 55.03C0.369897 54.9095 0.361288 54.7459 0.266595 54.4705C0.197727 54.2552 0.163293 54.0659 0.206336 54.0486C0.24077 54.0314 0.283812 53.9109 0.309638 53.7904C0.335463 53.6612 0.326854 53.5407 0.292421 53.5149C0.249378 53.4977 0.232161 53.1964 0.232161 52.8606C0.24077 52.5163 0.275204 52.1633 0.318246 52.0859C0.361288 51.9912 0.361288 51.9223 0.318246 51.9137C0.266595 51.8965 0.214944 51.7846 0.189119 51.6554C0.154685 51.5005 0.18051 51.4058 0.249378 51.3886C0.318246 51.3627 0.326854 51.3197 0.266595 51.2336C0.214944 51.1647 0.189119 50.7257 0.197727 50.2522C0.206336 49.7787 0.223553 49.1159 0.249378 48.7887C0.266595 48.453 0.35268 48.057 0.438765 47.8848C0.533458 47.6954 0.567892 47.4974 0.533458 47.3511C0.507633 47.2134 0.516241 47.1101 0.567892 47.1101C0.619543 47.1101 0.653977 47.067 0.653977 47.024C0.653977 46.9809 0.602326 46.9379 0.550675 46.9379C0.473199 46.9379 0.430156 46.7141 0.421548 46.1631C0.404331 45.7327 0.421548 45.3367 0.455982 45.285C0.490416 45.2248 0.52485 45.1301 0.533458 45.087C0.542067 45.044 0.576501 44.889 0.602326 44.7427C0.628152 44.5963 0.679802 44.295 0.714236 44.054C0.74867 43.8216 0.765887 43.5977 0.757279 43.5633C0.74867 43.5202 0.80893 43.5202 0.895015 43.5547C1.03275 43.6063 1.03275 43.5977 0.895015 43.4428C0.80893 43.3567 0.740062 43.2103 0.740062 43.1329C0.740062 43.0468 0.783104 42.9607 0.826147 42.9349C0.877798 42.909 0.912232 42.8488 0.912232 42.8057C0.912232 42.7627 0.851972 42.6594 0.783104 42.5905C0.714236 42.5216 0.645369 42.3236 0.63676 42.1601C0.619543 41.9965 0.628151 41.8588 0.653977 41.8588C0.679802 41.8588 0.697019 41.48 0.688411 41.0151C0.688411 40.5589 0.653977 40.0854 0.619543 39.9649C0.585109 39.8444 0.602326 39.6464 0.645368 39.5172C0.697019 39.3795 0.714236 39.2762 0.679802 39.2762C0.63676 39.2762 0.628152 39.0954 0.63676 38.863C0.653977 38.6391 0.671194 38.3981 0.662585 38.3292C0.662585 38.2604 0.63676 37.873 0.602326 37.4684C0.559284 36.8399 0.567892 36.728 0.688411 36.6764C0.80893 36.6161 0.80893 36.5731 0.722845 36.3492C0.645369 36.1771 0.63676 36.0652 0.697019 36.0221C0.74867 35.9877 0.783104 35.9016 0.783104 35.8327C0.783104 35.7638 0.74867 35.6519 0.714236 35.6003C0.679802 35.54 0.697019 35.4712 0.740062 35.4453C0.791713 35.4195 0.80893 35.3334 0.783104 35.2559C0.757279 35.1699 0.774496 34.9977 0.826147 34.8686C0.895015 34.6706 0.886406 34.6275 0.783104 34.6275C0.705628 34.6275 0.653977 34.55 0.653977 34.4123C0.653977 34.2918 0.697019 34.1971 0.740062 34.1971C0.791713 34.1971 0.826147 33.9646 0.826147 33.6806C0.826147 33.3965 0.860581 33.164 0.912232 33.164C0.963883 33.164 0.989708 33.0263 0.981099 32.8455C0.963882 32.6733 0.903623 32.5184 0.851972 32.5012C0.765887 32.484 0.765887 32.4151 0.869189 32.2171C0.938057 32.0707 0.963883 31.9588 0.912232 31.9588C0.869189 31.9588 0.826147 31.8641 0.826147 31.7436C0.826147 31.6231 0.791713 31.5112 0.740062 31.4853C0.679802 31.4595 0.679802 31.3907 0.740062 31.296C0.783104 31.2099 0.80893 31.1238 0.783104 31.098C0.765887 31.0721 0.731453 30.7967 0.705628 30.4781C0.662585 29.9788 0.671194 29.9014 0.783104 29.9358C0.877798 29.9702 0.903623 29.9272 0.869189 29.7636C0.834755 29.6001 0.860581 29.5484 0.981099 29.5484C1.05858 29.5484 1.09301 29.5226 1.05858 29.4881C1.01553 29.4537 0.938057 29.4193 0.886406 29.4193C0.834755 29.4193 0.791713 29.3246 0.791713 29.2041C0.791713 29.0491 0.834755 28.9888 0.955274 28.9888C1.07579 28.9888 1.11884 28.9372 1.10162 28.8167C1.0844 28.722 1.03275 28.6359 0.989708 28.6273C0.946666 28.6101 0.929448 28.5584 0.955274 28.5154C0.981099 28.4723 0.972491 28.3776 0.938057 28.326C0.903623 28.2657 0.860581 28.0677 0.851972 27.8955C0.834755 27.6373 0.851972 27.577 0.955274 27.6115C1.02414 27.6373 1.0844 27.6028 1.09301 27.5512C1.10162 27.4909 1.09301 27.3274 1.0844 27.181C1.07579 27.0347 1.03275 26.8711 0.989708 26.8195C0.938057 26.7506 0.955274 26.6473 1.02414 26.5612C1.07579 26.4751 1.17909 26.3546 1.23935 26.3029C1.29961 26.2341 1.32544 26.0963 1.29101 25.9586C1.25657 25.8122 1.29961 25.5798 1.39431 25.3732C1.48039 25.1838 1.54926 24.9686 1.55787 24.8997C1.55787 24.8309 1.62674 24.7792 1.71282 24.7964C1.7903 24.805 1.85056 24.762 1.83334 24.7103C1.82473 24.6501 1.78169 24.5468 1.74725 24.4951C1.71282 24.4349 1.6956 24.366 1.71282 24.3402C1.72143 24.3143 1.86777 24.2713 2.03133 24.2455C2.22072 24.2196 2.34985 24.2369 2.37567 24.2971C2.4015 24.366 2.5048 24.3143 2.65975 24.1766C2.85775 23.9872 2.96105 23.9528 3.33122 23.9786C3.57225 23.9872 3.80468 23.9528 3.84773 23.9097C3.89077 23.8667 3.89938 23.7892 3.85633 23.7548C3.8219 23.7203 3.88216 23.6945 3.99407 23.6945C4.14041 23.6945 4.16624 23.729 4.1232 23.8495C4.08015 23.97 4.08876 23.9786 4.19206 23.8925C4.26093 23.8409 4.39006 23.7806 4.48475 23.7634C4.57945 23.7548 4.67414 23.7117 4.69997 23.6859C4.72579 23.6515 5.0357 23.6084 5.40586 23.5998C5.76742 23.5826 6.04289 23.5912 6.02567 23.6343C6.00846 23.6687 6.12897 23.6773 6.29254 23.6515C6.4561 23.6256 6.61105 23.6515 6.63688 23.6945C6.6627 23.7462 6.84348 23.7548 7.09312 23.729C7.31695 23.6945 7.65268 23.6687 7.84206 23.6687C8.03145 23.6601 8.2897 23.7203 8.42744 23.8064C8.65987 23.9528 8.65987 23.9528 8.70291 23.7376C8.72874 23.617 8.80621 23.5223 8.87508 23.5223C8.94395 23.5223 9.03864 23.5912 9.08169 23.6773C9.15916 23.815 9.16777 23.815 9.21081 23.6773C9.24525 23.5826 9.30551 23.5482 9.37437 23.5826C9.42602 23.617 9.78758 23.6601 10.1664 23.6687C10.5882 23.6859 10.9325 23.6515 11.053 23.5826C11.208 23.5051 11.2855 23.5051 11.4232 23.5912C11.5523 23.6687 11.6298 23.6687 11.7848 23.5912C11.8881 23.531 12.0516 23.4965 12.1463 23.5137C12.241 23.531 12.3873 23.617 12.4734 23.7031C12.5509 23.7892 12.68 23.8495 12.7489 23.8236C12.8178 23.7978 12.9383 23.7806 13.0072 23.7806C13.076 23.7806 13.1363 23.7203 13.1363 23.6515C13.1363 23.5826 13.1793 23.5223 13.2224 23.5223C13.274 23.5223 13.3945 23.5654 13.5064 23.617C13.6442 23.6945 13.7044 23.6945 13.7217 23.617C13.7303 23.5654 13.8077 23.5223 13.8938 23.5223C14.023 23.5137 14.023 23.5309 13.911 23.6515C13.8422 23.7203 13.8077 23.815 13.8422 23.8495C13.8852 23.8839 13.9799 23.8409 14.0574 23.7548C14.1865 23.6343 14.4017 23.5912 15.1851 23.5654C16.0029 23.5309 16.1493 23.5396 16.1493 23.6515C16.1493 23.7289 16.1923 23.7548 16.2612 23.7203C16.3128 23.6859 16.3817 23.6515 16.4075 23.6429C16.4333 23.6429 16.5108 23.6084 16.5797 23.574C16.6485 23.5396 16.8724 23.5568 17.079 23.6084C17.32 23.6601 17.4405 23.6687 17.4405 23.6084C17.4405 23.5654 17.5869 23.5309 17.7676 23.5309C17.9398 23.5396 18.1378 23.5826 18.1981 23.617C18.2583 23.6687 18.353 23.6429 18.4305 23.5654C18.5166 23.4793 18.6715 23.4449 18.8868 23.4707C19.0589 23.4879 19.3 23.4621 19.4205 23.4276C19.541 23.3846 19.6787 23.3846 19.7218 23.419C19.7734 23.4621 19.9284 23.4793 20.0661 23.4707C20.2125 23.4621 20.3846 23.4363 20.4535 23.4018C20.5224 23.376 20.7204 23.3588 20.8839 23.3674C21.0475 23.376 21.3316 23.376 21.5123 23.3674C21.6931 23.3588 21.8136 23.3157 21.7878 23.2641C21.762 23.221 21.8222 23.178 21.9169 23.178C22.0633 23.178 22.0805 23.135 22.0375 22.9456C22.003 22.8078 21.9514 22.6443 21.9083 22.5754C21.8653 22.4979 21.8911 22.343 21.9686 22.188C22.0375 22.0417 22.0891 21.9211 22.0891 21.9125C22.0891 21.8953 22.0547 21.9039 22.003 21.9297C21.96 21.9556 21.8825 21.8867 21.8395 21.7834C21.7964 21.6715 21.7964 21.5682 21.8395 21.5424C21.8825 21.5165 21.9255 21.4046 21.9428 21.2927C21.9514 21.1894 22.0288 21.0603 22.1149 21.0172C22.2096 20.9656 22.2441 20.8795 22.2182 20.7676C22.1838 20.6471 22.1322 20.6126 22.0288 20.6557C21.8997 20.7073 21.8911 20.6901 21.9858 20.5868C22.0461 20.5179 22.0633 20.3974 22.0288 20.3113C21.9858 20.208 22.003 20.1219 22.0891 20.0617C22.1924 19.9928 22.1924 19.9842 22.0719 20.0272C21.9858 20.0531 21.9169 20.0703 21.9083 20.0617C21.9083 20.0444 21.8825 19.8464 21.8653 19.6054C21.8395 19.3213 21.8653 19.0803 21.96 18.8995C22.0633 18.6757 22.0719 18.5724 21.9944 18.426C21.9428 18.3141 21.9169 18.0558 21.9428 17.8406C21.9686 17.6254 22.0202 17.2983 22.0547 17.1089C22.1063 16.8248 22.0977 16.7818 22.003 16.8506C21.9083 16.9195 21.8997 16.8937 21.9428 16.7473C21.9772 16.6354 21.9686 16.5321 21.9169 16.5063C21.8653 16.4805 21.8825 16.3685 21.96 16.205C22.0288 16.0586 22.0891 15.8692 22.0891 15.7746C22.0891 15.6799 22.0633 15.5852 22.0288 15.5679C21.9858 15.5507 21.9686 15.3786 21.9772 15.1978C21.9858 15.017 22.0116 14.7759 22.0288 14.6554C22.0461 14.5349 22.1408 14.2939 22.2268 14.1131C22.3818 13.8118 22.3818 13.786 22.2441 13.4933C22.158 13.3297 22.0891 13.1747 22.0891 13.1489C22.0891 13.1231 22.1322 13.1231 22.1752 13.1489C22.2268 13.1747 22.2613 13.1661 22.2613 13.1317C22.2613 13.0887 22.201 12.9853 22.1322 12.8907C22.0547 12.796 22.003 12.6927 22.003 12.6582C22.003 12.6152 22.0289 12.6066 22.0719 12.6238C22.1063 12.641 22.1235 12.4947 22.1149 12.2967C22.1063 12.1073 22.158 11.8404 22.2268 11.7113C22.3215 11.5305 22.3215 11.4702 22.2441 11.4702C22.1838 11.4788 22.0805 11.3669 22.0202 11.2378C21.9342 11.057 21.9342 10.9365 22.003 10.7385C22.0547 10.6008 22.158 10.42 22.2182 10.3511C22.2957 10.265 22.3129 10.1789 22.2613 10.0928C22.2182 10.024 22.201 9.79154 22.2268 9.57632C22.2699 9.19754 22.2699 9.19754 22.0116 9.61936L22.003 9.30084C22.003 9.12006 21.9944 8.94789 21.9858 8.91345C21.9772 8.87041 22.0633 8.79293 22.1838 8.74128C22.2957 8.68102 22.3388 8.62937 22.2871 8.62937C22.2268 8.62937 22.1752 8.54328 22.1752 8.43998C22.1752 8.32806 22.1322 8.19894 22.0719 8.13867C21.9772 8.05259 21.9858 7.99233 22.1149 7.81155C22.201 7.68242 22.2268 7.57911 22.1752 7.55329C22.1322 7.52746 22.0891 7.3725 22.0891 7.20894C22.0891 7.03677 22.1235 6.92485 22.1752 6.95068C22.2268 6.97651 22.3129 6.92485 22.3732 6.84738C22.4593 6.70964 22.4593 6.70964 22.3474 6.80433C22.2441 6.89042 22.201 6.88181 22.1149 6.77851C22.0202 6.6752 22.0375 6.61494 22.2182 6.43416C22.3388 6.31364 22.4334 6.14147 22.4334 6.04677C22.4334 5.95208 22.3904 5.88321 22.3388 5.90042C22.2871 5.90903 22.2268 5.86599 22.2096 5.81434C22.1924 5.75408 22.2182 5.70243 22.2613 5.70243C22.3129 5.70243 22.3301 5.65077 22.3043 5.59912C22.2785 5.53886 22.3129 5.36669 22.3904 5.22895C22.5023 5.00512 22.5023 4.97069 22.3904 4.95347C22.3129 4.93625 22.2613 4.83295 22.2613 4.69521C22.2613 4.55747 22.3215 4.36808 22.3904 4.26478C22.4593 4.15287 22.5023 4.02374 22.4765 3.98069C22.4507 3.93765 22.4765 3.87739 22.5195 3.85156C22.5712 3.82574 22.5798 3.73965 22.554 3.66217C22.5281 3.57609 22.5023 3.36948 22.5023 3.20592C22.5023 3.04235 22.5281 2.80131 22.554 2.67218C22.5884 2.53444 22.5712 2.43114 22.5195 2.43114C22.4765 2.43114 22.4334 2.38809 22.4334 2.34505C22.4334 2.30201 22.4937 2.27618 22.5626 2.30201C22.6573 2.33644 22.6917 2.27618 22.6917 2.04375C22.6917 1.88018 22.7347 1.72523 22.7778 1.6994C22.8294 1.67357 22.8467 1.61331 22.8208 1.57027C22.795 1.52723 22.8294 1.47558 22.8897 1.47558C22.9413 1.46697 23.0619 1.46697 23.148 1.47558C23.2254 1.47558 23.2943 1.44114 23.2943 1.3981C23.2943 1.35505 23.3632 1.32062 23.4492 1.33784C23.5439 1.34645 23.6042 1.32062 23.6042 1.28619C23.5956 1.24314 23.6903 1.15706 23.8108 1.09679C23.9313 1.02793 24.0949 0.976274 24.181 0.967665C24.2757 0.967665 24.3101 1.01071 24.2843 1.09679C24.2584 1.17427 24.2929 1.22592 24.3704 1.22592C24.4392 1.22592 24.5167 1.16566 24.5425 1.09679C24.577 0.984882 24.7663 0.976274 25.7735 1.01932C26.4192 1.04514 27.1509 1.07958 27.3833 1.08819C27.6244 1.1054 27.8998 1.13984 28.0117 1.16566C28.115 1.2001 28.2011 1.29479 28.2011 1.38088C28.2011 1.5014 28.2356 1.49279 28.3561 1.32062C28.4766 1.14845 28.5283 1.13123 28.7004 1.21732C28.8382 1.28619 28.8984 1.28619 28.9156 1.20871C28.9242 1.13984 29.2083 1.11401 29.8367 1.13123C30.336 1.13984 30.7923 1.19149 30.8525 1.23453C30.9214 1.28619 31.0419 1.26036 31.1969 1.17427C31.3691 1.07097 31.4724 1.05375 31.6015 1.12262C31.7048 1.17427 31.8683 1.17427 32.0319 1.13123C32.1869 1.08819 32.3246 1.08819 32.3763 1.13984C32.4279 1.19149 32.4968 1.17427 32.5484 1.07958C32.6259 0.967665 32.6862 0.959056 32.9788 1.05375C33.1682 1.1054 33.3834 1.13123 33.4523 1.09679C33.5212 1.06236 33.702 1.01932 33.8397 0.993491C34.0205 0.967665 34.1582 1.01071 34.2959 1.13123C34.4423 1.26897 34.4853 1.28619 34.4853 1.18288C34.4853 1.11401 34.5456 1.03653 34.6145 1.01071C34.6833 0.984882 34.8641 0.967665 35.0018 0.967665C35.1482 0.967665 35.2773 1.01932 35.2945 1.07958C35.3204 1.16566 35.3634 1.16566 35.5097 1.07958C35.6647 0.984882 35.6905 0.984882 35.6905 1.09679C35.6905 1.2001 35.725 1.20871 35.8627 1.13984C35.9918 1.07097 36.0435 1.08819 36.0779 1.18288C36.1037 1.25175 36.1898 1.29479 36.2759 1.27758C36.3534 1.25175 36.4739 1.23453 36.5341 1.23453C36.5858 1.22592 36.6202 1.18288 36.5944 1.13984C36.5686 1.08819 36.7063 1.05375 36.9388 1.05375C37.154 1.05375 37.3261 1.09679 37.3261 1.13984C37.3261 1.19149 37.4294 1.20871 37.5672 1.18288C37.6963 1.15706 38.0665 1.12262 38.385 1.11401C38.781 1.1054 39.0048 1.13123 39.0564 1.20871C39.1167 1.28619 39.1856 1.26897 39.375 1.13984C39.5213 1.02793 39.6418 0.993491 39.6935 1.04514C39.7451 1.09679 39.8312 1.08819 39.9345 1.02793C40.0636 0.941839 40.1153 0.950448 40.1928 1.06236C40.253 1.13984 40.408 1.2001 40.5801 1.19149C40.7265 1.18288 40.8556 1.22592 40.8556 1.26897C40.847 1.31201 40.9331 1.25175 41.0278 1.12262C41.1225 0.993491 41.2946 0.87297 41.3979 0.855752C41.5012 0.838535 42.0178 0.821318 42.5429 0.829927ZM64.9163 50.8548C64.8475 50.829 64.7614 50.872 64.727 50.9495C64.6925 51.027 64.331 51.2508 63.9177 51.4402C63.4357 51.6726 63.1602 51.7587 63.1516 51.6899C63.1516 51.6382 63.0913 51.6038 63.0225 51.6296C62.9536 51.6554 62.8847 51.7587 62.8761 51.862C62.8589 52.017 62.7986 52.06 62.6179 52.06C62.4801 52.06 62.394 52.1031 62.4113 52.1461C62.4285 52.1892 62.4027 52.3011 62.3682 52.3786C62.3252 52.4646 62.2047 52.5335 62.1014 52.5335C61.9894 52.5249 61.8431 52.5938 61.7742 52.6713C61.7054 52.7487 61.4902 52.8865 61.3008 52.9726C61.1114 53.0672 60.9048 53.1361 60.8531 53.1361C60.7929 53.1361 60.7412 53.1878 60.7412 53.2394C60.7412 53.2997 60.5949 53.4374 60.4227 53.5321C60.2419 53.6354 59.9062 53.8248 59.6651 53.9625C59.4327 54.0917 59.2089 54.2552 59.1745 54.3155C59.1314 54.3758 58.9679 54.4877 58.8043 54.5565C58.6407 54.6254 58.503 54.7287 58.503 54.7718C58.503 54.8148 58.3911 54.9181 58.2448 54.987C58.107 55.0558 57.7627 55.3399 57.4958 55.6068C57.2203 55.8823 56.9363 56.1061 56.8674 56.1061C56.7985 56.1061 56.7297 56.1836 56.7124 56.2783C56.6952 56.373 56.635 56.5021 56.5747 56.5624C56.4972 56.6571 56.4628 56.6571 56.4111 56.5624C56.3595 56.4877 56.3509 56.4992 56.3853 56.5968C56.4198 56.7001 56.3337 56.8579 56.1271 57.0703C55.9635 57.251 55.8086 57.4749 55.7827 57.5696C55.7655 57.6643 55.6536 57.8364 55.5417 57.957C55.4384 58.0775 55.3179 58.3013 55.292 58.4477C55.2576 58.6026 55.1973 58.7317 55.1457 58.7317C55.1027 58.7317 55.0596 58.8437 55.0596 58.99C55.0596 59.1363 54.9994 59.3946 54.9219 59.5668C54.853 59.7476 54.7325 60.0058 54.6636 60.1522C54.5861 60.2985 54.4312 60.6515 54.3193 60.9442C54.2074 61.2455 54.1299 61.5296 54.1557 61.5726C54.1815 61.6156 54.1643 61.6759 54.1127 61.7017C54.0696 61.7276 54.0266 61.8567 54.0266 62.003C54.0266 62.158 53.9749 62.2785 53.8975 62.3043C53.8286 62.3302 53.7683 62.4249 53.7683 62.5196C53.7683 62.6315 53.7339 62.6745 53.665 62.6315C53.5962 62.597 53.6048 62.6401 53.6823 62.7262C53.7942 62.8553 53.7942 62.9069 53.665 63.191C53.5876 63.3632 53.5273 63.587 53.5273 63.6817C53.5273 63.7764 53.5101 63.9314 53.4843 64.0261C53.4584 64.1208 53.3896 64.4479 53.3379 64.7578C53.2777 65.0677 53.1657 65.4551 53.0969 65.6187C53.0194 65.7822 52.9678 66.0577 52.9764 66.2213C52.9936 66.3848 52.9419 66.6345 52.8731 66.7808C52.8042 66.9272 52.7353 67.2887 52.7267 67.5987C52.7181 67.9086 52.6751 68.2013 52.632 68.2443C52.5976 68.2874 52.5459 68.4767 52.5201 68.6489C52.4857 68.89 52.5029 68.9674 52.589 68.933C52.6578 68.8986 52.7095 69.0019 52.7439 69.2515C52.7698 69.4581 52.7439 69.7594 52.7009 69.9402C52.6492 70.1124 52.5718 70.2846 52.5373 70.3276C52.5029 70.362 52.4685 70.4567 52.4771 70.5256C52.4771 70.5945 52.5287 70.7839 52.6062 70.9302C52.6751 71.0852 52.7181 71.2573 52.6923 71.3004C52.6665 71.3434 52.7267 71.4037 52.8214 71.4295C52.9362 71.4582 52.9907 71.5357 52.985 71.6619C52.9764 71.7739 52.985 72.0063 53.0022 72.1871C53.0194 72.3592 53.0624 72.5056 53.1055 72.5056C53.1399 72.5056 53.1571 72.5917 53.1485 72.695C53.1399 72.8069 53.2346 73.1168 53.3637 73.3837C53.4929 73.6591 53.5962 73.9777 53.5962 74.0982C53.5962 74.2187 53.6392 74.3306 53.6823 74.3564C53.7339 74.3823 53.7683 74.4684 53.7683 74.5458C53.7597 74.6319 53.82 74.7611 53.8975 74.8299C53.9749 74.8988 54.0352 75.0365 54.0266 75.1312C54.018 75.2259 54.0094 75.3292 54.018 75.3637C54.0266 75.4067 54.0352 75.4584 54.0524 75.4928C54.061 75.5358 54.1557 75.6994 54.259 75.863C54.3623 76.0265 54.5087 76.3192 54.5775 76.5086C54.6464 76.698 54.6808 76.8874 54.6464 76.9218C54.612 76.9563 54.6722 77.0079 54.7841 77.0251C54.8874 77.051 54.9735 77.1112 54.9735 77.1543C54.9735 77.1973 55.0252 77.2317 55.0854 77.2145C55.1371 77.2059 55.1887 77.2662 55.1887 77.3523C55.1887 77.4384 55.2576 77.5589 55.3351 77.6105C55.4126 77.6708 55.5417 77.8688 55.6192 78.0582C55.6966 78.2476 55.8344 78.48 55.9118 78.5747C55.9979 78.6694 56.0926 78.8071 56.1185 78.876C56.1443 78.9449 56.1271 79.0482 56.084 79.0912C56.0238 79.1515 56.0324 79.2376 56.1098 79.3753C56.1701 79.4786 56.2476 79.5647 56.2906 79.5647C56.3251 79.5647 56.3509 79.513 56.3509 79.4528C56.3423 79.3839 56.3853 79.3839 56.4886 79.4786C56.5661 79.5475 56.6866 79.7196 56.7555 79.866C56.8157 80.0123 56.9018 80.1845 56.9449 80.2534C56.9793 80.3223 57.0568 80.4686 57.1084 80.5719C57.1687 80.6838 57.1945 80.8302 57.1687 80.899C57.1429 80.9679 57.1773 81.0282 57.2376 81.0282C57.2892 81.0196 57.4097 81.097 57.4958 81.2003C57.5733 81.295 57.6249 81.3983 57.6077 81.4328C57.5819 81.4758 57.6077 81.5619 57.6508 81.6308C57.7196 81.7427 57.7369 81.7427 57.8057 81.6308C57.866 81.5189 57.909 81.5275 58.0382 81.6996C58.1328 81.8029 58.2706 81.889 58.3567 81.889C58.4341 81.889 58.5116 81.9235 58.5288 81.9751C58.5374 82.0182 58.7957 82.1903 59.1056 82.3539C59.4672 82.5519 59.6566 82.6982 59.6479 82.7843C59.6307 82.8618 59.6738 82.9307 59.734 82.9307C59.7857 82.9393 59.889 82.9393 59.9492 82.9307C60.0009 82.9307 60.1817 83.0082 60.3366 83.1115C60.483 83.2148 60.681 83.3697 60.767 83.4558C60.8445 83.5419 61.0339 83.6366 61.1802 83.671C61.3352 83.7141 61.4729 83.7915 61.4815 83.8432C61.4988 83.9035 61.5935 83.9551 61.6881 83.9551C61.8173 83.9551 61.8431 83.9895 61.8001 84.1014C61.7398 84.2306 61.757 84.2306 61.9034 84.1445C62.0497 84.067 62.1013 84.0756 62.2477 84.222C62.3424 84.3167 62.4629 84.3855 62.506 84.3855C62.5576 84.3769 62.6523 84.4372 62.7212 84.5147C62.79 84.6007 62.9364 84.6438 63.0483 84.6266C63.1516 84.618 63.3238 84.6696 63.4098 84.7471C63.5045 84.8332 63.6251 84.9021 63.6681 84.9021C63.7197 84.9021 63.8575 84.9795 63.9952 85.0656C64.1244 85.1603 64.3482 85.255 64.4859 85.2894C64.6322 85.3239 64.8819 85.4014 65.0455 85.4616C65.209 85.5219 65.3898 85.5821 65.4328 85.5908C65.4845 85.5994 65.562 85.6252 65.605 85.6338C65.6567 85.6424 65.8288 85.694 65.9924 85.7457C66.1904 85.8146 66.3281 85.8146 66.4056 85.7629C66.4745 85.7055 66.5462 85.7141 66.6208 85.7887C66.6725 85.849 66.8705 85.9265 67.0512 85.9609C67.2664 86.004 67.387 86.0728 67.4128 86.1934C67.4558 86.3483 67.4644 86.3569 67.6108 86.2278C67.6883 86.1589 67.8088 86.1159 67.869 86.1417C67.9207 86.1675 68.0584 86.1503 68.1703 86.09C68.3339 86.004 68.3511 86.004 68.2995 86.1331C68.2392 86.2536 68.265 86.2708 68.4286 86.2364C68.5319 86.2106 68.9709 86.1847 69.3927 86.1934C69.8146 86.202 70.1933 86.2192 70.2364 86.245C70.2708 86.2622 70.4774 86.245 70.7098 86.2106C71.0456 86.1503 71.1489 86.1675 71.3124 86.2967C71.4157 86.3827 71.519 86.4516 71.5449 86.4516C71.5707 86.4516 71.5707 86.4 71.5535 86.3397C71.5363 86.288 71.5707 86.2278 71.6223 86.2192C71.674 86.2106 71.9667 86.1847 72.2766 86.1589C72.5865 86.1417 72.8878 86.1589 72.9481 86.202C73.0169 86.2536 73.0686 86.2364 73.0944 86.1503C73.1202 86.0814 73.1891 86.0212 73.2494 86.0212C73.301 86.0212 73.5679 85.9351 73.8261 85.8404C74.0844 85.7371 74.4545 85.5994 74.6439 85.5305C74.8333 85.4616 75.083 85.3497 75.2035 85.2808C75.324 85.2206 75.5736 85.1431 75.763 85.1173C75.9524 85.0914 76.2365 84.9967 76.3914 84.9021C76.5378 84.8074 76.7013 84.7471 76.753 84.7729C76.8046 84.7988 76.9166 84.7557 77.0113 84.6868C77.1059 84.618 77.2179 84.5749 77.2695 84.6008C77.3212 84.6266 77.3814 84.5663 77.4245 84.4716C77.4589 84.3683 77.5536 84.2736 77.6397 84.2564C77.7172 84.2306 77.8204 84.2306 77.8721 84.2564C77.9238 84.2822 77.984 84.2134 78.0098 84.1014C78.0357 83.9981 78.0701 83.9379 78.0959 83.9723C78.1131 84.0154 78.2164 83.9637 78.3284 83.869C78.4317 83.7657 78.578 83.6366 78.6469 83.5677C78.7157 83.4988 78.8104 83.4472 78.8621 83.4472C78.9137 83.4472 79.0429 83.3439 79.1634 83.2234C79.2839 83.1028 79.4044 83.0081 79.4475 83.0081C79.4819 83.0081 79.6713 82.8962 79.8779 82.7585C80.0759 82.6208 80.2739 82.5347 80.3255 82.5605C80.3772 82.5949 80.3858 82.5777 80.3513 82.5347C80.3255 82.483 80.4977 82.3367 80.7387 82.1903C80.9884 82.0526 81.2122 81.9407 81.2552 81.9579C81.2897 81.9665 81.3327 81.9062 81.3499 81.8202C81.3758 81.7427 81.4877 81.6049 81.6082 81.5189C81.7287 81.4414 81.832 81.3122 81.832 81.2434C81.832 81.1745 81.8837 81.1056 81.9439 81.1056C81.9956 81.097 82.0731 81.097 82.1161 81.1056C82.1505 81.1056 82.1936 81.0368 82.2194 80.9421C82.2452 80.8474 82.2883 80.7699 82.3313 80.7699C82.3657 80.7699 82.4776 80.5977 82.5896 80.3825C82.6929 80.1673 82.8134 80.0123 82.865 80.0382C82.9167 80.064 82.9511 80.0209 82.9511 79.9521C82.9511 79.8746 83.0028 79.8402 83.0802 79.866C83.1663 79.8947 83.2237 79.8373 83.2524 79.6938C83.2868 79.5303 83.3385 79.4958 83.4504 79.5303C83.5709 79.5733 83.5881 79.5475 83.5365 79.4011C83.4934 79.2978 83.5021 79.2203 83.5537 79.2203C83.6053 79.2203 83.7259 79.0654 83.8378 78.8674C83.9411 78.678 84.0616 78.5317 84.1133 78.5489C84.1649 78.5661 84.2338 78.4628 84.2854 78.3164C84.3371 78.1701 84.3973 78.0065 84.4404 77.9463C84.4748 77.886 84.5609 77.8688 84.6384 77.9032C84.7245 77.9463 84.7675 77.9377 84.7589 77.886C84.7417 77.843 84.7589 77.731 84.7847 77.645C84.8192 77.5675 84.9052 77.4986 84.9741 77.4986C85.0602 77.4986 85.086 77.4556 85.043 77.3609C84.9999 77.2748 85.0085 77.2317 85.0602 77.2403C85.1118 77.249 85.1807 77.2576 85.2324 77.2576C85.284 77.249 85.3701 77.137 85.439 77.0079C85.4992 76.8788 85.5337 76.7066 85.5078 76.6377C85.482 76.5689 85.4992 76.3623 85.5423 76.1815C85.5853 76.0093 85.6542 75.863 85.7058 75.863C85.7575 75.863 85.7919 75.7941 85.7919 75.708C85.7919 75.6305 85.8177 75.5875 85.8522 75.6219C85.8952 75.665 85.9727 75.6133 86.033 75.5186C86.0846 75.4239 86.119 75.3034 86.0932 75.2604C86.0674 75.2173 86.0846 75.1743 86.1363 75.1743C86.1879 75.1743 86.2051 75.1312 86.1793 75.0882C86.1535 75.0451 86.1707 75.0021 86.2223 75.0021C86.274 75.0021 86.3256 74.9074 86.3515 74.7869C86.3773 74.6664 86.4548 74.5717 86.5236 74.5717C86.6269 74.5717 86.6441 74.4856 86.6097 74.1585C86.5839 73.9346 86.6011 73.7022 86.6528 73.6419C86.6958 73.5903 86.7302 73.5128 86.7302 73.4698C86.7216 73.4353 86.7216 73.3578 86.7302 73.2976C86.7302 73.2459 86.7905 73.2029 86.8508 73.2029C86.9024 73.2115 87.0143 73.2115 87.0832 73.2115C87.1951 73.2029 87.1951 73.1857 87.0832 73.0652C87.0143 72.9877 86.9885 72.9274 87.0401 72.9274C87.0918 72.936 87.066 72.893 86.9971 72.8499C86.8852 72.7725 86.8852 72.7552 86.9971 72.6864C87.109 72.6175 87.109 72.5745 87.0143 72.4023C86.9368 72.2818 86.9196 72.1268 86.9627 71.9891C86.9971 71.8686 87.0401 71.6792 87.0574 71.5586C87.0746 71.4381 87.1004 71.1885 87.109 70.9991C87.1176 70.8097 87.1607 70.6289 87.2123 70.5945C87.264 70.56 87.307 70.4051 87.3156 70.2501C87.3242 70.0952 87.3759 69.8111 87.4361 69.6217C87.4964 69.4323 87.5394 68.9502 87.5308 68.5456C87.5222 68.141 87.548 67.7622 87.5997 67.702C87.66 67.6331 87.6341 67.547 87.5136 67.4265C87.4189 67.3318 87.3587 67.2371 87.3845 67.2113C87.4103 67.1854 87.3931 67.0563 87.3414 66.91C87.284 66.7378 87.284 66.6517 87.3414 66.6517C87.3931 66.6517 87.4275 66.5742 87.4275 66.4795C87.4275 66.3848 87.3673 66.2471 87.2984 66.1782C87.2295 66.1094 87.1693 65.92 87.1607 65.765C87.152 65.6187 87.152 65.3776 87.1607 65.2313C87.1607 65.0849 87.1693 64.8008 87.1865 64.5856C87.1951 64.3704 87.1779 64.1466 87.1434 64.0863C87.109 64.0347 87.1176 63.9658 87.1693 63.94C87.2209 63.9142 87.2554 63.8367 87.2554 63.7678C87.2554 63.6989 87.1951 63.6387 87.1262 63.6387C87.0574 63.6387 86.9799 63.5784 86.9541 63.5095C86.9282 63.4407 86.9454 63.3632 86.9971 63.3374C87.0488 63.3115 87.0832 63.2255 87.0832 63.1394C87.0832 63.0189 87.066 63.0102 86.9971 63.1222C86.9282 63.2341 86.9196 63.2341 86.8766 63.1222C86.8594 63.0533 86.8335 62.9328 86.8335 62.8639C86.8249 62.795 86.8163 62.6401 86.7991 62.5196C86.7905 62.399 86.7561 62.2527 86.713 62.1924C86.6786 62.1408 86.6441 61.9428 86.6355 61.762C86.6269 61.5898 86.6441 61.3918 86.6786 61.3316C86.713 61.2713 86.6872 61.2282 86.6097 61.2282C86.5236 61.2282 86.4892 61.1565 86.5064 61.013C86.515 60.9011 86.4978 60.7978 86.4634 60.7978C86.4203 60.7978 86.317 60.6343 86.2137 60.4276C86.119 60.2296 85.9899 59.98 85.9383 59.8767C85.878 59.7734 85.7575 59.6443 85.6714 59.5754C85.5681 59.5065 85.525 59.4118 85.5595 59.3085C85.5997 59.211 85.5767 59.1622 85.4906 59.1622C85.4217 59.1622 85.3615 59.1363 85.3615 59.0933C85.3615 59.0589 85.1549 58.8092 84.888 58.5337C84.5092 58.1377 84.4232 58 84.4576 57.8278C84.492 57.647 84.4662 57.604 84.2682 57.561C84.1219 57.5351 83.9411 57.3888 83.812 57.1994C83.7 57.0272 83.5967 56.8206 83.5795 56.7518C83.5709 56.6829 83.5193 56.614 83.4676 56.5968C83.4074 56.5882 83.4074 56.5279 83.4676 56.4074C83.5279 56.2869 83.5279 56.2266 83.4504 56.2008C83.3901 56.1836 83.2352 56.1405 83.1061 56.1147C82.9683 56.0889 82.7789 55.977 82.667 55.8651C82.5551 55.7618 82.3141 55.5379 82.1161 55.3744C81.9267 55.2108 81.6857 55.0042 81.5824 54.9181C81.4877 54.8406 81.3671 54.7718 81.3155 54.7718C81.2638 54.7718 81.2294 54.7287 81.2294 54.6857C81.2294 54.6426 81.1433 54.5738 81.04 54.5479C80.9281 54.5135 80.6957 54.393 80.5235 54.2897C80.3427 54.1778 80.1706 54.0142 80.1361 53.9281C80.1017 53.8506 80.0156 53.7387 79.9467 53.6785C79.8693 53.6182 79.7401 53.5665 79.6627 53.5665C79.5766 53.5665 79.4561 53.4977 79.4044 53.4116C79.3442 53.3255 79.2322 53.2652 79.1634 53.2652C79.0945 53.2652 78.8793 53.1878 78.6899 53.0931C78.5005 52.9984 78.2337 52.8434 78.0873 52.7487C77.9496 52.654 77.7602 52.5077 77.6827 52.4216C77.5966 52.3441 77.4933 52.2752 77.4417 52.2752C77.39 52.2752 77.3728 52.2322 77.3986 52.1892C77.4245 52.1461 77.4072 52.1031 77.3556 52.1031C77.3039 52.1031 77.1059 52.0256 76.908 51.9395C76.7014 51.8534 76.3828 51.7157 76.1934 51.6382C76.0041 51.5607 75.8319 51.5263 75.8061 51.5693C75.7802 51.6038 75.6511 51.6296 75.5048 51.6296C75.367 51.621 75.1949 51.5952 75.1432 51.5607C75.083 51.5263 74.971 51.5435 74.9022 51.5866C74.8161 51.6439 74.7587 51.6439 74.73 51.5866C74.7042 51.5349 74.5578 51.5263 74.3426 51.5607C74.0585 51.621 73.9983 51.6038 73.9552 51.4746C73.9294 51.3972 73.8519 51.3283 73.7831 51.3283C73.7142 51.3283 73.6453 51.3713 73.6367 51.423C73.6195 51.4919 73.4473 51.4919 73.0083 51.423C72.6812 51.3713 72.3799 51.2766 72.3541 51.225C72.311 51.1475 72.2594 51.1389 72.1819 51.1992C72.113 51.2422 71.8117 51.2853 71.5018 51.2853C71.1919 51.2853 70.925 51.2594 70.8992 51.225C70.8734 51.1906 70.684 51.1561 70.4688 51.1475C70.2536 51.1389 70.047 51.1045 69.9953 51.0787C69.9437 51.0528 69.8146 51.0184 69.694 51.0012C69.5735 50.9926 68.9021 50.9667 68.1876 50.9409C67.4817 50.9151 66.6811 50.8893 66.4228 50.8893C66.1646 50.8806 65.8374 50.8979 65.6911 50.9323C65.5017 50.984 65.3984 50.9581 65.2951 50.8548C65.209 50.7601 65.1402 50.7429 65.1057 50.8032C65.0713 50.8548 64.9852 50.8806 64.9163 50.8548Z" fill="#FF5D00"/>
</svg>
