<svg width="130" height="118" viewBox="0 0 130 118" fill="none" xmlns="http://www.w3.org/2000/svg">
<path d="M93.446 0.915278C93.7736 0.89516 94.0611 0.868336 94.0744 0.854924C94.0878 0.841512 94.1814 0.8281 94.275 0.8281C94.3686 0.821395 94.509 0.888454 94.5825 0.962219C94.6627 1.04269 94.763 1.08293 94.8298 1.06281C94.8967 1.04269 94.9502 1.06281 94.9435 1.09634C94.9435 1.13657 94.997 1.19022 95.0638 1.21034C95.1307 1.23716 95.3178 1.3981 95.485 1.56575C95.6521 1.74011 95.846 1.90105 95.9195 1.92787C96.0331 1.96811 96.0398 1.98152 95.9529 2.03517C95.8727 2.08211 95.8861 2.10893 96.0198 2.16258C96.1334 2.20952 96.1535 2.22964 96.0666 2.22964C95.973 2.23635 95.9596 2.28329 95.9797 2.5247C95.9997 2.67894 96.0131 2.84658 96.0131 2.89353C96.0198 2.94047 96.0733 2.96059 96.1668 2.93376C96.2538 2.91364 96.2939 2.92035 96.2537 2.95388C96.2136 2.9807 96.1802 3.10141 96.1668 3.2087C96.1535 3.32271 96.1869 3.47694 96.2337 3.56412C96.3072 3.69824 96.3072 3.73177 96.2203 3.77871C96.1668 3.81224 96.1 3.82565 96.0666 3.80553C96.0398 3.79212 96.0465 3.83906 96.0866 3.91283C96.1267 3.98659 96.1802 4.04695 96.2203 4.04695C96.2604 4.04695 96.2872 4.10059 96.2872 4.16765C96.2872 4.22801 96.3473 4.34201 96.4209 4.41577C96.5412 4.52977 96.5412 4.5566 96.4543 4.60354C96.4008 4.63036 96.354 4.62366 96.354 4.58342C96.354 4.54989 96.3072 4.51636 96.2537 4.51636C96.2003 4.51636 96.1535 4.54989 96.1535 4.58342C96.1535 4.62366 96.1802 4.63707 96.2203 4.61695C96.2604 4.59683 96.3273 4.63036 96.3674 4.68401C96.4342 4.77119 96.4342 4.7913 96.3674 4.7846C96.3206 4.7846 96.2939 4.85836 96.3005 4.97236C96.3072 5.07295 96.2805 5.22048 96.2337 5.30766C96.1869 5.38813 96.1668 5.47531 96.1869 5.50884C96.2069 5.53566 96.1334 5.60943 96.0198 5.67649C95.9128 5.73684 95.8192 5.82402 95.8192 5.85755C95.8192 5.89778 95.7123 6.02519 95.5786 6.1459C95.4181 6.29343 95.3513 6.40073 95.378 6.4812C95.4048 6.56167 95.3646 6.62202 95.2577 6.68238C95.1641 6.72261 95.1106 6.79638 95.124 6.82991C95.144 6.86344 95.0972 6.91708 95.017 6.95061C94.9368 6.97744 94.8833 7.05791 94.8833 7.15179C94.89 7.23226 94.8298 7.37309 94.763 7.46697C94.6961 7.56085 94.6092 7.71509 94.5624 7.82238C94.5156 7.92297 94.4822 8.07721 94.4822 8.17109C94.4822 8.26498 94.4622 8.33874 94.4287 8.33874C94.402 8.33874 94.3218 8.43933 94.2482 8.57345C94.1747 8.70086 94.0744 8.80816 94.0276 8.80816C93.9875 8.80816 93.9474 8.88192 93.9474 8.9758C93.9474 9.08757 93.9028 9.15463 93.8137 9.17698C93.7402 9.1971 93.68 9.25745 93.68 9.3111C93.68 9.36475 93.6065 9.49216 93.5129 9.59945C93.4193 9.70004 93.2789 9.91463 93.1987 10.0823C93.1185 10.2499 92.9714 10.4846 92.8644 10.6053C92.7642 10.7193 92.6773 10.8602 92.6773 10.9071C92.6839 10.9473 92.6171 11.0479 92.5436 11.1217C92.47 11.1955 92.3965 11.3229 92.3764 11.4101C92.3564 11.4905 92.3163 11.5442 92.2762 11.5241C92.2361 11.5039 92.1893 11.5442 92.1625 11.6112C92.1425 11.6716 92.1024 11.7386 92.0823 11.7588C92.0622 11.7789 92.0021 11.8526 91.962 11.9264C91.9152 12.0002 91.8283 12.141 91.7748 12.2483C91.7213 12.3489 91.7012 12.4159 91.7414 12.3958C91.7859 12.3735 91.7859 12.407 91.7414 12.4964C91.7012 12.5702 91.6344 12.6305 91.5876 12.6305C91.5475 12.6238 91.4138 12.7512 91.3068 12.8988C91.1932 13.0463 91.0662 13.1737 91.0194 13.167C90.9793 13.167 90.9392 13.2274 90.9392 13.3011C90.9392 13.3749 90.9124 13.4352 90.8723 13.4352C90.8322 13.4352 90.8055 13.4956 90.8055 13.5694C90.8055 13.6431 90.7787 13.7169 90.7386 13.737C90.6985 13.7571 90.6718 13.737 90.6718 13.7035C90.6718 13.67 90.6517 13.6364 90.6183 13.6364C90.5916 13.6297 90.4512 13.8041 90.3041 14.0187C90.157 14.2333 90.0033 14.468 89.9565 14.5417C89.9097 14.6155 89.8495 14.7362 89.8161 14.81C89.7827 14.8837 89.6623 15.038 89.5487 15.1453C89.435 15.2593 89.3615 15.3867 89.3816 15.447C89.4016 15.5007 89.3281 15.6683 89.2211 15.8158C89.1208 15.9634 89.0139 16.0908 88.9805 16.1042C88.9537 16.1109 88.9337 16.1511 88.9337 16.1847C88.9337 16.2182 88.8735 16.3322 88.8066 16.4395C88.7331 16.5401 88.6863 16.6876 88.7064 16.7748C88.7264 16.8821 88.693 16.929 88.5994 16.9559C88.5259 16.976 88.4791 17.0296 88.4925 17.0766C88.5058 17.1168 88.459 17.2912 88.3855 17.4588C88.312 17.6264 88.1783 17.8343 88.0913 17.9282C87.9978 18.0221 87.9309 18.0623 87.9309 18.0288C87.9376 17.9953 87.8908 18.0087 87.8306 18.0623C87.7705 18.1227 87.7237 18.2702 87.7304 18.4178C87.7304 18.6122 87.7103 18.6592 87.6301 18.6323C87.5565 18.6055 87.5231 18.6592 87.4964 18.8201C87.483 18.9341 87.4095 19.095 87.3493 19.1688C87.2825 19.2426 87.1688 19.4102 87.0953 19.5443C87.0217 19.6785 86.8814 19.8863 86.7811 20.0138C86.6741 20.1412 86.4936 20.396 86.3666 20.5771C86.2196 20.7984 86.0992 20.9056 86.019 20.8989C85.9254 20.8922 85.8987 20.9258 85.912 21.0331C85.9321 21.1404 85.8251 21.2946 85.551 21.5829C85.3371 21.8042 85.2101 21.9652 85.277 21.9384C85.3706 21.8914 85.3839 21.9115 85.3505 22.0725C85.3304 22.1731 85.2836 22.2871 85.2502 22.3206C85.2101 22.3653 85.1901 22.3541 85.1901 22.2871C85.1901 22.2133 85.1633 22.22 85.0898 22.3206C85.0363 22.3944 84.9895 22.5352 84.9895 22.6425C84.9895 22.7431 84.936 22.8638 84.8625 22.9107C84.7956 22.951 84.702 23.1119 84.6486 23.2594C84.6018 23.407 84.4614 23.6484 84.3344 23.7959C84.214 23.9434 84.1205 24.0843 84.1205 24.1178C84.1205 24.1446 84.0803 24.1647 84.0269 24.1647C83.9801 24.1647 83.8597 24.2385 83.7595 24.3324C83.6659 24.4263 83.599 24.5201 83.6124 24.5537C83.6324 24.5805 83.5522 24.661 83.4453 24.7347C83.3383 24.8085 83.2447 24.9158 83.238 24.9694V25.1907C83.2447 25.2578 83.2046 25.3047 83.1311 25.3047C83.0709 25.3047 82.964 25.345 82.9038 25.3919C82.8302 25.4456 82.8035 25.526 82.8303 25.64C82.8503 25.7339 82.8436 25.7876 82.8102 25.7607C82.7768 25.7339 82.7032 25.7809 82.6431 25.8613C82.5829 25.9418 82.5428 26.0491 82.5562 26.096C82.5695 26.1363 82.5428 26.2436 82.4893 26.3307C82.4425 26.4112 82.3222 26.5722 82.2286 26.6795C82.135 26.7935 82.0682 26.9343 82.0882 27.0013C82.1083 27.0818 82.0615 27.1288 81.9278 27.1623C81.8275 27.1824 81.7272 27.2025 81.6938 27.1958C81.6671 27.1891 81.6671 27.236 81.6938 27.3031C81.7272 27.3836 81.7205 27.4037 81.6604 27.3702C81.6069 27.3344 81.569 27.3724 81.5467 27.4842C81.5267 27.5781 81.4732 27.6518 81.4264 27.6518C81.3796 27.6518 81.3595 27.7189 81.3729 27.806C81.3863 27.8865 81.3395 28.0609 81.2726 28.1883C81.1991 28.3157 81.1256 28.4364 81.1055 28.4565C81.0788 28.4766 81.052 28.5504 81.0387 28.6242C81.0253 28.6979 80.9384 28.7918 80.8448 28.8388C80.7245 28.8991 80.7111 28.9259 80.7913 28.9259C80.8582 28.9259 80.8983 28.9662 80.8849 29.0131C80.8715 29.0534 80.8181 29.0936 80.7579 29.0936C80.6977 29.0936 80.6576 29.1338 80.6777 29.1808C80.6977 29.221 80.6509 29.3216 80.5774 29.3954C80.5039 29.4691 80.4437 29.6032 80.4437 29.6971C80.4437 29.791 80.5172 29.9855 80.6108 30.133C80.7044 30.2805 80.798 30.4012 80.8247 30.4012C80.8582 30.4012 80.9317 30.4884 80.9919 30.6024C81.0587 30.7097 81.0988 30.8371 81.0788 30.8707C81.0587 30.9042 81.0721 30.9377 81.1122 30.9377C81.1523 30.9377 81.179 30.9847 81.179 31.0383C81.179 31.092 81.2258 31.1389 81.2793 31.1389C81.3328 31.1389 81.3796 31.1858 81.3796 31.2395C81.3796 31.2931 81.4197 31.3334 81.4598 31.3334C81.5066 31.3267 81.5868 31.3267 81.6269 31.3334C81.6804 31.3401 81.6938 31.387 81.6737 31.4608C81.6403 31.5413 81.6938 31.6284 81.8542 31.7625C81.9946 31.8765 82.0481 31.9637 81.9946 31.9838C81.9545 31.9973 81.9144 32.0442 81.9144 32.0777C81.9144 32.1113 81.9411 32.1314 81.9812 32.1113C82.0214 32.0911 82.0414 32.1314 82.028 32.1984C82.0191 32.2744 82.0637 32.3191 82.1617 32.3326C82.2754 32.3393 82.3088 32.3795 82.2821 32.4667C82.262 32.5404 82.3021 32.6075 82.3957 32.6477C82.4759 32.6813 82.5628 32.7617 82.5896 32.8154C82.6163 32.869 82.6564 32.9763 82.6832 33.0501C82.7032 33.1239 82.7233 33.1909 82.7233 33.2043C82.7166 33.211 82.8169 33.3049 82.9305 33.4189C83.1244 33.5933 83.1444 33.6335 83.0642 33.7542C82.9907 33.8749 83.0041 33.895 83.1979 33.9755C83.3116 34.0157 83.4921 34.17 83.599 34.3108C83.6993 34.4449 83.7662 34.5589 83.7327 34.5589C83.706 34.5589 83.7461 34.6126 83.8196 34.6863C83.8932 34.7601 84.0737 34.9881 84.2207 35.196C84.3678 35.3972 84.5349 35.5849 84.5884 35.5983C84.6419 35.6185 84.7488 35.7257 84.8157 35.8465C84.8892 35.9672 84.9962 36.1147 85.0564 36.1683C85.1098 36.222 85.2101 36.3494 85.277 36.4567C85.3371 36.5573 85.3906 36.6847 85.3906 36.7383C85.3906 36.792 85.4575 36.8523 85.5377 36.8725C85.6246 36.8926 85.7382 36.9999 85.8051 37.1206C85.8652 37.2413 85.9588 37.3888 86.019 37.4425C86.0792 37.4961 86.146 37.6235 86.1594 37.7308C86.1861 37.8515 86.2262 37.8985 86.2931 37.8784C86.3599 37.856 86.4268 37.9231 86.4936 38.0795C86.5471 38.2069 86.6206 38.3276 86.6608 38.3478C86.7009 38.3679 86.7744 38.4819 86.8279 38.6026C86.8814 38.7166 87.0151 38.8708 87.1287 38.9379C87.2357 38.9982 87.3293 39.0854 87.3293 39.1189C87.3293 39.1525 87.5231 39.4475 87.7638 39.7761C88.0044 40.098 88.205 40.3998 88.1983 40.4467C88.1983 40.487 88.225 40.5138 88.2652 40.4937C88.3053 40.4735 88.332 40.5071 88.332 40.5607C88.332 40.6144 88.3587 40.6613 88.3989 40.6613C88.439 40.6613 88.4791 40.7284 88.4991 40.8155C88.5192 40.896 88.6395 41.0435 88.7665 41.1508C88.8935 41.2514 89.0005 41.3654 89.0005 41.399C89.0005 41.4325 89.0272 41.5063 89.0674 41.5532C89.1008 41.5934 89.2077 41.7343 89.3013 41.855C89.3949 41.969 89.4685 42.1165 89.4685 42.1701C89.4685 42.2238 89.4952 42.264 89.5286 42.2573C89.5554 42.2439 89.7492 42.3981 89.9431 42.5993C90.1437 42.8005 90.3375 43.0285 90.3843 43.1023C90.4311 43.1827 90.5046 43.3169 90.5447 43.4107C90.5916 43.5046 90.625 43.5985 90.6183 43.632C90.6116 43.6589 90.6584 43.6991 90.7186 43.7192C90.7854 43.746 90.9659 43.9003 91.1197 44.0545C91.2801 44.2155 91.4071 44.3697 91.4071 44.4032C91.4071 44.43 91.4673 44.5105 91.5341 44.5843C91.601 44.658 91.7681 44.8324 91.9018 44.9732C92.0355 45.114 92.1291 45.2616 92.109 45.3219C92.089 45.3756 92.1358 45.4628 92.2026 45.5097C92.2762 45.5499 92.4032 45.6975 92.4968 45.8249C92.5904 45.9523 92.7374 46.1937 92.8177 46.3614C92.8979 46.529 92.9981 46.6832 93.0383 46.7101C93.0784 46.7369 93.192 46.8174 93.2923 46.8911C93.3993 46.9716 93.4795 47.099 93.4795 47.1862C93.4795 47.2667 93.5597 47.4008 93.6466 47.4879C93.7402 47.5684 93.8137 47.669 93.8137 47.7025C93.8137 47.7361 93.9006 47.8903 94.0143 48.0378C94.1212 48.1854 94.2014 48.353 94.1814 48.4067C94.1613 48.4603 94.1747 48.5072 94.2148 48.5072C94.2549 48.5072 94.2817 48.5542 94.2817 48.6078C94.2817 48.6615 94.3285 48.7084 94.3819 48.7084C94.4354 48.7084 94.5156 48.7755 94.5491 48.8627C94.5892 48.9431 94.6895 49.1309 94.783 49.2784C94.8766 49.426 94.9769 49.607 95.0103 49.6808C95.0438 49.7546 95.1173 49.8618 95.1841 49.9155C95.251 49.9691 95.3513 50.1234 95.4048 50.2508C95.4582 50.3782 95.6254 50.6464 95.7791 50.8409C95.9262 51.0354 96.0733 51.1963 96.1 51.1896C96.1334 51.1896 96.1668 51.2433 96.1869 51.3103C96.2069 51.3707 96.1869 51.4444 96.1401 51.4713C96.0732 51.5115 96.0799 51.5249 96.1535 51.5182C96.2069 51.5182 96.334 51.6255 96.4342 51.7596C96.5412 51.887 96.6214 52.0413 96.6214 52.0949C96.6214 52.1486 96.6816 52.2089 96.7551 52.229C96.8487 52.2559 96.8955 52.3296 96.9022 52.4839C96.9156 52.6247 96.9557 52.6985 97.0225 52.6985C97.076 52.6985 97.183 52.7588 97.2565 52.8393C97.33 52.913 97.437 52.9935 97.4905 53.0203C97.5774 53.0606 97.5774 53.074 97.4905 53.1075C97.4103 53.141 97.4169 53.1746 97.544 53.2886C97.6242 53.369 97.8047 53.5903 97.9451 53.7714C98.0854 53.9592 98.2592 54.214 98.3261 54.3414C98.393 54.4688 98.5066 54.6633 98.5868 54.7773C98.6603 54.8913 98.8007 55.0589 98.8943 55.1662C98.9879 55.2668 99.0414 55.3473 99.008 55.3473C98.9812 55.3473 99.0013 55.3875 99.0414 55.4412C99.0882 55.4948 99.1484 55.5216 99.1751 55.5082C99.2085 55.4948 99.2419 55.5686 99.262 55.6826C99.2821 55.7966 99.3155 55.8704 99.3422 55.8502C99.3757 55.8368 99.4358 55.8905 99.4893 55.9709C99.5361 56.0514 99.5628 56.1721 99.5361 56.2392C99.516 56.2995 99.516 56.3465 99.5428 56.3398C99.5762 56.3331 99.6631 56.3599 99.7433 56.4068C99.8302 56.4538 99.8971 56.5342 99.8971 56.5879C99.8971 56.6415 99.9706 56.7287 100.064 56.7757C100.158 56.8159 100.231 56.8964 100.231 56.9433C100.231 56.9835 100.271 57.0372 100.312 57.0573C100.358 57.0707 100.439 57.1847 100.492 57.3054C100.546 57.4261 100.673 57.6139 100.786 57.7279C100.927 57.8754 100.967 57.9693 100.94 58.0833C100.913 58.1839 100.927 58.2241 100.98 58.2107C101.027 58.1973 101.14 58.2912 101.234 58.4253C101.321 58.5594 101.401 58.6936 101.401 58.7204C101.401 58.7472 101.448 58.8008 101.501 58.8411C101.588 58.8947 101.588 58.9148 101.481 58.9886C101.374 59.0624 101.381 59.0825 101.535 59.2568C101.628 59.3574 101.682 59.4714 101.655 59.5251C101.622 59.5921 101.635 59.5921 101.722 59.5251C101.816 59.458 101.842 59.458 101.862 59.5251C101.869 59.5653 101.976 59.6257 102.096 59.6592C102.244 59.6927 102.31 59.7531 102.337 59.8738C102.357 59.9677 102.397 60.0414 102.437 60.0414C102.477 60.0414 102.564 60.1756 102.638 60.3432C102.711 60.5109 102.798 60.645 102.838 60.645C102.879 60.645 102.992 60.7456 103.106 60.8663C103.213 60.9803 103.306 61.1278 103.306 61.1814C103.313 61.2351 103.427 61.3826 103.56 61.5033C103.694 61.624 103.768 61.7179 103.721 61.7179C103.654 61.7179 103.654 61.7515 103.721 61.8856C103.768 61.9795 103.875 62.0733 103.955 62.0868C104.042 62.1069 104.122 62.1739 104.135 62.241C104.155 62.3013 104.242 62.4086 104.336 62.4757C104.456 62.5562 104.496 62.6299 104.476 62.7238C104.454 62.8132 104.476 62.8579 104.543 62.8579C104.597 62.8579 104.69 62.9317 104.744 63.0256C104.797 63.1195 104.824 63.2335 104.797 63.2804C104.777 63.3206 104.784 63.3408 104.817 63.3139C104.851 63.2804 104.918 63.3005 104.964 63.3475C105.011 63.3877 105.051 63.495 105.045 63.5822C105.045 63.6694 105.085 63.7297 105.145 63.7297C105.198 63.7297 105.245 63.7498 105.245 63.7834C105.238 63.8102 105.332 63.9376 105.446 64.065C105.553 64.1924 105.66 64.3534 105.68 64.4204C105.7 64.4808 105.74 64.5344 105.78 64.5344C105.82 64.5344 105.833 64.5747 105.82 64.6216C105.8 64.6618 105.873 64.7423 105.967 64.7959C106.067 64.8429 106.107 64.8965 106.061 64.91C106.021 64.9234 105.98 64.9703 105.98 65.0038C105.98 65.0374 106.021 65.0575 106.061 65.0374C106.114 65.0172 106.181 65.0843 106.228 65.1849C106.275 65.2922 106.395 65.4062 106.495 65.4531C106.602 65.4934 106.702 65.6007 106.729 65.6878C106.756 65.775 106.849 65.9158 106.93 66.0097C107.017 66.1036 107.19 66.3115 107.311 66.4791C107.438 66.6468 107.625 66.8614 107.732 66.9687C107.832 67.0693 107.906 67.1833 107.886 67.2168C107.866 67.2503 107.912 67.2973 107.986 67.3174C108.08 67.3375 108.113 67.3979 108.1 67.5051C108.093 67.6057 108.173 67.7331 108.374 67.9209C108.534 68.0684 108.661 68.2227 108.661 68.2562C108.661 68.2897 108.708 68.3836 108.775 68.4641C108.835 68.5379 108.955 68.625 109.035 68.6451C109.122 68.672 109.189 68.7256 109.189 68.7592C109.189 68.7927 109.149 68.8262 109.102 68.8262C109.062 68.8262 109.149 68.9536 109.303 69.1079C109.463 69.2688 109.59 69.4432 109.59 69.4968C109.597 69.5505 109.671 69.6645 109.757 69.7516C109.851 69.8321 109.945 69.8992 109.971 69.8992C110.005 69.9059 110.139 70.0132 110.272 70.154C110.413 70.2881 110.526 70.4491 110.526 70.5027C110.526 70.5563 110.6 70.6703 110.693 70.7575C110.787 70.838 110.86 70.952 110.86 71.0056C110.86 71.0593 110.914 71.1733 110.974 71.2538C111.041 71.3275 111.141 71.4415 111.201 71.5019C111.255 71.5622 111.288 71.6427 111.282 71.6762C111.268 71.7098 111.328 71.7969 111.422 71.864C111.522 71.9243 111.643 72.0786 111.696 72.1993C111.756 72.3133 111.816 72.5145 111.83 72.6352C111.85 72.7492 111.897 72.8498 111.943 72.8498C111.984 72.8498 111.997 72.8632 111.977 72.8833C111.95 72.9034 111.984 72.9705 112.044 73.0442C112.111 73.1113 112.224 73.1851 112.298 73.2119C112.371 73.232 112.438 73.3125 112.445 73.3862C112.458 73.46 112.518 73.5874 112.579 73.6679C112.645 73.7484 112.772 73.8825 112.866 73.9697C112.96 74.0568 113.013 74.1507 112.986 74.1775C112.96 74.2044 113.026 74.3251 113.133 74.4458C113.247 74.5598 113.374 74.7341 113.414 74.828C113.461 74.9219 113.541 74.9957 113.581 74.9957C113.628 74.9957 113.682 75.0493 113.702 75.1164C113.722 75.1767 113.702 75.2505 113.655 75.2706C113.601 75.2974 113.641 75.331 113.748 75.3578C113.855 75.3779 113.936 75.4383 113.936 75.4852C113.929 75.5254 113.976 75.6126 114.036 75.6663C114.096 75.7199 114.143 75.8473 114.136 75.9546C114.136 76.0552 114.196 76.1893 114.27 76.2564C114.343 76.3167 114.457 76.3704 114.524 76.3704C114.6 76.3704 114.642 76.433 114.651 76.5581C114.664 76.6587 114.731 76.7794 114.805 76.8264C114.878 76.8666 114.938 76.9605 114.938 77.0276C114.938 77.0879 114.965 77.155 115.005 77.1751C115.045 77.1952 115.059 77.2556 115.039 77.3092C115.019 77.3629 115.032 77.4098 115.072 77.4098C115.112 77.4098 115.219 77.497 115.319 77.611C115.426 77.7183 115.527 77.792 115.553 77.7786C115.587 77.7585 115.627 77.8256 115.654 77.9329C115.68 78.0334 115.694 78.1676 115.687 78.2346C115.68 78.295 115.721 78.362 115.774 78.3822C115.827 78.4023 115.874 78.4895 115.874 78.5833C115.874 78.6772 115.894 78.7443 115.921 78.7376C115.954 78.7309 116.055 78.7644 116.155 78.8046C116.262 78.8516 116.342 78.9186 116.342 78.9522C116.342 78.9857 116.389 79.0662 116.442 79.1198C116.496 79.1735 116.529 79.2405 116.509 79.274C116.496 79.3009 116.57 79.4082 116.683 79.5222C116.79 79.6362 116.877 79.7569 116.877 79.7904C116.877 79.8239 116.924 79.9178 116.991 79.9983C117.058 80.0721 117.178 80.1793 117.251 80.233C117.332 80.2866 117.505 80.4677 117.639 80.6488C117.773 80.8231 117.88 80.9975 117.88 81.031C117.88 81.0645 117.907 81.0981 117.947 81.0981C117.987 81.0981 118.067 81.1785 118.127 81.2858C118.187 81.3864 118.241 81.5004 118.241 81.5474C118.247 81.5943 118.308 81.6412 118.381 81.6614C118.461 81.6815 118.555 81.8022 118.615 81.9631C118.675 82.1308 118.769 82.2515 118.849 82.2649C118.923 82.285 119.043 82.4124 119.116 82.5465C119.19 82.6807 119.464 83.0093 119.718 83.2775C119.972 83.539 120.4 83.9816 120.654 84.2566C120.908 84.5315 121.169 84.8266 121.222 84.9137C121.276 85.0009 121.403 85.1551 121.51 85.249C121.61 85.3429 121.677 85.4301 121.657 85.4435C121.637 85.4502 121.777 85.5977 121.958 85.7788C122.145 85.9531 122.299 86.1342 122.292 86.1812C122.292 86.2214 122.319 86.2616 122.359 86.2616C122.399 86.2616 122.426 86.3019 122.426 86.3488C122.426 86.389 122.512 86.503 122.619 86.5969C122.733 86.6908 122.82 86.7847 122.827 86.8182C122.827 86.845 122.894 86.959 122.974 87.073C123.061 87.1937 123.208 87.3815 123.315 87.4955C123.415 87.6095 123.569 87.7772 123.649 87.8643C123.729 87.9515 123.789 88.0454 123.776 88.0789C123.769 88.1125 123.789 88.1393 123.829 88.1393C123.87 88.1393 124.13 88.4209 124.411 88.7629C124.692 89.0982 124.953 89.3866 124.979 89.4C125.006 89.4067 125.033 89.4671 125.033 89.5341C125.033 89.5945 125.073 89.7085 125.133 89.7822C125.186 89.856 125.227 90.0035 125.227 90.1175C125.227 90.2785 125.28 90.3589 125.501 90.5065C125.654 90.6138 125.781 90.7546 125.801 90.8552C125.822 90.9491 125.862 91.0228 125.902 91.0228C125.942 91.0228 125.969 91.0698 125.969 91.1234C125.969 91.1771 125.989 91.224 126.015 91.224C126.049 91.2173 126.156 91.3313 126.256 91.4721C126.376 91.6264 126.437 91.7739 126.41 91.8477C126.383 91.9147 126.41 91.9751 126.47 91.9952C126.523 92.0153 126.597 92.0153 126.637 91.9952C126.677 91.9751 126.717 92.0354 126.737 92.1293C126.757 92.2232 126.811 92.297 126.851 92.297C126.898 92.297 126.991 92.3841 127.052 92.4981C127.118 92.6054 127.152 92.7395 127.125 92.7865C127.089 92.8401 127.101 92.8513 127.159 92.82C127.199 92.7865 127.279 92.8066 127.326 92.8536C127.372 92.8938 127.473 93.0212 127.54 93.1352C127.613 93.2492 127.707 93.3565 127.754 93.39C127.8 93.4168 127.84 93.4839 127.84 93.5376C127.84 93.5912 127.814 93.6382 127.774 93.6382C127.733 93.6382 127.76 93.6918 127.82 93.7589C127.887 93.8259 127.954 93.8729 127.974 93.8594C127.994 93.846 128.088 93.9869 128.188 94.1746C128.295 94.3557 128.375 94.5703 128.375 94.644C128.375 94.7178 128.402 94.7916 128.442 94.8117C128.482 94.8318 128.509 94.8989 128.509 94.9659C128.509 95.0263 128.582 95.1202 128.676 95.1671C128.77 95.2073 128.843 95.2878 128.843 95.3347C128.843 95.375 128.79 95.4689 128.723 95.5292C128.616 95.6432 128.616 95.6499 128.723 95.6835C128.79 95.7036 128.843 95.7773 128.843 95.8511C128.843 95.9249 128.917 96.1395 129.01 96.3205C129.164 96.629 129.191 96.6491 129.358 96.6089C129.525 96.5686 129.538 96.5753 129.492 96.6961C129.458 96.7765 129.472 96.8436 129.525 96.8704C129.579 96.9039 129.558 96.924 129.458 96.924C129.371 96.924 129.318 96.9576 129.331 97.0112C129.345 97.0515 129.391 97.1789 129.438 97.2929C129.498 97.4605 129.498 97.541 129.405 97.7623C129.345 97.9098 129.311 98.0842 129.338 98.1512C129.371 98.2384 129.345 98.2652 129.211 98.2652C129.07 98.2652 129.057 98.2786 129.124 98.3591C129.171 98.4128 129.231 98.4396 129.258 98.4262C129.291 98.4128 129.311 98.4329 129.311 98.4664C129.311 98.5 129.264 98.5335 129.211 98.5335C129.157 98.5335 129.097 98.5804 129.077 98.6341C129.057 98.6877 128.984 98.7481 128.91 98.7682C128.816 98.7883 128.79 98.8419 128.81 98.9224C128.83 98.9828 128.803 99.0834 128.743 99.137C128.683 99.1907 128.636 99.2577 128.643 99.2912C128.643 99.3181 128.669 99.3248 128.709 99.3047C128.75 99.2845 128.763 99.3181 128.743 99.3717C128.723 99.4254 128.683 99.4723 128.643 99.4723C128.603 99.4723 128.576 99.5461 128.576 99.64C128.576 99.7607 128.542 99.8009 128.462 99.7942C128.402 99.7808 128.315 99.8478 128.262 99.9417C128.215 100.036 128.175 100.076 128.181 100.042C128.181 100.002 128.135 100.015 128.074 100.062C128.021 100.103 127.927 100.129 127.874 100.109C127.82 100.089 127.774 100.109 127.774 100.143C127.774 100.176 127.713 100.243 127.64 100.277C127.551 100.322 127.517 100.322 127.54 100.277C127.56 100.243 127.546 100.197 127.506 100.176C127.466 100.156 127.439 100.19 127.439 100.243C127.439 100.297 127.359 100.378 127.252 100.411C127.152 100.451 127.065 100.465 127.052 100.445C127.045 100.425 126.978 100.471 126.905 100.545C126.831 100.619 126.771 100.693 126.771 100.713C126.771 100.733 126.711 100.834 126.637 100.948C126.544 101.088 126.463 101.142 126.37 101.115C126.296 101.095 126.236 101.102 126.236 101.135C126.236 101.162 126.122 101.249 125.989 101.33C125.761 101.457 125.721 101.464 125.581 101.377C125.454 101.296 125.42 101.296 125.327 101.404C125.267 101.464 125.18 101.591 125.133 101.685C125.086 101.779 124.993 101.9 124.926 101.96C124.852 102.021 124.672 102.094 124.511 102.114C124.304 102.141 124.17 102.215 124.01 102.389C123.89 102.524 123.729 102.624 123.642 102.624C123.562 102.624 123.482 102.671 123.462 102.725C123.442 102.778 123.402 102.812 123.361 102.792C123.321 102.772 123.295 102.792 123.295 102.825C123.295 102.859 123.255 102.933 123.208 102.986C123.168 103.033 123 103.094 122.84 103.12C122.639 103.147 122.559 103.14 122.559 103.08C122.559 103.033 122.452 103.12 122.312 103.281C122.172 103.436 121.971 103.61 121.857 103.67C121.73 103.737 121.65 103.744 121.637 103.704C121.63 103.664 121.577 103.63 121.523 103.63C121.456 103.63 121.434 103.675 121.456 103.764C121.479 103.854 121.45 103.909 121.369 103.932C121.309 103.952 121.236 103.959 121.216 103.945C121.189 103.938 121.115 103.985 121.048 104.046C120.968 104.12 120.888 104.14 120.821 104.106C120.768 104.073 120.614 104.059 120.487 104.073C120.36 104.079 120.226 104.126 120.186 104.16C120.153 104.2 120.086 104.234 120.039 104.234C119.992 104.234 119.952 104.267 119.952 104.301C119.952 104.334 119.879 104.374 119.785 104.388C119.691 104.394 119.584 104.368 119.551 104.334C119.506 104.289 119.435 104.294 119.337 104.348C119.25 104.388 119.13 104.441 119.063 104.462C119.003 104.482 118.949 104.549 118.949 104.602C118.949 104.669 118.905 104.692 118.816 104.669C118.742 104.649 118.649 104.683 118.595 104.743C118.555 104.797 118.475 104.83 118.428 104.81C118.388 104.79 118.348 104.81 118.348 104.857C118.348 104.897 118.288 104.938 118.214 104.938C118.14 104.938 118.08 104.924 118.08 104.904C118.08 104.884 118.114 104.83 118.161 104.783C118.234 104.71 118.227 104.703 118.127 104.73C118.067 104.75 118.013 104.817 118.013 104.871C118.013 104.924 117.967 104.985 117.913 105.005C117.86 105.025 117.8 104.998 117.786 104.958C117.773 104.911 117.706 104.964 117.639 105.085C117.566 105.206 117.452 105.313 117.378 105.333C117.305 105.353 117.238 105.34 117.225 105.306C117.218 105.266 117.164 105.273 117.111 105.327C117.051 105.367 117.004 105.387 117.011 105.36C117.011 105.327 116.897 105.38 116.757 105.474C116.623 105.568 116.469 105.642 116.422 105.642C116.382 105.642 116.342 105.675 116.342 105.709C116.342 105.742 116.262 105.796 116.155 105.816C116.055 105.843 115.854 105.944 115.707 106.044C115.56 106.138 115.366 106.245 115.273 106.279C115.179 106.306 115.039 106.386 114.952 106.453C114.872 106.527 114.778 106.567 114.738 106.547C114.698 106.527 114.597 106.547 114.504 106.581C114.383 106.628 114.33 106.628 114.31 106.567C114.29 106.5 114.263 106.507 114.196 106.587C114.143 106.648 114.036 106.715 113.949 106.742C113.862 106.768 113.789 106.748 113.775 106.701C113.755 106.641 113.708 106.654 113.635 106.748C113.581 106.822 113.528 106.849 113.528 106.815C113.521 106.782 113.501 106.822 113.474 106.916C113.434 107.057 113.387 107.084 113.214 107.07C113.093 107.057 113 107.084 113 107.117C113 107.151 112.96 107.171 112.913 107.151C112.873 107.13 112.759 107.191 112.665 107.278C112.572 107.372 112.478 107.432 112.445 107.419C112.418 107.399 112.418 107.345 112.445 107.305C112.48 107.247 112.469 107.236 112.411 107.271C112.371 107.298 112.331 107.358 112.331 107.405C112.331 107.446 112.218 107.526 112.084 107.58C111.943 107.633 111.783 107.687 111.73 107.694C111.676 107.707 111.562 107.727 111.476 107.754C111.395 107.774 111.328 107.828 111.328 107.875C111.328 107.915 111.275 107.962 111.208 107.975C111.148 107.982 111.001 107.996 110.881 108.009C110.767 108.016 110.593 108.096 110.5 108.19C110.379 108.304 110.292 108.344 110.212 108.304C110.132 108.27 110.052 108.297 109.958 108.391C109.884 108.465 109.717 108.532 109.577 108.539C109.443 108.552 109.35 108.579 109.363 108.612C109.376 108.639 109.33 108.626 109.256 108.592C109.149 108.539 109.129 108.545 109.156 108.626C109.176 108.686 109.129 108.753 109.035 108.8C108.929 108.854 108.868 108.854 108.822 108.8C108.781 108.76 108.715 108.726 108.668 108.726C108.628 108.726 108.588 108.787 108.588 108.861C108.588 108.934 108.574 109.035 108.554 109.082C108.534 109.122 108.427 109.156 108.32 109.149C108.207 109.136 108.12 109.162 108.12 109.196C108.12 109.229 108.046 109.263 107.953 109.263C107.859 109.263 107.779 109.29 107.765 109.323C107.759 109.35 107.692 109.397 107.618 109.424C107.518 109.457 107.465 109.424 107.404 109.317C107.364 109.229 107.324 109.203 107.324 109.25C107.317 109.296 107.231 109.33 107.117 109.33C106.97 109.33 106.91 109.37 106.883 109.464C106.863 109.545 106.809 109.585 106.749 109.565C106.696 109.545 106.636 109.578 106.616 109.632C106.595 109.685 106.535 109.719 106.482 109.699C106.428 109.679 106.382 109.692 106.382 109.732C106.382 109.773 106.295 109.786 106.181 109.766C106.067 109.746 105.967 109.759 105.947 109.799C105.927 109.84 105.853 109.853 105.78 109.833C105.706 109.813 105.599 109.846 105.546 109.9C105.459 109.987 105.446 109.987 105.446 109.9C105.446 109.846 105.399 109.799 105.345 109.799C105.279 109.799 105.258 109.84 105.285 109.92C105.319 110.007 105.299 110.021 105.218 109.987C105.151 109.954 105.071 109.974 105.011 110.034C104.958 110.088 104.851 110.121 104.777 110.101C104.704 110.081 104.563 110.128 104.456 110.202C104.356 110.282 104.209 110.343 104.122 110.336C104.042 110.336 103.962 110.363 103.942 110.403C103.921 110.443 103.794 110.47 103.654 110.463C103.52 110.463 103.36 110.47 103.306 110.483C103.253 110.497 103.153 110.537 103.093 110.571C103.032 110.611 102.979 110.665 102.972 110.705C102.965 110.745 102.932 110.765 102.899 110.758C102.865 110.745 102.845 110.772 102.852 110.819C102.865 110.866 102.825 110.906 102.772 110.906C102.718 110.913 102.645 110.892 102.605 110.859C102.564 110.832 102.424 110.919 102.277 111.06C102.07 111.261 102.01 111.288 101.963 111.208C101.923 111.127 101.889 111.127 101.822 111.194C101.782 111.235 101.695 111.275 101.635 111.275C101.582 111.275 101.488 111.322 101.435 111.382C101.381 111.436 101.254 111.489 101.154 111.496C101.047 111.503 100.967 111.53 100.967 111.563C100.967 111.59 100.913 111.59 100.846 111.57C100.786 111.55 100.652 111.583 100.546 111.65C100.445 111.724 100.338 111.758 100.312 111.731C100.285 111.704 100.205 111.724 100.131 111.778C100.058 111.838 99.9238 111.878 99.8235 111.878C99.7299 111.878 99.623 111.919 99.5762 111.965C99.5094 112.026 99.4893 112.012 99.4893 111.878C99.4826 111.778 99.4692 111.758 99.4559 111.831C99.4425 111.892 99.3623 111.965 99.2754 111.992C99.1952 112.012 98.9144 112.039 98.6603 112.053C98.4063 112.059 98.179 112.073 98.159 112.073C98.1389 112.073 98.0721 112.18 98.0052 112.314C97.8983 112.529 97.8715 112.549 97.6242 112.535C97.4771 112.522 97.3568 112.495 97.3568 112.468C97.3568 112.435 97.2899 112.421 97.203 112.435C97.1228 112.448 96.9958 112.489 96.9222 112.529C96.8487 112.576 96.7484 112.582 96.6883 112.549C96.6214 112.513 96.6081 112.466 96.6482 112.408C96.6816 112.354 96.5813 112.442 96.4276 112.603C96.2805 112.757 96.1267 112.884 96.0866 112.884C96.0465 112.884 96.0198 112.857 96.0198 112.817C96.0198 112.777 95.9663 112.77 95.8994 112.797C95.8393 112.817 95.7457 112.871 95.6922 112.911C95.6387 112.951 95.5518 112.991 95.4917 112.998C95.4315 113.005 95.2644 113.038 95.1173 113.079C94.9702 113.112 94.6828 113.132 94.4822 113.112C94.1547 113.085 94.1012 113.099 93.9608 113.253C93.8338 113.394 93.7937 113.407 93.6867 113.34C93.6132 113.293 93.5664 113.233 93.5864 113.206C93.5998 113.173 93.553 113.179 93.4795 113.219C93.4059 113.26 93.299 113.273 93.2455 113.253C93.1853 113.233 93.1385 113.266 93.1252 113.333C93.1185 113.421 93.0316 113.454 92.811 113.474C92.6438 113.481 92.4232 113.501 92.3096 113.508C92.1959 113.515 92.0689 113.501 92.0221 113.474C91.9753 113.441 91.9285 113.461 91.9085 113.521C91.8884 113.575 91.835 113.602 91.7882 113.582C91.7481 113.561 91.6611 113.588 91.6077 113.635C91.5542 113.682 91.4472 113.769 91.3804 113.823C91.3068 113.877 91.0929 113.93 90.8924 113.944C90.6718 113.95 90.5514 113.93 90.5715 113.89C90.5915 113.85 90.5381 113.803 90.4512 113.783C90.3576 113.763 90.264 113.789 90.1838 113.87C90.1169 113.937 90.0634 114.017 90.0701 114.058C90.0701 114.098 89.9832 114.125 89.8763 114.125C89.7693 114.125 89.6556 114.105 89.6222 114.078C89.5955 114.044 89.542 114.058 89.5019 114.091C89.4618 114.131 89.3147 114.172 89.1676 114.185C89.0206 114.199 88.8468 114.225 88.7799 114.252C88.7197 114.272 88.6529 114.266 88.6328 114.225C88.6128 114.185 88.5392 114.185 88.4323 114.245C88.3387 114.286 88.2785 114.366 88.2986 114.413C88.3186 114.453 88.3053 114.494 88.2652 114.494C88.225 114.494 88.098 114.5 87.9777 114.507C87.8641 114.514 87.717 114.494 87.6635 114.453C87.5833 114.406 87.5766 114.413 87.6301 114.494C87.6836 114.561 87.6702 114.581 87.5967 114.554C87.5432 114.534 87.4362 114.587 87.3627 114.668C87.2891 114.748 87.1488 114.836 87.0418 114.856C86.9081 114.883 86.8613 114.869 86.8613 114.795C86.8613 114.742 86.8346 114.695 86.7945 114.695C86.7543 114.695 86.7276 114.742 86.7276 114.795C86.7276 114.856 86.6207 114.929 86.4736 114.97C86.3399 115.01 86.0992 115.03 85.9388 115.003C85.7182 114.97 85.658 114.983 85.658 115.064C85.658 115.124 85.5845 115.171 85.4909 115.184C85.404 115.191 85.3238 115.184 85.3238 115.164C85.3238 115.144 85.2168 115.131 85.0898 115.131C84.9561 115.131 84.8291 115.164 84.8023 115.198C84.7756 115.238 84.6753 115.318 84.5684 115.385C84.4681 115.446 84.2943 115.506 84.1806 115.52C84.067 115.526 83.96 115.553 83.9466 115.587C83.9333 115.613 83.8464 115.607 83.7528 115.567C83.6414 115.522 83.5856 115.522 83.5856 115.567C83.5856 115.607 83.4854 115.66 83.3651 115.687C83.2514 115.721 83.111 115.734 83.0642 115.721C83.0241 115.714 82.9974 115.654 83.0174 115.6C83.0375 115.546 83.0241 115.499 82.984 115.499C82.9439 115.499 82.9038 115.526 82.8837 115.567C82.8614 115.611 82.8057 115.611 82.7166 115.567C82.6163 115.513 82.5562 115.526 82.4759 115.62C82.3823 115.721 82.3623 115.721 82.3155 115.634C82.2687 115.546 82.242 115.56 82.1083 115.687C82.0214 115.768 81.9278 115.835 81.8943 115.835C81.8676 115.835 81.8342 115.795 81.8141 115.754C81.8008 115.707 81.7339 115.64 81.6671 115.607C81.5735 115.567 81.5601 115.573 81.5935 115.66C81.6292 115.732 81.6069 115.786 81.5267 115.821C81.4665 115.848 81.3529 115.868 81.2793 115.862C81.2058 115.862 81.0654 115.841 80.9584 115.815C80.8314 115.781 80.7512 115.801 80.671 115.888C80.5975 115.969 80.564 115.982 80.5373 115.922C80.5239 115.875 80.4571 115.835 80.3902 115.835C80.3301 115.828 80.2164 115.888 80.1429 115.969C80.0159 116.096 80.0025 116.096 79.822 115.982C79.6616 115.882 79.6281 115.882 79.5746 115.969C79.5412 116.029 79.4811 116.049 79.4142 116.023C79.354 115.989 79.3072 115.996 79.3072 116.036C79.3072 116.076 79.2604 116.09 79.207 116.069C79.1535 116.049 78.9797 116.083 78.8192 116.13C78.6521 116.19 78.5117 116.204 78.4716 116.17C78.4315 116.13 78.3312 116.15 78.2176 116.204C78.1173 116.257 77.997 116.284 77.9502 116.264C77.9101 116.237 77.8031 116.264 77.7162 116.311C77.5959 116.385 77.5491 116.385 77.5157 116.324C77.4889 116.277 77.382 116.257 77.2483 116.277C77.0878 116.297 77.0343 116.277 77.0343 116.204C77.0343 116.15 77.0076 116.116 76.9675 116.137C76.9274 116.157 76.8472 116.143 76.7803 116.11C76.7135 116.076 76.6332 116.083 76.5798 116.13C76.533 116.17 76.4594 116.237 76.4126 116.277C76.3658 116.318 76.1385 116.371 75.8979 116.398C75.6572 116.425 75.343 116.458 75.196 116.479C75.0489 116.492 74.855 116.525 74.7614 116.539C74.6678 116.559 74.494 116.586 74.3737 116.606C74.2534 116.626 74.1598 116.613 74.1598 116.572C74.1598 116.532 74.0395 116.552 73.8723 116.613C73.7186 116.673 73.3509 116.733 73.0568 116.753C72.7626 116.767 72.5019 116.794 72.4685 116.814C72.4417 116.827 72.415 116.8 72.4016 116.76C72.3883 116.693 72.3348 116.707 72.2144 116.794C72.1008 116.874 71.927 116.908 71.5994 116.908C71.3454 116.908 71.1515 116.935 71.1515 116.975C71.1515 117.015 71.0513 117.035 70.9309 117.028C70.8173 117.022 70.6368 117.062 70.5365 117.116C70.3894 117.189 70.336 117.196 70.249 117.129C70.1956 117.082 70.1421 117.069 70.1287 117.095C70.122 117.122 69.9349 117.216 69.7142 117.303C69.4936 117.391 69.2062 117.464 69.0792 117.471C68.9522 117.471 68.8051 117.505 68.7516 117.545C68.6914 117.592 68.6447 117.585 68.6045 117.511C68.5711 117.458 68.5444 117.37 68.5444 117.33C68.5444 117.283 68.5043 117.243 68.4575 117.243C68.404 117.243 68.3438 117.263 68.3171 117.297C68.2837 117.323 68.2034 117.35 68.1366 117.364C68.0697 117.37 68.0096 117.35 68.0096 117.31C68.0096 117.27 68.0363 117.243 68.0764 117.243C68.1165 117.243 68.1299 117.216 68.1098 117.176C68.0898 117.136 68.0163 117.109 67.9427 117.109C67.8558 117.109 67.8157 117.149 67.8224 117.223C67.8358 117.31 67.7555 117.35 67.4414 117.417C67.0804 117.491 67.0336 117.491 66.9801 117.391C66.94 117.31 66.9132 117.297 66.8798 117.357C66.8597 117.404 66.6191 117.458 66.3383 117.478C66.0642 117.505 65.4693 117.525 65.0214 117.531C64.5735 117.538 64.1857 117.565 64.159 117.598C64.1323 117.625 64.0253 117.645 63.9184 117.645C63.8181 117.645 63.7312 117.619 63.7312 117.578C63.7312 117.538 63.6777 117.511 63.6108 117.511H63.0627C62.822 117.511 62.588 117.478 62.5412 117.444C62.5011 117.404 62.4276 117.391 62.3942 117.411C62.3541 117.431 62.227 117.411 62.1067 117.377C61.953 117.33 61.8126 117.33 61.592 117.397C61.4048 117.451 61.0438 117.478 60.6226 117.464C60.255 117.451 59.8472 117.431 59.7202 117.417C59.5931 117.404 59.3859 117.37 59.2656 117.337C59.1386 117.303 59.0517 117.236 59.0517 117.176C59.0583 117.095 59.0383 117.095 58.9714 117.156C58.9246 117.203 58.7508 117.23 58.5837 117.23C58.4166 117.223 58.1091 117.236 57.8952 117.263C57.6144 117.297 57.5141 117.29 57.5141 117.23C57.5141 117.171 57.4963 117.167 57.4606 117.216C57.4339 117.256 57.1799 117.29 56.879 117.29C56.5849 117.297 56.2774 117.27 56.1905 117.236C56.0969 117.196 56.03 117.203 56.01 117.243C55.9899 117.283 55.9364 117.256 55.8763 117.196C55.8161 117.122 55.7827 117.109 55.776 117.163C55.776 117.203 55.7359 117.23 55.6891 117.209C55.649 117.196 55.5019 117.203 55.3749 117.236C55.2278 117.263 55.0206 117.25 54.8067 117.196C54.6195 117.149 54.4323 117.075 54.3855 117.042C54.332 116.995 54.2919 117.008 54.2719 117.075C54.2518 117.142 54.1516 117.176 54.0045 117.176C53.8775 117.176 53.7571 117.149 53.7371 117.109C53.717 117.069 53.6502 117.062 53.5833 117.082C53.5232 117.109 53.3026 117.136 53.102 117.149C52.9015 117.163 52.721 117.183 52.7009 117.203C52.6808 117.216 52.5471 117.189 52.4001 117.142C52.253 117.095 51.9388 117.062 51.6982 117.075C51.4575 117.082 51.1834 117.069 51.0764 117.035C50.9427 116.988 50.8759 117.002 50.809 117.075C50.7689 117.136 50.7088 117.183 50.6753 117.176C50.6486 117.176 50.6486 117.116 50.6753 117.035C50.7221 116.908 50.7155 116.901 50.5617 116.961C50.4547 117.008 50.3077 117.008 50.1405 116.968C49.9199 116.914 49.8932 116.921 49.8932 117.042C49.8932 117.116 49.8598 117.176 49.8263 117.176C49.7862 117.176 49.6993 117.149 49.6258 117.109C49.5322 117.062 49.4587 117.069 49.3784 117.129C49.3183 117.169 49.1244 117.209 48.9439 117.209C48.7701 117.209 48.623 117.23 48.623 117.263C48.623 117.29 48.5428 117.277 48.4359 117.243C48.3356 117.203 48.2219 117.176 48.1885 117.183C48.1484 117.189 48.0682 117.189 48.0013 117.183C47.9412 117.183 47.8877 117.136 47.8877 117.095C47.8877 117.028 47.7072 117.008 47.1991 117.008C46.5908 117.008 46.5173 116.995 46.5306 116.894C46.544 116.827 46.5173 116.76 46.4838 116.74C46.4437 116.72 46.417 116.727 46.417 116.76C46.417 116.787 46.31 116.814 46.183 116.827C45.9958 116.834 45.9424 116.814 45.9156 116.707C45.8889 116.599 45.8554 116.586 45.7485 116.639C45.6549 116.686 45.5814 116.68 45.5145 116.626C45.4276 116.552 45.4076 116.559 45.4142 116.66C45.4142 116.72 45.3608 116.78 45.2939 116.78C45.2337 116.787 45.1335 116.78 45.08 116.774C45.0265 116.767 44.9663 116.74 44.9463 116.72C44.9262 116.693 44.7925 116.666 44.6455 116.653C44.4984 116.646 44.3647 116.606 44.3446 116.566C44.3246 116.525 44.2444 116.512 44.1575 116.532C44.0772 116.552 43.8967 116.539 43.7564 116.499C43.6227 116.458 43.4622 116.411 43.4087 116.391C43.3553 116.371 43.1948 116.351 43.0544 116.344C42.9074 116.338 42.7737 116.297 42.7402 116.237C42.6801 116.15 42.6667 116.15 42.6065 116.237C42.5531 116.324 42.4996 116.324 42.2589 116.257C42.0985 116.217 41.7843 116.19 41.5503 116.21C41.2428 116.23 41.1425 116.217 41.1626 116.157C41.1759 116.103 41.1291 116.069 41.0422 116.076C40.9687 116.083 40.8684 116.056 40.835 116.023C40.7949 115.989 40.4874 115.955 40.1465 115.949C39.8122 115.942 39.5314 115.915 39.5314 115.888C39.5314 115.855 39.498 115.848 39.4646 115.868C39.4245 115.888 39.3509 115.855 39.2975 115.801C39.244 115.748 39.1638 115.701 39.1303 115.701C39.0902 115.701 39.0635 115.721 39.0635 115.754C39.0635 115.781 38.8429 115.801 38.5755 115.795C38.3148 115.795 38.054 115.821 38.0006 115.862C37.9337 115.915 37.8869 115.902 37.7198 115.667L37.6262 115.801C37.5259 115.935 37.5259 115.935 37.3789 115.781C37.292 115.694 37.1048 115.546 36.9577 115.453C36.7237 115.305 36.6836 115.298 36.6368 115.392C36.6101 115.453 36.5299 115.493 36.4363 115.479C36.356 115.466 36.2424 115.432 36.1889 115.406C36.1354 115.372 36.0218 115.365 35.9349 115.392C35.8346 115.419 35.7745 115.399 35.7544 115.332C35.7343 115.278 35.6675 115.245 35.6006 115.265C35.5405 115.278 35.4135 115.251 35.3199 115.204C35.2062 115.137 35.0926 115.131 34.9656 115.171C34.8519 115.211 34.7851 115.204 34.7851 115.164C34.7851 115.124 34.7383 115.097 34.6848 115.097C34.6313 115.097 34.5845 115.07 34.5845 115.03C34.5845 114.99 34.4642 114.956 34.3104 114.95C34.1634 114.936 34.023 114.95 34.0096 114.983C33.9962 115.01 33.9026 115.017 33.7957 114.997C33.6954 114.97 33.5015 114.943 33.3612 114.929C33.2275 114.909 33.0336 114.842 32.9333 114.782C32.833 114.715 32.686 114.655 32.6124 114.641C32.5389 114.628 32.4119 114.547 32.325 114.453C32.2448 114.366 32.1445 114.306 32.1111 114.326C32.071 114.346 31.9841 114.313 31.9105 114.259C31.8102 114.185 31.7434 114.178 31.6431 114.225C31.5696 114.266 31.5228 114.333 31.5428 114.393C31.5629 114.447 31.5428 114.494 31.5094 114.494C31.4693 114.494 31.3824 114.427 31.3089 114.346C31.2353 114.259 31.1752 114.232 31.1752 114.279C31.1752 114.339 31.1417 114.339 31.0415 114.292C30.9679 114.252 30.9211 114.199 30.9412 114.158C30.9612 114.118 30.9679 114.091 30.9546 114.091C30.9479 114.091 30.8409 114.118 30.7206 114.158C30.5601 114.212 30.5133 114.205 30.52 114.145C30.5334 114.098 30.4732 114.051 30.3863 114.044C30.2994 114.031 30.2393 113.977 30.2393 113.91C30.2459 113.803 30.2326 113.803 30.0989 113.924C30.012 113.997 29.9785 114.011 30.012 113.957C30.0588 113.883 30.0454 113.87 29.9518 113.91C29.8716 113.944 29.8515 113.93 29.8716 113.877C29.8939 113.819 29.8448 113.792 29.7245 113.796C29.6176 113.796 29.4705 113.736 29.3836 113.662C29.2499 113.535 29.2031 113.528 29.0159 113.602C28.8421 113.669 28.7752 113.669 28.6683 113.595C28.5948 113.548 28.461 113.508 28.3675 113.515C28.2739 113.521 28.1469 113.508 28.08 113.474C28.0198 113.447 27.9797 113.38 27.9998 113.34C28.0198 113.287 27.9797 113.246 27.8995 113.24C27.826 113.226 27.7658 113.246 27.7658 113.287C27.7658 113.327 27.699 113.333 27.6121 113.313C27.5318 113.287 27.4449 113.233 27.4249 113.193C27.3981 113.152 27.3447 113.139 27.3045 113.173C27.2644 113.199 27.231 113.193 27.231 113.152C27.231 113.112 27.1642 113.085 27.0772 113.079C26.997 113.079 26.9703 113.065 27.0104 113.045C27.0572 113.032 27.0973 112.965 27.0973 112.904C27.104 112.804 27.0906 112.797 27.0171 112.871C26.9591 112.929 26.841 112.945 26.6628 112.918C26.5157 112.898 26.2884 112.871 26.1614 112.857C26.0344 112.851 25.8873 112.837 25.8405 112.831C25.7937 112.824 25.7804 112.77 25.8071 112.703C25.8472 112.603 25.8338 112.596 25.7536 112.67C25.7001 112.717 25.5731 112.75 25.4595 112.737C25.3458 112.73 25.2255 112.696 25.1921 112.67C25.152 112.643 24.9848 112.616 24.811 112.603C24.6305 112.589 24.4768 112.542 24.4567 112.502C24.4367 112.455 24.3364 112.415 24.2228 112.415C24.1091 112.415 24.0222 112.388 24.0222 112.348C24.0222 112.307 23.9554 112.287 23.8684 112.301C23.7882 112.307 23.708 112.287 23.6946 112.247C23.6746 112.207 23.6211 112.14 23.5743 112.1C23.5275 112.046 23.4406 112.033 23.3871 112.066C23.3203 112.093 23.2534 112.073 23.1999 111.992C23.1598 111.925 23.0328 111.865 22.9192 111.845C22.8055 111.831 22.6785 111.818 22.6317 111.818C22.5916 111.811 22.5114 111.771 22.4646 111.717C22.4245 111.67 22.264 111.61 22.117 111.583C21.9699 111.556 21.7961 111.523 21.7292 111.509C21.6624 111.489 21.629 111.436 21.649 111.375C21.6691 111.322 21.6357 111.261 21.5822 111.241C21.5287 111.221 21.4819 111.235 21.4819 111.275C21.4819 111.315 21.4351 111.328 21.3816 111.308C21.3281 111.288 21.2947 111.235 21.3014 111.194C21.3148 111.147 21.3148 111.127 21.3014 111.161C21.2947 111.188 21.2346 111.208 21.1811 111.208C21.1276 111.208 21.0607 111.161 21.0273 111.1C20.9939 111.02 20.8669 110.993 20.5259 110.986C20.2786 110.98 20.0513 110.939 20.0246 110.906C19.9978 110.866 19.824 110.738 19.6435 110.624C19.4563 110.51 19.1889 110.396 19.0419 110.363C18.8948 110.336 18.7477 110.309 18.721 110.309C18.6876 110.302 18.6207 110.242 18.5672 110.168C18.5204 110.094 18.4937 110.014 18.5071 109.987C18.5271 109.954 18.5071 109.934 18.4736 109.934C18.4335 109.934 18.4068 109.887 18.4068 109.833C18.4068 109.779 18.3399 109.726 18.2464 109.719C18.0926 109.699 18.0926 109.706 18.1996 109.82C18.2931 109.92 18.2931 109.94 18.2062 109.934C18.1528 109.934 18.0525 109.893 17.9923 109.846C17.9255 109.799 17.8787 109.719 17.8787 109.665C17.8742 109.598 17.8497 109.587 17.8051 109.632C17.7606 109.676 17.638 109.654 17.4375 109.565C17.277 109.491 17.13 109.39 17.1233 109.337C17.1099 109.283 16.9227 109.189 16.7021 109.129C16.4815 109.068 16.2542 109.001 16.2007 108.988C16.1473 108.975 16.067 108.921 16.0202 108.881C15.9734 108.834 15.9333 108.76 15.9333 108.726C15.9333 108.693 15.8932 108.659 15.8464 108.659C15.8063 108.659 15.7261 108.599 15.6793 108.525C15.6325 108.445 15.6258 108.391 15.6659 108.391C15.6994 108.391 15.7127 108.351 15.6927 108.311C15.6593 108.244 15.6325 108.257 15.5924 108.344C15.559 108.405 15.4921 108.452 15.4453 108.438C15.4052 108.431 15.3049 108.358 15.2314 108.284C15.1579 108.21 14.9707 108.123 14.8103 108.103C14.6565 108.076 14.4894 108.016 14.4426 107.969C14.4025 107.922 14.2755 107.848 14.1618 107.808C14.0482 107.768 13.881 107.714 13.7741 107.694C13.6738 107.674 13.607 107.62 13.627 107.586C13.6471 107.553 13.5936 107.499 13.5067 107.479C13.4265 107.459 13.3128 107.426 13.2593 107.412C13.2059 107.392 13.0722 107.365 12.9585 107.352C12.8449 107.332 12.7178 107.285 12.6711 107.251C12.6309 107.211 12.5574 107.198 12.524 107.218C12.4839 107.238 12.3836 107.171 12.2967 107.07C12.1496 106.902 12.1229 106.889 12.0159 106.983C11.9156 107.07 11.8956 107.07 11.7953 106.949C11.7352 106.876 11.5145 106.762 11.3006 106.695C11.0666 106.628 10.8928 106.527 10.8527 106.446C10.8059 106.353 10.6722 106.292 10.3981 106.239C10.1909 106.192 9.98368 106.118 9.95025 106.071C9.91014 106.017 9.76307 105.937 9.616 105.89C9.41545 105.823 9.34192 105.756 9.32186 105.635C9.30849 105.548 9.24833 105.441 9.18816 105.394C9.12131 105.347 9.04109 105.34 8.96087 105.38C8.87397 105.427 8.84054 105.407 8.8138 105.306C8.79375 105.233 8.74695 105.172 8.71352 105.172C8.67341 105.172 8.63331 105.213 8.61994 105.26C8.60657 105.3 8.57314 105.32 8.53971 105.293C8.50629 105.266 8.51298 105.206 8.55977 105.159C8.60656 105.112 8.62662 105.052 8.5932 105.025C8.56645 105.005 8.45949 105.005 8.34585 105.032C8.20546 105.058 8.05839 105.032 7.86453 104.938C7.70409 104.864 7.59713 104.79 7.6105 104.77C7.63055 104.75 7.53696 104.622 7.40995 104.488C7.23614 104.294 7.13586 104.24 7.02222 104.267C6.942 104.287 6.85509 104.321 6.82167 104.334C6.79493 104.354 6.7615 104.334 6.74145 104.301C6.72139 104.267 6.64786 104.234 6.57432 104.234C6.48519 104.234 6.45176 104.2 6.47405 104.133C6.4941 104.079 6.46736 104.012 6.42057 103.985C6.38046 103.952 6.2267 103.932 6.093 103.932C5.92588 103.932 5.81892 103.892 5.75875 103.804C5.71196 103.737 5.63173 103.697 5.58494 103.717C5.54483 103.744 5.40444 103.69 5.28411 103.603C5.17047 103.516 4.98329 103.415 4.87633 103.389C4.76937 103.355 4.66909 103.288 4.65572 103.248C4.64904 103.201 4.54876 103.161 4.43512 103.161C4.32147 103.161 4.23457 103.127 4.23457 103.094C4.23457 103.06 4.18109 103.026 4.11424 103.026C4.02065 103.026 4.01396 103.013 4.10087 102.959C4.18109 102.906 4.16103 102.892 4.01396 102.892C3.91369 102.892 3.83347 102.859 3.83347 102.825C3.83347 102.792 3.79336 102.758 3.74656 102.758C3.70645 102.765 3.60618 102.698 3.53264 102.624C3.45911 102.55 3.37889 102.483 3.34546 102.49C3.31872 102.49 3.31204 102.524 3.33209 102.557C3.35215 102.591 3.31204 102.624 3.24519 102.624C3.18502 102.624 3.05132 102.55 2.94436 102.456C2.84409 102.363 2.76386 102.309 2.76386 102.342C2.76386 102.369 2.73044 102.356 2.68364 102.309C2.63685 102.262 2.5232 102.242 2.42961 102.262C2.28254 102.289 2.26249 102.275 2.28923 102.141C2.3026 102.047 2.26917 101.967 2.20232 101.94C2.14216 101.907 2.07531 101.9 2.04188 101.913C2.01514 101.933 1.94161 101.853 1.87476 101.746C1.79454 101.605 1.78785 101.551 1.84133 101.551C1.88813 101.551 1.92824 101.471 1.92824 101.363C1.92824 101.263 1.90818 101.169 1.87476 101.149C1.84802 101.129 1.81459 101.055 1.80122 100.981C1.78117 100.907 1.7678 100.8 1.7678 100.746C1.7678 100.693 1.70095 100.579 1.62741 100.498C1.55388 100.411 1.48703 100.284 1.47366 100.21C1.46697 100.136 1.41349 100.076 1.33996 100.076C1.27979 100.076 1.21963 100.036 1.21963 99.9954C1.21294 99.9484 1.21294 99.8613 1.21963 99.8076C1.22631 99.754 1.13941 99.6534 1.02576 99.593C0.892062 99.5125 0.82744 99.4231 0.831897 99.3248C0.831897 99.2376 0.811842 99.0968 0.778417 99.0163C0.731622 98.8822 0.744992 98.8621 0.838582 98.8956C0.905432 98.9157 0.958912 98.9023 0.958912 98.8688C0.958912 98.8352 1.00571 98.8017 1.05919 98.8017C1.12604 98.8017 1.14832 98.757 1.12604 98.6676C1.10598 98.5938 1.11935 98.5469 1.15946 98.567C1.19289 98.5871 1.26642 98.5804 1.3199 98.5536C1.37338 98.5201 1.49371 98.3859 1.5873 98.2518C1.68089 98.111 1.77448 97.9232 1.79454 97.8294C1.81459 97.7355 1.88813 97.6483 1.96166 97.6282C2.0352 97.6081 2.09536 97.541 2.09536 97.4806C2.09536 97.4136 2.15553 97.2862 2.22906 97.1923C2.3026 97.0984 2.36276 97.0045 2.36276 96.9777C2.36276 96.9442 2.39619 96.9308 2.4363 96.9442C2.47641 96.9509 2.52989 96.8704 2.54326 96.7564C2.55663 96.6424 2.63685 96.4882 2.71707 96.4077C2.79729 96.3272 2.8842 96.2736 2.91094 96.287C2.94436 96.3071 2.95773 96.2669 2.95105 96.2065C2.94436 96.1395 2.95773 96.0188 2.98447 95.9383C3.01121 95.8511 3.1048 95.7237 3.19839 95.6499C3.29198 95.5762 3.35883 95.4957 3.35215 95.4689C3.34546 95.4353 3.35883 95.3146 3.38557 95.2006C3.41231 95.0799 3.45911 94.9927 3.49922 95.0129C3.53264 95.033 3.61955 94.9659 3.67971 94.8653C3.73988 94.758 3.89363 94.577 4.01396 94.463C4.14766 94.3289 4.23457 94.1746 4.23457 94.074C4.23457 93.9802 4.32147 93.8125 4.43512 93.6918C4.54876 93.5711 4.64235 93.4504 4.63567 93.4236C4.63567 93.39 4.67578 93.3699 4.71589 93.3699C4.76268 93.3632 4.90975 93.2023 5.03677 93.0011C5.16378 92.7999 5.33759 92.5987 5.4245 92.5518C5.5114 92.4981 5.57157 92.4043 5.57157 92.3171C5.57157 92.2299 5.59831 92.1628 5.63842 92.1628C5.67184 92.1628 5.79218 92.0757 5.90582 91.9617C6.02615 91.841 6.1398 91.7806 6.18659 91.8141C6.24453 91.8454 6.25567 91.8343 6.22002 91.7806C6.19328 91.727 6.2267 91.6599 6.30692 91.613C6.38046 91.566 6.44062 91.4855 6.44062 91.4453C6.44062 91.3984 6.50079 91.2777 6.57432 91.1771C6.65454 91.0698 6.70802 90.9558 6.70802 90.9222C6.70134 90.8887 6.81498 90.7278 6.95537 90.5802C7.09575 90.426 7.24951 90.2517 7.28962 90.1913C7.33641 90.131 7.36315 90.0773 7.3431 90.0706C7.32304 90.0572 7.39658 89.97 7.51022 89.8694C7.61718 89.7621 7.71077 89.628 7.71077 89.5676C7.71077 89.5006 7.77762 89.4 7.85784 89.3464C7.93806 89.2927 8.09182 89.1653 8.19209 89.0647C8.29237 88.9574 8.3659 88.8568 8.34585 88.83C8.33248 88.7965 8.35253 88.6959 8.39933 88.5953C8.44613 88.488 8.50629 88.4075 8.5464 88.4075C8.57982 88.4075 8.70016 88.2399 8.80712 88.0253C8.91407 87.8107 9.10126 87.5358 9.22827 87.4217C9.3954 87.2474 9.45556 87.2206 9.4823 87.301C9.50236 87.3547 9.54247 87.4016 9.58258 87.4016C9.616 87.4016 9.63606 87.3279 9.616 87.234C9.59372 87.1222 9.616 87.0552 9.68285 87.0328C9.73633 87.0127 9.78313 86.9523 9.78313 86.8987C9.78313 86.845 9.80987 86.7981 9.84998 86.7981C9.8834 86.7981 9.91683 86.7377 9.91683 86.664C9.91683 86.5902 9.99036 86.4494 10.0773 86.3488C10.1642 86.2415 10.2578 86.0806 10.2778 85.98C10.2979 85.8727 10.338 85.7922 10.3647 85.7855C10.3981 85.7855 10.4851 85.7788 10.5653 85.7721C10.6388 85.7654 10.7324 85.7386 10.7658 85.705C10.7926 85.6782 10.7859 85.6179 10.7391 85.5709C10.6789 85.5106 10.6789 85.4502 10.7391 85.3228C10.7792 85.2289 10.8728 85.0814 10.953 84.9875C11.0332 84.8936 11.1335 84.7327 11.1736 84.6187C11.2204 84.5047 11.3274 84.337 11.421 84.2364C11.5145 84.1291 11.6148 84.0487 11.6549 84.0487C11.6884 84.0487 11.7753 83.9481 11.9491 83.6128L12.0026 83.7804C12.0427 83.9079 12.0427 83.8877 12.0226 83.7C12.0026 83.5591 12.0092 83.4451 12.036 83.4451C12.0694 83.4451 12.1563 83.3848 12.2365 83.311C12.3234 83.2373 12.3769 83.13 12.3569 83.0763C12.3368 83.0227 12.3769 82.8818 12.4371 82.7746C12.5039 82.6605 12.5975 82.5734 12.6376 82.5734C12.6844 82.5734 12.7312 82.5197 12.7379 82.4594C12.7379 82.3923 12.7513 82.2984 12.7513 82.2582C12.758 82.2112 12.7981 82.1844 12.8382 82.2045C12.8917 82.2247 12.9385 82.1576 12.9585 82.0235C12.9719 81.9028 13.032 81.7552 13.0922 81.7016C13.1524 81.6479 13.1992 81.5474 13.1925 81.487C13.1925 81.4199 13.2192 81.3663 13.2593 81.3663C13.2928 81.3663 13.3262 81.3194 13.3262 81.2657C13.3262 81.2121 13.3529 81.1785 13.393 81.1987C13.4265 81.2188 13.52 81.1718 13.5936 81.0981C13.6671 81.0243 13.7139 80.9438 13.6939 80.917C13.6805 80.8835 13.7273 80.8097 13.7941 80.7494C13.8677 80.6823 13.9278 80.5683 13.9278 80.4945C13.9278 80.4208 13.9813 80.3403 14.0415 80.3135C14.1083 80.2934 14.2287 80.1995 14.3089 80.1123C14.3958 80.0251 14.4626 79.9245 14.4626 79.891C14.4626 79.8575 14.5228 79.8105 14.5963 79.7904C14.6966 79.7636 14.7167 79.7233 14.6766 79.6161C14.6431 79.5088 14.6498 79.4819 14.73 79.5155C14.8036 79.549 14.8437 79.5088 14.8771 79.3746C14.9038 79.274 15.0041 79.0863 15.1111 78.9589C15.2114 78.8315 15.3584 78.6772 15.4253 78.6236C15.4988 78.5632 15.6258 78.4425 15.7127 78.3486C15.793 78.2548 15.8397 78.1475 15.813 78.1139C15.7863 78.0737 15.7996 78.067 15.8531 78.1005C15.8999 78.1273 15.9333 78.1072 15.9333 78.0469C15.9333 77.9865 15.9734 77.9597 16.0336 77.9798C16.0871 77.9999 16.1339 77.9798 16.1339 77.9463C16.1339 77.906 16.1874 77.8993 16.2475 77.9262C16.3344 77.9597 16.3545 77.953 16.3144 77.8926C16.2876 77.8457 16.3077 77.7987 16.3679 77.7786C16.4213 77.7585 16.4548 77.7116 16.4347 77.678C16.4147 77.6445 16.4481 77.5372 16.5016 77.4433C16.555 77.3494 16.6954 77.2489 16.8158 77.222C16.9361 77.1885 17.043 77.1282 17.0497 77.0879C17.0631 77.041 17.0698 76.9538 17.0698 76.8934C17.0698 76.8264 17.1767 76.7057 17.3038 76.6252C17.4308 76.538 17.5645 76.4039 17.5979 76.3234C17.638 76.2363 17.6648 76.2161 17.6648 76.2698C17.6648 76.3301 17.7182 76.3033 17.8051 76.1893C17.8787 76.082 17.9923 75.9881 18.0525 75.968C18.1193 75.9546 18.2464 75.7937 18.3333 75.6193C18.4268 75.445 18.5539 75.2371 18.6207 75.1633C18.6942 75.0896 18.8146 74.8951 18.8881 74.7274C18.9683 74.5598 19.0686 74.3854 19.1154 74.3452C19.1622 74.2982 19.229 74.258 19.2692 74.258C19.3093 74.258 19.3427 74.1909 19.3427 74.1105C19.3427 74.0233 19.4296 73.8422 19.5432 73.7081C19.6502 73.5673 19.7705 73.4667 19.8106 73.4868C19.8441 73.507 19.8775 73.4466 19.8775 73.3527C19.8775 73.232 19.951 73.1314 20.1516 73.004C20.2986 72.8967 20.5059 72.7358 20.6195 72.6352C20.7265 72.5279 20.8 72.4273 20.7867 72.4005C20.7666 72.3669 20.8201 72.206 20.9003 72.0249C20.9805 71.8506 21.0674 71.7299 21.1009 71.7567C21.1276 71.7902 21.1476 71.7701 21.1476 71.7299C21.1476 71.6829 21.161 71.6092 21.1811 71.5756C21.2011 71.5421 21.2145 71.4885 21.2145 71.4616C21.2145 71.4281 21.2947 71.3208 21.3883 71.2068C21.4819 71.0928 21.6089 70.9453 21.6691 70.8715C21.7359 70.7978 21.8295 70.6301 21.883 70.5027C21.9432 70.3552 21.99 70.3015 22.0033 70.3686C22.0234 70.4289 22.0635 70.3753 22.1103 70.2345C22.1504 70.107 22.2507 69.9662 22.3309 69.9327C22.4379 69.8857 22.4713 69.8254 22.4512 69.7181C22.4245 69.6041 22.4846 69.4968 22.6518 69.3292C22.7788 69.2017 22.9125 69.0944 22.9526 69.0944C22.986 69.0944 23.0128 69.0542 23.0128 69.014C23.0061 68.967 23.0061 68.8732 23.0128 68.8128C23.0128 68.7457 23.093 68.6116 23.1866 68.511C23.298 68.3859 23.3426 68.3635 23.3203 68.444C23.3002 68.5043 23.3136 68.558 23.3537 68.558C23.3871 68.558 23.4206 68.5177 23.4206 68.4775C23.4206 68.4306 23.4874 68.2495 23.5676 68.0684C23.6545 67.8941 23.7615 67.7533 23.8016 67.7533C23.8484 67.7533 23.8885 67.7063 23.8885 67.6527C23.8885 67.599 23.9086 67.5655 23.9353 67.5856C23.9687 67.6057 24.069 67.5521 24.1626 67.4649C24.2562 67.3844 24.4032 67.257 24.4902 67.1833C24.5837 67.1028 24.6239 67.0894 24.5904 67.1497C24.5436 67.2369 24.5503 67.2369 24.6439 67.1698C24.7041 67.1229 24.7977 67.1028 24.8378 67.1296C24.8913 67.1564 24.8846 67.1229 24.8244 67.0491C24.7509 66.9553 24.7442 66.9217 24.8043 66.9016C24.8511 66.8949 24.8913 66.8413 24.8913 66.801C24.8913 66.7541 24.9514 66.6736 25.025 66.6334C25.0985 66.5864 25.1587 66.4993 25.1587 66.4456C25.1587 66.392 25.2656 66.2243 25.3926 66.0768C25.5196 65.9292 25.6533 65.822 25.6935 65.8421C25.7269 65.8622 25.8539 65.775 25.9609 65.661C26.0745 65.5403 26.1614 65.4196 26.1614 65.3928C26.1614 65.3592 26.2082 65.3525 26.2617 65.3727C26.3218 65.3928 26.3887 65.3458 26.4221 65.2587C26.4555 65.1715 26.5759 65.0441 26.6895 64.9703C26.8032 64.8965 26.8968 64.8161 26.8968 64.7892C26.8968 64.7557 26.9436 64.7356 26.997 64.7356C27.0639 64.7356 27.0839 64.6954 27.0639 64.6216C27.0371 64.5344 27.0906 64.4607 27.2444 64.3668C27.358 64.293 27.5185 64.1991 27.5987 64.1589C27.7056 64.0918 27.7123 64.0717 27.6321 64.0449C27.5519 64.0114 27.5519 63.9845 27.6655 63.8839C27.7391 63.8169 27.846 63.6761 27.8995 63.5621C27.953 63.4481 28.0466 63.3139 28.1001 63.2536C28.1535 63.1932 28.2739 63.1061 28.3675 63.0591C28.4811 63.0055 28.5078 62.9652 28.4477 62.9317C28.3875 62.9049 28.3808 62.8445 28.4276 62.7238C28.461 62.6299 28.4945 62.6031 28.4945 62.6568C28.4945 62.7372 28.5279 62.7305 28.6349 62.6232C28.7418 62.5226 28.7552 62.4757 28.6883 62.4355C28.6215 62.3885 28.6215 62.3751 28.6817 62.3483C28.7284 62.3349 28.7686 62.2611 28.7686 62.1873C28.7686 62.1136 28.7953 62.0666 28.8354 62.0868C28.8688 62.1069 28.9156 62.0666 28.9357 62.0063C28.9557 61.9392 29.0426 61.7649 29.1296 61.6173C29.2432 61.4229 29.3301 61.3558 29.4304 61.3692C29.5106 61.3759 29.5908 61.3424 29.6176 61.3022C29.6443 61.2552 29.671 61.1278 29.6777 61.0138C29.6844 60.8998 29.6911 60.7992 29.6978 60.7791C29.6978 60.759 29.778 60.7053 29.8716 60.6651C29.9652 60.6182 30.0989 60.4505 30.1791 60.2963C30.2526 60.1353 30.3529 59.9476 30.393 59.8671C30.4398 59.7933 30.5133 59.7397 30.5535 59.7531C30.6003 59.7665 30.6404 59.7196 30.6404 59.6592C30.6404 59.5921 30.7206 59.458 30.8209 59.3642C30.9278 59.2703 31.0816 59.1026 31.1752 58.9819C31.2688 58.8679 31.4158 58.6667 31.5094 58.5326C31.603 58.3985 31.7434 58.1973 31.8236 58.09C31.9105 57.9827 31.9774 57.862 31.9774 57.8285C31.9774 57.795 32.0041 57.7748 32.0442 57.795C32.0776 57.8151 32.1111 57.795 32.1111 57.7614C32.1111 57.7279 32.1378 57.7078 32.1779 57.7279C32.2113 57.748 32.3317 57.6541 32.4453 57.5267C32.559 57.3993 32.6592 57.3121 32.6793 57.3457C32.6993 57.3725 32.7127 57.3524 32.7127 57.3121C32.7127 57.2585 32.7662 57.2384 32.8464 57.2585C32.9356 57.2808 32.9801 57.2585 32.9801 57.1914C32.9801 57.1378 33.0269 57.0171 33.0804 56.9232C33.1339 56.8293 33.2408 56.7555 33.3144 56.7555C33.3879 56.7555 33.4347 56.722 33.4146 56.6885C33.3946 56.6549 33.4414 56.5611 33.5149 56.4873C33.5885 56.4135 33.662 56.3733 33.682 56.4068C33.7021 56.4337 33.7422 56.3733 33.7823 56.2727C33.8157 56.1654 33.8759 56.0849 33.916 56.0849C33.9494 56.0849 33.9829 56.0514 33.9829 56.0179C33.9829 55.9844 34.0497 55.8704 34.1299 55.7765C34.2168 55.6826 34.4575 55.4211 34.6647 55.2065C34.8787 54.9919 35.0658 54.8108 35.0859 54.8108C35.1059 54.8108 35.253 54.7236 35.4201 54.6096C35.5873 54.4956 35.7477 54.4085 35.7878 54.4085C35.8212 54.4085 35.8413 54.3682 35.8212 54.328C35.8079 54.2811 35.8279 54.1939 35.8747 54.1402C35.9215 54.0799 36.0552 53.9592 36.1822 53.872C36.3092 53.7781 36.4563 53.6172 36.5098 53.5032C36.5566 53.3892 36.6569 53.1947 36.7304 53.0673C36.7973 52.9399 36.8775 52.8326 36.9042 52.8393C36.9376 52.846 37.0045 52.7655 37.058 52.6716C37.1181 52.5778 37.2585 52.4503 37.3722 52.3967C37.4992 52.3363 37.566 52.2559 37.546 52.1955C37.5259 52.1284 37.5794 52.0748 37.6864 52.048C37.78 52.0144 37.8468 51.9608 37.8268 51.9273C37.8067 51.8937 37.8067 51.82 37.8268 51.7797C37.8401 51.7328 37.927 51.6724 38.0072 51.6456C38.0942 51.6121 38.3014 51.3707 38.4953 51.0756C38.6757 50.7873 38.8362 50.5056 38.8429 50.452C38.8496 50.3983 38.8897 50.3447 38.9298 50.338C38.9632 50.3246 38.9833 50.2843 38.9632 50.2508C38.9431 50.2173 38.9766 50.1636 39.0367 50.1368C39.0969 50.1033 39.2039 49.9758 39.264 49.8484C39.3309 49.721 39.4445 49.5534 39.5247 49.4796C39.605 49.4058 39.6718 49.2784 39.6651 49.198C39.6651 49.1108 39.6852 49.0437 39.7119 49.0437C39.7453 49.0437 39.8122 48.97 39.8657 48.8828C39.9192 48.7889 40.0061 48.7285 40.0462 48.7487C40.093 48.7621 40.1331 48.7285 40.1331 48.6749C40.1331 48.6213 40.3604 48.3396 40.6345 48.0579C40.9085 47.7696 41.1358 47.5014 41.1358 47.4678C41.1358 47.4343 41.2094 47.3538 41.303 47.3002C41.3965 47.2465 41.4768 47.1661 41.4768 47.1325C41.4768 47.099 41.557 46.9984 41.6573 46.9179C41.7575 46.8308 41.8645 46.7637 41.9046 46.7637C41.938 46.7637 42.0049 46.6966 42.0383 46.6162C42.0784 46.529 42.1453 46.4686 42.1921 46.4821C42.2389 46.4888 42.2723 46.4619 42.2723 46.4284C42.2723 46.3949 42.3324 46.2809 42.4127 46.1803C42.4862 46.073 42.5664 45.9992 42.5798 46.0126C42.5932 46.0193 42.6934 45.9657 42.8071 45.8919C42.9207 45.8182 43.0344 45.7578 43.0745 45.7578C43.1079 45.7578 43.1413 45.7042 43.1413 45.6438C43.1346 45.5365 43.148 45.5365 43.2483 45.6237C43.3151 45.6841 43.3486 45.6908 43.3218 45.6438C43.2951 45.5969 43.3352 45.503 43.4087 45.4426C43.4756 45.3756 43.5357 45.275 43.5357 45.2213C43.5357 45.1677 43.5825 45.0805 43.6427 45.0403C43.6962 44.9933 43.7296 44.9196 43.7096 44.886C43.6895 44.8525 43.7029 44.819 43.743 44.819C43.7764 44.819 43.8767 44.7452 43.9569 44.6513C44.0839 44.5172 44.1307 44.5038 44.2042 44.5709C44.2778 44.6312 44.2912 44.6312 44.251 44.5709C44.231 44.5239 44.2243 44.4233 44.2444 44.3496C44.2644 44.2758 44.3246 44.2155 44.3781 44.2155C44.4315 44.2155 44.5385 44.0947 44.612 43.9472C44.6856 43.7997 44.7792 43.6589 44.8193 43.632C44.8594 43.5985 44.9195 43.6253 44.953 43.679C44.9931 43.746 44.9998 43.7058 44.973 43.5784C44.9329 43.4174 44.9597 43.3437 45.1067 43.2096C45.2003 43.1157 45.2805 43.0017 45.2805 42.9614C45.2805 42.9145 45.3273 42.8743 45.3808 42.8743C45.4343 42.8743 45.4811 42.8273 45.4811 42.7737C45.4811 42.72 45.5078 42.6865 45.5479 42.7066C45.5814 42.7267 45.6415 42.6664 45.6816 42.5725C45.7151 42.4786 45.7752 42.3914 45.8153 42.3713C45.8488 42.3512 45.8822 42.2774 45.8822 42.2037C45.8822 42.1299 45.929 42.0696 45.9825 42.0696C46.056 42.0696 46.0761 42.0226 46.0493 41.8885C46.0226 41.7477 46.0293 41.7276 46.0827 41.8013C46.1362 41.8885 46.1496 41.8885 46.1496 41.7879C46.1496 41.7208 46.1964 41.6672 46.2499 41.6672C46.31 41.6672 46.3368 41.627 46.3167 41.5666C46.2967 41.513 46.31 41.466 46.3501 41.466C46.3836 41.466 46.437 41.399 46.4571 41.3185C46.4772 41.2313 46.5306 41.0972 46.5707 41.01C46.6175 40.9296 46.6777 40.8625 46.7178 40.8625C46.7512 40.8625 46.8649 40.7619 46.9585 40.6412C47.0521 40.5272 47.1523 40.3595 47.1724 40.2791C47.1991 40.1919 47.266 40.1114 47.3195 40.0913C47.3729 40.0712 47.4197 40.098 47.4197 40.145C47.4197 40.1852 47.4599 40.1651 47.5133 40.0913C47.5668 40.0175 47.5936 39.9237 47.5735 39.8901C47.5534 39.8566 47.5802 39.7493 47.627 39.6554C47.6805 39.5615 47.7607 39.4677 47.8008 39.4408C47.8476 39.4073 47.8877 39.3402 47.8877 39.2866C47.8877 39.233 47.9144 39.1994 47.9545 39.2195C47.988 39.2397 48.0214 39.1994 48.0214 39.1391C48.0147 39.0385 48.0348 39.0318 48.1217 39.1055C48.2019 39.1726 48.2353 39.1659 48.2888 39.0519C48.3222 38.9781 48.3556 38.8708 48.3556 38.8172C48.3556 38.7635 48.4559 38.616 48.5696 38.4953C48.6899 38.3746 48.8437 38.2539 48.9038 38.2271C48.9774 38.2002 49.0041 38.1466 48.9707 38.0996C48.9372 38.0393 48.9573 38.0326 49.0375 38.0661C49.1244 38.0996 49.1578 38.0795 49.1578 38.0125C49.1578 37.9588 49.198 37.9119 49.2381 37.9119C49.2849 37.9119 49.3651 37.8381 49.4052 37.7442C49.452 37.6504 49.5255 37.5833 49.5656 37.5967C49.5991 37.6034 49.6793 37.4894 49.7328 37.3419C49.7862 37.1943 49.8932 37.0066 49.9801 36.9194C50.0603 36.8389 50.1673 36.7719 50.2074 36.7719C50.2542 36.7719 50.3077 36.7249 50.3277 36.6713C50.3478 36.6176 50.3678 36.5506 50.3745 36.5238C50.3812 36.4902 50.4748 36.3896 50.5751 36.289C50.6753 36.1818 50.789 36.1013 50.8291 36.1013C50.8625 36.1013 50.8959 36.0409 50.8959 35.9672C50.8959 35.8934 50.9227 35.833 50.9628 35.833C50.9962 35.833 51.1032 35.7593 51.1968 35.6654C51.2904 35.5715 51.3773 35.5313 51.3973 35.5648C51.4174 35.605 51.5177 35.5648 51.6313 35.4843C51.7717 35.377 51.8385 35.2496 51.8653 35.0619C51.8987 34.8473 51.9789 34.7266 52.253 34.4784C52.4469 34.2974 52.6407 34.1566 52.6808 34.1566C52.7343 34.1566 52.7544 34.0962 52.7343 33.9889C52.7143 33.895 52.7143 33.7743 52.7343 33.7207C52.7544 33.667 52.8145 33.6335 52.868 33.6536C52.9215 33.6737 52.9817 33.6536 53.0017 33.6201C53.0218 33.5866 53.0017 33.553 52.9683 33.553C52.9282 33.553 52.9215 33.4994 52.9482 33.439C52.975 33.372 53.1154 33.1976 53.2624 33.0568C53.4162 32.9093 53.5298 32.7684 53.5165 32.7349C53.5098 32.7081 53.5566 32.6276 53.6234 32.5673C53.6836 32.5002 53.7839 32.3661 53.8374 32.2588C53.8908 32.1582 53.9644 32.0777 54.0045 32.0777C54.0379 32.0777 54.1315 31.9704 54.205 31.8296C54.2786 31.6888 54.3521 31.5614 54.3588 31.5413C54.3722 31.5211 54.4524 31.5077 54.5259 31.5077C54.6396 31.5077 54.673 31.4675 54.673 31.3401C54.673 31.2462 54.7331 31.1188 54.8067 31.0517C54.8802 30.9847 54.9404 30.8505 54.9404 30.7567C54.9404 30.6628 54.9671 30.5689 55.0072 30.5488C55.0407 30.5219 55.0874 30.5018 55.1075 30.5018C55.1275 30.5018 55.1878 30.4683 55.2479 30.4348C55.3081 30.3945 55.3883 30.3074 55.4217 30.2336C55.4752 30.1397 55.4752 30.0458 55.4284 29.9318C55.395 29.8379 55.288 29.6837 55.2011 29.5831C55.1142 29.4758 55.0407 29.3551 55.0407 29.3149C55.0407 29.2679 54.9671 29.1606 54.8735 29.0802C54.7666 28.9796 54.7198 28.879 54.7398 28.7918C54.7621 28.7024 54.7175 28.613 54.6061 28.5236C54.5125 28.4498 54.439 28.3425 54.439 28.2889C54.439 28.2352 54.3788 28.1346 54.3053 28.0743C54.2385 28.0072 54.1917 27.9335 54.205 27.9066C54.2251 27.8731 54.1983 27.853 54.1516 27.853C54.1114 27.8463 53.9309 27.692 53.7571 27.4976C53.5833 27.3031 53.4563 27.1422 53.4697 27.1355C53.4897 27.122 53.4095 27.0416 53.3026 26.9477C53.1889 26.8538 53.102 26.7331 53.102 26.6795C53.102 26.6258 53.0753 26.5722 53.0351 26.5655C53.0017 26.552 52.9616 26.4716 52.9416 26.3777C52.9282 26.2838 52.9081 26.1698 52.9081 26.1296C52.9015 26.0826 52.8547 26.0424 52.8012 26.0424C52.7477 26.0424 52.7009 26.0089 52.7009 25.9753C52.7009 25.9418 52.6541 25.9217 52.6006 25.9418C52.5405 25.9619 52.4469 25.9016 52.3666 25.7943C52.2597 25.6467 52.2463 25.5931 52.3132 25.5596C52.3733 25.526 52.2931 25.412 52.0458 25.1773C51.7851 24.9225 51.7115 24.8085 51.7449 24.7213C51.7784 24.6341 51.7717 24.614 51.7115 24.6543C51.6714 24.6811 51.5845 24.6543 51.531 24.6006C51.4775 24.547 51.4307 24.4799 51.4307 24.4531C51.4374 24.4196 51.3773 24.3391 51.3037 24.2653C51.2235 24.1916 51.1834 24.1111 51.1968 24.0843C51.2168 24.0507 51.1567 23.9703 51.0631 23.8965C50.9695 23.8227 50.8959 23.7221 50.8959 23.6819C50.8959 23.635 50.7489 23.4271 50.5684 23.2259C50.3812 23.0247 50.2676 22.8437 50.301 22.8235C50.3478 22.8034 50.3344 22.7431 50.2676 22.676C50.2074 22.609 50.1004 22.5419 50.0269 22.5218C49.9534 22.5017 49.8865 22.4681 49.8865 22.4413C49.8798 22.4078 49.8665 22.3005 49.8531 22.1865C49.8397 22.0792 49.7862 21.9518 49.7261 21.9182C49.6726 21.8847 49.6191 21.8042 49.6124 21.7439C49.5991 21.6902 49.5121 21.536 49.4186 21.4086C49.3183 21.2812 49.218 21.0666 49.198 20.9325C49.1779 20.7916 49.1244 20.6776 49.091 20.6776C49.0509 20.6776 49.0241 20.7112 49.0241 20.7447C49.0241 20.7849 48.9707 20.7782 48.8971 20.7313C48.8236 20.6776 48.7902 20.6039 48.8102 20.5502C48.8437 20.4832 48.8236 20.4765 48.7233 20.5167C48.623 20.5569 48.603 20.5502 48.6364 20.4899C48.6698 20.4496 48.6632 20.4027 48.6364 20.396C48.6097 20.3826 48.496 20.2418 48.3824 20.0741C48.2754 19.9065 48.1551 19.712 48.1217 19.6382C48.0949 19.5645 48.0682 19.4706 48.0749 19.4371C48.0816 19.4035 47.9947 19.3163 47.8877 19.256C47.774 19.1889 47.6871 19.0883 47.6871 19.0347C47.6871 18.981 47.6537 18.9341 47.6203 18.9341C47.5802 18.9341 47.5133 18.8603 47.4665 18.7665C47.4264 18.6726 47.3328 18.5854 47.266 18.5653C47.1902 18.5429 47.1635 18.487 47.1858 18.3976C47.208 18.3082 47.1858 18.2635 47.1189 18.2635C47.0654 18.2635 47.0186 18.2166 47.0186 18.1629C47.0186 18.1093 46.9852 18.0623 46.9518 18.0623C46.9117 18.0623 46.8716 17.9752 46.8515 17.8612C46.8248 17.7136 46.778 17.66 46.6844 17.66C46.5908 17.66 46.5373 17.5996 46.4972 17.4454C46.4705 17.3314 46.3702 17.1637 46.2632 17.0766C46.163 16.9961 46.1028 16.9089 46.1295 16.8888C46.1496 16.8687 46.1362 16.8553 46.0961 16.8553C46.0493 16.8553 45.9958 16.7882 45.9758 16.7077C45.949 16.6206 45.929 16.5401 45.9156 16.52C45.9089 16.4999 45.8755 16.4261 45.8488 16.3523C45.8153 16.2786 45.7485 16.1847 45.695 16.1511C45.6415 16.1176 45.5947 16.017 45.588 15.9433C45.588 15.8628 45.5011 15.7153 45.3942 15.6214C45.2939 15.5275 45.2337 15.447 45.2605 15.447C45.2939 15.447 45.2605 15.4135 45.1936 15.38C45.1335 15.3397 45.08 15.2727 45.08 15.2324C45.08 15.1855 44.9797 15.038 44.8594 14.9105C44.7324 14.7831 44.6455 14.6356 44.6588 14.5954C44.6722 14.5484 44.5652 14.3808 44.4249 14.2333C44.2912 14.079 44.1107 13.8778 44.0304 13.7772C43.9435 13.6834 43.8901 13.5828 43.9101 13.556C43.9302 13.5224 43.8834 13.4621 43.8098 13.4218C43.7363 13.3749 43.6761 13.281 43.6761 13.2207C43.6761 13.1536 43.6427 13.1134 43.6093 13.1335C43.5692 13.1536 43.509 13.0865 43.4622 12.9859C43.4221 12.8787 43.3954 12.7647 43.402 12.7311C43.4154 12.6976 43.3954 12.6842 43.3619 12.711C43.3352 12.7378 43.2416 12.6909 43.1547 12.597C43.0745 12.5031 43.0076 12.3891 43.0076 12.3489C43.0143 12.3019 42.9608 12.2148 42.9007 12.1611C42.8338 12.1075 42.7335 11.9398 42.6667 11.7923C42.6065 11.6448 42.4996 11.4771 42.4394 11.4235C42.3792 11.3698 42.3324 11.2893 42.3391 11.2558C42.3391 11.2223 42.2389 11.0412 42.1185 10.8535C41.9982 10.6724 41.8378 10.3975 41.7575 10.2499C41.6773 10.1024 41.5971 9.90122 41.577 9.80063C41.557 9.69334 41.5035 9.61957 41.4567 9.63298C41.4099 9.63969 41.2695 9.4251 41.1425 9.16357C41.0088 8.89533 40.8617 8.67404 40.815 8.67404C40.7748 8.67404 40.6813 8.59357 40.6144 8.49298C40.5542 8.39239 40.4473 8.25156 40.3804 8.19121C40.3203 8.12415 40.2668 8.03697 40.2668 8.00344C40.2668 7.96321 40.22 7.9565 40.1598 7.99003C40.0863 8.02356 40.0462 7.99003 40.0128 7.88274C39.986 7.79556 39.8991 7.68156 39.8122 7.62791C39.732 7.57426 39.6651 7.49379 39.6651 7.45356C39.6718 7.40662 39.6183 7.31944 39.5582 7.26579C39.4512 7.17191 39.4445 7.17861 39.4846 7.28591C39.5181 7.36638 39.5047 7.3932 39.4312 7.36638C39.3777 7.34626 39.3309 7.28591 39.3309 7.23226C39.3309 7.17861 39.371 7.13167 39.4111 7.13167C39.4579 7.13167 39.4178 7.0445 39.3108 6.93049C39.2105 6.8232 39.1571 6.71591 39.1972 6.69579C39.2373 6.67567 39.244 6.62873 39.2039 6.58179C39.1704 6.53485 39.1437 6.34708 39.1504 6.17273C39.1571 5.93802 39.1303 5.81731 39.0434 5.73684C38.9677 5.66084 38.9431 5.57813 38.9699 5.48872C39.01 5.38143 38.9966 5.36131 38.9097 5.40825C38.8228 5.44178 38.7894 5.41496 38.756 5.30766C38.7292 5.20037 38.7626 5.11319 38.8562 5.03942C38.9365 4.97236 39.0234 4.91872 39.0635 4.91872C39.0969 4.91872 39.1303 4.87178 39.1303 4.81813C39.1303 4.75777 39.0902 4.73095 39.0301 4.75107C38.9766 4.77119 38.9298 4.74436 38.9298 4.70413C38.9231 4.65719 38.9632 4.57671 39.01 4.52977C39.0568 4.48283 39.1771 4.43589 39.2841 4.42918C39.4178 4.42248 39.4579 4.38895 39.4245 4.31518C39.3977 4.24142 39.4178 4.2213 39.5181 4.24812C39.625 4.27495 39.6584 4.24142 39.6919 4.04695C39.7119 3.91953 39.7387 3.7653 39.752 3.70494C39.7587 3.6513 39.8122 3.55741 39.8657 3.49706C39.9325 3.42329 40.0261 3.40318 40.1598 3.43671C40.3336 3.47024 40.3537 3.46353 40.3136 3.34282C40.2735 3.22882 40.3002 3.2087 40.5208 3.19529C40.6545 3.18859 40.7949 3.14835 40.835 3.11482C40.8684 3.08129 40.942 3.06117 40.9821 3.08129C41.0289 3.0947 41.069 3.08129 41.069 3.04106C41.069 3.00753 41.1492 2.96059 41.2495 2.94717C41.3698 2.93376 41.4634 2.96059 41.5169 3.03435C41.5904 3.12823 41.5904 3.12823 41.5637 3.00753C41.5302 2.88011 41.5637 2.87341 42.4194 2.88011C42.9074 2.88682 43.3753 2.8667 43.4555 2.83317C43.5491 2.79294 43.6227 2.79964 43.6427 2.83988C43.6628 2.88011 43.743 2.84658 43.8232 2.77282C43.9101 2.69235 43.9836 2.66552 43.9903 2.70576C44.0037 2.746 44.0772 2.7527 44.1909 2.71917C44.2978 2.68564 44.485 2.67223 44.612 2.68564C44.7391 2.69905 45.1335 2.64541 45.4811 2.56494C45.8287 2.48446 46.3301 2.37046 46.5908 2.31011C46.8515 2.24976 47.0588 2.22293 47.0454 2.25646C47.032 2.28329 47.0588 2.3034 47.0989 2.31011C47.1457 2.31682 47.3128 2.33023 47.4665 2.34364C47.6337 2.35705 47.754 2.34364 47.754 2.3034C47.754 2.26988 47.8075 2.24976 47.8676 2.26317C47.9345 2.27658 48.0414 2.31011 48.1016 2.33023C48.1818 2.35705 48.2219 2.33693 48.2219 2.26988C48.2219 2.20952 48.2888 2.16258 48.369 2.16258C48.4559 2.15587 48.5495 2.15587 48.5896 2.16258C48.623 2.16929 48.7099 2.12905 48.7701 2.0687C48.8637 1.99493 48.8971 1.98823 48.9105 2.05529C48.9306 2.10893 49.1244 2.13576 49.6057 2.13576C49.9801 2.13576 50.2676 2.15587 50.2542 2.1894C50.2408 2.21623 50.2943 2.20952 50.3745 2.17599C50.4614 2.14246 50.5951 2.12234 50.6753 2.14246C50.7622 2.15587 50.8291 2.20282 50.8291 2.23635C50.8291 2.27658 50.8759 2.3034 50.9294 2.3034C50.9895 2.3034 51.0096 2.33693 50.9828 2.39058C50.9494 2.45094 50.9561 2.45094 51.0363 2.39058C51.0898 2.34364 51.297 2.28999 51.4976 2.27658C51.6982 2.25646 51.892 2.26317 51.9188 2.28999C51.9522 2.31682 52.0725 2.34364 52.1862 2.35035C52.3065 2.36376 52.5672 2.37046 52.7677 2.37046C52.9884 2.37046 53.1555 2.40399 53.1822 2.45764C53.2223 2.51799 53.2491 2.51129 53.2959 2.43752C53.3293 2.38388 53.3895 2.35705 53.4296 2.39058C53.4697 2.41741 53.5031 2.41741 53.5031 2.39058C53.5031 2.35705 53.5967 2.34364 53.7037 2.35705C53.8173 2.36376 53.9042 2.34364 53.9042 2.3034C53.9042 2.26988 53.9777 2.24976 54.0713 2.26988C54.1649 2.28999 54.2385 2.27658 54.2385 2.23635C54.2385 2.19611 54.3187 2.1894 54.4457 2.22293C54.5794 2.25423 54.6618 2.24305 54.693 2.1894C54.7198 2.14246 54.8802 2.08211 55.0607 2.05529C55.2947 2.01505 55.3749 2.02176 55.3749 2.08881C55.3749 2.12905 55.4217 2.16929 55.4752 2.16929C55.5287 2.16929 55.5755 2.14246 55.5755 2.10223C55.5755 2.0687 55.649 2.02176 55.7426 2.00164C55.8362 1.98152 55.9498 1.98823 55.9899 2.01505C56.0367 2.04187 56.1571 2.05529 56.2573 2.04858C56.3643 2.04187 56.4579 2.0687 56.4779 2.10223C56.498 2.14246 56.5381 2.16929 56.5782 2.16929C56.6116 2.16929 56.6451 2.12234 56.6451 2.0687C56.6451 2.01505 56.6718 1.98152 56.7119 2.00164C56.7453 2.02176 56.7788 1.98152 56.7854 1.92117C56.7854 1.85411 56.7988 1.8407 56.8189 1.88764C56.8389 1.94799 56.8991 1.94128 57.0595 1.86081C57.2133 1.78034 57.2868 1.77364 57.2935 1.82728C57.3069 1.86752 57.3403 1.88764 57.3804 1.86752C57.4138 1.8474 57.5275 1.87423 57.6278 1.92787C57.7949 2.01505 57.8216 2.01505 57.8885 1.91446C57.962 1.80717 57.9754 1.80717 58.0756 1.92117C58.1358 1.98152 58.2428 2.03517 58.3163 2.03517C58.3898 2.03517 58.45 1.98823 58.45 1.93458C58.45 1.88093 58.4768 1.83399 58.5169 1.83399C58.5503 1.83399 58.5703 1.80717 58.5503 1.76693C58.5302 1.72669 58.5904 1.71328 58.6974 1.74011C58.8043 1.76022 58.9648 1.78034 59.0717 1.78705C59.1854 1.79375 59.2388 1.82728 59.2188 1.88764C59.1987 1.92787 59.2121 1.96811 59.2522 1.96811C59.2856 1.96811 59.3191 1.94799 59.3191 1.92117C59.3191 1.88764 59.4193 1.82728 59.553 1.78705C59.7402 1.71999 59.787 1.71999 59.787 1.78705C59.787 1.82728 59.8071 1.8474 59.8338 1.82058C59.8672 1.79375 59.9742 1.80717 60.0878 1.8407C60.1948 1.88093 60.402 1.91446 60.5424 1.92117C60.6828 1.92787 60.8299 1.89434 60.8633 1.85411C60.9101 1.78705 60.9836 1.78705 61.2042 1.86081C61.3647 1.91446 61.5184 1.93458 61.5452 1.91446C61.5786 1.88764 61.6321 1.92117 61.6655 1.98823C61.6989 2.04858 61.7858 2.10223 61.8594 2.10223C61.9329 2.10223 62.0064 2.13576 62.0265 2.16929C62.0465 2.20952 62.1335 2.23635 62.227 2.23635C62.3541 2.23635 62.3942 2.20282 62.3942 2.08881C62.3942 2.00164 62.4142 1.96811 62.4476 2.00834C62.4744 2.04858 62.5546 2.08881 62.6281 2.09552C62.7017 2.10223 62.8755 2.11564 63.0092 2.12234C63.1496 2.12905 63.2632 2.15587 63.2632 2.1894C63.2632 2.21623 63.3702 2.1894 63.4972 2.13576C63.6242 2.08211 63.7913 2.03517 63.8649 2.03517C63.9384 2.03517 63.9986 2.0754 63.9986 2.12234C63.9986 2.17599 64.0186 2.16929 64.0587 2.10223C64.1122 2.01505 64.1256 2.02176 64.1523 2.13576C64.1791 2.24976 64.1857 2.24305 64.1924 2.10223C64.1991 1.9547 64.2125 1.94799 64.286 2.04187C64.3328 2.10223 64.4264 2.14917 64.5 2.14917C64.5735 2.14917 64.6738 2.11564 64.7272 2.0754C64.8074 2.01505 64.8141 2.02176 64.7807 2.10223C64.7607 2.15587 64.754 2.22293 64.774 2.25646C64.7874 2.28329 64.9144 2.22293 65.0481 2.12905C65.1952 2.03517 65.3556 1.97481 65.4358 1.99493C65.5094 2.00834 65.6097 1.98152 65.6498 1.92787C65.7166 1.86081 65.8102 1.8474 66.0041 1.88764C66.1712 1.91446 66.2715 1.90775 66.2715 1.86752C66.2715 1.83399 66.4185 1.79375 66.6057 1.78705C66.7862 1.77364 66.9266 1.78705 66.9132 1.82058C66.8999 1.8474 66.9533 1.86752 67.0336 1.86081C67.1071 1.86081 67.2274 1.88093 67.2876 1.91446C67.3544 1.94128 67.4547 1.9547 67.5082 1.93458C67.5751 1.91446 67.5951 1.86081 67.5617 1.78705C67.5216 1.68646 67.5349 1.67975 67.6152 1.74681C67.6686 1.79375 67.8023 1.81387 67.9427 1.78705C68.0697 1.76693 68.2436 1.78705 68.3238 1.82728C68.424 1.87423 68.4842 1.87423 68.4909 1.83399C68.5043 1.78928 68.5823 1.78928 68.7249 1.83399C68.8987 1.88764 68.9655 1.88093 69.0458 1.80046C69.1059 1.74011 69.1594 1.72669 69.1795 1.76693C69.1995 1.80717 69.2396 1.82058 69.2797 1.80046C69.3198 1.78034 69.4803 1.81387 69.6474 1.86752C69.9148 1.9547 69.9549 1.9547 69.9817 1.86752C70.0084 1.78705 70.0552 1.78034 70.2624 1.8407C70.4028 1.88093 70.5632 1.97481 70.6167 2.04858C70.6836 2.14246 70.7705 2.17599 70.8975 2.16258C70.9978 2.14917 71.0847 2.15587 71.0847 2.1894C71.0847 2.21623 71.1916 2.16258 71.3186 2.0687C71.4457 1.97481 71.5794 1.91446 71.6195 1.93458C71.6596 1.9547 71.7398 1.92787 71.8 1.88764C71.8936 1.81387 71.9069 1.82058 71.8668 1.92117C71.8401 1.98823 71.8535 2.03517 71.9003 2.04187C71.9471 2.04187 72.0406 2.05529 72.1008 2.0754C72.1677 2.08881 72.2813 2.04187 72.3548 1.96811C72.4284 1.89434 72.5754 1.82058 72.6891 1.80046C72.8228 1.77811 72.8896 1.79599 72.8896 1.85411C72.8896 1.90105 72.9632 1.92787 73.0568 1.92117C73.1503 1.90775 73.2239 1.87423 73.2239 1.83399C73.2239 1.79375 73.3242 1.78034 73.4712 1.80717C73.6116 1.82728 73.7453 1.85411 73.7721 1.87423C73.8055 1.88764 73.8389 1.87423 73.859 1.83399C73.879 1.80046 73.9191 1.76693 73.9592 1.76693C73.9993 1.76693 74.0127 1.82058 73.9927 1.88764C73.9659 1.98152 73.9993 1.99493 74.1798 1.97481C74.2935 1.9614 74.4138 1.91446 74.4406 1.87423C74.4673 1.83399 74.5475 1.78705 74.6077 1.77364C74.6745 1.76022 74.8617 1.74011 75.0288 1.71999C75.2361 1.69987 75.3497 1.71999 75.3965 1.78705C75.45 1.86081 75.5102 1.86081 75.684 1.80717C75.8043 1.76693 75.8778 1.70658 75.8511 1.67305C75.8244 1.63952 75.8578 1.64622 75.9313 1.67975C76.0049 1.71999 76.2121 1.74681 76.3993 1.74011C76.5798 1.7334 76.7736 1.70658 76.8137 1.67975C76.8605 1.65293 76.914 1.66634 76.9341 1.69987C76.9541 1.74011 77.0477 1.75352 77.148 1.7334C77.255 1.71328 77.4555 1.67975 77.6026 1.66634C77.7764 1.64622 77.9234 1.66634 78.017 1.7334C78.1039 1.78705 78.1975 1.83399 78.2376 1.83399C78.2777 1.83399 78.3045 1.78705 78.3045 1.7334C78.3045 1.65964 78.358 1.67975 78.5184 1.80717C78.7056 1.9547 78.7524 1.96811 78.8059 1.88093C78.846 1.82728 78.9463 1.76693 79.0398 1.74011C79.1535 1.70658 79.2203 1.71999 79.2538 1.78034C79.2939 1.8474 79.3072 1.83399 79.3072 1.75352C79.3072 1.68646 79.3206 1.63281 79.3407 1.63281C79.3607 1.63281 79.461 1.67975 79.5746 1.7334C79.715 1.80046 79.8086 1.81387 79.8755 1.76693C79.9423 1.72669 80.0493 1.71999 80.1897 1.76022C80.31 1.80046 80.4571 1.87423 80.5105 1.93458C80.564 1.99493 80.6509 2.02846 80.691 2.00834C80.7378 1.98823 80.7913 2.00164 80.8114 2.03517C80.8314 2.0754 80.9584 2.08881 81.0921 2.0754C81.2325 2.06199 81.4197 2.02176 81.5133 1.98152C81.6203 1.93458 81.6403 1.90105 81.5801 1.89434C81.5267 1.88764 81.6269 1.86081 81.8141 1.8407C81.9946 1.81387 82.2152 1.82728 82.3021 1.86752C82.4225 1.92117 82.4693 1.91446 82.516 1.83399C82.5628 1.75352 82.5896 1.74681 82.6765 1.82058C82.7634 1.88764 82.8369 1.88093 83.0642 1.78705C83.2247 1.72669 83.365 1.64622 83.3851 1.61269C83.4052 1.57916 83.4921 1.58587 83.5856 1.63281C83.6792 1.67305 83.7996 1.68646 83.8531 1.65964L84.0001 1.58587C84.0336 1.57916 84.1004 1.56575 84.1539 1.56575C84.214 1.56575 84.2408 1.52552 84.2207 1.46516C84.194 1.38469 84.2475 1.36457 84.4347 1.36457C84.5817 1.35787 84.7288 1.40481 84.7889 1.46516C84.8424 1.52552 84.9561 1.57246 85.0363 1.56575C85.1433 1.56575 85.1901 1.52552 85.1901 1.43163C85.1901 1.35787 85.2168 1.29752 85.2569 1.29752C85.297 1.29752 85.3238 1.34446 85.3238 1.3981C85.3238 1.48528 85.3505 1.48528 85.5043 1.38469C85.6112 1.32434 85.8184 1.27069 85.9789 1.25728C86.1326 1.25057 86.2663 1.26399 86.2663 1.29081C86.2597 1.31093 86.3399 1.32434 86.4268 1.31763C86.5271 1.30422 86.5939 1.33105 86.5939 1.38469C86.5872 1.44505 86.6073 1.44505 86.6741 1.3914C86.7209 1.34446 86.9215 1.26399 87.1087 1.20363C87.4429 1.10304 87.463 1.10304 87.463 1.21704C87.463 1.31093 87.4897 1.29752 87.5967 1.1634C87.6702 1.06951 87.7304 1.03598 87.7304 1.08293C87.7304 1.12316 87.7705 1.14998 87.8106 1.12987C87.8574 1.10975 87.9309 1.15669 87.971 1.24387C88.0312 1.36457 88.1047 1.3981 88.2919 1.3981C88.439 1.3981 88.5593 1.35787 88.5927 1.29752C88.6395 1.21034 88.6529 1.21034 88.693 1.31763C88.7197 1.3914 88.8066 1.43163 88.947 1.43163C89.0674 1.43163 89.2011 1.46516 89.2479 1.51211C89.308 1.57916 89.3548 1.57916 89.415 1.52552C89.4618 1.48528 89.5821 1.43834 89.6824 1.42493C89.796 1.40481 89.8696 1.43163 89.8696 1.48528C89.8696 1.54563 89.9431 1.54563 90.1838 1.46516C90.3643 1.40481 90.7186 1.35787 90.9793 1.34446C91.24 1.33775 91.494 1.29752 91.5475 1.25728C91.601 1.21704 91.6879 1.1634 91.7414 1.14999C91.7948 1.12987 91.9085 1.14328 91.9887 1.1701C92.0957 1.21034 92.1425 1.20363 92.1425 1.14999C92.1425 1.09187 92.1647 1.09634 92.2093 1.1634C92.2628 1.25057 92.2829 1.25057 92.3898 1.14999C92.4834 1.0561 92.5302 1.0494 92.5904 1.11646C92.6572 1.17681 92.6973 1.1701 92.7575 1.07622C92.8243 0.982337 92.9714 0.948807 93.446 0.915278Z" fill="#FF5D00"/>
</svg>
