<svg width="116" height="118" viewBox="0 0 116 118" fill="none" xmlns="http://www.w3.org/2000/svg">
<path fill-rule="evenodd" clip-rule="evenodd" d="M54.7923 0.46889C54.982 0.461596 55.4782 0.490773 55.9014 0.534538C56.3246 0.578303 56.7478 0.636656 56.85 0.673126C56.9522 0.702303 57.0908 0.702303 57.1638 0.665832C57.244 0.622067 57.3462 0.636656 57.4556 0.702303C57.5651 0.76795 57.784 0.789833 58.127 0.775244C58.4042 0.760656 58.8202 0.738774 59.0391 0.716891C59.2872 0.695009 59.4769 0.716891 59.5426 0.76795C59.6009 0.819009 59.7396 0.85548 59.8563 0.85548C59.9658 0.85548 60.0606 0.833597 60.0606 0.797127C60.0606 0.76795 60.1482 0.760656 60.265 0.775244C60.3744 0.789833 60.5933 0.775244 60.7539 0.746068C60.9144 0.709597 61.0895 0.716891 61.1406 0.753362C61.1844 0.789833 61.2938 0.804421 61.3741 0.782538C61.4617 0.760656 61.52 0.782538 61.52 0.833597C61.5127 0.899245 61.5492 0.899245 61.6295 0.819009C61.7316 0.724185 61.7462 0.724185 61.7389 0.833597C61.7389 0.906539 61.7608 0.964892 61.7973 0.964892C61.8265 0.964892 61.8995 0.935715 61.9579 0.899245C62.0235 0.862774 62.1768 0.862774 62.3227 0.906539C62.4613 0.943009 62.6292 0.97948 62.6875 0.97948C62.7459 0.986774 62.8189 1.02324 62.8481 1.06701C62.887 1.1205 62.9064 1.11564 62.9064 1.05242C62.9064 1.00866 62.9794 0.964892 63.0743 0.964892C63.1618 0.964892 63.264 0.986774 63.2932 1.01595C63.3297 1.04513 63.4318 1.0816 63.5121 1.0816C63.5997 1.08889 63.7894 1.10348 63.928 1.11077C64.0667 1.11807 64.198 1.11807 64.2199 1.11077C64.2418 1.11077 64.395 1.08889 64.5701 1.06701C64.8401 1.04513 64.8693 1.05242 64.8255 1.16183C64.7745 1.27125 64.8036 1.27854 65.0444 1.23477C65.2415 1.1983 65.3655 1.22019 65.5115 1.30772C65.6501 1.40254 65.8252 1.43172 66.1317 1.41713C66.4455 1.40983 66.5768 1.43172 66.6498 1.51925C66.7154 1.60678 66.7519 1.60678 66.7884 1.53383C66.8322 1.46819 66.8468 1.47548 66.8468 1.56301C66.8468 1.63595 66.9052 1.71619 66.9781 1.73807C67.0876 1.77454 67.0876 1.76725 66.9927 1.65784C66.9343 1.59219 66.8979 1.54113 66.9198 1.54113C66.9417 1.54113 67.0511 1.59219 67.1751 1.65054C67.3576 1.73807 67.4524 1.74536 67.6932 1.67242C67.9486 1.59948 68.0216 1.59948 68.131 1.69431C68.1967 1.75266 68.3281 1.81101 68.4083 1.81831C68.4959 1.8256 68.7075 1.84019 68.8899 1.84748C69.0724 1.85478 69.2621 1.89125 69.3204 1.94231C69.3788 1.98607 69.5467 2.01525 69.6999 2.00066C69.8604 1.99337 69.9845 2.02254 69.9845 2.05901C69.9845 2.09548 70.0501 2.11737 70.1304 2.09548C70.2107 2.0736 70.2763 2.09548 70.2763 2.13195C70.2763 2.16842 70.3274 2.19031 70.3858 2.16842C70.4442 2.14654 70.5463 2.18301 70.6047 2.24137C70.6631 2.29972 70.8309 2.35078 70.9696 2.35078C71.1082 2.35078 71.2979 2.35807 71.3928 2.36537C71.4998 2.37995 71.5606 2.44074 71.5752 2.54772C71.5825 2.64254 71.619 2.71548 71.6628 2.71548C71.7065 2.71548 71.816 2.67901 71.9182 2.64254C72.0398 2.59392 72.1735 2.59392 72.3195 2.64254C72.4435 2.67901 72.5238 2.73737 72.5092 2.76654C72.4946 2.80301 72.8157 2.8249 73.217 2.8249C73.6256 2.8249 73.9759 2.84678 73.9978 2.88325C74.0197 2.91243 74.1218 2.9489 74.2313 2.95619C74.348 2.96349 74.4356 2.99266 74.4356 3.02184C74.4356 3.05831 74.6253 3.09478 74.8588 3.10937C75.085 3.13125 75.3404 3.15313 75.4207 3.17502C75.5155 3.1969 75.5593 3.25525 75.5447 3.34278C75.5301 3.45949 75.5374 3.45949 75.5958 3.37196C75.6615 3.27713 75.7198 3.27713 76.0555 3.35737C76.2671 3.40843 76.5371 3.46678 76.6612 3.48137C76.7852 3.50325 76.9092 3.5616 76.953 3.61266C76.9968 3.67102 77.0771 3.6929 77.1355 3.67102C77.2084 3.6467 77.2279 3.66372 77.1938 3.72208C77.15 3.78772 77.2084 3.80231 77.3836 3.78772C77.5222 3.78043 77.6171 3.79502 77.6025 3.82419C77.5879 3.86066 77.6316 3.92631 77.7046 3.98466C77.7703 4.04302 77.8578 4.07219 77.9016 4.05031C77.9454 4.03572 78.1132 4.05761 78.2884 4.09408C78.4562 4.13784 78.5948 4.19619 78.5948 4.22537C78.5948 4.26184 78.6532 4.29102 78.7262 4.29102C78.7919 4.29831 78.894 4.30561 78.9451 4.3129C78.9889 4.3129 79.0327 4.37125 79.0327 4.42961C79.0327 4.50255 79.0764 4.52443 79.164 4.49525C79.2297 4.46608 79.4267 4.50255 79.6018 4.5682C79.7696 4.63384 79.8937 4.70678 79.8791 4.73596C79.8645 4.77243 79.8937 4.85996 79.9521 4.9402C80.0177 5.04231 80.0907 5.07149 80.1783 5.02773C80.2512 4.99855 80.3534 5.00584 80.4045 5.04961C80.4482 5.08608 80.5358 5.11526 80.5869 5.10796C80.6307 5.10796 80.7328 5.12255 80.8058 5.14443C80.8715 5.17361 80.9299 5.26114 80.9299 5.34137C80.9299 5.45808 80.9663 5.47996 81.0977 5.45079C81.2217 5.42161 81.2436 5.4362 81.2071 5.52373C81.1706 5.58208 81.1779 5.64773 81.2217 5.66961C81.2655 5.69149 81.3093 5.66961 81.3312 5.63314C81.3555 5.58451 81.4406 5.58451 81.5866 5.63314C81.7106 5.66961 81.8055 5.74255 81.8055 5.77902C81.8055 5.81549 81.8712 5.85196 81.9514 5.85196C82.0317 5.85196 82.1411 5.89573 82.1922 5.93949C82.236 5.99055 82.36 6.04891 82.4622 6.0562C82.5644 6.07079 82.6519 6.11455 82.6665 6.15102C82.6738 6.18749 82.8125 6.25314 82.973 6.28961C83.1481 6.33338 83.2649 6.40632 83.2649 6.47197C83.2649 6.53032 83.3451 6.59597 83.4473 6.61785C83.5494 6.63973 83.6297 6.6762 83.6297 6.70538C83.6224 6.74185 83.8194 6.85856 84.0675 6.98256C84.3083 7.09926 84.5053 7.22326 84.5053 7.25244C84.5053 7.28891 84.6002 7.32538 84.7243 7.34726C84.8483 7.36914 84.965 7.44209 84.9942 7.50773C85.0161 7.58067 85.0307 7.66091 85.0307 7.69009C85.0234 7.72656 85.0891 7.72656 85.184 7.70468C85.2715 7.6755 85.4394 7.70467 85.5634 7.76303C85.6874 7.82138 85.921 7.93809 86.0961 8.02562C86.2639 8.11315 86.4682 8.18609 86.5485 8.18609C86.6288 8.18609 86.6944 8.22256 86.6944 8.25903C86.6944 8.2955 86.7236 8.31738 86.7674 8.2955C86.8112 8.27362 86.8404 8.28091 86.8404 8.31009C86.8404 8.34656 86.9425 8.43409 87.0739 8.51432C87.2052 8.58727 87.4022 8.64562 87.519 8.63832C87.6284 8.63103 87.7306 8.66021 87.7525 8.69668C87.7744 8.73315 87.8692 8.76962 87.9714 8.76962C88.0735 8.76962 88.1538 8.80609 88.1538 8.84256C88.1538 8.87903 88.2924 8.98844 88.4676 9.07597C88.6427 9.1635 88.8908 9.22186 89.0513 9.22186C89.2338 9.20727 89.3359 9.24374 89.3578 9.31668C89.3797 9.37503 89.46 9.42609 89.5402 9.42609C89.6205 9.42609 89.7372 9.51362 89.8102 9.62303C89.9051 9.7908 89.9343 9.80539 89.9707 9.71056C90.0072 9.60115 90.051 9.60115 90.3575 9.74703C90.5472 9.82727 90.7223 9.95856 90.7442 10.0242C90.7661 10.0972 90.8245 10.1336 90.8756 10.1117C90.9193 10.0899 91.0142 10.1263 91.0726 10.192C91.131 10.2576 91.1601 10.3087 91.131 10.3014C91.0945 10.3014 91.0872 10.3306 91.1091 10.3743C91.131 10.4181 91.1893 10.3889 91.255 10.316C91.3134 10.2503 91.3572 10.2212 91.3572 10.2649C91.3572 10.3014 91.4593 10.3816 91.5834 10.4254C91.7001 10.4764 91.7877 10.5494 91.7658 10.5932C91.7439 10.6296 91.7512 10.6661 91.7877 10.6661C91.8169 10.6588 91.9482 10.7682 92.0796 10.8995C92.2109 11.0308 92.3131 11.184 92.3131 11.2277C92.3131 11.2788 92.3714 11.3299 92.4444 11.3299C92.5101 11.3372 92.6195 11.3372 92.6779 11.3299C92.7363 11.3226 92.8749 11.4101 92.9771 11.5195C93.0792 11.6289 93.32 11.7748 93.5098 11.8332C93.6922 11.8915 93.8454 11.9863 93.8454 12.0301C93.8454 12.0812 93.9111 12.1395 93.9914 12.1614C94.0716 12.1833 94.1373 12.227 94.1373 12.2708C94.1373 12.3073 94.2176 12.3437 94.3197 12.3437C94.4219 12.3437 94.6919 12.4459 94.9254 12.5699C95.1516 12.6939 95.3851 12.847 95.4361 12.8981C95.4799 12.9565 95.5237 13.0221 95.5237 13.0513C95.5237 13.0877 95.6405 13.1096 95.7791 13.1096C95.9834 13.1096 96.0491 13.1461 96.1221 13.3139C96.1804 13.4306 96.2534 13.5035 96.3118 13.4816C96.3555 13.4525 96.4285 13.5035 96.4723 13.5837C96.5161 13.664 96.6912 13.7953 96.8736 13.8755C97.0561 13.9557 97.202 14.0433 97.202 14.0725C97.202 14.1089 97.3625 14.2038 97.5668 14.2913C97.7639 14.3861 97.9317 14.4809 97.9317 14.5101C97.9244 14.5466 98.0266 14.6122 98.1506 14.656C98.333 14.7362 98.3622 14.78 98.333 14.9332C98.3111 15.0353 98.3257 15.1301 98.3695 15.152C98.4133 15.1739 98.4571 15.152 98.479 15.1155C98.5009 15.0718 98.6176 15.1155 98.7489 15.203C98.8803 15.2979 99.0627 15.4438 99.1503 15.5313C99.2451 15.6261 99.3473 15.699 99.3911 15.699C99.4349 15.699 99.4494 15.7501 99.4276 15.8085C99.4057 15.8668 99.4494 15.9398 99.5224 15.9689C99.5881 15.9908 99.7705 16.1513 99.9237 16.3118C100.07 16.4795 100.194 16.6546 100.194 16.6983C100.194 16.7494 100.245 16.7932 100.303 16.7932C100.362 16.7932 100.493 16.8807 100.595 16.9901C100.697 17.1068 100.777 17.1579 100.777 17.1214C100.777 17.0776 100.836 17.136 100.923 17.2454C101.004 17.3621 101.164 17.5007 101.288 17.5591C101.412 17.6174 101.595 17.7414 101.704 17.8289C101.814 17.9238 102.033 18.1134 102.186 18.252C102.39 18.4344 102.478 18.5729 102.485 18.7261C102.492 18.8793 102.529 18.9376 102.602 18.9231C102.66 18.9158 102.77 18.9595 102.843 19.0325C102.915 19.1054 102.974 19.2075 102.967 19.2513C102.967 19.3024 103.025 19.4045 103.098 19.4774C103.164 19.5504 103.237 19.6598 103.251 19.7181C103.273 19.7765 103.288 19.9151 103.288 20.0245C103.295 20.1777 103.339 20.236 103.463 20.2579C103.55 20.2798 103.623 20.3235 103.623 20.3673C103.623 20.4038 103.667 20.4402 103.718 20.4402C103.762 20.4402 103.879 20.5351 103.974 20.6445C104.061 20.7539 104.134 20.9144 104.134 21.0019C104.134 21.0967 104.178 21.1842 104.229 21.1988C104.273 21.2134 104.426 21.4249 104.557 21.6729C104.681 21.9137 104.776 22.1179 104.754 22.1179C104.732 22.1179 104.762 22.1689 104.813 22.2346C104.856 22.3002 105.01 22.4607 105.141 22.5993C105.265 22.7379 105.375 22.8911 105.375 22.9348C105.375 22.9859 105.44 23.0734 105.52 23.1172C105.601 23.1682 105.652 23.2412 105.63 23.285C105.608 23.3214 105.674 23.4454 105.769 23.5548C105.871 23.6715 106.068 23.9852 106.214 24.2697C106.36 24.5468 106.542 24.8751 106.615 24.9991C106.688 25.1158 106.776 25.3346 106.819 25.4732C106.863 25.6118 106.951 25.7795 107.016 25.8379C107.082 25.8963 107.111 26.0057 107.089 26.0713C107.067 26.1588 107.089 26.2026 107.162 26.2026C107.228 26.2026 107.257 26.2464 107.235 26.312C107.213 26.3704 107.221 26.4068 107.257 26.385C107.286 26.3704 107.367 26.4068 107.44 26.4798C107.513 26.5454 107.578 26.7132 107.586 26.8518C107.593 27.0341 107.644 27.1144 107.768 27.1581C107.875 27.2019 107.928 27.2846 107.928 27.4061C107.928 27.5083 107.958 27.6031 108.001 27.625C108.045 27.6468 108.067 27.7198 108.06 27.7854C108.053 27.8584 108.104 28.0116 108.184 28.1356C108.257 28.2523 108.468 28.4857 108.636 28.6461C108.833 28.8285 108.957 28.9963 108.95 29.0984C108.95 29.1932 108.979 29.2807 109.023 29.3026C109.067 29.3245 109.081 29.3683 109.06 29.412C109.038 29.4485 109.052 29.5506 109.096 29.6309C109.14 29.7111 109.198 29.7621 109.242 29.7403C109.286 29.7184 109.315 29.7549 109.315 29.8132C109.315 29.8716 109.483 30.0758 109.687 30.2654C109.891 30.4624 110.118 30.6958 110.191 30.7979C110.271 30.9 110.344 31.0605 110.358 31.1626C110.373 31.2647 110.417 31.3523 110.453 31.3669C110.49 31.3742 110.504 31.4763 110.49 31.5857C110.475 31.7389 110.504 31.7899 110.636 31.8337C110.782 31.8774 110.803 31.9139 110.76 32.0671C110.723 32.1911 110.738 32.2859 110.796 32.3443C110.855 32.3953 110.884 32.5266 110.869 32.636C110.855 32.7527 110.876 32.8403 110.92 32.8403C110.964 32.8403 111.139 33.1466 111.322 33.5113C111.504 33.8833 111.65 34.248 111.65 34.3137C111.65 34.3866 111.686 34.445 111.737 34.445C111.781 34.445 111.796 34.4669 111.774 34.496C111.745 34.5325 111.759 34.5909 111.796 34.6273C111.84 34.6638 111.883 34.7951 111.898 34.9191C111.905 35.0431 112.015 35.3349 112.124 35.5756C112.241 35.8163 112.358 36.0205 112.394 36.0278C112.423 36.0424 112.453 36.0862 112.453 36.1226C112.453 36.1591 112.423 36.181 112.38 36.1591C112.336 36.1372 112.307 36.1445 112.307 36.1737C112.299 36.2102 112.365 36.3196 112.453 36.429C112.533 36.5457 112.584 36.6478 112.562 36.6697C112.54 36.6916 112.591 36.7718 112.671 36.852C112.752 36.9323 112.803 37.049 112.781 37.1073C112.759 37.1657 112.781 37.3043 112.825 37.4137C112.868 37.5304 112.941 37.6836 112.978 37.7638C113.027 37.8611 113.024 37.9632 112.971 38.0702C112.912 38.1942 112.912 38.2525 112.978 38.289C113.029 38.3255 113.146 38.5297 113.241 38.7485C113.335 38.9673 113.394 39.2081 113.372 39.2737C113.35 39.3466 113.379 39.4488 113.438 39.4925C113.503 39.5436 113.554 39.6311 113.547 39.6749C113.547 39.7259 113.576 39.7697 113.62 39.7697C113.664 39.7697 113.693 39.8208 113.693 39.8791C113.693 39.9375 113.671 39.9885 113.642 39.9885C113.605 39.9885 113.591 40.0979 113.598 40.2219C113.605 40.3532 113.613 40.5064 113.613 40.5502C113.62 40.6012 113.649 40.6304 113.693 40.6085C113.737 40.5866 113.781 40.6231 113.803 40.6815C113.824 40.7398 113.839 40.8128 113.846 40.8419C113.854 40.8784 113.883 40.9586 113.919 41.0243C113.956 41.0972 114.014 41.3088 114.051 41.4984C114.094 41.7391 114.087 41.885 114.029 41.9725C113.963 42.0674 113.978 42.1257 114.065 42.2278C114.131 42.3008 114.211 42.505 114.233 42.6874C114.262 42.8697 114.299 43.2125 114.321 43.4532C114.342 43.694 114.357 44.0149 114.357 44.1608C114.35 44.365 114.379 44.438 114.459 44.438C114.518 44.438 114.569 44.5036 114.569 44.5838C114.569 44.6641 114.598 44.7443 114.642 44.7662C114.685 44.7881 114.7 44.9194 114.678 45.0579C114.656 45.1965 114.671 45.357 114.707 45.4008C114.744 45.4518 114.795 45.5904 114.817 45.7144C114.846 45.8384 114.882 46.0427 114.897 46.1667C114.919 46.298 114.963 46.473 115.006 46.5532C115.05 46.6335 115.079 46.8377 115.079 47.0055C115.079 47.1805 115.043 47.3629 114.992 47.4067C114.912 47.4869 114.926 47.5161 115.036 47.589C115.152 47.6693 115.16 47.7422 115.123 48.1215C115.094 48.3622 115.072 48.6102 115.072 48.6686C115.065 48.7269 115.079 48.8582 115.101 48.9603C115.123 49.0624 115.182 49.3907 115.225 49.6897C115.262 49.9888 115.306 50.514 115.306 50.8568C115.306 51.1996 115.306 51.6373 115.306 51.8415C115.298 52.0384 115.32 52.2864 115.342 52.3886C115.364 52.4907 115.415 52.7314 115.452 52.9356C115.488 53.1326 115.539 53.5921 115.554 53.9568C115.576 54.3215 115.598 55.0363 115.605 55.5615C115.612 56.0867 115.59 56.5608 115.554 56.6192C115.517 56.6775 115.481 56.9109 115.466 57.1297C115.452 57.3486 115.415 57.5674 115.379 57.6039C115.349 57.6403 115.298 57.8592 115.276 58.078C115.255 58.2968 115.262 58.5302 115.298 58.5886C115.335 58.6542 115.32 58.7928 115.255 58.9533C115.167 59.1502 115.138 59.5879 115.131 60.9081C115.116 62.3305 115.101 62.6149 115.006 62.6733C114.934 62.7244 114.89 62.8921 114.875 63.2349C114.868 63.5048 114.824 63.9206 114.788 64.1467C114.737 64.4166 114.656 64.6281 114.554 64.7302C114.459 64.8251 114.386 64.9709 114.386 65.0658C114.386 65.1533 114.423 65.2554 114.467 65.2846C114.51 65.3138 114.569 65.4086 114.591 65.4961C114.627 65.6201 114.612 65.6639 114.532 65.6639C114.459 65.6639 114.423 65.7368 114.415 65.8608C114.415 65.9775 114.401 66.0213 114.379 65.9702C114.364 65.9265 114.321 65.8827 114.277 65.8827C114.233 65.8827 114.204 65.9192 114.204 65.9557C114.204 65.9921 114.255 66.0797 114.313 66.138C114.408 66.2328 114.408 66.2693 114.313 66.4298C114.255 66.5319 114.204 66.7069 114.204 66.8309C114.204 66.9549 114.189 67.1008 114.167 67.1592C114.143 67.2321 114.09 67.2491 114.007 67.2102C113.897 67.1665 113.89 67.1884 113.934 67.4145C113.97 67.6041 113.934 67.8157 113.795 68.2168C113.693 68.5159 113.576 68.8223 113.54 68.8879C113.503 68.9608 113.489 69.0557 113.511 69.0921C113.533 69.1286 113.496 69.2599 113.438 69.3839C113.379 69.5079 113.314 69.7267 113.299 69.8726C113.284 70.0258 113.204 70.3467 113.124 70.5874C113.044 70.8281 112.993 71.047 113.007 71.0761C113.022 71.1126 113.007 71.1345 112.963 71.1345C112.92 71.1345 112.905 71.2001 112.927 71.2804C112.949 71.3606 112.934 71.4263 112.89 71.4263C112.847 71.4263 112.839 71.47 112.883 71.5503C112.927 71.6305 112.927 71.8056 112.89 71.9733C112.861 72.1338 112.847 72.3089 112.861 72.3526C112.876 72.4037 112.861 72.462 112.817 72.4839C112.774 72.5058 112.744 72.5714 112.744 72.6298C112.744 72.6881 112.679 72.8121 112.599 72.8997C112.496 73.0237 112.474 73.1258 112.504 73.2863C112.533 73.4249 112.511 73.5561 112.445 73.6364C112.387 73.7093 112.299 73.8114 112.256 73.8698C112.204 73.9281 112.161 73.9938 112.161 74.0157C112.161 74.0376 112.212 74.0376 112.27 74.0157C112.343 73.9938 112.38 74.023 112.38 74.1032C112.38 74.1761 112.35 74.2856 112.314 74.3439C112.277 74.4023 112.212 74.4314 112.168 74.395C112.117 74.3658 112.102 74.3804 112.132 74.4314C112.153 74.4825 112.124 74.5773 112.059 74.6357C111.993 74.7013 111.978 74.7743 112.022 74.818C112.066 74.8618 112 74.9858 111.854 75.1536C111.716 75.2994 111.621 75.4745 111.635 75.5547C111.65 75.6277 111.621 75.7882 111.562 75.8976C111.511 76.007 111.446 76.1018 111.416 76.0945C111.38 76.0945 111.336 76.2112 111.307 76.3498C111.263 76.5467 111.219 76.5978 111.139 76.5613C111.052 76.5249 111.037 76.554 111.081 76.6926C111.117 76.802 111.081 76.9771 110.986 77.1886C110.906 77.371 110.847 77.5752 110.847 77.6409C110.847 77.7138 110.818 77.7722 110.774 77.7722C110.73 77.7722 110.716 77.8159 110.738 77.8597C110.76 77.9107 110.709 78.0347 110.628 78.1369C110.548 78.239 110.461 78.3776 110.446 78.4432C110.424 78.5162 110.358 78.5745 110.3 78.5745C110.227 78.5745 110.205 78.6158 110.234 78.6985C110.256 78.7714 110.242 78.8517 110.198 78.8809C110.154 78.9173 110.139 78.9976 110.161 79.0632C110.191 79.1507 110.132 79.2602 110.015 79.3769C109.906 79.479 109.767 79.6759 109.702 79.8145C109.636 79.9531 109.505 80.1646 109.41 80.2886C109.315 80.4126 109.257 80.522 109.278 80.5439C109.3 80.5658 109.235 80.6606 109.132 80.7628C109.03 80.8649 108.95 80.9889 108.95 81.0326C108.95 81.0837 108.848 81.3171 108.717 81.5432C108.585 81.7766 108.425 82.01 108.352 82.0538C108.279 82.1049 108.22 82.1924 108.22 82.2362C108.228 82.2872 108.184 82.3675 108.133 82.4185C108.082 82.4623 108.031 82.5863 108.023 82.6884C108.009 82.7905 107.95 82.9291 107.892 82.9875C107.834 83.0458 107.783 83.1479 107.783 83.2063C107.783 83.2646 107.717 83.3595 107.644 83.4032C107.571 83.4543 107.498 83.5637 107.483 83.6439C107.469 83.7242 107.359 83.8774 107.235 83.9941C107.111 84.1035 106.973 84.191 106.929 84.191C106.87 84.191 106.849 84.2566 106.863 84.3515C106.885 84.4463 106.856 84.5995 106.812 84.7016C106.761 84.8037 106.688 84.9277 106.637 84.9715C106.586 85.0225 106.542 85.0882 106.542 85.1173C106.542 85.1538 106.476 85.2559 106.396 85.3581C106.316 85.4602 106.243 85.6061 106.243 85.6863C106.243 85.7665 106.163 85.9197 106.068 86.0291C105.966 86.1458 105.842 86.2188 105.798 86.1969C105.739 86.1677 105.681 86.2334 105.637 86.3574C105.601 86.4668 105.564 86.5178 105.55 86.4668C105.535 86.423 105.491 86.3792 105.448 86.3792C105.404 86.3792 105.389 86.4449 105.411 86.5251C105.433 86.6054 105.404 86.7221 105.36 86.795C105.287 86.8898 105.287 86.919 105.36 86.9409C105.404 86.9482 105.448 87.0284 105.448 87.1087C105.448 87.1889 105.36 87.3712 105.25 87.5098C105.134 87.6557 105.068 87.7943 105.097 87.8235C105.126 87.8527 105.075 88.0715 104.995 88.3122C104.908 88.5529 104.798 88.7936 104.74 88.8374C104.689 88.8884 104.645 88.9833 104.645 89.0416C104.645 89.1 104.572 89.2021 104.484 89.2604C104.389 89.3188 104.338 89.3698 104.375 89.3698C104.404 89.3698 104.389 89.4792 104.346 89.6032C104.302 89.7345 104.214 89.9607 104.156 90.0993C104.098 90.2378 104.01 90.4494 103.952 90.5734C103.901 90.6974 103.791 90.9381 103.711 91.1204C103.631 91.3028 103.543 91.5216 103.521 91.6091C103.499 91.704 103.426 91.7769 103.368 91.7769C103.31 91.7769 103.273 91.8134 103.295 91.8498C103.317 91.8863 103.302 91.9228 103.258 91.9228C103.215 91.9228 103.185 91.9884 103.185 92.0687C103.185 92.1489 103.12 92.2875 103.04 92.375C102.959 92.4698 102.908 92.5865 102.93 92.6303C102.952 92.6814 102.945 92.7324 102.915 92.7397C102.879 92.7543 102.791 92.8856 102.711 93.0315C102.631 93.1847 102.543 93.2868 102.514 93.2722C102.478 93.2503 102.456 93.2722 102.456 93.3087C102.456 93.3451 102.39 93.3962 102.31 93.4181C102.23 93.44 102.178 93.491 102.2 93.5275C102.222 93.564 102.186 93.7171 102.127 93.8557C102.069 93.9943 101.967 94.111 101.909 94.111C101.85 94.111 101.741 94.2058 101.675 94.3298C101.602 94.4466 101.5 94.5487 101.456 94.5487C101.405 94.5487 101.347 94.607 101.325 94.6727C101.31 94.7456 101.23 94.8915 101.142 95.0009C101.062 95.1176 100.931 95.2051 100.85 95.2051C100.763 95.2051 100.705 95.2562 100.705 95.3291C100.705 95.4021 100.653 95.5334 100.58 95.6209C100.507 95.7084 100.369 95.8033 100.267 95.8251C100.165 95.847 100.07 95.8835 100.048 95.9054C100.026 95.9273 100.011 95.971 100.011 96.0075C100.011 96.0367 99.9237 96.1607 99.8143 96.2774C99.7048 96.3868 99.5662 96.5254 99.5078 96.5692C99.4422 96.6202 99.3619 96.664 99.3181 96.664C99.2743 96.664 99.2305 96.715 99.2086 96.7734C99.1868 96.8317 99.1868 96.9047 99.2086 96.9339C99.2305 96.9703 99.143 97.1016 99.0262 97.2256C98.9022 97.3569 98.7781 97.4663 98.7344 97.4663C98.6906 97.4663 98.676 97.5174 98.6979 97.5757C98.7198 97.6341 98.6833 97.7289 98.6249 97.7727C98.5592 97.8237 98.5081 97.9113 98.5154 97.955C98.5154 98.0061 98.4206 98.0863 98.2965 98.1228C98.1506 98.1739 98.063 98.2614 98.0266 98.3927C98.0047 98.5094 97.9317 98.6334 97.866 98.6771C97.8003 98.7209 97.669 98.8814 97.5741 99.0419C97.472 99.195 97.3698 99.3409 97.3479 99.3628C97.326 99.3847 97.202 99.5452 97.0706 99.7275C96.9393 99.9099 96.8153 100.048 96.8007 100.034C96.7788 100.027 96.6985 100.063 96.6182 100.107C96.538 100.158 96.4723 100.267 96.4723 100.348C96.4796 100.479 96.465 100.479 96.3628 100.384C96.2826 100.304 96.2461 100.304 96.2534 100.362C96.2534 100.413 96.2023 100.457 96.1439 100.457C96.0856 100.457 96.0053 100.544 95.9688 100.654C95.9323 100.771 95.801 100.975 95.6769 101.113C95.5529 101.252 95.3705 101.456 95.2683 101.566C95.1662 101.682 95.0859 101.821 95.0859 101.879C95.0859 101.938 95.0567 101.974 95.0129 101.952C94.9691 101.93 94.9399 101.967 94.9399 102.025C94.9399 102.084 94.9108 102.135 94.867 102.135C94.8232 102.135 94.7138 102.208 94.6116 102.295C94.5167 102.39 94.4365 102.507 94.4292 102.55C94.4292 102.601 94.3781 102.667 94.3124 102.696C94.2467 102.733 94.1446 102.842 94.0935 102.952C94.0351 103.068 93.787 103.36 93.5462 103.608C93.2981 103.863 92.9917 104.206 92.8676 104.374C92.7436 104.542 92.6195 104.666 92.5903 104.651C92.5539 104.629 92.5101 104.68 92.4809 104.76C92.4444 104.848 92.3641 104.928 92.2985 104.943C92.2255 104.965 92.1671 105.03 92.1671 105.089C92.1671 105.147 92.0941 105.264 92.0066 105.344C91.9117 105.424 91.8169 105.468 91.7877 105.453C91.7512 105.432 91.7293 105.468 91.7293 105.526C91.7293 105.585 91.6126 105.723 91.4666 105.833C91.328 105.949 91.1674 106.073 91.1237 106.117C91.0726 106.161 91.0069 106.183 90.9631 106.168C90.9193 106.154 90.7734 106.241 90.6348 106.365C90.4961 106.489 90.2918 106.628 90.1751 106.679C90.0656 106.73 89.9781 106.788 89.9781 106.817C89.9781 106.854 89.927 106.876 89.8686 106.876C89.8102 106.876 89.7591 106.905 89.7591 106.949C89.7591 106.992 89.3359 107.299 88.8105 107.642C88.2852 107.984 87.8109 108.262 87.7525 108.262C87.6941 108.262 87.4898 108.313 87.3001 108.378C87.1031 108.444 86.855 108.568 86.7309 108.656C86.6069 108.736 86.5047 108.831 86.4974 108.86C86.4828 108.896 86.4317 108.918 86.3879 108.918C86.3369 108.911 86.2274 108.984 86.1472 109.064C86.0669 109.152 85.8918 109.254 85.7604 109.305C85.6291 109.356 85.5269 109.414 85.5269 109.443C85.5269 109.48 85.4175 109.553 85.2934 109.618C85.1402 109.699 85.0015 109.72 84.9067 109.684C84.8264 109.655 84.7024 109.626 84.6367 109.618C84.5491 109.611 84.5199 109.655 84.5418 109.772C84.5637 109.866 84.5564 109.939 84.5272 109.939C84.4907 109.947 84.4178 109.896 84.3594 109.83C84.301 109.764 84.2354 109.713 84.2135 109.713C84.1916 109.72 84.1113 109.837 84.0311 109.983C83.9435 110.129 83.71 110.355 83.4619 110.508C83.2284 110.654 83.0387 110.8 83.046 110.829C83.046 110.866 82.9876 110.902 82.9219 110.917C82.8489 110.939 82.6519 111.07 82.4841 111.208C82.2798 111.384 82.1265 111.456 82.0463 111.427C81.9733 111.405 81.8274 111.405 81.7179 111.427C81.5647 111.456 81.5209 111.508 81.5501 111.595C81.572 111.668 81.5355 111.785 81.4625 111.858C81.3896 111.923 81.2801 111.989 81.2217 112.004C81.1634 112.018 81.032 112.076 80.9299 112.142C80.8277 112.2 80.5358 112.376 80.2731 112.529C80.0104 112.682 79.7186 112.872 79.6164 112.944C79.5143 113.017 79.3829 113.076 79.3245 113.076C79.2662 113.076 79.1494 113.134 79.0691 113.207C78.9305 113.338 78.9232 113.338 78.6532 113.039L78.697 113.2C78.7262 113.302 78.7116 113.353 78.6678 113.331C78.624 113.309 78.5802 113.346 78.5584 113.404C78.534 113.477 78.4805 113.496 78.3978 113.462C78.2957 113.419 78.2811 113.426 78.3394 113.513C78.3905 113.594 78.3905 113.608 78.3248 113.564C78.2738 113.535 78.1351 113.564 78.0111 113.623C77.8141 113.718 77.7849 113.718 77.7557 113.623C77.7338 113.564 77.6681 113.528 77.6097 113.55C77.5514 113.572 77.5149 113.616 77.5368 113.659C77.5587 113.703 77.5441 113.732 77.5003 113.732C77.4565 113.732 77.4419 113.761 77.4638 113.805C77.4857 113.849 77.4492 113.922 77.3836 113.966C77.2887 114.046 77.2595 114.039 77.2084 113.951C77.1573 113.856 77.1209 113.856 76.9749 113.936C76.8801 113.995 76.7195 114.039 76.6174 114.046C76.5079 114.053 76.4349 114.09 76.4568 114.133C76.4714 114.177 76.4277 114.265 76.3547 114.338C76.2598 114.432 76.1066 114.469 75.822 114.469C75.5958 114.469 75.3988 114.505 75.3696 114.556C75.3404 114.608 75.2456 114.651 75.1653 114.659C75.085 114.673 75.0193 114.659 75.0193 114.622C75.0193 114.593 74.8807 114.578 74.7056 114.578C74.5377 114.586 74.348 114.593 74.2897 114.6C74.2094 114.615 74.224 114.637 74.4721 114.746H74.3261C74.2459 114.753 74.1364 114.717 74.0926 114.666C74.0124 114.586 74.0051 114.6 74.0416 114.717C74.0707 114.834 74.027 114.892 73.8372 114.987C73.7059 115.052 73.4359 115.155 73.2316 115.213C72.947 115.3 72.8449 115.308 72.7792 115.242C72.7135 115.176 72.6551 115.198 72.5238 115.352C72.4289 115.468 72.2903 115.563 72.21 115.578C72.1298 115.592 71.9692 115.629 71.8452 115.658C71.7211 115.687 71.5752 115.731 71.5168 115.745C71.4584 115.767 71.4001 115.782 71.3928 115.782C71.3782 115.775 71.2395 115.826 71.079 115.884C70.9185 115.942 70.7871 115.979 70.7871 115.957C70.7871 115.935 70.6777 115.95 70.5536 115.993C70.4223 116.03 70.1158 116.088 69.875 116.11C69.6342 116.139 69.3861 116.132 69.3277 116.096C69.2694 116.059 69.1599 116.023 69.0942 116.015C69.0213 116.001 68.8753 116.074 68.7659 116.176C68.6491 116.285 68.474 116.365 68.3645 116.358C68.2478 116.358 68.1456 116.387 68.1238 116.431C68.1019 116.475 68.0654 116.489 68.0362 116.475C67.9997 116.453 67.9267 116.468 67.8684 116.504C67.8027 116.54 67.7224 116.541 67.6713 116.497C67.6057 116.453 67.54 116.46 67.467 116.519C67.3722 116.599 67.3503 116.592 67.3576 116.504C67.3649 116.409 67.3503 116.409 67.2408 116.504C67.1679 116.562 67.0657 116.621 67 116.635C66.9343 116.65 66.8176 116.657 66.7373 116.657C66.6571 116.657 66.4746 116.694 66.336 116.737C66.1974 116.788 66.0149 116.832 65.9347 116.84C65.8544 116.854 65.6939 116.883 65.5698 116.905C65.4458 116.934 65.2779 116.956 65.1904 116.964C65.0955 116.971 65.0226 117 65.0226 117.029C65.0226 117.066 64.9277 117.073 64.8036 117.051C64.6796 117.029 64.5847 117.044 64.5847 117.088C64.5847 117.131 64.4607 117.146 64.2783 117.124C64.1031 117.102 63.8696 117.051 63.7456 117C63.5705 116.934 63.4391 116.949 63.0524 117.073C62.7897 117.153 62.4613 117.241 62.3227 117.263C62.1841 117.292 62.0527 117.292 62.0308 117.27C62.0089 117.248 61.6368 117.226 61.1917 117.226C60.7466 117.233 60.1409 117.182 59.8417 117.124C59.5426 117.066 59.1631 117.007 59.0026 116.993C58.8421 116.985 58.6669 117.007 58.6159 117.051C58.5502 117.102 58.521 117.095 58.5283 117.029C58.5283 116.964 58.4699 116.956 58.2948 117.007C58.1634 117.044 58.0248 117.051 57.9956 117.029C57.9591 117 57.7621 116.971 57.5578 116.964C57.3462 116.956 57.0908 116.942 56.9813 116.942C56.8646 116.942 56.726 116.891 56.6676 116.832C56.6092 116.774 56.5143 116.723 56.4706 116.723C56.4195 116.723 56.3319 116.686 56.2881 116.635C56.2152 116.562 56.1787 116.562 56.1057 116.628C56.0546 116.679 55.843 116.723 55.6314 116.723C55.4198 116.723 55.2447 116.694 55.2447 116.65C55.2447 116.606 55.1863 116.584 55.1206 116.592C55.0477 116.606 54.8798 116.562 54.7485 116.504C54.6244 116.446 54.4931 116.416 54.4566 116.446C54.4274 116.475 54.369 116.446 54.318 116.373C54.245 116.263 54.2085 116.263 54.0626 116.344C53.9677 116.402 53.8802 116.417 53.8583 116.38C53.8364 116.351 53.3767 116.314 52.8367 116.307C52.2238 116.3 51.8443 116.263 51.837 116.212C51.8224 116.176 51.7859 116.154 51.7422 116.176C51.7057 116.198 51.5451 116.125 51.3992 116.023C51.246 115.92 51.0781 115.855 51.0344 115.877C50.9833 115.899 50.9395 115.891 50.9395 115.848C50.9395 115.804 50.8957 115.796 50.8519 115.826C50.8008 115.855 50.6768 115.884 50.5746 115.891C50.4725 115.899 50.3266 115.862 50.2463 115.804C50.166 115.745 50.0858 115.716 50.0639 115.745C50.042 115.767 49.7793 115.775 49.4801 115.767C49.1809 115.76 48.8599 115.753 48.7723 115.745C48.6774 115.745 48.6045 115.724 48.6045 115.702C48.6045 115.68 48.4148 115.658 48.1813 115.643C47.955 115.629 47.7361 115.592 47.6924 115.549C47.6559 115.512 47.5464 115.483 47.4589 115.483C47.364 115.483 47.291 115.454 47.291 115.41C47.291 115.366 47.2618 115.352 47.2181 115.373C47.1816 115.395 47.0356 115.417 46.897 115.424C46.7073 115.439 46.5978 115.395 46.4446 115.242C46.3278 115.133 46.1892 115.038 46.1454 115.045C46.0943 115.045 46.0433 115.074 46.036 115.118C46.0214 115.155 45.9192 115.191 45.7952 115.191C45.6711 115.198 45.3792 115.162 45.1384 115.111C44.8976 115.067 44.6495 114.987 44.5912 114.928C44.5255 114.87 44.2628 114.826 43.9344 114.812C43.6353 114.797 43.3726 114.768 43.3507 114.739C43.3288 114.71 43.1756 114.673 43.0004 114.666C42.7815 114.651 42.694 114.615 42.694 114.535C42.694 114.447 42.6794 114.447 42.6064 114.52C42.5553 114.564 42.4459 114.608 42.351 114.608C42.2561 114.608 42.1832 114.578 42.1832 114.535C42.1832 114.491 42.154 114.476 42.1102 114.498C42.0737 114.52 41.9935 114.491 41.9497 114.432C41.8913 114.374 41.7746 114.352 41.6724 114.367C41.5702 114.389 41.4681 114.367 41.4389 114.323C41.4024 114.279 41.3003 114.243 41.1981 114.243C41.0959 114.243 40.9646 114.192 40.9062 114.133C40.8478 114.075 40.7457 114.024 40.6873 114.024C40.6289 114.024 40.5779 113.973 40.5779 113.915C40.5779 113.856 40.5487 113.805 40.5049 113.805C40.4684 113.805 40.4538 113.849 40.483 113.893C40.5195 113.966 40.5122 113.966 40.4246 113.893C40.3662 113.849 40.2714 113.82 40.213 113.842C40.1546 113.864 39.943 113.805 39.7387 113.703C39.5417 113.608 39.2936 113.506 39.1914 113.484C39.0893 113.455 38.9652 113.36 38.9215 113.258C38.8558 113.127 38.7974 113.098 38.739 113.149C38.688 113.185 38.5493 113.2 38.4253 113.178C38.3012 113.156 38.1261 113.09 38.0239 113.039C37.9218 112.988 37.7248 112.901 37.5861 112.85C37.4475 112.799 37.2869 112.711 37.2432 112.66C37.1921 112.609 37.0826 112.565 37.0024 112.565C36.9221 112.565 36.8418 112.521 36.8199 112.47C36.8053 112.427 36.6813 112.361 36.55 112.332C36.4186 112.303 36.2362 112.222 36.1486 112.149C36.0611 112.076 35.9881 111.974 35.9808 111.923C35.9808 111.88 35.9151 111.821 35.8349 111.799C35.7546 111.777 35.6451 111.792 35.6014 111.836C35.5357 111.887 35.4627 111.865 35.3606 111.763C35.2803 111.675 35.1708 111.61 35.1271 111.617C35.076 111.617 34.879 111.544 34.6892 111.456C34.4922 111.376 34.2441 111.223 34.1201 111.136C33.996 111.041 33.8793 110.99 33.8501 111.019C33.8209 111.048 33.7844 110.997 33.7625 110.902C33.726 110.778 33.6677 110.742 33.4998 110.742C33.3758 110.742 33.1715 110.683 33.0474 110.61C32.9161 110.545 32.792 110.457 32.7701 110.413C32.7556 110.37 32.6972 110.297 32.6461 110.246C32.595 110.202 32.5075 110.173 32.4637 110.202C32.4126 110.224 32.1572 110.173 31.8945 110.085C31.6318 109.998 31.2743 109.859 31.0919 109.772C30.8656 109.662 30.7562 109.56 30.7489 109.443C30.7343 109.356 30.7124 109.283 30.6905 109.283C30.6686 109.283 30.5738 109.312 30.4716 109.356C30.3111 109.421 30.2673 109.4 30.1433 109.224C30.0557 109.115 29.99 108.969 29.9973 108.896C29.9973 108.816 29.9608 108.787 29.8879 108.809C29.8295 108.831 29.7784 108.801 29.7784 108.75C29.7784 108.692 29.7541 108.699 29.7054 108.772C29.6471 108.867 29.6179 108.867 29.4573 108.772C29.3552 108.714 29.2895 108.641 29.3041 108.604C29.326 108.575 29.2968 108.553 29.253 108.553C29.202 108.553 29.0341 108.444 28.8882 108.298C28.7349 108.16 28.6109 108.065 28.6109 108.094C28.6109 108.13 28.4504 107.977 28.2461 107.766C27.9542 107.459 27.8374 107.386 27.6477 107.386C27.5091 107.386 27.3266 107.328 27.2245 107.24C27.1223 107.16 26.9837 107.073 26.918 107.058C26.845 107.036 26.7867 106.992 26.7867 106.949C26.7867 106.905 26.7429 106.876 26.6991 106.876C26.648 106.876 26.5532 106.81 26.4948 106.73C26.4364 106.65 26.3416 106.584 26.2978 106.584C26.2394 106.584 26.2175 106.526 26.2394 106.438C26.2613 106.358 26.2467 106.278 26.2029 106.256C26.1664 106.234 26.1518 106.183 26.1883 106.132C26.2248 106.073 26.1737 106.059 26.0059 106.095C25.86 106.124 25.7432 106.117 25.714 106.066C25.6775 106.022 25.7067 105.949 25.7651 105.913C25.8527 105.855 25.8527 105.847 25.7505 105.884C25.6629 105.913 25.5316 105.84 25.3638 105.672C25.2251 105.534 25.1449 105.402 25.1813 105.38C25.2251 105.359 25.1813 105.264 25.0938 105.162C24.9989 105.06 24.8968 104.979 24.853 104.979C24.8165 104.979 24.6997 104.863 24.5976 104.717C24.4735 104.542 24.4006 104.491 24.3714 104.556C24.3349 104.629 24.2692 104.622 24.0941 104.505C23.9701 104.425 23.846 104.301 23.8314 104.228C23.8095 104.162 23.7293 104.104 23.649 104.104C23.5687 104.104 23.5031 104.075 23.5031 104.031C23.5031 103.987 23.4447 103.958 23.379 103.958C23.3133 103.958 23.2841 103.944 23.306 103.922C23.3352 103.9 23.3133 103.841 23.2695 103.79C23.2185 103.739 23.1163 103.674 23.0506 103.644C22.9558 103.608 22.9339 103.55 22.9704 103.426C23.0142 103.28 22.9996 103.272 22.839 103.316C22.715 103.345 22.5836 103.309 22.3939 103.185C22.2407 103.09 22.1312 102.988 22.1531 102.952C22.175 102.922 22.1312 102.842 22.0656 102.769C21.9926 102.696 21.8831 102.638 21.8248 102.638C21.7664 102.638 21.5767 102.536 21.4161 102.404C21.2483 102.273 21.0878 102.105 21.0513 102.032C21.0148 101.952 20.8908 101.836 20.7667 101.77C20.6427 101.704 20.4383 101.544 20.3143 101.42C20.183 101.288 20.0954 101.186 20.1319 101.186C20.1611 101.186 20.0516 101.055 19.8911 100.895C19.7305 100.727 19.5992 100.523 19.5992 100.442C19.5992 100.333 19.5481 100.282 19.4168 100.275C19.3146 100.267 19.2198 100.209 19.1979 100.158C19.1833 100.1 19.0519 99.9245 18.906 99.764C18.7673 99.6108 18.512 99.3263 18.3441 99.144C18.1617 98.947 18.0304 98.7428 18.0304 98.6334C18.0231 98.5167 17.899 98.3343 17.6655 98.1009C17.4612 97.9113 17.3007 97.7143 17.3007 97.6633C17.3007 97.6195 17.2058 97.5174 17.0818 97.4444C16.965 97.3788 16.8264 97.2402 16.7899 97.1381C16.7534 97.036 16.7315 96.9339 16.7534 96.8974C16.768 96.8682 16.7242 96.7734 16.6439 96.6786C16.5637 96.591 16.4615 96.5327 16.425 96.5546C16.3886 96.5764 16.2572 96.4816 16.1332 96.3503C16.0164 96.2263 15.8267 95.9783 15.7172 95.8033C15.6078 95.6355 15.491 95.4969 15.4618 95.4969C15.4254 95.4969 15.4035 95.4021 15.4035 95.2781C15.4035 95.1322 15.3743 95.0714 15.3159 95.0957C15.2575 95.1176 15.1773 95.0301 15.1116 94.8769C15.0532 94.7383 14.9802 94.6216 14.9511 94.6216C14.9146 94.6216 14.8635 94.5268 14.8197 94.4028C14.7686 94.2569 14.6884 94.1767 14.5862 94.1621C14.4914 94.1548 14.3746 94.06 14.3089 93.936C14.2506 93.8193 14.1265 93.6515 14.0389 93.5567C13.9441 93.4618 13.893 93.3378 13.9149 93.2868C13.9368 93.243 13.9222 93.1263 13.8784 93.0315C13.8346 92.944 13.769 92.8856 13.7252 92.9075C13.6887 92.9294 13.55 92.8564 13.4333 92.7397C13.302 92.6303 13.1706 92.4042 13.1195 92.2218C13.0684 92.0468 12.9736 91.879 12.9079 91.8426C12.8349 91.8061 12.7766 91.7113 12.7766 91.631C12.7766 91.5508 12.7328 91.4851 12.689 91.4851C12.6379 91.4851 12.5066 91.3903 12.3971 91.2663C12.2804 91.1423 12.2293 91.0475 12.2877 91.0402C12.3606 91.0402 12.3606 91.0329 12.2877 91.0037C12.2366 90.9891 12.1928 90.8797 12.1928 90.7557C12.1928 90.6317 12.1782 90.4858 12.1563 90.4275C12.1344 90.3691 12.0907 90.3327 12.0469 90.3545C12.0104 90.3764 11.828 90.2378 11.6455 90.0409C11.4631 89.8512 11.3172 89.6762 11.3172 89.6397C11.3172 89.6105 11.2734 89.5449 11.2296 89.4938C11.1785 89.4501 11.091 89.3261 11.0326 89.224C10.9815 89.1218 10.9523 88.9978 10.9815 88.9468C11.0034 88.903 11.0034 88.8593 10.9742 88.8593C10.9377 88.8593 10.7918 88.7353 10.354 88.3122L10.5291 88.1809C10.624 88.1079 10.6532 88.0642 10.6094 88.0861C10.5583 88.1079 10.4999 88.0788 10.478 88.0204C10.4562 87.9621 10.4124 87.911 10.3686 87.911C10.3321 87.911 10.2372 87.8527 10.1643 87.7797C10.0913 87.7141 10.0037 87.5755 9.96726 87.4734C9.93077 87.3712 9.90888 87.2691 9.91618 87.2327C9.92348 87.2035 9.87969 87.1816 9.82132 87.1816C9.76294 87.1816 9.66079 87.0868 9.60241 86.9628C9.54403 86.8388 9.50755 86.7075 9.52944 86.671C9.55133 86.6345 9.53674 86.5981 9.49296 86.5981C9.45647 86.5981 9.43458 86.5616 9.45647 86.5251C9.47836 86.4886 9.46377 86.4522 9.41999 86.4522C9.3835 86.4522 9.34702 86.3719 9.34702 86.2698C9.34702 86.1604 9.31053 86.0948 9.25945 86.1167C9.20838 86.1312 9.10622 86.1094 9.04055 86.0802C8.96758 86.0437 8.86542 85.927 8.81434 85.8103C8.75597 85.7009 8.71948 85.4967 8.71948 85.3508C8.72678 85.1538 8.69759 85.0955 8.61732 85.1173C8.55895 85.1392 8.45679 85.0663 8.39842 84.9642C8.30356 84.8037 8.30356 84.7672 8.39842 84.6578C8.50057 84.5484 8.48598 84.5265 8.31085 84.4025C8.1941 84.3296 8.10654 84.1983 8.10654 84.118C8.10654 84.0305 8.04816 83.9576 7.9606 83.9357C7.87304 83.9138 7.81466 83.8409 7.81466 83.7533C7.81466 83.6731 7.76358 83.5929 7.70521 83.571C7.64683 83.5491 7.61035 83.4835 7.63224 83.4251C7.65413 83.3668 7.63954 83.3157 7.59576 83.3157C7.55197 83.3157 7.54468 83.2646 7.58116 83.199C7.62494 83.1042 7.60305 83.0969 7.4936 83.1406C7.36225 83.199 7.35496 83.1917 7.43522 83.0385C7.4863 82.9437 7.4936 82.8781 7.44982 82.8781C7.41333 82.8781 7.37685 82.7832 7.37685 82.6592C7.37685 82.5352 7.34766 82.4404 7.30388 82.4404C7.26739 82.4404 7.20172 82.4258 7.15794 82.4039C7.12146 82.3821 7.05578 82.3675 7.012 82.3675C6.97552 82.3675 6.91714 82.2945 6.88795 82.1997C6.86606 82.1122 6.84417 81.9517 6.85147 81.835C6.85877 81.7256 6.83687 81.638 6.79309 81.638C6.75661 81.638 6.64716 81.5286 6.55959 81.3973C6.47203 81.2733 6.39906 81.0837 6.39176 80.9816C6.38447 80.8795 6.3115 80.7263 6.22393 80.6315C6.13637 80.5439 6.07799 80.4199 6.09989 80.3616C6.12178 80.2959 6.09259 80.2522 6.02692 80.2522C5.96854 80.2522 5.89557 80.1792 5.86638 80.0844C5.8372 79.9969 5.8226 79.902 5.8299 79.8656C5.8372 79.8364 5.77882 79.6978 5.69855 79.5592C5.5891 79.3696 5.56721 79.2675 5.62559 79.1581C5.67666 79.0559 5.67666 78.9976 5.61099 78.9684C5.53802 78.9319 5.53802 78.91 5.61099 78.8371C5.66207 78.7933 5.69855 78.7131 5.69855 78.662C5.69855 78.6183 5.64748 78.5745 5.5891 78.5745C5.53073 78.5745 5.47965 78.6183 5.47965 78.662C5.47965 78.7131 5.43587 78.6912 5.37019 78.611C5.31182 78.5308 5.26074 78.3557 5.26074 78.2244C5.26074 78.0931 5.23155 78.0056 5.18777 78.0275C5.15129 78.0493 5.08561 78.0056 5.04913 77.9326C5.00535 77.8597 5.00535 77.7649 5.04913 77.6992C5.08561 77.6409 5.1148 77.546 5.1148 77.495C5.1148 77.4512 5.06372 77.422 5.00535 77.4439C4.93967 77.4658 4.89589 77.4366 4.89589 77.371C4.89589 77.3126 4.93967 77.2397 4.99075 77.2105C5.04913 77.1765 5.01751 77.1449 4.89589 77.1157C4.73536 77.0719 4.71347 77.0354 4.73536 76.802C4.74995 76.5686 4.72806 76.5322 4.58942 76.5322C4.45808 76.5322 4.44348 76.5176 4.53105 76.4665C4.60402 76.4227 4.61861 76.3717 4.57483 76.306C4.53834 76.2404 4.54564 76.1456 4.60402 76.058C4.65509 75.9778 4.67699 75.8538 4.6478 75.7809C4.62591 75.7152 4.56023 75.6569 4.51645 75.6569C4.45321 75.6569 4.45808 75.6812 4.53105 75.7298C4.62591 75.7954 4.62591 75.81 4.53105 75.8757C4.45078 75.9194 4.407 75.9122 4.37051 75.8392C4.33403 75.7809 4.32673 75.6933 4.34862 75.6569C4.37051 75.6204 4.34133 75.562 4.29025 75.5256C4.23917 75.4964 4.15161 75.3578 4.09323 75.2192C4.03486 75.0806 3.99837 74.8764 4.00567 74.7597C4.01296 74.6503 3.99107 74.5481 3.94729 74.5263C3.91081 74.5044 3.88892 74.4533 3.91081 74.4169C3.9327 74.3804 3.91811 74.3439 3.87432 74.3439C3.83784 74.3439 3.81595 74.2783 3.83784 74.198C3.85973 74.1178 3.84514 74.0376 3.80135 74.0157C3.76487 73.9938 3.74298 73.9281 3.76487 73.8698C3.78676 73.8114 3.75028 73.6874 3.6919 73.5926C3.62623 73.5051 3.57515 73.3154 3.57515 73.1768C3.56785 73.0383 3.60434 72.834 3.64812 72.7173C3.6992 72.586 3.70649 72.5058 3.65542 72.4839C3.61893 72.462 3.56056 72.4985 3.53137 72.5568C3.48029 72.6517 3.4584 72.6371 3.38543 72.4839C3.31976 72.3672 3.31976 72.287 3.36354 72.2651C3.40732 72.2432 3.43651 72.1921 3.43651 72.1557C3.43651 72.1192 3.37084 72.0681 3.29057 72.0463C3.17382 72.0171 3.13733 71.9296 3.09355 71.6232C3.07166 71.419 2.9914 71.1491 2.91843 71.0251C2.84546 70.9011 2.77249 70.6896 2.75789 70.551C2.7433 70.4124 2.69222 70.2008 2.64844 70.0768C2.59736 69.9528 2.52439 69.7924 2.48791 69.7121C2.44413 69.6319 2.39305 69.486 2.37845 69.3839C2.35656 69.2818 2.32008 69.0848 2.29819 68.9463C2.2763 68.8077 2.22522 68.6545 2.19603 68.618C2.16684 68.5815 2.10117 68.2971 2.05009 67.998C2.00631 67.699 1.92604 67.4291 1.88226 67.4072C1.83118 67.378 1.81659 67.327 1.84578 67.2978C1.87497 67.2613 1.83848 67.1665 1.75822 67.0862C1.64146 66.9768 1.62687 66.9258 1.69984 66.882C1.77281 66.8455 1.77281 66.8164 1.68525 66.758C1.61228 66.7094 1.60741 66.6851 1.67065 66.6851C1.71443 66.6851 1.75822 66.6194 1.75822 66.5392C1.75822 66.4589 1.70714 66.3787 1.64876 66.3568C1.5685 66.3277 1.5539 66.2839 1.61228 66.1745C1.65606 66.0942 1.68525 65.9921 1.68525 65.9557C1.68525 65.9192 1.65606 65.8827 1.61228 65.8827C1.57579 65.8827 1.5539 65.9192 1.57579 65.9557C1.59768 65.9921 1.58309 66.0286 1.53931 66.0286C1.50282 66.0286 1.44445 65.9411 1.42256 65.8244C1.39337 65.715 1.36418 65.5618 1.34959 65.4815C1.33499 65.4013 1.29851 64.9928 1.26932 64.5698C1.24013 64.1467 1.22554 63.4756 1.24013 63.0745C1.25473 62.6733 1.26202 62.1627 1.26932 61.9439C1.26932 61.7251 1.26932 61.1999 1.26202 60.7768C1.25473 60.3538 1.24743 59.8286 1.25473 59.6098C1.25473 59.3909 1.24743 58.9387 1.23284 58.6032C1.21824 58.1947 1.18176 57.9832 1.11609 57.9467C1.03582 57.9029 1.04312 57.8665 1.15257 57.7643C1.25473 57.6622 1.26202 57.6185 1.18905 57.582C1.13068 57.5455 1.0869 57.3121 1.05771 56.9474C1.04312 56.6265 1.01393 56.2982 0.992038 56.218C0.977444 56.1377 1.00663 55.9919 1.05771 55.8897C1.13068 55.7585 1.13798 55.6417 1.0796 55.4521C1.02852 55.2552 1.03582 55.1457 1.13068 54.9561C1.20365 54.8102 1.21824 54.7081 1.17446 54.6862C1.13798 54.6643 1.10149 54.5112 1.10879 54.3361C1.10879 54.1683 1.0869 53.7161 1.05771 53.3368C1.02852 52.9575 1.00663 52.3302 1.01393 51.9509C1.02123 51.5716 1.06501 51.1267 1.11609 50.9662C1.15987 50.8057 1.18905 50.3243 1.18176 49.8867C1.18176 49.4563 1.19635 49.0624 1.22554 49.0114C1.25473 48.9676 1.3277 48.7707 1.39337 48.5883C1.45174 48.3987 1.48093 48.2601 1.45174 48.2747C1.41526 48.2893 1.39337 48.2236 1.39337 48.1215C1.39337 48.0194 1.41526 47.9391 1.45174 47.9391C1.48093 47.9391 1.5466 47.8516 1.59039 47.7422C1.64146 47.6255 1.67065 47.4213 1.65606 47.2827C1.64146 47.1441 1.67795 46.9398 1.72903 46.8231C1.7874 46.7137 1.83118 46.6043 1.82389 46.5678C1.82389 46.5387 1.78011 46.473 1.73632 46.422C1.67065 46.349 1.67065 46.3125 1.74362 46.2761C1.7947 46.2469 1.81659 46.174 1.802 46.1156C1.78011 46.0573 1.70714 45.9843 1.63417 45.9478C1.51012 45.8968 1.51742 45.8822 1.67065 45.7509C1.76551 45.6634 1.81659 45.554 1.7947 45.4737C1.77281 45.4081 1.80929 45.2038 1.86767 45.0215C1.92604 44.8391 1.97712 44.6203 1.97712 44.5255C1.97712 44.438 2.05739 44.2702 2.15955 44.1462C2.2617 44.0222 2.34197 43.8617 2.34197 43.7815C2.34197 43.7012 2.39305 43.6356 2.45142 43.6356C2.5171 43.6356 2.56088 43.57 2.56088 43.4678C2.55358 43.3803 2.59006 43.125 2.62655 42.9062C2.67033 42.6874 2.72141 42.4321 2.7433 42.3372C2.76519 42.2497 2.83086 42.1257 2.88924 42.0674C2.94761 42.009 3.01329 41.8485 3.02788 41.7172C3.04977 41.5932 3.10815 41.4619 3.15922 41.4401C3.2176 41.4109 3.2249 41.3744 3.18112 41.3525C3.14463 41.3306 3.10815 41.2358 3.10815 41.1337C3.10815 41.0316 3.12274 40.9659 3.14463 40.9732C3.16652 40.9878 3.23949 40.9368 3.31246 40.8638C3.40732 40.7544 3.42191 40.6815 3.36354 40.5721C3.32705 40.4918 3.29057 40.3386 3.29057 40.2219C3.29057 40.1125 3.34165 39.8791 3.40732 39.6968C3.4657 39.5144 3.55326 39.281 3.60434 39.1643C3.65542 39.0549 3.71379 38.9673 3.75028 38.9673C3.77946 38.9673 3.78676 38.9236 3.77217 38.8725C3.75757 38.8288 3.80135 38.7266 3.86703 38.6537C3.94729 38.5662 3.95459 38.5224 3.89621 38.5297C3.84514 38.5297 3.80135 38.4568 3.80135 38.3619C3.80135 38.2744 3.88892 38.0337 3.98378 37.8368C4.08593 37.6325 4.1662 37.4137 4.1662 37.3408C4.1662 37.2751 4.24647 37.1219 4.34862 36.9979C4.45078 36.8739 4.53105 36.7426 4.53105 36.7062C4.53105 36.6697 4.58942 36.6186 4.66239 36.5895C4.76455 36.5603 4.77185 36.5457 4.67699 36.4946C4.59672 36.4436 4.58942 36.4217 4.66239 36.3852C4.70617 36.3633 4.72806 36.2977 4.70617 36.2466C4.68428 36.2029 4.74995 35.984 4.85211 35.7725C4.95427 35.5683 5.04183 35.3349 5.04183 35.2619C5.04183 35.1963 5.1221 34.9702 5.22425 34.7732C5.32641 34.569 5.40668 34.445 5.40668 34.4815C5.40668 34.5252 5.44316 34.5179 5.49424 34.4669C5.54532 34.4231 5.63288 34.4012 5.69126 34.4304C5.75693 34.4669 5.77152 34.445 5.74234 34.3502C5.72045 34.2845 5.64748 34.2262 5.5891 34.2262C5.51613 34.2262 5.49424 34.1751 5.51613 34.0584C5.53802 33.9709 5.57451 33.8177 5.5964 33.7156C5.61829 33.6135 5.66207 33.5186 5.69126 33.4967C5.72774 33.4749 5.80801 33.3509 5.87368 33.2196C5.93935 33.0956 5.96854 32.9862 5.93935 32.9862C5.90287 32.9862 5.94665 32.9351 6.02692 32.8694C6.10718 32.8111 6.17285 32.7236 6.17285 32.6725C6.17285 32.6214 6.20204 32.4683 6.23853 32.3297C6.26771 32.1911 6.38447 31.9942 6.49392 31.892C6.59608 31.7899 6.67634 31.6513 6.66905 31.5784C6.65445 31.5127 6.68364 31.3814 6.73472 31.2866C6.7858 31.1991 6.82228 31.0897 6.82958 31.0532C6.82958 31.0167 6.87336 30.8636 6.91714 30.725C6.96822 30.5864 7.07038 30.4478 7.15794 30.4113C7.23821 30.3821 7.30388 30.3019 7.30388 30.229C7.30388 30.1633 7.38414 30.0612 7.4863 30.0101C7.58846 29.9664 7.66872 29.8861 7.66872 29.8497C7.66872 29.8132 7.62494 29.7986 7.58116 29.8278C7.50819 29.8643 7.50819 29.8497 7.58116 29.7549C7.62494 29.6892 7.70521 29.6454 7.74169 29.6673C7.78548 29.6892 7.80007 29.66 7.77818 29.609C7.75629 29.5652 7.76359 29.4412 7.80007 29.3464C7.83655 29.2297 7.9533 29.1348 8.10654 29.0838C8.31815 29.0108 8.35464 28.9671 8.34004 28.8212C8.32545 28.7264 8.35464 28.5586 8.39112 28.4419C8.4349 28.3325 8.50787 28.2596 8.54436 28.2814C8.58814 28.3033 8.63922 28.245 8.66111 28.1501C8.69029 28.0626 8.76326 27.9313 8.82894 27.8584C8.89461 27.7854 9.00406 27.749 9.07703 27.7708C9.1427 27.7927 9.20837 27.7708 9.20837 27.7125C9.21567 27.6687 9.23027 27.5447 9.24486 27.4426C9.25216 27.3405 9.36161 27.129 9.47836 26.9685C9.6243 26.7788 9.76294 26.6694 9.88699 26.6548C9.99644 26.6476 10.0767 26.5965 10.0767 26.5308C10.0767 26.4725 10.1278 26.4068 10.1862 26.385C10.2445 26.3631 10.281 26.2974 10.2591 26.2391C10.2372 26.1807 10.2737 26.1151 10.3321 26.0932C10.3905 26.0713 10.4853 25.9181 10.5364 25.7577C10.5802 25.5899 10.6678 25.4221 10.7261 25.3711C10.7845 25.3273 10.8794 25.2908 10.945 25.2908C11.0107 25.2908 11.0545 25.2471 11.0472 25.196C11.0326 25.1523 11.0618 25.1231 11.0983 25.145C11.1421 25.1668 11.215 25.1085 11.2734 25.0137C11.3245 24.9261 11.4193 24.7073 11.4704 24.5322C11.5288 24.3499 11.6893 24.0727 11.828 23.9122C11.9666 23.7518 12.2147 23.4965 12.3752 23.3433C12.5358 23.1901 12.7328 23.0661 12.8131 23.0661C12.9298 23.0661 12.9371 23.0515 12.8495 23.0005C12.7547 22.9421 12.7547 22.8984 12.8349 22.7452C12.886 22.6285 12.9663 22.5701 13.032 22.592C13.0976 22.6139 13.156 22.5774 13.1852 22.4972C13.2071 22.4315 13.2874 22.2346 13.3676 22.0595C13.4406 21.8918 13.5573 21.7532 13.6157 21.7532C13.6741 21.7532 13.7252 21.7021 13.7252 21.6438C13.7252 21.5854 13.7981 21.4249 13.8857 21.2937C13.9733 21.1697 14.09 21.0165 14.1411 20.9654C14.1922 20.9217 14.236 20.8414 14.236 20.8049C14.236 20.7685 14.2578 20.7393 14.2943 20.7466C14.3235 20.7612 14.433 20.7028 14.5351 20.6226C14.6446 20.5424 14.7905 20.3527 14.8635 20.1995C14.9438 20.0536 15.024 19.9296 15.0605 19.9296C15.0897 19.9296 15.097 19.8494 15.0751 19.7473C15.0532 19.6452 15.0824 19.5139 15.1335 19.4482C15.1773 19.3899 15.2648 19.3534 15.3159 19.3753C15.3597 19.3972 15.4181 19.3826 15.4399 19.3461C15.4618 19.3096 15.4327 19.2586 15.3889 19.244C15.3232 19.2148 15.3305 19.1856 15.4254 19.1346C15.491 19.0908 15.5494 19.0033 15.5494 18.9449C15.5494 18.8866 15.6005 18.7845 15.6589 18.7261C15.7172 18.6678 15.8194 18.6313 15.8778 18.6532C15.9361 18.6751 15.9726 18.6532 15.9507 18.6167C15.9288 18.5802 15.9653 18.5073 16.0237 18.4708C16.0821 18.4344 16.1696 18.4125 16.2061 18.4344C16.2499 18.4562 16.301 18.4125 16.3229 18.3395C16.3521 18.2739 16.3813 18.1645 16.3813 18.1061C16.3885 18.0478 16.4469 17.8873 16.5053 17.756C16.5637 17.6247 16.6731 17.5007 16.7534 17.4788C16.841 17.4569 16.892 17.3913 16.8774 17.3183C16.8628 17.2454 16.9431 17.1433 17.0599 17.0776C17.1693 17.012 17.3226 16.9682 17.3955 16.9828C17.4831 17.0047 17.5342 16.9536 17.5561 16.8296C17.5779 16.7275 17.6363 16.6473 17.6874 16.6473C17.7458 16.6546 17.7458 16.6181 17.6655 16.5379C17.5852 16.4576 17.5852 16.4212 17.6509 16.4285C17.6947 16.4285 17.9063 16.2826 18.1033 16.1002C18.3076 15.9179 18.5338 15.772 18.6141 15.772C18.6944 15.772 18.76 15.7209 18.76 15.6626C18.76 15.6042 18.9425 15.3781 19.1614 15.1666C19.3803 14.9623 19.57 14.7946 19.5773 14.8092C19.5919 14.8165 19.6503 14.7727 19.7087 14.7143C19.767 14.6487 19.8619 14.5976 19.913 14.6049C19.9567 14.6049 20.0005 14.5685 20.0005 14.532C20.0005 14.4955 20.037 14.4736 20.0735 14.4955C20.1173 14.5174 20.1465 14.4736 20.1465 14.4007C20.1465 14.3205 20.2121 14.2694 20.3289 14.2548C20.431 14.2475 20.6281 14.1381 20.7667 14.0214C20.9199 13.8901 21.0075 13.7588 20.9856 13.6932C20.9637 13.6275 21.0002 13.5692 21.0805 13.5473C21.1461 13.5327 21.2556 13.4306 21.314 13.3285C21.3724 13.219 21.4891 13.1242 21.5694 13.1096C21.6496 13.0877 21.7664 13.0002 21.8321 12.9127C21.8904 12.8179 22.0656 12.6866 22.2115 12.6136C22.3574 12.548 22.4815 12.4532 22.4815 12.4167C22.4815 12.3802 22.6347 12.2854 22.8317 12.2197C23.0215 12.1468 23.3717 11.9426 23.6125 11.7602C23.8533 11.5779 24.1087 11.359 24.1744 11.2642C24.2473 11.1767 24.3422 11.1183 24.3787 11.1402C24.4225 11.1621 24.6268 10.9943 24.8457 10.7755C25.0573 10.5567 25.2616 10.3743 25.2835 10.3743C25.3127 10.3743 25.4586 10.2503 25.6119 10.0972C25.7724 9.95127 26.0424 9.69597 26.2175 9.5355C26.4072 9.36774 26.6188 9.24374 26.721 9.24374C26.8596 9.24374 26.8961 9.20727 26.8961 9.06138C26.8961 8.9155 26.9691 8.84256 27.2537 8.69668C27.4507 8.59456 27.6842 8.44138 27.7791 8.34656C27.8739 8.25903 28.0126 8.18609 28.1001 8.18609C28.1804 8.18609 28.319 8.14962 28.4139 8.10585C28.5014 8.05479 28.5963 7.97456 28.6328 7.9235C28.662 7.86515 28.7204 7.83597 28.7568 7.85785C28.7933 7.87973 28.8517 7.85056 28.8736 7.7995C28.9101 7.73385 28.932 7.74115 28.9757 7.82138C29.0049 7.87973 29.0706 7.90891 29.1144 7.87244C29.1582 7.84326 29.1801 7.77032 29.1582 7.71197C29.129 7.63173 29.2238 7.57338 29.5084 7.48585C29.7127 7.4202 29.9389 7.32538 29.9973 7.26703C30.063 7.20867 30.1506 7.20138 30.2162 7.23785C30.2819 7.27432 30.3768 7.25973 30.4716 7.19409C30.5519 7.13573 30.6103 7.07008 30.603 7.0555C30.5884 7.03361 30.5884 7.01903 30.603 7.02632C30.6103 7.02632 30.8 6.96067 31.0189 6.87314C31.2378 6.78561 31.5297 6.62514 31.6683 6.51573C31.8215 6.39902 32.0113 6.32608 32.1645 6.32608C32.2958 6.32608 32.4199 6.28232 32.4418 6.23126C32.4637 6.18749 32.5148 6.15832 32.5512 6.1802C32.5877 6.20208 32.6388 6.16561 32.6607 6.10726C32.6899 6.02702 32.7847 6.00514 33.0255 6.01243C33.3247 6.03432 33.3539 6.01973 33.3539 5.86655C33.3539 5.77902 33.3977 5.6842 33.4488 5.65502C33.4925 5.62585 33.6239 5.61126 33.7406 5.61855C33.8501 5.62585 33.9377 5.59667 33.9377 5.5602C33.9377 5.52373 33.9887 5.48726 34.0471 5.48726C34.1055 5.48726 34.1857 5.54561 34.2295 5.61126C34.2879 5.72796 34.3098 5.72796 34.3682 5.63314C34.4047 5.57479 34.4193 5.47996 34.4047 5.4289C34.3901 5.38514 34.4265 5.34137 34.4849 5.34137C34.5433 5.34137 34.6528 5.26843 34.7257 5.17361C34.8279 5.04231 34.9227 5.01314 35.273 5.01314C35.5284 5.01314 35.7254 4.97667 35.7692 4.91831C35.8057 4.87455 35.8713 4.84537 35.9078 4.86726C35.9443 4.88914 35.9662 4.85996 35.9443 4.8089C35.9224 4.76514 35.9954 4.63384 36.1048 4.53172C36.2143 4.42231 36.4259 4.29831 36.5645 4.25455C36.7032 4.21078 36.8856 4.1889 36.9659 4.21808C37.0826 4.25455 37.0899 4.24725 37.0024 4.18161C36.9075 4.11596 36.9075 4.10137 37.0024 4.05761C37.0607 4.03572 37.1702 4.03572 37.2432 4.05761C37.3161 4.07949 37.3526 4.07219 37.3307 4.02843C37.3088 3.99196 37.3526 3.90443 37.4256 3.84608C37.4913 3.78772 37.7321 3.68561 37.951 3.61996C38.1699 3.5616 38.5493 3.42302 38.7901 3.3209C39.0309 3.21878 39.2863 3.15313 39.3593 3.18231C39.442 3.21149 39.4833 3.1896 39.4833 3.11666C39.4833 3.04372 39.5271 3.02184 39.6147 3.05102C39.6803 3.08019 39.8336 3.04372 39.9576 2.98537C40.0817 2.92701 40.3152 2.8249 40.4903 2.75925C40.6581 2.6936 40.7968 2.65713 40.7968 2.67901C40.7968 2.7009 40.9719 2.64984 41.1835 2.5769C41.3878 2.49666 41.7454 2.43101 41.9643 2.43101C42.1832 2.43101 42.4386 2.42372 42.5261 2.40913C42.6064 2.39454 42.7086 2.36537 42.745 2.33619C42.7742 2.30701 42.8399 2.29972 42.8764 2.3216C42.9129 2.34348 43.0369 2.3216 43.1537 2.27784C43.2777 2.23407 43.3361 2.23407 43.3142 2.27784C43.2923 2.31431 43.3215 2.34348 43.3726 2.33619C43.4164 2.3289 43.5331 2.34348 43.628 2.37266C43.7447 2.40913 43.8323 2.37995 43.9709 2.24137C44.0877 2.12466 44.2044 2.0736 44.2993 2.09548C44.3869 2.11737 44.4452 2.09548 44.4525 2.03713C44.4525 1.96419 44.4598 1.96419 44.489 2.03713C44.5109 2.10278 44.5474 2.11007 44.6131 2.05901C44.6568 2.01525 44.8976 1.96419 45.1384 1.9496C45.3792 1.92772 45.5835 1.88395 45.5981 1.85478C45.6054 1.8256 45.7879 1.81831 45.9995 1.83289C46.2038 1.84748 46.3862 1.88395 46.4008 1.92042C46.4081 1.95689 46.4884 1.98607 46.5832 1.98607C46.7219 1.97878 46.7292 1.97148 46.6197 1.91313C46.5467 1.86936 46.4884 1.80372 46.4884 1.76725C46.4884 1.73078 46.5467 1.7016 46.6197 1.7016C46.6854 1.70889 46.7584 1.7016 46.7802 1.69431C46.8021 1.68701 46.897 1.67242 46.9992 1.66513C47.1013 1.65054 47.2327 1.62866 47.291 1.60678C47.3494 1.5776 47.5683 1.54113 47.7653 1.51195C47.9696 1.49007 48.174 1.43172 48.225 1.38066C48.2761 1.3296 48.3199 1.31501 48.3126 1.34419C48.3126 1.38066 48.3783 1.36607 48.4585 1.3296C48.5558 1.28097 48.6045 1.28097 48.6045 1.3296C48.6045 1.36607 48.6483 1.40254 48.6993 1.40254C48.7431 1.39525 48.8234 1.34419 48.8599 1.28583C48.8964 1.22019 49.0204 1.15454 49.1371 1.13995C49.2466 1.12536 49.3342 1.14725 49.3342 1.18372C49.3342 1.23234 49.395 1.23234 49.5166 1.18372C49.6382 1.13509 49.6869 1.13509 49.6625 1.18372C49.6406 1.22019 49.6479 1.25666 49.6844 1.25666C49.7136 1.25666 49.7939 1.19101 49.8668 1.11077C49.969 0.986774 50.0347 0.972186 50.2682 1.02324C50.4141 1.05972 50.6549 1.0816 50.7936 1.06701C50.9322 1.05972 51.1073 1.05242 51.1803 1.04513C51.246 1.04513 51.3043 0.986774 51.3043 0.928421C51.3043 0.862774 51.3408 0.840891 51.3992 0.870068C51.443 0.899245 51.5378 0.928421 51.5889 0.943009C51.6473 0.950304 51.764 0.906539 51.8443 0.85548C51.9465 0.787401 52.0292 0.775244 52.0924 0.819009C52.1508 0.870068 52.2383 0.862774 52.3478 0.811715C52.4354 0.76795 52.6762 0.716891 52.8732 0.702303C53.0775 0.687715 53.2891 0.658538 53.3475 0.636656C53.4059 0.622067 53.6685 0.585597 53.9312 0.563714C54.1939 0.541832 54.4128 0.512655 54.4274 0.498067C54.4347 0.490773 54.5953 0.476185 54.7923 0.46889ZM58.2729 42.6144C58.1999 42.5658 58.1513 42.5658 58.127 42.6144C58.1051 42.6509 58.0029 42.6874 57.8862 42.6874C57.7767 42.6874 57.6162 42.7238 57.5213 42.7603C57.4046 42.8114 57.3608 42.8114 57.3608 42.7457C57.3608 42.6874 57.3316 42.6947 57.2878 42.7676C57.2367 42.8697 57.0981 42.8843 56.4997 42.877C55.9087 42.8697 55.7846 42.8478 55.8211 42.7676C55.8576 42.6874 55.8065 42.6874 55.573 42.7895C55.4125 42.8551 55.1279 42.9062 54.9382 42.9062C54.7412 42.9062 54.5223 42.9427 54.442 42.9791C54.3472 43.0229 54.2377 43.0302 54.1209 42.9791C54.0042 42.9354 53.9312 42.9354 53.902 42.9791C53.8801 43.0229 53.7415 43.0521 53.6029 43.0521C53.4642 43.0521 53.3475 43.0739 53.3475 43.1104C53.3475 43.1396 53.2307 43.2198 53.0775 43.2928C52.9243 43.3584 52.6032 43.4824 52.3624 43.5554C51.9538 43.6867 51.9173 43.6867 51.8224 43.5772C51.7567 43.4897 51.7203 43.4824 51.6984 43.5481C51.6838 43.5918 51.6181 43.6356 51.5597 43.6356C51.5014 43.6356 51.4649 43.6721 51.4868 43.7085C51.5087 43.745 51.4649 43.8398 51.3846 43.9128C51.3116 43.9784 51.1073 44.0951 50.9322 44.1754C50.7571 44.2483 50.5455 44.3431 50.4652 44.3869C50.3849 44.4234 50.0639 44.5911 49.7574 44.7443C49.3415 44.9412 49.0934 45.0215 48.8526 45.0215C48.5461 45.0215 48.4804 45.058 48.2031 45.3351C48.0353 45.5029 47.8091 45.7144 47.707 45.8092C47.5975 45.8968 47.5099 45.9478 47.5099 45.9187C47.5099 45.8822 47.4589 45.926 47.4005 46.0062C47.3129 46.1156 47.291 46.1229 47.2837 46.0427C47.2837 45.977 47.24 46.0135 47.1889 46.1156C47.1305 46.2177 47.1013 46.3125 47.1159 46.3344C47.1305 46.3563 47.0794 46.4292 46.9992 46.5022C46.9189 46.5678 46.8313 46.6116 46.8021 46.597C46.7657 46.5824 46.7 46.6116 46.6562 46.67C46.5832 46.7502 46.5832 46.7794 46.6562 46.8013C46.7146 46.8231 46.6708 46.9034 46.5467 47.0201C46.43 47.1222 46.3424 47.2243 46.3424 47.2462C46.3424 47.2681 46.3424 47.3191 46.3424 47.3556C46.3424 47.3921 46.2768 47.4285 46.1965 47.4285C46.1162 47.4285 46.0506 47.4504 46.0506 47.4869C46.0506 47.5161 45.9776 47.6182 45.89 47.7203C45.7952 47.8151 45.7149 47.9318 45.7149 47.9756C45.7076 48.0121 45.7003 48.085 45.693 48.1215C45.6857 48.158 45.6492 48.1434 45.6127 48.085C45.5544 47.9975 45.5398 47.9975 45.5398 48.1215C45.5398 48.2017 45.4741 48.3184 45.3938 48.3768C45.3136 48.4351 45.2479 48.5081 45.2479 48.5445C45.2479 48.5737 45.1165 48.7342 44.9487 48.9093C44.7882 49.077 44.5985 49.3031 44.5328 49.4198C44.4671 49.5293 44.3723 49.6168 44.3358 49.6168C44.2993 49.6168 44.2555 49.6897 44.2409 49.7773C44.2336 49.8721 44.1752 49.9815 44.1242 50.018C44.0658 50.0544 43.9855 50.2295 43.9417 50.4046C43.898 50.5796 43.825 50.7036 43.7739 50.6963C43.7228 50.6817 43.6791 50.689 43.6718 50.7109C43.6718 50.7328 43.628 50.8203 43.5842 50.9151C43.5331 51.0027 43.5258 51.0829 43.555 51.0975C43.5915 51.1048 43.5915 51.2215 43.555 51.3528C43.5258 51.4841 43.4528 51.5862 43.3872 51.5862C43.3288 51.5862 43.2996 51.63 43.3215 51.681C43.3434 51.7248 43.3142 51.8196 43.2485 51.878C43.1683 51.9655 43.161 52.0093 43.2266 52.0749C43.2923 52.1406 43.285 52.2062 43.1902 52.3521C43.1172 52.4542 43.0223 52.5344 42.9858 52.5344C42.9494 52.5344 42.9129 52.5709 42.9129 52.6074C42.9129 52.6439 42.9494 52.6657 42.9858 52.6439C43.0223 52.622 43.0515 52.6657 43.0369 52.7387C43.0223 52.8043 42.9785 52.9356 42.9275 53.0304C42.8764 53.118 42.8399 53.2639 42.8399 53.3587C42.8472 53.4462 42.7815 53.6067 42.694 53.7234C42.5991 53.8547 42.5699 53.9495 42.6137 54.0152C42.6575 54.0662 42.6575 54.1464 42.621 54.2121C42.5918 54.2704 42.5772 54.3653 42.5918 54.4163C42.6064 54.4601 42.5845 54.5476 42.548 54.5987C42.5042 54.6424 42.4605 54.8029 42.4459 54.9415C42.4386 55.0801 42.3875 55.2041 42.3437 55.2187C42.2926 55.226 42.2562 55.2843 42.2562 55.3427C42.2562 55.401 42.2051 55.4667 42.1467 55.4886C42.0737 55.5104 42.0591 55.5542 42.1102 55.6199C42.1467 55.6636 42.1759 55.722 42.1613 55.7439C42.154 55.7657 42.2051 55.7147 42.2707 55.6345C42.3437 55.5542 42.4021 55.525 42.4021 55.5834C42.4021 55.6272 42.3802 55.6855 42.351 55.7001C42.3145 55.7147 42.2926 55.8606 42.2926 56.021C42.2926 56.1815 42.2707 56.3347 42.2416 56.3566C42.2051 56.3785 42.227 56.4806 42.278 56.5827C42.351 56.7359 42.3437 56.8161 42.2416 57.0787C42.1686 57.2465 42.1321 57.4069 42.1467 57.4434C42.1686 57.4726 42.1978 57.7425 42.2197 58.0415C42.2416 58.3698 42.227 58.6032 42.1832 58.625C42.1394 58.6469 42.1467 58.7053 42.2051 58.7709C42.278 58.8658 42.278 58.8876 42.2051 58.8803C42.1394 58.8803 42.1175 58.9898 42.1321 59.245C42.1394 59.4493 42.1832 59.6098 42.2197 59.6098C42.2562 59.6098 42.2416 59.6389 42.1832 59.6754C42.1175 59.7119 42.1029 59.7556 42.1467 59.7775C42.1832 59.7994 42.2197 59.9307 42.2197 60.0766C42.2197 60.2371 42.1759 60.3683 42.1102 60.4121C42.0154 60.4705 42.0227 60.4923 42.1467 60.5872C42.2707 60.6747 42.2926 60.7768 42.2926 61.3166C42.2926 61.8418 42.3145 61.9439 42.424 61.9731C42.4897 62.0022 42.548 62.0533 42.548 62.0898C42.548 62.1262 42.5115 62.1481 42.4751 62.1262C42.4386 62.1044 42.4532 62.1992 42.5115 62.3305C42.5772 62.4545 42.6429 62.6222 42.6575 62.6952C42.6794 62.7608 42.7305 62.8192 42.7669 62.8192C42.8034 62.8192 42.8326 62.8994 42.8253 63.0015C42.8107 63.0964 42.8253 63.1839 42.8618 63.1839C42.891 63.1839 42.9129 63.2349 42.9129 63.2933C42.9129 63.3517 42.9713 63.4246 43.0442 63.4465C43.161 63.4829 43.1537 63.4902 43.0223 63.5632C42.8837 63.6361 42.891 63.6507 43.1172 63.8331C43.3288 63.9935 43.3653 64.0811 43.3945 64.3874C43.4091 64.5917 43.4528 64.7886 43.4893 64.8251C43.5258 64.8615 43.5696 64.9637 43.5842 65.0439C43.5988 65.1241 43.6572 65.1898 43.7155 65.1898C43.7739 65.1898 43.8323 65.2627 43.8469 65.3575C43.8542 65.4451 43.898 65.518 43.9344 65.518C43.9709 65.518 44.0585 65.6347 44.1169 65.7733C44.1752 65.9119 44.2628 66.0286 44.2993 66.0286C44.3479 66.0286 44.3479 66.0772 44.2993 66.1745C44.2409 66.2985 44.2555 66.3277 44.4087 66.3568C44.5474 66.386 44.5912 66.4371 44.5912 66.5975C44.5912 66.7069 44.6204 66.8455 44.6568 66.9039C44.6933 66.9622 44.7517 66.9914 44.7809 66.9695C44.8174 66.9404 44.9195 67.0352 45.0144 67.1665C45.1603 67.3926 45.1603 67.4145 45.0509 67.4145C44.9487 67.4145 44.9706 67.451 45.1165 67.5458C45.226 67.6114 45.35 67.7354 45.3865 67.8157C45.423 67.8959 45.5033 68.0855 45.569 68.2387C45.6346 68.3846 45.6711 68.5451 45.6492 68.5815C45.6273 68.618 45.6638 68.6545 45.7222 68.6545C45.7806 68.6545 45.8316 68.6982 45.8316 68.7493C45.8316 68.7931 45.89 68.9025 45.9703 68.9827C46.0797 69.0921 46.0943 69.1505 46.0287 69.2161C45.963 69.2891 45.9776 69.3183 46.087 69.362C46.1673 69.3839 46.2622 69.4641 46.3059 69.5225C46.3424 69.5881 46.3862 69.6611 46.3935 69.6975C46.4081 69.7267 46.4154 69.7851 46.4154 69.8215C46.4154 69.858 46.503 69.9018 46.6197 69.9164C46.7875 69.931 46.8167 69.9674 46.8167 70.1498C46.8167 70.2738 46.8678 70.4343 46.9262 70.5072C46.9846 70.5801 47.1305 70.7333 47.2545 70.8573C47.4224 71.0251 47.5172 71.0616 47.6778 71.0324C47.7945 71.0032 47.8602 71.0178 47.8383 71.0616C47.8164 71.098 47.8529 71.1491 47.9113 71.171C47.9769 71.1928 48.0207 71.295 48.0207 71.4263C48.0207 71.5503 48.0572 71.6451 48.0937 71.6451C48.1302 71.6451 48.1521 71.594 48.1302 71.5357C48.1083 71.4773 48.1302 71.4263 48.1667 71.4263C48.2031 71.4263 48.225 71.4992 48.2031 71.594C48.1885 71.6816 48.225 71.8128 48.298 71.8858C48.3637 71.9587 48.4877 72.0171 48.568 72.0171C48.6483 72.0171 48.8234 72.0973 48.9547 72.1921C49.0788 72.2943 49.1736 72.411 49.1517 72.4474C49.1299 72.4839 49.2101 72.535 49.3342 72.5568C49.4582 72.5787 49.5823 72.6517 49.6187 72.7246C49.6552 72.7903 49.7063 72.8413 49.7282 72.834C49.7501 72.8194 49.8522 72.8121 49.9544 72.8121C50.076 72.8121 50.149 72.8608 50.1733 72.958C50.2025 73.082 50.2317 73.0893 50.3193 73.0164C50.4141 72.9361 50.4652 72.958 50.6184 73.1404C50.7717 73.3154 50.8373 73.3446 50.9322 73.2863C50.9979 73.2425 51.1073 73.206 51.173 73.2133C51.246 73.2133 51.297 73.2498 51.297 73.2863C51.297 73.3227 51.3627 73.3811 51.443 73.4176C51.5305 73.4467 51.6473 73.454 51.7057 73.4321C51.7713 73.4103 51.8297 73.454 51.8516 73.5416C51.8808 73.6437 51.9319 73.6801 52.034 73.651C52.1435 73.6218 52.1946 73.6583 52.2383 73.8042C52.2821 73.9646 52.3186 73.9865 52.4937 73.95C52.6105 73.9209 52.7637 73.95 52.8732 74.0157C52.9753 74.074 53.0921 74.1105 53.1286 74.0886C53.1651 74.0667 53.2015 74.0886 53.2015 74.1251C53.2015 74.1616 53.1578 74.2126 53.114 74.2345C53.0629 74.2564 53.0921 74.2564 53.1869 74.2345C53.2745 74.2126 53.3986 74.2491 53.4569 74.3074C53.5153 74.3658 53.6029 74.4169 53.6394 74.4169C53.6758 74.4169 53.7123 74.4533 53.7123 74.4898C53.7123 74.5263 53.8437 74.6284 54.0042 74.7086C54.2669 74.8399 54.3034 74.8399 54.3909 74.7451C54.4347 74.6794 54.5004 74.6284 54.5369 74.6357C54.5661 74.6357 54.5734 74.6867 54.5515 74.7451C54.5296 74.8107 54.5588 74.8545 54.6244 74.8545C54.6828 74.8545 54.7193 74.818 54.6974 74.7816C54.6755 74.7451 54.7047 74.6867 54.7558 74.6576C54.7996 74.6357 54.8871 74.6795 54.9309 74.7524C54.9966 74.8399 55.0695 74.8764 55.1498 74.8472C55.2228 74.818 55.4125 74.8253 55.573 74.8545C55.7701 74.8983 55.8941 74.891 55.9598 74.8326C56.0109 74.7816 56.0546 74.7743 56.0473 74.818C56.0473 74.8618 56.2663 74.891 56.5581 74.891C56.9376 74.891 57.0616 74.9128 57.0324 74.9858C57.0105 75.0296 57.047 75.0879 57.1054 75.1098C57.1638 75.1317 57.2294 75.1463 57.244 75.1463C57.2659 75.1463 57.3316 75.0952 57.39 75.0369C57.4921 74.942 57.5213 74.942 57.66 75.0952L57.8059 75.2557C57.6527 74.9347 57.66 74.9274 58.0394 74.9493C58.2437 74.9639 58.5283 75.0296 58.6596 75.0952C58.8567 75.2046 58.8931 75.2046 58.8931 75.1098C58.8931 75.0514 58.9223 75.0004 58.9661 75.0004C59.0099 75.0004 59.0391 75.0587 59.0391 75.1317C59.0391 75.2411 59.0464 75.2411 59.1485 75.1098C59.2069 75.0296 59.258 75.0077 59.258 75.0587C59.258 75.1025 59.3455 75.1754 59.4623 75.2046C59.6009 75.2484 59.725 75.2338 59.8782 75.1463C60.0023 75.0806 60.2139 75.0004 60.3525 74.9712C60.4912 74.942 60.8195 74.8983 61.0822 74.8764C61.469 74.8472 61.5784 74.8107 61.6587 74.6867C61.7316 74.57 61.7681 74.5554 61.8046 74.6211C61.8338 74.6867 61.8922 74.6721 62.0308 74.5627C62.133 74.4752 62.2205 74.4387 62.2351 74.4825C62.2424 74.5336 62.3008 74.519 62.3811 74.446C62.4832 74.3512 62.5124 74.3512 62.5489 74.4314C62.5854 74.5044 62.6073 74.5044 62.6438 74.4387C62.6656 74.3877 62.6656 74.3439 62.6365 74.3366C62.6 74.3366 62.7605 74.271 62.9794 74.1907C63.1983 74.1032 63.4975 74.023 63.6361 74.0084C63.7748 73.9938 63.9353 73.9354 63.9937 73.8844C64.0521 73.8406 64.1104 73.8041 64.125 73.8187C64.1323 73.826 64.1542 73.826 64.1688 73.826C64.1761 73.8187 64.2637 73.8114 64.3658 73.8042C64.468 73.7969 64.5993 73.7604 64.6577 73.7239C64.7161 73.6874 64.8109 73.6437 64.862 73.6364C64.9058 73.6218 64.9496 73.6729 64.9496 73.7458C64.9496 73.8552 64.9715 73.8479 65.1101 73.702C65.2123 73.6072 65.329 73.5561 65.4093 73.578C65.475 73.5999 65.6793 73.5489 65.8617 73.4686C66.0441 73.3884 66.1901 73.2717 66.1901 73.2133C66.1901 73.1477 66.2557 73.1039 66.3579 73.1112C66.4455 73.1185 66.5622 73.1185 66.6133 73.1112C66.6571 73.1039 66.6936 73.031 66.6863 72.9434C66.6717 72.8194 66.7009 72.7757 66.8176 72.7757C66.8979 72.7757 67.0876 72.6517 67.2335 72.5058C67.4014 72.3307 67.5692 72.2286 67.6859 72.2286C67.8027 72.2286 67.8684 72.1848 67.8684 72.1192C67.8684 72.0608 67.8903 72.0098 67.9267 72.0098C67.9559 72.0098 68.0216 71.9296 68.0727 71.8274C68.1383 71.6888 68.204 71.6524 68.3427 71.6816C68.474 71.7107 68.5251 71.6889 68.5251 71.6086C68.5251 71.5503 68.7002 71.3314 68.9118 71.1199C69.1161 70.9084 69.284 70.6968 69.2767 70.6458C69.2621 70.5947 69.284 70.551 69.3277 70.551C69.3715 70.551 69.4007 70.5072 69.4007 70.4634C69.4007 70.4124 69.481 70.2738 69.5831 70.1498C69.6853 70.0258 69.7656 69.8945 69.7656 69.858C69.7729 69.8215 69.8458 69.7121 69.9334 69.6319C70.021 69.5444 70.2034 69.3401 70.3347 69.1724C70.4588 69.0119 70.5682 68.8368 70.5682 68.8004C70.5682 68.7639 70.612 68.6837 70.6631 68.6399C70.7069 68.5888 70.8893 68.3554 71.0644 68.1293C71.2322 67.8959 71.3271 67.7062 71.2833 67.7062C71.2322 67.7062 71.2833 67.6479 71.4074 67.575C71.546 67.4874 71.6774 67.3124 71.7722 67.079C71.8525 66.8747 72.0276 66.6194 72.1881 66.4881C72.373 66.3277 72.4606 66.1939 72.4508 66.087C72.4435 65.9921 72.5457 65.766 72.6697 65.5764C72.8011 65.3794 72.9032 65.2117 72.9032 65.1898C72.9032 65.1679 72.9689 65.0877 73.0492 65.0074C73.1294 64.9272 73.1805 64.8251 73.1586 64.7886C73.1367 64.7521 73.1878 64.7157 73.2681 64.7157C73.3921 64.7157 73.3994 64.7011 73.3265 64.5771C73.2462 64.4604 73.2535 64.402 73.3775 64.2269C73.4505 64.1175 73.5089 63.9644 73.5016 63.8987C73.4943 63.8258 73.5162 63.7674 73.56 63.7674C73.6037 63.7674 73.6183 63.7236 73.6037 63.6799C73.5891 63.6288 73.6329 63.5048 73.7059 63.4027C73.7789 63.3006 73.8226 63.1766 73.8081 63.1328C73.7935 63.0745 73.8445 63.038 73.9248 63.038C74.0416 63.038 74.0634 63.0015 74.0343 62.8411C74.0051 62.6879 74.0343 62.6076 74.151 62.5274C74.2751 62.4399 74.297 62.3742 74.2605 62.2211C74.2386 62.1044 74.2459 62.0168 74.2897 62.0168C74.3383 62.0168 74.3383 61.9439 74.2897 61.798C74.2313 61.6302 74.2386 61.5573 74.3261 61.4698C74.3845 61.4114 74.4356 61.2874 74.4283 61.1999C74.421 61.1051 74.421 60.9738 74.4283 60.9081C74.4356 60.8352 74.5013 60.7622 74.5815 60.7403C74.6837 60.7185 74.7202 60.6528 74.7056 60.5434C74.691 60.4486 74.6618 60.3319 74.6326 60.2881C74.6034 60.237 74.6107 60.1787 74.6545 60.1568C74.6983 60.1349 74.7275 60.0547 74.7275 59.9745C74.7275 59.8942 74.7056 59.8359 74.6691 59.8505C74.6399 59.8578 74.6107 59.8432 74.5961 59.814C74.5888 59.7775 74.6034 59.6681 74.6253 59.5587C74.6472 59.442 74.6472 59.3399 74.618 59.318C74.5961 59.2961 74.545 59.3326 74.5086 59.3909C74.4648 59.4493 74.4356 59.4639 74.4356 59.4274C74.4356 59.3909 74.5013 59.2742 74.5815 59.1721C74.6618 59.07 74.7275 58.9679 74.7275 58.9387C74.7275 58.9022 74.7129 58.8293 74.691 58.7709C74.6691 58.7126 74.618 58.6834 74.5669 58.7126C74.5086 58.7418 74.5159 58.7053 74.5815 58.6323C74.6618 58.5448 74.6618 58.5083 74.6034 58.5156C74.5523 58.5156 74.5086 58.4646 74.5086 58.4062C74.5086 58.3479 74.5378 58.3114 74.5815 58.3333C74.6253 58.3552 74.6545 58.3333 74.6545 58.2968C74.6545 58.2603 74.6326 58.2239 74.6034 58.2239C74.5669 58.2239 74.5596 58.1145 74.5742 57.9832C74.5888 57.8592 74.5596 57.6768 74.5159 57.5893C74.4721 57.4872 74.4648 57.4361 74.5086 57.458C74.5523 57.4799 74.5961 57.4434 74.618 57.385C74.6399 57.3267 74.6545 57.2537 74.6545 57.2246C74.6618 57.1881 74.618 57.21 74.5669 57.2537C74.494 57.3267 74.4575 57.3121 74.421 57.2027C74.3772 57.0933 74.4137 57.0057 74.545 56.8745C74.6472 56.7723 74.7275 56.6702 74.7275 56.641C74.7348 56.6046 74.691 56.6265 74.6399 56.6702C74.5888 56.7213 74.5232 56.7432 74.494 56.7067C74.4648 56.6775 74.494 56.6192 74.5669 56.5754C74.6837 56.4952 74.6837 56.4733 74.5815 56.3201C74.5013 56.2034 74.4721 56.0137 74.4867 55.7293C74.5013 55.4959 74.4867 55.2916 74.4575 55.277C74.421 55.2625 74.3991 55.102 74.3991 54.9269C74.4064 54.7446 74.3626 54.5841 74.3115 54.5403C74.2532 54.5039 74.2021 54.3872 74.1948 54.285C74.1802 54.1829 74.151 54.0589 74.1218 54.0152C74.0926 53.9641 74.0999 53.9057 74.1437 53.8839C74.1875 53.862 74.2167 53.8109 74.2167 53.7744C74.2167 53.738 74.1656 53.7161 74.1072 53.738C74.0197 53.7672 73.9978 53.6942 74.0197 53.3222C74.0343 52.921 74.0197 52.8627 73.9102 52.8846C73.8081 52.8919 73.7716 52.8335 73.7424 52.6439C73.7205 52.5053 73.6329 52.3156 73.5454 52.2281C73.4213 52.1041 73.3775 51.9728 73.3775 51.7321C73.3775 51.5497 73.3411 51.4111 73.3046 51.4184C73.2608 51.4257 73.2243 51.3893 73.217 51.3455C73.2024 51.2944 73.1878 51.1777 73.1805 51.0756C73.1659 50.9735 73.1148 50.8495 73.0711 50.8057C73.02 50.7547 72.9762 50.6453 72.9762 50.565C72.9762 50.4678 72.9397 50.4313 72.8668 50.4556C72.8011 50.4775 72.6989 50.4046 72.6114 50.2733C72.5311 50.1493 72.4654 50.0034 72.4654 49.945C72.4654 49.8867 72.4289 49.8283 72.3925 49.821C72.3487 49.8064 72.3049 49.7189 72.283 49.6168C72.2684 49.5147 72.21 49.3615 72.159 49.2667C72.1079 49.1791 72.0203 49.1062 71.9765 49.1062C71.9254 49.1062 71.8306 49.0114 71.7722 48.8874C71.7138 48.7634 71.6117 48.6686 71.5533 48.6686C71.4949 48.6686 71.4585 48.6321 71.4803 48.5956C71.5022 48.5591 71.4366 48.457 71.3344 48.3768C71.2322 48.2966 71.152 48.1944 71.152 48.158C71.152 48.1215 71.1228 48.085 71.079 48.085C71.0352 48.085 70.9331 47.9391 70.8455 47.7568C70.7506 47.5744 70.5974 47.3848 70.4953 47.3337C70.3931 47.29 70.2326 47.166 70.1304 47.0638C70.0283 46.969 69.9553 46.8596 69.9699 46.8304C69.9772 46.8012 69.8896 46.7575 69.7656 46.7356C69.6415 46.7137 69.5321 46.7064 69.5175 46.721C69.5029 46.7283 69.4153 46.6481 69.335 46.5387C69.2475 46.422 69.1307 46.3344 69.0723 46.3344C69.014 46.3344 68.8461 46.2104 68.6929 46.0645C68.547 45.9114 68.3937 45.7801 68.35 45.7801C68.3062 45.7728 68.2259 45.7655 68.1821 45.7582C68.1311 45.7582 68.0873 45.6998 68.0873 45.6415C68.0873 45.5831 68.0581 45.5321 68.0143 45.5321C67.9705 45.5321 67.9559 45.5685 67.9778 45.605C67.9997 45.6415 67.9997 45.678 67.9778 45.678C67.9559 45.678 67.8319 45.5685 67.7078 45.4372C67.5765 45.306 67.3868 45.1674 67.2846 45.1382C67.1679 45.1017 67.0876 45.109 67.0657 45.1674C67.0438 45.2257 66.9562 45.2403 66.8322 45.2111C66.7154 45.1893 66.5622 45.1017 66.4819 45.0215C66.4017 44.9412 66.336 44.8537 66.336 44.8245C66.336 44.7881 66.2411 44.6932 66.1317 44.5984C66.0003 44.4866 65.8812 44.4428 65.7741 44.4671C65.6623 44.4963 65.5941 44.4744 65.5698 44.4015C65.5479 44.3431 65.4604 44.2921 65.3728 44.2921C65.278 44.2994 65.1685 44.2556 65.1174 44.2045C65.0663 44.1535 64.9569 44.1243 64.862 44.1389C64.7672 44.1535 64.6723 44.1243 64.6431 44.0805C64.6066 44.0368 64.5264 44.0003 64.4607 44.0003C64.3877 44.0003 64.1031 43.9055 63.8259 43.7961C63.5048 43.6721 63.3151 43.5554 63.2932 43.4751C63.2786 43.373 63.2202 43.3511 63.0378 43.3876C62.8408 43.4241 62.7751 43.4022 62.6292 43.2271C62.4832 43.0448 62.4249 43.0229 62.2278 43.0667C62.0892 43.0958 61.9214 43.0812 61.8119 43.0229C61.7098 42.9718 61.5346 42.9135 61.4106 42.8916C61.2865 42.8697 61.1333 42.8843 61.0676 42.9354C60.9655 42.9937 60.9071 42.9937 60.8122 42.9354C60.7393 42.8843 60.4693 42.8114 60.2066 42.7603C59.9439 42.7165 59.6374 42.6728 59.5134 42.6728C59.3893 42.6728 59.2507 42.629 59.1996 42.5852C59.1266 42.5269 59.1048 42.5269 59.112 42.5998C59.112 42.6509 59.0245 42.6874 58.8931 42.6874C58.7618 42.6874 58.6596 42.6436 58.6378 42.5779C58.6159 42.5196 58.5721 42.4685 58.5356 42.4685C58.4991 42.4685 58.448 42.5196 58.4261 42.5779C58.3969 42.6582 58.3532 42.6655 58.2729 42.6144ZM57.9737 51.0683C58.0175 51.1121 58.1416 51.1267 58.2583 51.1121C58.3751 51.0902 58.4407 51.1048 58.4188 51.1486C58.397 51.185 58.4115 51.2361 58.4553 51.258C58.4991 51.2799 58.6013 51.2434 58.6961 51.1777C58.8129 51.0975 58.9442 51.0756 59.1339 51.1048C59.3018 51.134 59.3893 51.185 59.3747 51.2361C59.3601 51.2871 59.4477 51.3893 59.5718 51.4695C59.7031 51.5424 59.849 51.5862 59.9001 51.557C59.9439 51.5351 60.0023 51.5497 60.0242 51.5862C60.0461 51.6227 60.0898 51.6446 60.1336 51.6227C60.1774 51.6008 60.2066 51.6227 60.2066 51.6591C60.2066 51.6956 60.3233 51.7467 60.462 51.7686C60.6006 51.7904 60.7101 51.8415 60.7028 51.8853C60.6882 51.929 60.7393 52.002 60.8049 52.0457C60.9071 52.1187 60.9509 52.1041 61.0384 51.9874C61.1041 51.9071 61.1552 51.8853 61.1552 51.929C61.1552 51.9801 61.1479 52.0311 61.1406 52.0384C61.1333 52.053 61.1698 52.1333 61.2136 52.2208C61.2719 52.3302 61.3668 52.3886 61.4835 52.3886C61.5857 52.3886 61.7754 52.4323 61.9068 52.4834C62.0308 52.5344 62.2278 52.6803 62.3446 52.797C62.454 52.9137 62.5416 52.9867 62.5416 52.9502C62.5416 52.921 62.6365 52.994 62.7605 53.118C62.8846 53.242 62.9794 53.3733 62.9794 53.4097C62.9794 53.4462 63.0086 53.4681 63.0524 53.4462C63.0962 53.4243 63.1618 53.4827 63.2056 53.5702C63.2494 53.665 63.388 53.8328 63.5048 53.9568C63.6288 54.0808 63.7018 54.2194 63.6799 54.2632C63.658 54.3142 63.6653 54.358 63.7091 54.358C63.7529 54.358 63.8623 54.5039 63.9645 54.6862C64.0667 54.8686 64.1323 55.0801 64.1104 55.1603C64.0813 55.2625 64.125 55.3354 64.2564 55.3937C64.4242 55.4813 64.4388 55.5177 64.4023 55.8314C64.3804 56.0356 64.395 56.1961 64.4388 56.218C64.4826 56.2399 64.4972 56.2034 64.4753 56.145C64.4534 56.0794 64.4826 56.0356 64.5483 56.0356C64.6066 56.0356 64.6577 56.0575 64.6577 56.0867C64.6577 56.1232 64.6066 56.2253 64.541 56.3274C64.4461 56.4733 64.4388 56.5389 64.5045 56.6556C64.5555 56.7359 64.5847 56.8526 64.5774 56.9109C64.5701 56.9693 64.5847 57.0787 64.6066 57.1443C64.6358 57.2173 64.6285 57.3194 64.592 57.3632C64.5556 57.4142 64.5337 57.6549 64.541 57.8956C64.5483 58.1801 64.5993 58.4135 64.6869 58.5521C64.7672 58.6761 64.8328 58.9168 64.8401 59.0992C64.8474 59.2815 64.8255 59.4858 64.7891 59.5514C64.7599 59.6243 64.7161 59.8578 64.6942 60.062C64.6723 60.2735 64.6431 60.5288 64.6212 60.6309C64.6066 60.7331 64.5191 60.9738 64.4315 61.178C64.3366 61.3749 64.271 61.5865 64.2783 61.6302C64.2856 61.6886 64.2126 61.7251 64.1104 61.7251C63.9499 61.7251 63.928 61.7542 63.928 61.9804C63.928 62.1627 63.8696 62.2867 63.731 62.4253C63.6143 62.5347 63.4975 62.6733 63.4537 62.7462C63.4099 62.8119 63.3078 63.0015 63.2275 63.1547C63.1399 63.3152 62.9283 63.5632 62.7532 63.7164C62.5781 63.8695 62.403 63.9935 62.3592 63.9862C62.3154 63.9862 62.2278 64.0884 62.1622 64.2051C62.0892 64.3291 61.9797 64.4239 61.9214 64.4239C61.863 64.4239 61.8119 64.4749 61.8119 64.5333C61.8119 64.5917 61.7827 64.6427 61.7389 64.6427C61.6952 64.6427 61.4763 64.8324 61.25 65.0585C61.0238 65.2919 60.8049 65.4815 60.7612 65.4888C60.7174 65.4961 60.6371 65.5034 60.5933 65.5034C60.535 65.5107 60.5204 65.5618 60.5568 65.642C60.6006 65.7441 60.5787 65.7587 60.389 65.7222C60.2285 65.6858 60.1044 65.715 59.9366 65.8317C59.8053 65.9192 59.6958 66.0505 59.6958 66.1161C59.6958 66.1891 59.6447 66.2474 59.5863 66.2474C59.528 66.2474 59.4696 66.2766 59.4623 66.3204C59.4477 66.3568 59.3601 66.3933 59.258 66.3933C59.1558 66.3933 58.8421 66.386 58.5648 66.3787C58.2243 66.3739 57.981 66.4079 57.8351 66.4808C57.6819 66.5611 57.5505 66.5829 57.3973 66.5392C57.244 66.4954 57.1273 66.51 57.0178 66.583C56.923 66.6413 56.7551 66.6705 56.6311 66.6486C56.507 66.6267 56.3976 66.5684 56.383 66.5173C56.3684 66.4662 56.2517 66.4371 56.0765 66.4517C55.9014 66.459 55.7701 66.4298 55.7409 66.3787C55.7044 66.3131 55.4709 66.2839 55.0112 66.2766C54.5296 66.2693 54.2669 66.2328 54.1137 66.1453C53.9896 66.0797 53.8802 65.9921 53.8583 65.9484C53.8364 65.9046 53.7561 65.8608 53.6758 65.8535C53.5956 65.8462 53.4423 65.7952 53.3329 65.7514C53.2161 65.7004 53.1286 65.6274 53.1286 65.591C53.1286 65.5545 53.0921 65.5326 53.0556 65.5545C53.0191 65.5764 52.9826 65.5399 52.9826 65.4815C52.9826 65.4086 52.9389 65.3867 52.8586 65.4086C52.7637 65.4305 52.6762 65.3575 52.5448 65.1606C52.4427 65.0001 52.3405 64.8761 52.3113 64.8834C52.2821 64.8907 52.2092 64.8324 52.1435 64.7521C52.0778 64.6719 52.0486 64.6573 52.0851 64.7157C52.1216 64.7959 52.1143 64.8105 52.0486 64.7667C52.0048 64.7375 51.9757 64.6792 51.9975 64.6427C52.0194 64.6062 51.9319 64.4458 51.8151 64.2926C51.6911 64.1467 51.5962 63.9716 51.5962 63.9133C51.5962 63.8258 51.5816 63.8258 51.5087 63.8914C51.4357 63.9571 51.3919 63.9498 51.3043 63.8622C51.246 63.7966 51.1803 63.6215 51.173 63.4829C51.1584 63.3371 51.1292 63.2058 51.1146 63.1839C51.0927 63.162 51.0489 63.1985 51.0125 63.2568C50.9541 63.3516 50.9395 63.3517 50.9103 63.2349C50.8811 63.1693 50.8081 63.1109 50.7425 63.1109C50.6768 63.1109 50.6403 63.0891 50.6695 63.0526C50.6914 63.0234 50.6841 62.914 50.6403 62.7973C50.6038 62.6879 50.5382 62.6003 50.5017 62.6003C50.4652 62.6003 50.4287 62.5128 50.4287 62.3961C50.4287 62.2867 50.363 62.0606 50.2828 61.8855C50.2025 61.7178 50.1587 61.5646 50.1879 61.5427C50.2098 61.5208 50.1952 61.5062 50.1514 61.5062C50.1003 61.5062 50.0785 61.426 50.093 61.302C50.1076 61.1926 50.093 61.054 50.0639 60.9956C50.0347 60.9373 49.9617 60.7914 49.896 60.6674C49.8304 60.5434 49.8012 60.4194 49.8304 60.3902C49.8595 60.3538 49.8887 60.1495 49.9033 59.9307C49.9179 59.5952 49.896 59.5368 49.7939 59.5368C49.7063 59.5368 49.6917 59.5149 49.7428 59.4785C49.7866 59.4493 49.845 59.2961 49.8668 59.1356C49.8887 58.9752 49.9179 58.7928 49.9325 58.7345C49.9471 58.6761 49.9836 58.5813 50.0128 58.5302C50.0468 58.4719 50.0152 58.4427 49.9179 58.4427C49.8012 58.4427 49.7866 58.4208 49.8668 58.3406C49.9106 58.2822 49.969 58.2458 49.9909 58.2603C50.0128 58.2676 49.9982 58.1436 49.9617 57.9759C49.9179 57.7716 49.9252 57.5893 49.9909 57.385C50.0493 57.2246 50.1003 57.0422 50.1149 56.9839C50.1222 56.9255 50.1879 56.8015 50.2463 56.7067C50.3047 56.6192 50.3411 56.4952 50.3193 56.4368C50.2974 56.3785 50.3193 56.3274 50.3557 56.3274C50.3922 56.3274 50.436 56.218 50.4506 56.0867C50.4579 55.9481 50.5017 55.8606 50.5601 55.8679C50.6184 55.8825 50.6403 55.8095 50.633 55.649C50.6257 55.525 50.6841 55.2697 50.7717 55.0874C50.8519 54.905 50.9395 54.6862 50.9614 54.5914C50.9906 54.5039 51.049 54.4309 51.0854 54.4309C51.1219 54.4309 51.2533 54.2632 51.3773 54.0662C51.5014 53.862 51.5889 53.6577 51.5816 53.614C51.567 53.5629 51.6327 53.5119 51.7276 53.5046C51.8151 53.49 51.9027 53.4243 51.9246 53.3514C51.9392 53.2857 52.0413 53.1763 52.1435 53.118C52.2456 53.0596 52.3259 52.9648 52.3259 52.9137C52.3259 52.87 52.3989 52.7824 52.4937 52.7241C52.5813 52.673 52.7199 52.5563 52.8002 52.4688C52.8878 52.3886 52.9972 52.3156 53.0556 52.3156C53.114 52.3229 53.2161 52.2719 53.2745 52.2062C53.3402 52.1333 53.4423 52.1041 53.5518 52.126C53.6612 52.1552 53.7561 52.1187 53.8583 52.002C53.9385 51.9072 54.0991 51.8342 54.2377 51.8269C54.369 51.8123 54.5223 51.7613 54.5807 51.7175C54.639 51.6664 54.836 51.6154 55.0185 51.6154C55.2009 51.6081 55.4782 51.5862 55.6314 51.557C55.7992 51.5279 55.9306 51.4549 55.9744 51.3674C56.0254 51.258 56.0911 51.2361 56.2152 51.2653C56.3027 51.2872 56.4341 51.2726 56.507 51.2288C56.5727 51.185 56.6968 51.1631 56.777 51.185C56.8646 51.2069 56.923 51.185 56.9303 51.1267C56.9303 51.0537 56.9376 51.0537 56.9668 51.1267C56.9813 51.1777 57.0324 51.2069 57.0689 51.185C57.1054 51.1631 57.193 51.185 57.2513 51.2215C57.3316 51.2726 57.39 51.2653 57.4556 51.185C57.5067 51.1267 57.6089 51.0975 57.6746 51.1121C57.7402 51.134 57.8205 51.1121 57.8424 51.0756C57.8764 51.0221 57.9202 51.0197 57.9737 51.0683ZM57.1784 56.218C57.12 56.1961 57.0616 56.2107 57.0543 56.2545C57.0397 56.2909 56.8719 56.3566 56.6749 56.393C56.4779 56.4295 56.3027 56.4952 56.2954 56.5389C56.2808 56.5827 56.186 56.6046 56.0838 56.5827C55.9744 56.5608 55.8138 56.6046 55.6825 56.6921C55.5584 56.7723 55.4636 56.8963 55.4636 56.9693C55.4636 57.0349 55.4198 57.1443 55.3614 57.2027C55.3103 57.261 55.2082 57.5455 55.1352 57.8227C55.0623 58.0999 55.0039 58.4135 55.0112 58.5156C55.0185 58.6178 54.9893 58.7126 54.9528 58.7345C54.9163 58.7563 54.8652 58.8876 54.8433 59.0262C54.8069 59.2159 54.8142 59.2523 54.8725 59.1721C54.9309 59.0919 54.9455 59.1283 54.9528 59.3545C54.9528 59.5149 54.9601 59.7119 54.9747 59.7921C54.982 59.8723 55.055 60.0766 55.1352 60.2444C55.2155 60.4121 55.2958 60.5361 55.3176 60.5288C55.3395 60.5142 55.3468 60.5799 55.3395 60.6747C55.3176 60.8279 55.3468 60.8498 55.573 60.8498C55.7847 60.8498 55.8284 60.8789 55.8503 61.0175C55.8576 61.1051 55.8868 61.1707 55.9233 61.1634C55.9525 61.1488 56.0911 61.1926 56.2298 61.2509C56.3684 61.3093 56.5654 61.3603 56.6676 61.3603C56.7697 61.3603 56.9157 61.4041 56.9959 61.4552C57.12 61.5281 57.1565 61.5208 57.2513 61.3822C57.3462 61.2291 57.3681 61.2291 57.4556 61.3312C57.5359 61.4333 57.5578 61.426 57.6891 61.2874C57.7694 61.2072 57.8862 61.1415 57.9445 61.1415C58.0029 61.1415 58.1416 61.0832 58.2583 60.9956C58.3678 60.9154 58.4553 60.8643 58.4553 60.8862C58.4553 60.9081 58.521 60.8862 58.6013 60.8498C58.6888 60.806 58.7326 60.7258 58.7107 60.6528C58.6888 60.5726 58.7472 60.4486 58.8421 60.3538C58.9296 60.2662 59.0829 60.1131 59.185 60.0255C59.2872 59.938 59.4477 59.7046 59.5426 59.5003C59.6374 59.3034 59.7323 59.0408 59.7469 58.9168C59.7615 58.7928 59.8126 58.6761 59.8636 58.6469C59.9293 58.6105 59.9293 58.574 59.8636 58.4865C59.798 58.4062 59.7907 58.326 59.8417 58.2239C59.8855 58.1363 59.8928 57.9978 59.8563 57.881C59.8198 57.7643 59.8053 57.5893 59.8198 57.4799C59.8271 57.3632 59.7834 57.1589 59.7177 57.013C59.6447 56.8745 59.528 56.7432 59.4623 56.7213C59.382 56.7067 59.3237 56.6119 59.3164 56.4952C59.3018 56.393 59.2507 56.2909 59.2069 56.2763C59.1558 56.2617 59.112 56.3128 59.1048 56.3857C59.0975 56.466 59.0756 56.4441 59.0464 56.3274C59.0099 56.1888 58.9369 56.1377 58.7837 56.1232C58.6596 56.1159 58.4115 56.094 58.2218 56.0721C57.9591 56.0429 57.8497 56.0648 57.7986 56.145C57.7548 56.2107 57.66 56.2399 57.5797 56.218C57.4994 56.1961 57.4338 56.145 57.4338 56.1086C57.4338 56.0721 57.3973 56.0356 57.3608 56.0356C57.3243 56.0356 57.2878 56.0867 57.2878 56.145C57.2878 56.2107 57.244 56.2399 57.1784 56.218Z" fill="#FF5D00"/>
</svg>
