<svg width="243" height="54" viewBox="0 0 243 54" fill="none" xmlns="http://www.w3.org/2000/svg">
<path d="M210.428 52.9481V50.5767H215.38L224.168 27.6297L214.961 3.70637H210.009V1.33496H224.865V3.70637H219.983L227.028 22.05L234.072 3.70637H230.236V1.33496H241.256V3.70637H236.304L228.144 24.9096L238.048 50.5767H243V52.9481H227.655V50.5767H233.026L225.284 30.5591L217.612 50.5767H221.797V52.9481H210.428Z" fill="#FF5D00"/>
<path d="M176.601 52.9481V50.5767H182.46V3.70637H176.601V1.33496H205.267V16.2609H203.314L202.338 8.79794C201.919 5.45006 199.99 3.77612 196.549 3.77612H187.342V23.5844H196.34V14.7265H198.572V34.8137H196.34V25.9558H187.342V50.5069H197.246C200.641 50.5069 202.547 48.8097 202.966 45.4153L204.012 36.6272H205.965V52.9481H176.601Z" fill="#FF5D00"/>
<path d="M141.727 52.9481V50.5767H147.586V3.70637H141.727V1.33496H171.091V16.2609H169.138L168.161 8.79794C167.743 5.45006 165.813 3.77612 162.372 3.77612H152.468V23.5844H162.303V14.7265H164.395V34.8137H162.303V25.9558H152.468V50.5767H163.767V52.9481H141.727Z" fill="#FF5D00"/>
<path d="M108.318 52.9481V50.5767H119.757V3.70637H108.318V1.33496H136.078V3.70637H124.639V50.5767H136.078V52.9481H108.318Z" fill="#FF5D00"/>
<path d="M74.979 52.948V50.7161H84.6739V3.77609H80.5588C77.1179 3.77609 75.1882 5.45003 74.7697 8.7979L73.7933 16.2609H71.8403V0.637451H73.0958L75.1882 1.33493H99.0419L101.134 0.637451H102.39V16.2609H100.437L99.4603 8.7979C99.0419 5.45003 97.1122 3.77609 93.6713 3.77609H89.5562V50.7161H99.2511V52.948H74.979Z" fill="#FF5D00"/>
<path d="M63.4702 53.6455C61.5173 53.6455 60.0061 52.9946 58.9367 51.6926C57.9137 50.3442 57.4022 48.6005 57.4022 46.4616V33.628C57.4022 31.0706 56.914 29.3037 55.9375 28.3272C55.0075 27.3043 53.1244 26.7928 50.288 26.7928H46.9401V50.5766H52.7291V52.9481H36.199V50.5766H42.0578V3.70637H36.199V1.33496H52.2409C55.7283 1.33496 58.4949 1.98594 60.5409 3.28789C62.6333 4.58984 64.1212 6.21728 65.0047 8.17021C65.9347 10.1231 66.3996 12.0528 66.3996 13.9592C66.3996 17.0746 65.4464 19.632 63.54 21.6315C61.6336 23.6309 59.0994 24.9561 55.9375 25.6071L55.5888 25.6768V26.0953L55.9375 26.165C57.9834 26.5835 59.5411 27.3275 60.6106 28.397C61.6801 29.4664 62.2148 31.2101 62.2148 33.628V45.9036C62.2148 46.3686 62.238 46.973 62.2845 47.717C62.3775 48.4145 62.61 49.0422 62.982 49.6002C63.354 50.1117 63.9585 50.3674 64.7955 50.3674C65.8649 50.3674 66.5624 49.9489 66.8879 49.112C67.2134 48.2285 67.3761 47.2985 67.3761 46.3221V34.2557H69.4685V46.5313C69.4685 47.5543 69.2825 48.6237 68.9106 49.7397C68.5851 50.8556 67.9806 51.7856 67.0971 52.5296C66.2601 53.2735 65.0512 53.6455 63.4702 53.6455ZM46.9401 24.5609H51.0552C54.1706 24.5609 56.542 23.9796 58.1694 22.8172C59.8434 21.6082 60.6803 19.446 60.6803 16.3307V12.4945C60.6803 9.37916 59.8434 7.124 58.1694 5.72905C56.542 4.2876 54.1706 3.56688 51.0552 3.56688H46.9401V24.5609Z" fill="#FF5D00"/>
<path d="M0 52.9481V50.5767H3.69662L15.7629 1.33496H18.5528L30.6192 50.5767H35.083V52.9481H18.6226V50.5767H25.6671L21.6217 34.0465H10.1134L6.13778 50.5767H11.0201V52.9481H0ZM15.8327 10.2626L10.6714 31.8146H21.0637L15.8327 10.2626Z" fill="#FF5D00"/>
</svg>
