<?xml version="1.0" encoding="utf-8"?>
<svg xmlns="http://www.w3.org/2000/svg" fill="none" height="100%" overflow="visible" preserveAspectRatio="none" style="display: block;" viewBox="0 0 300 66" width="100%">
<g id="ARTIFEX">
<path d="M259.787 64.581V61.6533H265.901L276.751 33.3238L265.384 3.78879H259.271V0.861123H277.612V3.78879H271.584L280.281 26.4352L288.978 3.78879H284.242V0.861123H297.847V3.78879H291.733L281.659 29.9656L293.886 61.6533H300V64.581H281.056V61.6533H287.686L278.128 36.9404L268.656 61.6533H273.823V64.581H259.787Z" fill="var(--fill-0, #FF5D00)" id="Vector"/>
<path d="M218.026 64.581V61.6533H225.259V3.78879H218.026V0.861123H253.416V19.2882H251.005L249.8 10.0747C249.283 5.94149 246.901 3.8749 242.653 3.8749H231.287V28.3296H242.395V17.3939H245.15V42.1929H242.395V31.2572H231.287V61.5672H243.514C247.705 61.5672 250.058 59.4719 250.575 55.2814L251.866 44.4318H254.277V64.581H218.026Z" fill="var(--fill-0, #FF5D00)" id="Vector_2"/>
<path d="M174.972 64.581V61.6533H182.205V3.78875H174.972V0.861084H211.223V19.2882H208.812L207.607 10.0746C207.09 5.94145 204.708 3.87486 200.46 3.87486H188.233V28.3295H200.374V17.3938H202.957V42.1929H200.374V31.2572H188.233V61.6533H202.182V64.581H174.972Z" fill="var(--fill-0, #FF5D00)" id="Vector_3"/>
<path d="M133.726 64.581V61.6533H147.847V3.78879H133.726V0.861123H167.997V3.78879H153.875V61.6533H167.997V64.581H133.726Z" fill="var(--fill-0, #FF5D00)" id="Vector_4"/>
<path d="M92.5669 64.581V61.8255H104.536V3.87486H99.4555C95.2075 3.87486 92.8252 5.94145 92.3085 10.0746L91.103 19.2882H88.692V0H90.242L92.8252 0.861083H122.274L124.857 0H126.407V19.2882H123.996L122.791 10.0746C122.274 5.94145 119.892 3.87486 115.644 3.87486H110.563V61.8255H122.532V64.581H92.5669Z" fill="var(--fill-0, #FF5D00)" id="Vector_5"/>
<path d="M78.358 65.4421C75.947 65.4421 74.0813 64.6384 72.761 63.0311C71.4981 61.3663 70.8666 59.2136 70.8666 56.573V40.7291C70.8666 37.5718 70.2639 35.3904 69.0584 34.1849C67.9103 32.922 65.5853 32.2905 62.0836 32.2905H57.9504V61.6533H65.0974V64.581H44.6898V61.6533H51.9229V3.78879H44.6898V0.861123H64.4946C68.8 0.861123 72.2157 1.6648 74.7415 3.27215C77.3247 4.87949 79.1617 6.88868 80.2524 9.2997C81.4005 11.7107 81.9746 14.093 81.9746 16.4467C81.9746 20.2928 80.7978 23.4501 78.4441 25.9185C76.0905 28.387 72.9619 30.023 69.0584 30.8267L68.6278 30.9128V31.4294L69.0584 31.5156C71.5842 32.0322 73.5073 32.9507 74.8276 34.271C76.1479 35.5913 76.8081 37.744 76.8081 40.7291V55.8841C76.8081 56.4582 76.8368 57.2044 76.8942 58.1229C77.009 58.984 77.296 59.759 77.7553 60.4478C78.2145 61.0793 78.9608 61.395 79.9941 61.395C81.3144 61.395 82.1755 60.8784 82.5773 59.8451C82.9792 58.7544 83.1801 57.6063 83.1801 56.4008V41.5041H85.7633V56.6591C85.7633 57.922 85.5337 59.2423 85.0745 60.62C84.6726 61.9978 83.9263 63.1459 82.8356 64.0644C81.8023 64.9828 80.3098 65.4421 78.358 65.4421ZM57.9504 29.5351H63.0308C66.877 29.5351 69.8046 28.8175 71.8138 27.3824C73.8804 25.8898 74.9137 23.2205 74.9137 19.3743V14.6384C74.9137 10.7922 73.8804 8.00808 71.8138 6.28592C69.8046 4.50636 66.877 3.61658 63.0308 3.61658H57.9504V29.5351Z" fill="var(--fill-0, #FF5D00)" id="Vector_6"/>
<path d="M0 64.581V61.6533H4.56373L19.4604 0.861123H22.9047L37.8014 61.6533H43.3123V64.581H22.9908V61.6533H31.6878L26.6935 41.2458H12.4857L7.57751 61.6533H13.6051V64.581H0ZM19.5465 11.8829L13.1745 38.4903H26.0046L19.5465 11.8829Z" fill="var(--fill-0, #FF5D00)" id="Vector_7"/>
</g>
</svg>