<svg width="134" height="118" viewBox="0 0 134 118" fill="none" xmlns="http://www.w3.org/2000/svg">
<path d="M128.056 0.814131C128.056 0.756577 128.171 0.64969 128.319 0.583914C128.509 0.501694 128.829 0.460584 129.372 0.468806C129.8 0.477028 130.22 0.509916 130.302 0.534582C130.376 0.559248 130.442 0.64969 130.442 0.723689C130.442 0.814131 130.557 0.929239 130.73 1.01146C130.944 1.12657 131.026 1.13479 131.043 1.05257C131.067 0.978571 131.108 0.986793 131.207 1.07724C131.322 1.1759 131.331 1.21701 131.248 1.30745C131.166 1.38967 131.166 1.41434 131.248 1.40612C131.306 1.40612 131.339 1.49656 131.339 1.62811C131.331 1.75966 131.347 1.98988 131.388 2.1461C131.429 2.36809 131.462 2.40098 131.52 2.31054C131.569 2.2201 131.594 2.25298 131.594 2.43387C131.602 2.66409 131.61 2.67231 131.684 2.49142C131.726 2.39276 131.791 2.31054 131.841 2.31054C131.89 2.31054 131.939 2.38454 131.964 2.47498C131.989 2.56542 131.972 2.65586 131.923 2.68053C131.874 2.7052 131.865 2.76275 131.907 2.81208C131.939 2.86141 131.915 2.92719 131.857 2.96008C131.8 2.98474 131.775 3.07519 131.8 3.14919C131.824 3.23141 131.874 3.28074 131.923 3.25607C131.972 3.23141 131.989 3.4534 131.964 3.88917C131.923 4.43182 131.939 4.54693 132.022 4.46471C132.071 4.41538 132.153 4.36604 132.186 4.36604C132.219 4.36604 132.178 4.44004 132.088 4.53048C131.997 4.62093 131.939 4.75248 131.964 4.81826C131.989 4.88403 131.972 4.94159 131.923 4.94159C131.874 4.94159 131.824 5.01558 131.8 5.10603C131.767 5.22113 131.709 5.26224 131.594 5.22936C131.462 5.19647 131.429 5.22936 131.429 5.3938C131.429 5.5089 131.388 5.60757 131.339 5.61579C131.289 5.63224 131.24 5.7309 131.232 5.83779C131.232 5.94467 131.174 6.05156 131.125 6.068C131.067 6.08445 131.018 6.05156 131.018 6.01045C131.018 5.96934 130.944 5.94467 130.853 5.96934C130.746 5.994 130.714 6.05156 130.755 6.10911C130.796 6.18311 130.763 6.19133 130.631 6.15022C130.491 6.10911 130.434 6.12556 130.401 6.23244C130.36 6.37222 130.352 6.37222 130.195 6.23244C130.097 6.15022 130.014 6.12556 129.99 6.17489C129.965 6.216 129.883 6.23244 129.809 6.20778C129.726 6.17489 129.578 6.20778 129.479 6.26533C129.372 6.33111 129.282 6.45444 129.274 6.54488C129.257 6.66821 129.183 6.7011 128.961 6.70932C128.805 6.71754 128.583 6.75865 128.467 6.80798C128.352 6.85732 128.064 6.93131 127.826 6.9642C127.587 7.00531 127.373 7.01353 127.349 6.97242C127.332 6.93954 127.192 6.93131 127.052 6.94776C126.904 6.9642 126.715 7.06287 126.641 7.15331C126.534 7.27664 126.402 7.32597 126.188 7.31775C126.016 7.30953 125.843 7.26842 125.794 7.23553C125.744 7.19442 125.67 7.25197 125.604 7.39175C125.506 7.5973 125.464 7.60552 125.168 7.54797C124.971 7.51508 124.847 7.5233 124.847 7.57263C124.847 7.61374 124.749 7.70419 124.625 7.76996C124.494 7.82752 124.23 7.88507 124.025 7.89329C123.819 7.89329 123.58 7.92618 123.49 7.95085C123.399 7.97551 123.26 7.9344 123.185 7.86862C123.07 7.76996 123.021 7.76174 122.98 7.83574C122.947 7.89329 122.906 7.96729 122.898 8.00018C122.881 8.04129 122.873 8.10706 122.873 8.14817C122.873 8.18928 122.799 8.23039 122.708 8.23039C122.618 8.23039 122.486 8.17284 122.42 8.10706C122.355 8.04129 122.223 7.98373 122.132 7.98373C122.042 7.98373 121.943 8.03307 121.91 8.09062C121.869 8.1564 121.737 8.2715 121.598 8.36195C121.425 8.47705 121.375 8.48528 121.433 8.39483C121.491 8.29617 121.474 8.29617 121.343 8.40306C121.26 8.47705 121.129 8.51816 121.063 8.50172C120.997 8.47705 120.915 8.50994 120.882 8.5675C120.841 8.65794 120.75 8.66616 120.454 8.60038C120.108 8.52639 120.076 8.52639 120.076 8.68261C120.076 8.8306 120.043 8.83882 119.771 8.78127C119.549 8.74016 119.376 8.76483 119.17 8.85527C118.973 8.95393 118.759 8.9786 118.471 8.94571C118.249 8.92927 117.928 8.95393 117.772 9.00326C117.616 9.06082 117.278 9.11015 117.031 9.12659C116.785 9.14304 116.488 9.18415 116.373 9.21704C116.258 9.24992 116.077 9.2417 115.962 9.20059C115.847 9.15948 115.74 9.15948 115.715 9.20059C115.69 9.2417 115.567 9.29926 115.427 9.32392C115.295 9.34859 115.114 9.33215 115.04 9.29104C114.933 9.2417 114.794 9.26637 114.563 9.38148C114.366 9.48014 114.259 9.50481 114.292 9.43903C114.316 9.3897 114.275 9.39792 114.185 9.47192C114.069 9.57058 113.88 9.60347 113.469 9.59525C113.164 9.59525 112.918 9.61169 112.918 9.64458C112.918 9.68569 112.794 9.67747 112.654 9.62814C112.482 9.57881 112.334 9.57881 112.259 9.62814C112.161 9.69391 112.169 9.70214 112.301 9.70214C112.449 9.70214 112.449 9.71858 112.342 9.83369C112.276 9.90769 112.161 9.94057 112.095 9.91591C112.029 9.89946 111.807 9.86658 111.601 9.85835C111.379 9.85013 111.223 9.88302 111.215 9.94057C111.198 9.99813 111.157 10.0392 111.108 10.0392C111.058 10.0392 111.042 9.98168 111.066 9.91591C111.094 9.83369 111.053 9.79258 110.943 9.79258C110.844 9.79258 110.779 9.85013 110.779 9.93235C110.779 10.0557 110.729 10.0721 110.474 10.0228C110.301 9.98991 110.129 9.99813 110.079 10.0392C110.03 10.0803 109.89 10.1297 109.75 10.1626C109.618 10.1872 109.454 10.2448 109.405 10.2859C109.33 10.3435 109.281 10.327 109.256 10.2448C109.232 10.1626 109.166 10.1379 109.051 10.179C108.952 10.2201 108.903 10.2941 108.927 10.3435C108.952 10.4092 108.878 10.475 108.746 10.5079C108.615 10.5326 108.434 10.5737 108.335 10.5901C108.212 10.6066 108.146 10.5737 108.146 10.4915C108.146 10.4257 108.113 10.3681 108.063 10.3681C108.014 10.3681 107.965 10.4092 107.94 10.4503C107.915 10.4915 107.874 10.5161 107.841 10.4915C107.8 10.475 107.693 10.4339 107.594 10.4092C107.438 10.3763 107.405 10.401 107.405 10.5737C107.405 10.7217 107.356 10.7874 107.224 10.8121C107.117 10.8368 106.977 10.7957 106.912 10.7217C106.805 10.6148 106.78 10.6148 106.731 10.7299C106.681 10.8368 106.591 10.8532 106.319 10.8039C106.056 10.7628 105.982 10.771 106.031 10.845C106.064 10.9026 106.04 10.9601 105.99 10.9765C105.933 10.993 105.809 10.9765 105.719 10.9437C105.628 10.9108 105.488 10.9026 105.414 10.919C105.332 10.9272 105.266 10.9683 105.266 11.0012C105.266 11.0423 105.192 11.0752 105.102 11.0834C105.011 11.0999 104.847 11.1163 104.731 11.1245C104.616 11.141 104.526 11.1739 104.526 11.2068C104.526 11.2479 104.46 11.2972 104.386 11.3219C104.304 11.3548 104.04 11.3877 103.81 11.4041C103.555 11.4205 103.374 11.4041 103.374 11.3548C103.374 11.3137 103.316 11.2561 103.25 11.2314C103.176 11.2068 103.094 11.2643 103.045 11.3959C102.995 11.511 102.954 11.6014 102.946 11.6014C102.93 11.6014 102.724 11.6343 102.493 11.6836C102.115 11.7576 102.016 11.7412 101.482 11.437L101.44 11.6014C101.416 11.6919 101.301 11.807 101.177 11.8563C101.045 11.9056 100.823 11.9467 100.683 11.9385C100.535 11.9385 100.412 11.9714 100.412 12.0125C100.412 12.0536 100.313 12.0865 100.19 12.0701C100.05 12.0536 99.9101 12.0947 99.8525 12.1687C99.7702 12.2674 99.7209 12.2756 99.6879 12.2016C99.655 12.1441 99.5481 12.1194 99.4493 12.1359C99.3424 12.1605 99.2766 12.2181 99.3013 12.2592C99.3259 12.3003 99.3177 12.3907 99.293 12.4401C99.2519 12.5223 99.2272 12.5223 99.1861 12.4483C99.1614 12.399 98.9639 12.3332 98.75 12.3085C98.388 12.2674 98.3469 12.2756 98.2317 12.4647C98.1659 12.5798 98.0754 12.6538 98.026 12.6292C97.9766 12.6045 97.8779 12.6127 97.8039 12.6456C97.7216 12.6703 97.6229 12.7032 97.5735 12.7114C97.5241 12.7114 97.3843 12.769 97.2444 12.8265C97.1128 12.8841 96.9235 12.9334 96.833 12.9416C96.7425 12.9416 96.6027 12.9169 96.5286 12.8923C96.4299 12.8539 96.3805 12.8758 96.3805 12.9581C96.3805 13.0238 96.3312 13.0814 96.2818 13.0814C96.2242 13.0732 96.1255 13.0156 96.0679 12.9334C96.0103 12.8594 95.9692 12.8347 95.9774 12.8758C95.9856 12.9169 95.9856 13.0074 95.9774 13.0567C95.9774 13.1143 95.9362 13.1472 95.8869 13.1225C95.8375 13.0978 95.7882 13.1225 95.7635 13.1636C95.7388 13.2047 95.5742 13.2458 95.3932 13.2458C95.2122 13.2458 94.9078 13.3198 94.7186 13.4103C94.5211 13.5007 94.3401 13.55 94.3072 13.5336C94.2661 13.5089 94.1591 13.5336 94.0604 13.5829C93.937 13.6405 93.8547 13.6405 93.83 13.5912C93.8053 13.5418 93.7148 13.5418 93.6079 13.5829C93.5009 13.624 93.4351 13.698 93.4598 13.7391C93.4845 13.7803 93.4022 13.8543 93.2788 13.8954C93.1471 13.9283 92.9579 13.9283 92.8427 13.8871C92.67 13.8296 92.6041 13.8543 92.4314 14.0763C92.308 14.2325 92.1269 14.3476 91.9789 14.3722C91.839 14.3887 91.5839 14.4134 91.4029 14.4134C91.2219 14.4134 90.9998 14.3887 90.9093 14.3476C90.7612 14.29 90.753 14.2982 90.8681 14.4216C90.934 14.5038 90.9669 14.586 90.934 14.6025C90.8928 14.6271 90.8106 14.586 90.7447 14.5202C90.6707 14.4462 90.572 14.4216 90.4979 14.4545C90.4239 14.4956 90.3498 14.5696 90.3334 14.6189C90.3087 14.6765 90.2182 14.7093 90.1277 14.6847C89.996 14.6518 89.9796 14.6765 90.0289 14.7833C90.0783 14.8985 90.0454 14.9067 89.8233 14.8656C89.6587 14.8327 89.5518 14.8409 89.5518 14.8902C89.5518 14.9313 89.5189 14.956 89.4695 14.9313C89.4201 14.9067 89.3378 14.9231 89.2885 14.9642C89.2227 15.0136 89.0746 15.0053 88.8936 14.9478C88.7372 14.8902 88.4822 14.8573 88.3423 14.8656C88.1613 14.882 88.0708 14.9313 88.0708 15.0136C88.0708 15.0793 88.005 15.1533 87.931 15.178C87.8487 15.2027 87.536 15.2356 87.2316 15.2602C86.8861 15.2849 86.6722 15.2684 86.6722 15.2191C86.6722 15.178 86.5734 15.1122 86.45 15.0876C86.2608 15.0547 86.1785 15.0958 85.9975 15.2931C85.8659 15.4329 85.7013 15.548 85.619 15.548C85.5368 15.548 85.4216 15.5891 85.3722 15.6467C85.3146 15.7042 85.1254 15.7535 84.9609 15.77C84.7963 15.7782 84.4343 15.7947 84.1628 15.8111C83.8831 15.8193 83.628 15.8769 83.5704 15.9344C83.4964 16.0002 83.3483 16.0249 83.1344 16.0002C82.8793 15.9673 82.8053 15.9838 82.8053 16.0824C82.8053 16.1482 82.7724 16.2058 82.723 16.2058C82.6736 16.2058 82.6325 16.1729 82.6243 16.1235C82.6078 16.0742 82.4597 16.0824 82.2293 16.1318C82.0237 16.1811 81.7275 16.2798 81.5712 16.3455C81.4148 16.4195 80.9952 16.5429 80.6497 16.6251C80.1314 16.7484 79.9833 16.7649 79.8845 16.6744C79.8105 16.6251 79.7364 16.6004 79.7035 16.6333C79.6788 16.6744 79.6953 16.6991 79.7447 16.6991C79.8023 16.6991 79.8434 16.7402 79.8434 16.7813C79.8434 16.8224 79.7858 16.8471 79.72 16.8224C79.6542 16.7977 79.5472 16.8142 79.4978 16.8471C79.4402 16.8882 79.2099 16.9704 78.996 17.0362C78.6669 17.1348 78.5846 17.1348 78.5435 17.0444C78.4941 16.954 78.4201 16.954 78.1156 17.0362C77.91 17.0937 77.7207 17.1842 77.6878 17.2335C77.6384 17.2911 77.6055 17.2911 77.5644 17.2253C77.5233 17.176 77.4163 17.1102 77.3176 17.0855C77.1613 17.0362 77.1283 17.0608 77.1283 17.1924C77.1283 17.2828 77.079 17.3651 77.0296 17.3651C76.972 17.3733 76.8898 17.3815 76.8404 17.3979C76.791 17.4062 76.7417 17.4226 76.717 17.4391C76.6923 17.4473 76.5936 17.4637 76.4948 17.4719C76.3879 17.4719 76.3056 17.4555 76.3056 17.4144C76.3056 17.3815 76.248 17.3568 76.1822 17.3568C76.1164 17.3568 76.0588 17.3979 76.0588 17.4391C76.0588 17.4802 75.9765 17.5377 75.8778 17.5542C75.7708 17.5788 75.6392 17.5542 75.5816 17.4966C75.4993 17.4226 75.4582 17.4226 75.417 17.4884C75.3841 17.5377 75.2936 17.5788 75.2196 17.5706C75.1373 17.5624 75.0715 17.5213 75.0633 17.4802C75.055 17.4391 75.0304 17.4884 74.9974 17.6035C74.9481 17.7679 74.8905 17.8008 74.7177 17.7844C74.5943 17.7762 74.4956 17.809 74.4956 17.8502C74.4956 17.8913 74.4462 17.9159 74.3968 17.8913C74.3392 17.8666 74.1912 17.883 74.0677 17.9324C73.9114 17.9899 73.7798 17.9899 73.6728 17.9324C73.5412 17.8666 73.5165 17.8748 73.5494 17.9735C73.5823 18.0639 73.5247 18.0968 73.3026 18.0968C73.1298 18.0968 73.0146 18.1379 73.0146 18.1955C73.0146 18.253 72.957 18.2284 72.8912 18.1379C72.8172 18.031 72.7267 17.9982 72.6444 18.031C72.5786 18.0722 72.5374 18.1379 72.5621 18.179C72.5868 18.2201 72.5457 18.2613 72.4799 18.2613C72.414 18.2613 72.3482 18.2119 72.3318 18.1544C72.3071 18.0804 72.2495 18.0804 72.0603 18.1626C71.8628 18.253 71.8134 18.253 71.7723 18.1626C71.7312 18.0804 71.7065 18.0804 71.6653 18.1544C71.6407 18.2119 71.5831 18.2448 71.5337 18.2201C71.4843 18.1955 71.4514 18.2366 71.4514 18.3024C71.4514 18.3681 71.4021 18.4257 71.3527 18.4339C71.2951 18.4339 71.0812 18.4421 70.8755 18.4586C70.6698 18.475 70.3983 18.4504 70.2584 18.4175C70.1186 18.3764 69.9705 18.3846 69.9129 18.4257C69.8388 18.4833 69.7813 18.4668 69.7154 18.3599C69.6496 18.2448 69.6414 18.2613 69.6743 18.4421C69.7237 18.6559 69.699 18.6724 69.4192 18.7135C69.2465 18.7381 69.0326 18.7546 68.9421 18.7628C68.8516 18.7628 68.7693 18.7217 68.761 18.6724C68.7446 18.6313 68.687 18.5901 68.6376 18.5901C68.58 18.5819 68.4566 18.6641 68.3661 18.7546C68.2756 18.845 68.1029 18.9272 67.9794 18.919C67.8478 18.919 67.7491 18.8697 67.7491 18.8121C67.7491 18.7546 67.6504 18.7217 67.5023 18.7299C67.3624 18.7464 67.2554 18.8039 67.2554 18.8532C67.2637 18.9355 67.239 18.9355 67.1567 18.8615C67.0744 18.7875 67.0004 18.7957 66.8029 18.919C66.6713 19.0095 66.5314 19.0835 66.4985 19.0835C66.4574 19.0835 66.4327 19.0259 66.4327 18.9601C66.4327 18.8944 66.3751 18.8368 66.3093 18.8368C66.2435 18.8368 66.1776 18.9026 66.1612 18.9766C66.1447 19.0835 66.0707 19.1246 65.8979 19.1246C65.7416 19.1246 65.6593 19.1657 65.6758 19.2232C65.684 19.289 65.5688 19.3466 65.3878 19.3712C65.215 19.3959 64.9106 19.4535 64.7049 19.4946C64.4993 19.5357 64.1948 19.5686 64.0303 19.5521C63.8575 19.5439 63.7176 19.5603 63.7176 19.5932C63.7176 19.6343 63.6271 19.659 63.512 19.659C63.3968 19.659 63.2898 19.7001 63.2651 19.7412C63.2405 19.7823 63.0677 19.8152 62.8784 19.8152C62.681 19.807 62.319 19.8646 62.0722 19.9386C61.7184 20.0372 61.6032 20.0454 61.5621 19.9632C61.5209 19.8974 61.4962 19.9057 61.4962 20.0043C61.4962 20.1277 61.4633 20.1359 61.3152 20.0783C61.2083 20.0454 61.0684 20.0372 61.0026 20.0701C60.9368 20.103 60.7475 20.1688 60.5912 20.2263C60.402 20.2839 60.295 20.2921 60.2868 20.2345C60.2703 20.177 60.1552 20.177 59.9577 20.2345C59.7602 20.2839 59.6368 20.2839 59.6286 20.2345C59.6122 20.1852 59.5134 20.1523 59.3982 20.1523C59.2831 20.1523 59.1185 20.2345 59.0362 20.3332C58.8799 20.5141 58.8717 20.5223 58.8306 20.3579C58.7976 20.2345 58.7154 20.1934 58.4932 20.1934C58.2711 20.1934 58.2299 20.2099 58.3204 20.2757C58.3945 20.3168 58.4439 20.4072 58.4521 20.4565C58.4521 20.5141 58.4192 20.5634 58.3698 20.5634C58.3287 20.5634 58.2711 20.5059 58.2464 20.4401C58.2135 20.3332 58.1724 20.3414 57.9831 20.4894C57.8515 20.5799 57.6623 20.6456 57.5471 20.6292C57.4319 20.6128 57.2838 20.5305 57.2015 20.4401C57.0699 20.2757 57.0699 20.2757 56.9547 20.4977C56.8971 20.621 56.7819 20.7443 56.7079 20.769C56.6174 20.7936 56.5598 20.769 56.5598 20.7032C56.5598 20.6539 56.4693 20.6045 56.3541 20.6045C56.2471 20.6045 56.132 20.6539 56.1073 20.7032C56.0826 20.7608 56.0003 20.8019 55.9263 20.7936C55.844 20.7936 55.7206 20.8101 55.6548 20.8348C55.5889 20.8676 55.375 20.9252 55.1858 20.9745C54.8732 21.0485 54.8156 21.0403 54.6675 20.8923C54.577 20.8019 54.4453 20.7279 54.3795 20.7279C54.3137 20.7279 54.2397 20.8183 54.215 20.9334C54.1903 21.0485 54.1162 21.139 54.0504 21.139C53.9846 21.139 53.927 21.0979 53.927 21.0567C53.927 21.0156 53.853 20.9334 53.7625 20.8923C53.639 20.8265 53.5485 20.843 53.4005 20.9499C53.2853 21.0321 53.1783 21.1636 53.1536 21.2376C53.1289 21.3199 53.0302 21.3856 52.9397 21.3856C52.8492 21.3856 52.7011 21.3445 52.6106 21.3034C52.4872 21.2459 52.4543 21.2459 52.4707 21.3199C52.479 21.3774 52.4214 21.4185 52.3473 21.4021C52.2651 21.3939 52.1992 21.4267 52.1992 21.4678C52.1992 21.509 52.1663 21.5336 52.117 21.509C52.0758 21.4843 52.0182 21.509 51.9936 21.5501C51.9689 21.5912 51.8701 21.6076 51.7714 21.583C51.6645 21.5501 51.5493 21.4925 51.4999 21.4596C51.4506 21.4185 51.4012 21.4514 51.3683 21.5336C51.3354 21.6158 51.1215 21.731 50.7924 21.8296C50.5044 21.9118 50.2164 22.0269 50.1588 22.0763C50.1013 22.1256 50.0519 22.1421 50.0601 22.1009C50.0601 22.0681 49.9038 22.1009 49.7146 22.1749C49.5171 22.2407 49.2127 22.3147 49.0317 22.3312C48.8507 22.3476 48.6285 22.3805 48.538 22.3969C48.4475 22.4134 48.3653 22.4709 48.357 22.5285C48.3406 22.5778 48.2419 22.6189 48.1267 22.6189C48.0115 22.6189 47.8552 22.6518 47.7811 22.6929C47.6988 22.7423 47.5261 22.7998 47.3862 22.8327C47.2546 22.8656 47.1065 22.882 47.0571 22.8656C47.016 22.8574 46.9008 22.8327 46.8103 22.8245C46.7198 22.808 46.6128 22.7834 46.5635 22.7752C46.5223 22.7587 46.3578 22.7998 46.2097 22.8656C46.0616 22.9314 45.9382 23.0136 45.9464 23.0465C45.9464 23.0876 45.8888 23.1123 45.823 23.1123C45.7572 23.1123 45.6831 23.0629 45.6667 23.0054C45.642 22.9231 45.6173 22.9231 45.5268 23.0054C45.4692 23.0629 45.354 23.1123 45.2718 23.1123C45.1895 23.1123 45.0825 23.03 45.0249 22.9231C44.9756 22.8163 44.918 22.7834 44.9015 22.8409C44.8851 22.8985 44.8192 22.9478 44.7534 22.9478C44.6876 22.9478 44.63 22.9971 44.63 23.0465C44.6218 23.104 44.5642 23.1945 44.4819 23.252C44.4079 23.3096 44.1857 23.3589 43.9965 23.3589C43.799 23.3589 43.6427 23.3178 43.6427 23.2767C43.6427 23.2356 43.5934 23.2109 43.544 23.2274C43.4864 23.2438 43.4453 23.3014 43.4617 23.3507C43.4699 23.4 43.4535 23.4411 43.4206 23.4411C43.3794 23.4411 43.3054 23.4 43.256 23.3425C43.1738 23.2602 43.1079 23.252 42.9434 23.3342C42.8282 23.3918 42.6637 23.4411 42.5732 23.4411C42.4827 23.4411 42.3839 23.3836 42.351 23.3096C42.2934 23.1945 42.277 23.1945 42.1618 23.3178C42.096 23.3918 41.9396 23.4494 41.8162 23.4411C41.6846 23.4411 41.5859 23.4822 41.5859 23.5234C41.5859 23.5727 41.4625 23.5809 41.2568 23.5398C40.9935 23.4905 40.9277 23.5069 40.8865 23.622C40.8619 23.7125 40.7631 23.77 40.6397 23.77C40.5081 23.77 40.434 23.7207 40.434 23.6467C40.434 23.548 40.3682 23.5562 40.0885 23.696C39.891 23.7947 39.7265 23.8769 39.7265 23.8851C39.7182 23.8933 39.636 23.8193 39.5372 23.7289C39.4303 23.622 39.3151 23.5891 39.241 23.622C39.1752 23.6631 39.1176 23.7453 39.1176 23.8111C39.1176 23.8769 39.0683 23.9345 39.0189 23.9345C38.9613 23.9427 38.6816 23.9509 38.3936 23.9591C37.9905 23.9673 37.8506 24.0085 37.793 24.1153C37.7519 24.1976 37.6367 24.2633 37.538 24.2633C37.431 24.2633 37.2171 24.2222 37.0608 24.1729C36.8386 24.0989 36.7646 24.0907 36.7564 24.1647C36.7399 24.2222 36.6741 24.2633 36.6083 24.2633C36.5425 24.2633 36.3861 24.3373 36.2627 24.436C36.1064 24.5511 35.9665 24.5922 35.8267 24.5593C35.6786 24.5264 35.5716 24.5593 35.4564 24.6744C35.3166 24.8224 35.2096 24.8471 34.6584 24.8224C34.2799 24.806 34.0084 24.8307 33.992 24.88C33.9755 24.9211 33.8356 24.9787 33.6958 25.0033C33.5148 25.028 33.4078 25.0033 33.3584 24.9211C33.2926 24.8142 33.2844 24.8142 33.2844 24.9211C33.2844 25.0198 33.2597 25.028 33.1528 24.9375C33.054 24.8553 33.0129 24.8635 32.9553 24.9787C32.9059 25.0855 32.8319 25.1102 32.7085 25.0609C32.6015 25.028 32.5275 25.0362 32.5192 25.0938C32.5028 25.1595 32.2724 25.1924 31.9022 25.2006C31.3839 25.2089 31.3016 25.2253 31.2687 25.3733C31.2358 25.5049 31.2029 25.5213 31.1206 25.4309C31.063 25.3733 30.9643 25.3322 30.9149 25.3322C30.8573 25.3322 30.8244 25.3898 30.8491 25.4555C30.8738 25.5295 30.8326 25.5953 30.7503 25.62C30.6681 25.6446 30.5611 25.6035 30.5035 25.5213C30.4048 25.3815 30.4048 25.3815 30.3966 25.5131C30.3966 25.5953 30.3554 25.6857 30.2978 25.7186C30.2238 25.768 30.2156 25.7351 30.2567 25.5953C30.2978 25.4637 30.2814 25.4144 30.1909 25.4144C30.1251 25.4144 30.0675 25.4555 30.0675 25.4966C30.0675 25.5378 29.9276 25.6117 29.7631 25.6611C29.5903 25.7022 29.4257 25.7186 29.3928 25.7022C29.3517 25.6775 29.2694 25.7351 29.2036 25.8255C29.1378 25.916 29.0308 25.9653 28.9815 25.9406C28.9239 25.916 28.7264 25.9324 28.5454 25.9817C28.2903 26.0475 28.1669 26.0393 27.9942 25.9489C27.7885 25.842 27.7638 25.842 27.7638 25.9489C27.7638 26.0146 27.7062 26.0722 27.6404 26.0722C27.5746 26.0722 27.517 26.0146 27.517 25.9489C27.517 25.8749 27.4676 25.842 27.3936 25.8666C27.3277 25.8913 27.2866 25.9571 27.3113 26.0064C27.336 26.064 27.2701 26.1626 27.1467 26.212C27.0151 26.2777 26.76 26.3024 26.4474 26.2777C26.143 26.2531 25.9538 26.2695 25.9538 26.3188C25.9538 26.36 25.8962 26.3435 25.8303 26.2777C25.7316 26.1791 25.6823 26.1708 25.5671 26.2531C25.493 26.3106 25.3367 26.3682 25.2215 26.3764C25.1063 26.3846 24.876 26.4175 24.7196 26.4504C24.5633 26.4751 24.3823 26.5491 24.3247 26.5984C24.2425 26.6642 24.2178 26.6642 24.226 26.5819C24.226 26.5162 24.1437 26.4915 24.0039 26.5162C23.8722 26.5326 23.7077 26.5162 23.6336 26.4751C23.5267 26.4257 23.4855 26.4339 23.4855 26.4997C23.4938 26.5573 23.395 26.7053 23.2798 26.8286C23.1647 26.9602 23.0166 27.0424 22.9507 27.0177C22.8849 26.993 22.8273 27.0177 22.8273 27.0588C22.8273 27.0999 22.7697 27.141 22.7039 27.141C22.6381 27.141 22.5558 27.1986 22.5229 27.2644C22.4736 27.3548 22.3913 27.363 22.2103 27.3219C22.0704 27.2808 21.8894 27.289 21.7825 27.3384C21.6755 27.3877 21.5932 27.4535 21.5932 27.4864C21.5932 27.5275 21.8071 27.5439 22.0704 27.5439C22.3255 27.5357 22.6134 27.5686 22.7039 27.6179C22.7944 27.6673 23.0742 27.6837 23.321 27.6673C23.6418 27.6344 23.8064 27.659 23.8969 27.7413C23.9627 27.807 24.152 27.8975 24.3083 27.955C24.4646 28.0044 24.6045 28.0455 24.6209 28.0455C24.6291 28.0455 24.6374 27.9879 24.6374 27.9221C24.6374 27.8399 24.7196 27.7988 24.8677 27.7988C24.9911 27.7988 25.1804 27.7741 25.2956 27.7413C25.4601 27.6919 25.493 27.7084 25.4519 27.7988C25.4107 27.8975 25.4601 27.9139 25.674 27.8975C25.9126 27.881 25.962 27.9139 25.9949 28.0866C26.0278 28.251 26.0689 28.2839 26.2253 28.2428C26.324 28.2181 26.4392 28.1606 26.4885 28.1195C26.5297 28.0784 26.6202 28.0455 26.6942 28.0455C26.76 28.0455 26.9328 28.0948 27.0645 28.1688C27.2043 28.2346 27.41 28.2921 27.5417 28.2921C27.6651 28.2921 27.7638 28.3332 27.7638 28.3743C27.7638 28.4155 27.8214 28.4566 27.8872 28.4566C27.953 28.4566 28.0271 28.4072 28.0435 28.3497C28.0682 28.2839 28.1011 28.2757 28.1505 28.3415C28.1834 28.3908 28.2903 28.4155 28.3808 28.399C28.4713 28.3826 28.8251 28.3661 29.1625 28.3743C29.4998 28.3743 29.9276 28.4237 30.1086 28.473C30.3801 28.547 30.4788 28.5388 30.6681 28.4319C30.7915 28.3497 30.9313 28.2921 30.9725 28.2921C31.0219 28.2921 31.0383 28.3332 31.0136 28.3743C30.9889 28.4155 31.0136 28.4566 31.0548 28.4566C31.1041 28.4566 31.137 28.4319 31.137 28.3908C31.137 28.3579 31.2687 28.325 31.425 28.3086C31.5978 28.3003 31.6965 28.325 31.6718 28.3743C31.6471 28.4155 31.6883 28.473 31.7541 28.4977C31.8199 28.5223 31.9515 28.5388 32.0421 28.5388C32.1326 28.5388 32.2231 28.4895 32.2477 28.4319C32.2642 28.3826 32.3794 28.3086 32.4946 28.2675C32.6097 28.2346 32.7496 28.2346 32.8072 28.2675C32.8566 28.3003 33.2021 28.3332 33.5641 28.3415C33.9261 28.3415 34.3128 28.3743 34.428 28.399C34.5432 28.4319 34.6501 28.4812 34.6748 28.5141C34.6995 28.5388 34.6502 28.5388 34.5761 28.5141C34.4938 28.4812 34.428 28.4977 34.428 28.5388C34.428 28.5799 34.4774 28.621 34.5432 28.621C34.609 28.621 34.716 28.5717 34.7736 28.5141C34.8312 28.4566 34.9052 28.399 34.9463 28.3908C34.9792 28.3826 35.1027 28.4072 35.2343 28.4483C35.3577 28.4895 35.621 28.4895 35.8267 28.4566C36.0324 28.4155 36.2134 28.4237 36.238 28.4566C36.2627 28.4977 36.5178 28.5306 36.814 28.5388C37.1101 28.547 37.5627 28.547 37.8259 28.547C38.081 28.5388 38.3854 28.5799 38.5006 28.621C38.6651 28.6868 38.7063 28.6786 38.7063 28.5799C38.7063 28.4812 38.7968 28.4648 39.1423 28.4895C39.3727 28.5059 39.6113 28.5388 39.6524 28.5635C39.7018 28.5881 39.9239 28.5717 40.1461 28.5223C40.3764 28.4812 41.1004 28.4401 41.7751 28.4319C42.5402 28.4237 42.9845 28.4483 42.9845 28.4977C42.9763 28.5388 43.0339 28.5223 43.1079 28.4566C43.2067 28.3579 43.256 28.3579 43.3383 28.4319C43.4124 28.5141 43.4617 28.5059 43.544 28.3908C43.6427 28.2675 43.6427 28.2675 43.6098 28.4319C43.5769 28.5635 43.5934 28.621 43.6839 28.621C43.7497 28.621 43.9225 28.5635 44.0541 28.4977C44.2762 28.3908 44.4079 28.3908 45.3129 28.5059C45.8641 28.5717 46.4318 28.6457 46.5635 28.6621C46.7033 28.6786 46.9666 28.7197 47.1558 28.7608C47.3451 28.7937 47.4849 28.8512 47.4603 28.8841C47.4438 28.9252 47.559 28.9417 47.7153 28.9252C47.9073 28.9143 47.9895 28.8731 47.9621 28.8019C47.9374 28.7361 48.0279 28.6868 48.2336 28.6539C48.3982 28.621 48.6532 28.5881 48.7849 28.5799C48.9247 28.5717 49.0481 28.5552 49.0728 28.5388C49.0975 28.5306 49.2291 28.5306 49.3608 28.5388C49.5007 28.547 49.657 28.5963 49.7146 28.6457C49.8051 28.7279 49.8215 28.7197 49.7804 28.621C49.7392 28.5306 49.7968 28.4895 49.9778 28.4566C50.1095 28.4319 50.2247 28.4483 50.2164 28.4977C50.2164 28.547 50.274 28.5306 50.3481 28.473C50.4468 28.3908 50.5291 28.399 50.7594 28.4977C50.9158 28.5635 51.0721 28.6046 51.105 28.5799C51.1297 28.5552 51.1132 28.5388 51.0639 28.5388C51.0063 28.5388 50.9816 28.5141 50.998 28.473C51.0145 28.4401 51.212 28.4072 51.4341 28.3908C51.6645 28.3826 51.8455 28.4072 51.8701 28.4648C51.9031 28.5306 51.9689 28.5306 52.117 28.4566C52.2486 28.3908 52.4872 28.3743 52.7752 28.4072C53.022 28.4319 53.3429 28.473 53.4745 28.4895C53.6144 28.5059 53.9435 28.547 54.215 28.5799C54.4865 28.6046 54.9883 28.6292 55.3257 28.6128C55.663 28.6046 56.0168 28.6046 56.1073 28.6046C56.1978 28.6128 56.4775 28.621 56.7243 28.621C56.9712 28.621 57.2262 28.6621 57.2838 28.7197C57.3661 28.8019 57.3908 28.8019 57.3825 28.7197C57.3825 28.6703 57.4813 28.5881 57.6129 28.5552C57.7363 28.5223 58.197 28.4977 58.6413 28.5141C59.0774 28.5306 59.4394 28.5141 59.4394 28.473C59.4394 28.4401 59.6697 28.4155 59.9577 28.4237C60.3691 28.4237 60.5089 28.4648 60.6735 28.6128C60.8463 28.7608 60.8792 28.7772 60.9039 28.6703C60.9121 28.5963 60.9779 28.5223 61.0437 28.4977C61.1096 28.473 61.2576 28.5141 61.3728 28.5799C61.5538 28.6868 61.5867 28.6868 61.6196 28.5799C61.6443 28.5141 61.7184 28.473 61.7842 28.4977C61.85 28.5223 61.9076 28.4895 61.9076 28.4319C61.9076 28.3826 61.9652 28.4072 62.031 28.4977C62.138 28.6539 62.1709 28.6539 62.393 28.5388C62.5247 28.473 62.7468 28.4237 62.8867 28.4319C63.0677 28.4483 63.1335 28.4977 63.1253 28.5881C63.1088 28.6703 63.1582 28.7443 63.224 28.769C63.3145 28.8019 63.331 28.7772 63.2898 28.6786C63.2487 28.5963 63.2569 28.5388 63.3063 28.5388C63.3556 28.5388 63.3885 28.6046 63.3885 28.6786C63.3968 28.8101 63.405 28.8101 63.4955 28.7032C63.5613 28.6128 63.7259 28.5717 63.9809 28.5799C64.2607 28.5799 64.4005 28.621 64.4746 28.7361C64.5733 28.8759 64.5898 28.8759 64.7296 28.7526C64.8119 28.6703 64.96 28.6375 65.0998 28.6621C65.2233 28.6786 65.3631 28.6539 65.4207 28.5963C65.4865 28.5306 65.5688 28.5223 65.6675 28.5717C65.7498 28.6128 65.9473 28.6539 66.1036 28.6539C66.2599 28.6621 66.4409 28.6046 66.515 28.5306C66.6055 28.4401 66.77 28.4072 67.132 28.4155C67.4035 28.4319 67.782 28.4155 67.9794 28.3826C68.2427 28.3497 68.3579 28.3661 68.4155 28.4566C68.4895 28.5552 68.4978 28.5552 68.4566 28.4319C68.4073 28.3003 68.4731 28.2921 69.2547 28.3332C69.9293 28.3661 70.1186 28.4072 70.2009 28.5223C70.2996 28.6539 70.2996 28.6539 70.2996 28.5141C70.2996 28.4319 70.3654 28.3743 70.4641 28.3743C70.5546 28.3743 70.7685 28.3661 70.9413 28.3661C71.1059 28.3579 71.3198 28.3826 71.4103 28.4155C71.5008 28.4483 71.6571 28.4566 71.7641 28.4237C71.8628 28.399 72.0027 28.4237 72.0767 28.473C72.1672 28.547 72.2248 28.5552 72.2577 28.4895C72.2906 28.4401 72.5621 28.4072 72.8912 28.4072C73.3026 28.4155 73.4589 28.4483 73.4507 28.5141C73.4342 28.5717 73.4671 28.621 73.5083 28.621C73.5576 28.621 73.5906 28.5799 73.5906 28.5388C73.5906 28.4977 73.6564 28.473 73.7386 28.4895C73.8127 28.5059 74.1007 28.4648 74.3722 28.399C74.8411 28.2921 74.874 28.2921 75.055 28.4483C75.236 28.621 75.236 28.621 75.3183 28.4566C75.3677 28.3661 75.4335 28.3086 75.4829 28.3332C75.5322 28.3579 75.5734 28.3332 75.5898 28.2921C75.598 28.2428 75.9189 28.1852 76.3056 28.1524C76.6923 28.1277 77.0954 28.103 77.2106 28.103C77.3258 28.103 77.5891 28.103 77.8112 28.1112C78.1732 28.1277 78.1979 28.1441 78.1403 28.3086C78.091 28.4812 78.0992 28.4895 78.2308 28.3743C78.3049 28.3086 78.3707 28.2099 78.3625 28.1688C78.3625 28.1195 78.6093 28.0866 78.9384 28.0866C79.2592 28.0866 79.5143 28.1112 79.5143 28.1441C79.5143 28.1852 79.4814 28.2099 79.432 28.2099C79.3909 28.2099 79.3497 28.251 79.3497 28.2921C79.3497 28.3469 79.4046 28.3469 79.5143 28.2921C79.624 28.2373 79.6788 28.2373 79.6788 28.2921C79.6788 28.3415 79.8023 28.3579 79.9915 28.325C80.156 28.2921 80.337 28.2181 80.3782 28.1441C80.444 28.0455 80.5098 28.0372 80.7073 28.103C80.8471 28.1524 81.0528 28.1524 81.1845 28.1112C81.3161 28.0701 81.4231 28.0784 81.4477 28.1277C81.4724 28.1688 81.4724 28.2346 81.456 28.2675C81.4395 28.3086 81.4807 28.3332 81.5547 28.3415C81.637 28.3415 81.7357 28.3003 81.7768 28.2428C81.8262 28.1852 82.0319 28.1195 82.254 28.0948C82.4844 28.0619 82.6407 28.0784 82.6407 28.1277C82.6407 28.1688 82.6819 28.2099 82.723 28.2099C82.7724 28.2099 82.8053 28.1524 82.8053 28.0866C82.8053 27.9961 82.8958 27.9632 83.2002 27.9715C83.4141 27.9797 83.6445 28.0126 83.7103 28.0537C83.7843 28.0948 83.9077 28.0701 84.0229 27.9797C84.1546 27.8892 84.2451 27.8646 84.2862 27.9221C84.3273 27.9632 84.5166 27.9961 84.6976 27.9797C84.8786 27.9715 85.0267 28.0044 85.0267 28.0455C85.0267 28.0866 85.1501 28.0701 85.2982 27.9879C85.438 27.9139 85.7013 27.8399 85.8741 27.8235C86.0386 27.8153 86.1785 27.8317 86.1785 27.881C86.1785 27.9221 86.2526 27.9797 86.3431 28.0044C86.4336 28.029 86.5076 28.0208 86.5076 27.9797C86.5076 27.9468 86.6968 27.8975 86.9354 27.8728C87.2261 27.8344 87.4757 27.8536 87.6841 27.9304C87.8651 27.9961 87.9886 28.0126 87.9886 27.9632C87.9886 27.9221 88.112 27.881 88.26 27.881C88.4986 27.8728 88.5151 27.8892 88.3999 28.0126C88.293 28.1359 88.293 28.1524 88.3999 28.103C88.4657 28.0784 88.655 28.0126 88.8113 27.9632C89.0088 27.8975 89.2227 27.8892 89.4695 27.9386C89.7245 27.9879 89.8315 28.0537 89.8233 28.1359C89.8068 28.2017 89.8726 28.2592 89.9631 28.2675C90.0536 28.2839 90.1441 28.251 90.1688 28.2099C90.1935 28.1688 90.284 28.1277 90.3745 28.1277C90.465 28.1277 90.5391 28.1688 90.5391 28.2099C90.5391 28.2592 90.7283 28.2839 90.9751 28.2757C91.2055 28.2675 91.4523 28.2921 91.5099 28.3168C91.5592 28.3497 91.6086 28.3332 91.6086 28.2921C91.6086 28.251 91.6662 28.2099 91.732 28.2099C91.7979 28.2099 91.8719 28.2592 91.8801 28.3086C91.9048 28.3908 91.9624 28.3908 92.1352 28.2921C92.3409 28.177 92.3738 28.1852 92.4807 28.3086C92.5712 28.4237 92.637 28.4401 92.7605 28.3743C92.8839 28.3168 92.999 28.325 93.1965 28.4237C93.394 28.5223 93.4433 28.5306 93.4104 28.4401C93.3693 28.3661 93.4845 28.3003 93.8218 28.2181C94.0768 28.1606 94.3319 28.1277 94.3895 28.1606C94.4389 28.1852 94.5047 28.1852 94.5211 28.1441C94.5376 28.1112 94.6939 28.0948 94.8749 28.103C95.0477 28.1112 95.3439 28.1277 95.5413 28.1441C95.7881 28.1606 95.8869 28.2017 95.8869 28.2921C95.8787 28.3908 95.9033 28.399 96.0103 28.3086C96.0761 28.2592 96.1584 28.2181 96.1995 28.2263C96.2324 28.2428 96.3476 28.1606 96.4628 28.0537C96.6438 27.881 96.6849 27.881 96.7919 27.9879C96.8988 28.0948 96.9482 28.0948 97.121 28.0044C97.2362 27.9386 97.3678 27.9139 97.409 27.9386C97.4583 27.9632 97.6229 28.0044 97.7792 28.0208C97.9355 28.0455 98.2893 28.0701 98.5608 28.0866C98.8323 28.103 99.1285 28.1277 99.219 28.1524C99.3095 28.1688 99.4576 28.2263 99.5481 28.2757C99.6386 28.3168 99.8607 28.3826 100.042 28.4155C100.289 28.4566 100.404 28.4401 100.519 28.3415C100.618 28.251 100.774 28.2181 101.054 28.2428C101.268 28.2592 101.523 28.2839 101.63 28.2839C101.728 28.2921 101.811 28.3415 101.811 28.4155C101.811 28.4812 101.852 28.5388 101.893 28.5388C101.942 28.5388 101.975 28.4812 101.975 28.4155C101.975 28.3497 102 28.2839 102.041 28.2839C102.074 28.2757 102.222 28.2592 102.37 28.2428C102.51 28.2264 102.65 28.251 102.675 28.2921C102.699 28.3497 102.823 28.3415 103.028 28.2839C103.226 28.2264 103.621 28.2099 104.155 28.251C104.608 28.2757 105.052 28.3086 105.143 28.3086C105.233 28.3086 105.579 28.3003 105.9 28.2839C106.229 28.2675 106.508 28.2839 106.517 28.3168C106.533 28.3579 106.772 28.3579 107.051 28.3168C107.339 28.2839 107.578 28.2757 107.586 28.3086C107.603 28.3332 107.767 28.3332 107.965 28.3086C108.154 28.2757 108.335 28.2675 108.36 28.2921C108.384 28.3168 108.631 28.3415 108.911 28.3579C109.191 28.3661 109.997 28.3826 110.696 28.399C111.396 28.4155 112.046 28.3908 112.136 28.3497C112.251 28.3003 112.317 28.3086 112.358 28.3908C112.399 28.4812 112.432 28.4812 112.523 28.3908C112.594 28.3195 112.753 28.3003 113 28.3332C113.206 28.3579 113.411 28.4319 113.452 28.4977C113.502 28.5635 113.576 28.621 113.617 28.621C113.666 28.621 113.773 28.5552 113.864 28.4648C113.954 28.3661 114.053 28.3168 114.094 28.3332C114.127 28.3579 114.242 28.325 114.357 28.2675C114.506 28.1935 114.58 28.1935 114.662 28.2592C114.728 28.3168 115.007 28.3415 115.369 28.325C115.871 28.3003 115.97 28.3168 116.036 28.4319C116.11 28.5717 116.118 28.5717 116.159 28.4319C116.184 28.3579 116.283 28.2921 116.373 28.2921C116.464 28.2921 116.554 28.3168 116.571 28.3497C116.595 28.3908 116.71 28.399 116.842 28.3826C116.966 28.3661 117.089 28.399 117.114 28.4566C117.147 28.5223 117.509 28.547 118.348 28.5388C119.006 28.5306 119.82 28.5141 120.158 28.5141C120.495 28.5059 120.8 28.4648 120.832 28.4155C120.865 28.3743 121.013 28.325 121.162 28.3168C121.31 28.3086 121.515 28.2839 121.622 28.2592C121.721 28.2346 121.82 28.251 121.844 28.2921C121.869 28.3332 121.984 28.3497 122.116 28.325C122.239 28.2921 122.758 28.2592 123.268 28.2428C123.844 28.2181 124.189 28.2428 124.189 28.2921C124.189 28.3332 124.239 28.3743 124.296 28.3743C124.346 28.3743 124.461 28.3086 124.551 28.2263C124.666 28.1195 124.823 28.0948 125.251 28.1112C125.547 28.1195 125.958 28.1441 126.164 28.1606C126.369 28.177 126.888 28.2181 127.316 28.251C127.743 28.2839 128.18 28.3415 128.286 28.3826C128.393 28.4237 128.542 28.4237 128.657 28.3743C128.755 28.3332 128.871 28.325 128.904 28.3579C128.945 28.3908 129.331 28.4155 129.767 28.4155C130.203 28.4155 130.631 28.4401 130.714 28.473C130.821 28.5223 130.878 28.4812 130.944 28.3086C131.034 28.103 131.043 28.103 131.092 28.251C131.125 28.3579 131.215 28.4155 131.331 28.4155C131.438 28.4155 131.545 28.4401 131.561 28.473C131.577 28.5141 131.643 28.4895 131.701 28.4319C131.75 28.3743 131.791 28.3497 131.783 28.3743C131.767 28.399 131.833 28.4648 131.923 28.5141C132.014 28.5717 132.137 28.5963 132.195 28.5717C132.244 28.5388 132.376 28.5388 132.482 28.5717C132.581 28.5963 132.663 28.6786 132.663 28.7443C132.663 28.8101 132.705 28.8677 132.746 28.8677C132.795 28.8677 132.853 28.8759 132.894 28.8923C132.927 28.9006 133.025 28.9663 133.124 29.0321C133.215 29.0979 133.322 29.2294 133.355 29.3199C133.412 29.4761 133.42 29.4761 133.536 29.3363C133.643 29.2048 133.659 29.2048 133.733 29.361C133.782 29.4514 133.824 29.6323 133.84 29.7639C133.848 29.8954 133.881 30.0352 133.914 30.0763C133.947 30.1092 133.955 30.1914 133.93 30.2407C133.906 30.323 133.848 30.323 133.733 30.2654C133.623 30.2106 133.555 30.2106 133.527 30.2654C133.503 30.3065 133.503 30.3887 133.527 30.4299C133.552 30.471 133.536 30.5778 133.494 30.6518C133.453 30.7341 133.445 30.8738 133.478 30.9561C133.527 31.0958 133.536 31.1041 133.675 30.9725C133.749 30.8985 133.815 30.8821 133.815 30.9232C133.815 30.9643 133.791 31.0218 133.758 31.0383C133.717 31.0547 133.684 31.1863 133.675 31.3261C133.659 31.4658 133.692 31.5809 133.733 31.5809C133.782 31.5809 133.758 31.6714 133.692 31.7865C133.626 31.9016 133.585 32.0496 133.61 32.1154C133.634 32.1811 133.618 32.3127 133.568 32.4031C133.511 32.5182 133.519 32.5922 133.593 32.6498C133.643 32.6909 133.717 32.7074 133.758 32.6662C133.791 32.6334 133.815 32.658 133.815 32.7074C133.815 32.7649 133.782 32.8142 133.733 32.8142C133.684 32.8142 133.667 33.1678 133.684 33.7762C133.708 34.3106 133.725 34.7629 133.733 34.7875C133.749 34.8122 133.749 34.8697 133.733 34.9109C133.725 34.952 133.684 35.2726 133.643 35.6097C133.601 35.9468 133.552 36.399 133.527 36.6128C133.494 36.9088 133.519 37.0321 133.61 37.0897C133.708 37.1555 133.725 37.2788 133.684 37.6406C133.659 37.9037 133.634 38.2161 133.626 38.3394C133.618 38.471 133.634 38.5697 133.675 38.5697C133.708 38.5697 133.708 38.6354 133.684 38.7094C133.659 38.7916 133.626 38.9643 133.618 39.1041C133.61 39.2439 133.651 39.4905 133.708 39.655C133.766 39.8276 133.807 40.1729 133.799 40.4196C133.782 40.6663 133.758 40.8718 133.733 40.8718C133.708 40.8718 133.684 41.0856 133.675 41.3487C133.667 41.6282 133.7 41.8585 133.758 41.9242C133.832 42.0065 133.832 42.0311 133.758 42.0229C133.684 42.0229 133.659 42.138 133.675 42.4093C133.684 42.656 133.659 42.7958 133.593 42.8204C133.536 42.8287 133.503 42.8698 133.519 42.9027C133.544 42.9438 133.577 43.0753 133.601 43.2151C133.618 43.3549 133.61 43.5358 133.568 43.6262C133.536 43.7166 133.478 44.0126 133.445 44.284C133.412 44.5553 133.379 44.8513 133.371 44.9417C133.363 45.0322 133.338 45.1555 133.297 45.2048C133.264 45.2624 133.281 45.3282 133.322 45.3528C133.371 45.3775 133.404 45.7804 133.404 46.2984C133.404 47.0466 133.379 47.2028 133.281 47.2028C133.174 47.2028 133.174 47.2274 133.281 47.4083C133.355 47.5317 133.371 47.6303 133.322 47.655C133.267 47.6824 133.267 47.7646 133.322 47.9016C133.387 48.0579 133.379 48.0908 133.305 48.0414C133.231 48.0003 133.223 48.0414 133.264 48.2059C133.302 48.3593 133.289 48.447 133.223 48.469C133.141 48.5019 133.141 48.5183 133.215 48.5759C133.272 48.6087 133.355 48.765 133.404 48.9047C133.47 49.1185 133.462 49.2007 133.363 49.2994C133.256 49.4063 133.256 49.4392 133.363 49.5625C133.429 49.6447 133.486 49.7763 133.486 49.8503C133.486 49.9325 133.429 49.9983 133.363 49.9983C133.297 49.9983 133.239 50.0147 133.239 50.0394C133.239 50.064 133.305 50.1791 133.387 50.2943C133.511 50.4834 133.511 50.5163 133.404 50.582C133.338 50.6231 133.322 50.656 133.363 50.656C133.412 50.656 133.437 50.8862 133.429 51.2151C133.412 51.5193 133.396 51.8564 133.387 51.9715C133.379 52.0867 133.338 52.2018 133.289 52.2346C133.228 52.2785 133.234 52.3004 133.305 52.3004C133.355 52.3004 133.404 52.3909 133.404 52.506C133.404 52.6622 133.371 52.7033 133.264 52.6622C133.124 52.6211 133.124 52.6211 133.264 52.7033C133.371 52.7773 133.387 52.8595 133.346 53.0569C133.322 53.2048 133.248 53.4022 133.182 53.4926C133.124 53.5831 133.091 53.7228 133.116 53.7968C133.141 53.8791 133.215 53.9448 133.281 53.9448C133.346 53.9448 133.404 53.9613 133.404 53.9859C133.404 54.0106 133.355 54.1175 133.305 54.2326C133.223 54.3806 133.223 54.4546 133.289 54.5368C133.346 54.5944 133.363 54.767 133.338 54.9315C133.313 55.0877 133.305 55.4577 133.305 55.7537C133.313 56.0497 133.33 57.0692 133.346 58.0147C133.363 58.9603 133.363 59.7907 133.346 59.84C133.338 59.8976 133.289 59.9305 133.239 59.9058C133.198 59.8811 133.157 59.9058 133.157 59.9469C133.157 59.988 133.206 60.1031 133.264 60.2018C133.346 60.3416 133.338 60.3909 133.223 60.4896C133.141 60.5553 133.108 60.6211 133.157 60.6458C133.206 60.6704 133.223 60.7773 133.198 60.8924C133.171 61.0295 133.198 61.1117 133.281 61.1391C133.379 61.172 133.387 61.2213 133.322 61.3858C133.281 61.5009 133.256 61.6324 133.281 61.6735C133.305 61.7146 133.338 62.0024 133.355 62.3066C133.379 62.6191 133.355 62.9397 133.305 63.0302C133.231 63.1699 133.215 63.1782 133.149 63.0713C133.1 62.9891 133.083 63.0713 133.091 63.3262C133.108 63.5317 133.174 63.7701 133.239 63.8524C133.33 63.9593 133.371 64.2635 133.387 64.9952C133.396 65.5461 133.42 66.1216 133.445 66.2779C133.462 66.4341 133.503 66.7383 133.544 66.9438C133.593 67.2398 133.585 67.3549 133.486 67.4618C133.42 67.5358 133.404 67.6016 133.445 67.5934C133.494 67.5934 133.527 67.7414 133.527 67.9223C133.527 68.1031 133.511 68.2511 133.486 68.2511C133.462 68.2511 133.445 68.3909 133.437 68.5554C133.429 68.728 133.404 68.9418 133.371 69.0322C133.322 69.1638 133.355 69.2131 133.519 69.2542C133.634 69.2953 133.733 69.3693 133.733 69.4187C133.733 69.4762 133.717 69.542 133.692 69.5667C133.667 69.5913 133.626 69.8873 133.61 70.2244C133.593 70.578 133.544 70.8493 133.494 70.8575C133.437 70.874 133.445 70.9562 133.527 71.0877C133.593 71.2029 133.634 71.2933 133.61 71.2933C133.585 71.2933 133.61 71.3673 133.651 71.4577C133.7 71.5482 133.7 71.6715 133.667 71.7208C133.626 71.7784 133.61 72.2142 133.618 72.691C133.634 73.1679 133.659 73.6941 133.667 73.8586C133.684 74.0312 133.667 74.171 133.634 74.171C133.593 74.171 133.568 74.1217 133.56 74.0641C133.56 74.0148 133.527 74.0395 133.486 74.1299C133.445 74.2203 133.412 74.3437 133.412 74.393C133.404 74.4506 133.462 74.4999 133.527 74.4999C133.626 74.4999 133.651 74.615 133.634 75.133C133.618 75.6099 133.577 75.7661 133.486 75.799C133.379 75.8319 133.379 75.8401 133.486 75.9059C133.568 75.9552 133.577 75.9798 133.511 75.9798C133.453 75.9798 133.404 76.0621 133.404 76.1607C133.404 76.3498 133.404 76.3498 133.519 76.1854C133.626 76.0292 133.634 76.0292 133.659 76.243C133.684 76.3827 133.651 76.4732 133.593 76.4732C133.522 76.4732 133.505 76.5335 133.544 76.6541C133.568 76.7609 133.634 76.8678 133.684 76.9007C133.733 76.9336 133.782 77.1556 133.791 77.394C133.807 77.6325 133.832 77.8462 133.848 77.8709C133.873 77.8956 133.84 78.0025 133.774 78.1176C133.675 78.2985 133.675 78.3478 133.774 78.504C133.865 78.6356 133.865 78.6849 133.799 78.6684C133.741 78.6602 133.7 78.726 133.7 78.8164C133.7 78.9398 133.741 78.9727 133.856 78.948C134.005 78.9233 134.013 78.948 133.955 79.1535C133.922 79.2851 133.881 79.5235 133.873 79.6798C133.856 79.836 133.873 80.1402 133.898 80.354C133.922 80.5677 133.914 80.7486 133.881 80.7486C133.84 80.7486 133.84 80.9213 133.865 81.1351C133.898 81.4311 133.889 81.4968 133.824 81.4064C133.758 81.3159 133.749 81.3817 133.799 81.6613C133.832 81.9079 133.824 82.0888 133.766 82.1546C133.717 82.2204 133.651 82.3519 133.618 82.4506C133.593 82.5575 133.61 82.6479 133.651 82.6561C133.7 82.6726 133.758 82.9686 133.774 83.3139C133.799 83.6674 133.791 83.9717 133.758 83.9881C133.717 84.0045 133.684 84.2101 133.675 84.4403C133.659 84.6705 133.692 84.8761 133.733 84.9007C133.782 84.9254 133.815 84.9994 133.815 85.0652C133.815 85.131 133.749 85.2461 133.675 85.3201C133.536 85.4516 133.536 85.4598 133.667 85.5503C133.749 85.5996 133.807 85.6901 133.815 85.7394C133.815 85.7969 133.749 85.8463 133.675 85.8463C133.544 85.8381 133.544 85.8545 133.692 86.0189C133.824 86.1587 133.856 86.3067 133.865 86.7836C133.865 87.1207 133.824 87.4413 133.758 87.5482C133.684 87.688 133.659 87.9676 133.692 88.5595C133.717 89.0118 133.749 89.4229 133.774 89.464C133.799 89.5051 133.758 89.5462 133.692 89.5462C133.626 89.5462 133.568 89.6202 133.568 89.7106C133.568 89.8011 133.593 89.8915 133.634 89.908C133.667 89.9244 133.675 90.1217 133.667 90.3437C133.651 90.5575 133.634 90.8288 133.634 90.9439C133.634 91.059 133.568 91.2399 133.486 91.355C133.355 91.5277 133.346 91.5935 133.429 91.7661C133.486 91.8812 133.527 92.2101 133.519 92.5061C133.519 92.8624 133.472 93.1091 133.379 93.2461C133.272 93.4023 133.264 93.4681 133.346 93.501C133.396 93.5339 133.42 93.5996 133.387 93.649C133.346 93.6983 133.404 93.9532 133.503 94.2081C133.659 94.6274 133.667 94.7261 133.577 95.0549C133.511 95.3098 133.503 95.4332 133.56 95.4414C133.61 95.4578 133.651 95.54 133.651 95.6305C133.651 95.7209 133.618 95.7949 133.568 95.7949C133.527 95.7949 133.544 95.8525 133.61 95.9183C133.684 95.9923 133.741 96.2142 133.749 96.428C133.749 96.65 133.758 96.8802 133.749 96.946C133.741 97.0118 133.741 97.4147 133.733 97.8258C133.733 98.4506 133.708 98.5904 133.61 98.5904C133.544 98.5904 133.486 98.6315 133.486 98.6726C133.486 98.7137 133.536 98.7466 133.593 98.7302C133.651 98.722 133.692 98.8042 133.692 98.9193C133.7 99.0344 133.725 99.166 133.758 99.2071C133.782 99.2482 133.758 99.3633 133.7 99.4537C133.601 99.5935 133.601 99.6264 133.708 99.7004C133.807 99.7662 133.815 99.8237 133.741 99.9635C133.692 100.07 133.618 100.136 133.568 100.111C133.527 100.087 133.503 100.128 133.527 100.194C133.552 100.259 133.536 100.317 133.486 100.317C133.445 100.317 133.412 100.416 133.429 100.531C133.437 100.646 133.494 100.786 133.552 100.835C133.61 100.893 133.659 101.016 133.651 101.115C133.651 101.221 133.618 101.304 133.568 101.304C133.527 101.304 133.503 101.345 133.527 101.386C133.552 101.427 133.61 101.443 133.667 101.402C133.741 101.361 133.749 101.402 133.7 101.55C133.659 101.665 133.618 102.2 133.61 102.743C133.593 103.359 133.544 103.746 133.494 103.77C133.429 103.795 133.437 103.885 133.519 104.058C133.585 104.198 133.626 104.395 133.601 104.51C133.577 104.625 133.618 105.086 133.684 105.538C133.766 106.064 133.782 106.393 133.733 106.442C133.692 106.492 133.684 106.623 133.725 106.771C133.758 106.911 133.774 107.355 133.766 107.758C133.749 108.161 133.717 108.868 133.692 109.32C133.659 109.772 133.634 110.669 133.626 111.318C133.61 112.255 133.585 112.51 133.486 112.576C133.379 112.65 133.387 112.658 133.511 112.617C133.626 112.576 133.651 112.609 133.634 112.847C133.618 113.004 133.634 113.16 133.667 113.201C133.7 113.234 133.7 113.324 133.659 113.39C133.626 113.456 133.585 113.719 133.577 113.966C133.568 114.212 133.527 114.451 133.503 114.5C133.47 114.549 133.445 114.714 133.445 114.886C133.445 115.051 133.42 115.166 133.387 115.15C133.346 115.133 133.248 115.191 133.157 115.281C133.067 115.372 132.96 115.429 132.91 115.404C132.869 115.38 132.828 115.396 132.828 115.446C132.828 115.495 132.877 115.544 132.935 115.561C133.009 115.585 133.009 115.61 132.927 115.7C132.853 115.783 132.589 115.824 132.104 115.832C131.709 115.84 131.298 115.865 131.183 115.881C131.067 115.898 130.845 115.955 130.689 115.996C130.533 116.046 130.269 116.079 130.113 116.07C129.957 116.062 129.776 116.095 129.71 116.144C129.628 116.202 129.586 116.194 129.562 116.12C129.545 116.046 129.479 116.046 129.315 116.103C129.126 116.177 129.052 116.161 128.92 116.038C128.788 115.914 128.706 115.898 128.533 115.947C128.385 115.996 128.303 115.988 128.303 115.939C128.303 115.89 128.18 115.881 127.999 115.906C127.826 115.939 127.62 115.996 127.546 116.029C127.439 116.087 127.357 116.054 127.085 115.733L126.995 115.914C126.912 116.087 126.863 116.095 126.476 116.054C126.238 116.021 125.942 115.947 125.818 115.89C125.687 115.824 125.481 115.774 125.341 115.774C125.209 115.774 125.086 115.816 125.078 115.865C125.061 115.914 124.889 115.964 124.683 115.98C124.477 115.988 124.255 115.972 124.189 115.939C124.123 115.898 124.008 115.898 123.942 115.939C123.868 115.98 123.745 115.964 123.638 115.89C123.506 115.807 123.408 115.799 123.325 115.857C123.26 115.906 123.103 115.922 122.98 115.906C122.848 115.89 122.618 115.906 122.461 115.939C122.305 115.98 122.091 115.972 121.992 115.931C121.869 115.881 121.787 115.89 121.762 115.939C121.737 115.988 121.614 116.021 121.474 116.021C121.343 116.021 121.227 115.996 121.227 115.955C121.227 115.922 121.129 115.89 121.005 115.873C120.874 115.865 120.693 115.898 120.594 115.955C120.438 116.046 120.372 116.046 120.224 115.955C120.1 115.881 119.919 115.865 119.705 115.898C119.458 115.939 119.343 115.922 119.253 115.816C119.187 115.742 119.031 115.692 118.915 115.709C118.784 115.725 118.71 115.774 118.726 115.832C118.743 115.89 118.734 115.939 118.702 115.939C118.66 115.939 118.488 115.898 118.307 115.848C118.052 115.783 117.961 115.791 117.92 115.873C117.887 115.931 117.854 115.947 117.854 115.898C117.854 115.848 117.714 115.807 117.55 115.791C117.377 115.783 117.221 115.742 117.196 115.7C117.171 115.659 117.064 115.635 116.949 115.651C116.834 115.668 116.686 115.7 116.62 115.733C116.554 115.758 116.447 115.725 116.398 115.659C116.299 115.544 116.274 115.544 116.126 115.709C115.986 115.873 115.954 115.881 115.896 115.774C115.83 115.668 115.797 115.676 115.666 115.824C115.575 115.922 115.419 116.021 115.304 116.046C115.188 116.079 114.933 116.12 114.728 116.144C114.522 116.169 114.259 116.202 114.135 116.227C113.979 116.251 113.905 116.235 113.905 116.161C113.905 116.095 113.839 116.079 113.683 116.12C113.551 116.153 113.42 116.153 113.387 116.12C113.345 116.087 113.222 116.054 113.115 116.038C113.008 116.029 112.934 116.054 112.959 116.103C112.983 116.153 112.86 116.21 112.696 116.235C112.523 116.26 112.284 116.235 112.161 116.194C112.029 116.144 111.897 116.12 111.848 116.144C111.807 116.169 111.667 116.136 111.544 116.079C111.404 116.005 111.108 115.972 110.779 115.988C110.482 116.005 109.997 116.029 109.692 116.054C109.339 116.087 109.133 116.07 109.133 116.021C109.133 115.966 109.078 115.966 108.968 116.021C108.878 116.07 108.705 116.095 108.582 116.095C108.45 116.087 108.187 116.112 107.981 116.136C107.776 116.161 107.578 116.153 107.529 116.12C107.488 116.079 107.348 116.046 107.224 116.038C107.06 116.029 107.01 116.054 107.06 116.12C107.101 116.186 107.068 116.202 106.936 116.161C106.821 116.128 106.698 116.144 106.624 116.202C106.517 116.284 106.492 116.284 106.5 116.202C106.5 116.136 106.426 116.12 106.278 116.153C106.114 116.177 106.015 116.153 105.941 116.046C105.867 115.931 105.826 115.922 105.743 115.996C105.686 116.054 105.595 116.103 105.538 116.103C105.48 116.103 105.365 116.046 105.291 115.972C105.151 115.84 105.143 115.84 105.102 115.98C105.06 116.112 105.052 116.112 104.937 115.988C104.871 115.914 104.764 115.848 104.715 115.857C104.657 115.857 104.608 115.914 104.608 115.98C104.608 116.062 104.493 116.12 104.304 116.153C104.098 116.194 103.983 116.177 103.974 116.112C103.958 116.054 103.851 116.038 103.686 116.07C103.538 116.095 103.333 116.079 103.234 116.029C103.111 115.972 103.028 115.964 103.004 116.021C102.979 116.07 102.93 116.103 102.88 116.103C102.839 116.103 102.814 116.07 102.839 116.021C102.864 115.972 102.831 115.939 102.781 115.939C102.724 115.939 102.592 115.996 102.493 116.062C102.362 116.153 102.197 116.169 101.959 116.136C101.728 116.103 101.58 116.12 101.547 116.177C101.498 116.243 101.432 116.243 101.317 116.186C101.226 116.136 100.971 116.12 100.741 116.144C100.42 116.177 100.305 116.153 100.198 116.038C100.116 115.947 100.05 115.931 100.017 115.988C99.9841 116.038 99.9019 116.095 99.8361 116.128C99.7702 116.153 99.6797 116.136 99.6304 116.095C99.5728 116.038 99.4411 116.038 99.219 116.103C99.038 116.161 98.7253 116.186 98.5197 116.169C98.314 116.144 98.0754 116.161 97.9849 116.21C97.8944 116.26 97.5406 116.309 97.2033 116.317C96.8659 116.325 96.5039 116.301 96.4052 116.26C96.2791 116.21 96.1968 116.216 96.1584 116.276C96.1172 116.334 95.9938 116.35 95.8293 116.317C95.6565 116.284 95.5495 116.301 95.5413 116.358C95.5249 116.408 95.3356 116.44 95.0641 116.432C94.8173 116.424 94.5211 116.424 94.4059 116.424C94.2908 116.424 94.1674 116.399 94.118 116.366C94.0769 116.325 93.5832 116.292 93.032 116.284C92.4725 116.276 91.9871 116.251 91.9377 116.227C91.8966 116.202 91.8061 116.21 91.7567 116.243C91.6991 116.268 91.4688 116.284 91.2384 116.276C91.0162 116.26 90.7201 116.251 90.5802 116.26C90.4485 116.26 90.2675 116.26 90.1935 116.268C90.1112 116.268 89.996 116.268 89.9467 116.26C89.8891 116.26 89.6998 116.284 89.5353 116.325C89.2967 116.375 89.198 116.358 89.0828 116.243C89.0005 116.169 88.9018 116.128 88.8689 116.161C88.8277 116.202 88.6632 116.218 88.4986 116.202C88.3341 116.186 88.1613 116.144 88.112 116.095C88.0708 116.054 87.9392 116.021 87.824 116.029C87.7088 116.029 87.6677 116.046 87.7253 116.07C87.7746 116.087 87.824 116.136 87.824 116.186C87.824 116.235 87.6924 116.268 87.536 116.268C87.3715 116.268 87.2645 116.235 87.2892 116.186C87.3139 116.136 87.2234 116.136 87.0671 116.194C86.8367 116.276 86.7791 116.268 86.7133 116.161C86.6722 116.087 86.5981 116.054 86.5652 116.087C86.5241 116.12 86.269 116.153 85.9893 116.153C85.7095 116.161 85.3887 116.186 85.2735 116.21C85.1583 116.243 85.0184 116.218 84.9609 116.161C84.8786 116.087 84.8539 116.087 84.8621 116.161C84.8621 116.235 84.7223 116.26 84.3932 116.251C84.1299 116.243 83.8666 116.26 83.8172 116.292C83.7514 116.325 83.6445 116.268 83.3976 115.98L83.0768 116.153C82.8053 116.301 82.6325 116.325 81.7768 116.317C81.2338 116.309 80.7402 116.276 80.6908 116.243C80.6332 116.21 80.4604 116.218 80.3206 116.26C80.1725 116.301 79.9257 116.334 79.7858 116.342C79.6377 116.342 79.5143 116.317 79.5143 116.268C79.5143 116.218 79.432 116.186 79.3333 116.186C79.1852 116.186 79.1687 116.202 79.2675 116.26C79.3662 116.317 79.3415 116.342 79.1687 116.383C79.0289 116.408 78.889 116.391 78.815 116.325C78.7409 116.276 78.6833 116.26 78.6833 116.309C78.6833 116.358 78.6422 116.334 78.5846 116.268C78.5188 116.186 78.3296 116.144 77.9758 116.144C77.6138 116.144 77.4574 116.177 77.4574 116.243C77.4574 116.309 77.3258 116.358 77.1283 116.366C76.9473 116.383 76.7992 116.366 76.7992 116.325C76.7992 116.292 76.6429 116.309 76.4537 116.35C76.1822 116.424 76.0835 116.416 76.0176 116.334C75.9683 116.276 75.886 116.218 75.8284 116.202C75.779 116.194 75.7297 116.218 75.7297 116.268C75.7297 116.317 75.6968 116.35 75.6474 116.35C75.6063 116.35 75.5075 116.292 75.4417 116.227C75.3759 116.161 75.2854 116.12 75.236 116.144C75.1949 116.169 75.1373 116.136 75.1209 116.079C75.0962 116.013 75.0386 116.029 74.9563 116.144C74.8823 116.235 74.8 116.284 74.7671 116.251C74.7259 116.218 74.6354 116.227 74.5614 116.268C74.4791 116.317 74.2405 116.366 74.0266 116.383C73.8045 116.399 73.5741 116.383 73.5083 116.35C73.4425 116.309 73.352 116.301 73.3026 116.334C73.2615 116.358 73.0887 116.375 72.9324 116.358C72.776 116.342 72.5621 116.276 72.4634 116.218C72.2988 116.12 72.2577 116.12 72.1507 116.227C72.0849 116.292 71.9368 116.383 71.8217 116.432C71.7065 116.482 71.5995 116.49 71.5831 116.449C71.5666 116.416 71.3856 116.399 71.1881 116.408C70.9989 116.416 70.785 116.383 70.7356 116.342C70.6643 116.292 70.615 116.309 70.5875 116.391C70.5629 116.457 70.4559 116.514 70.3407 116.514C70.2255 116.514 70.135 116.482 70.135 116.432C70.135 116.383 70.0281 116.375 69.8718 116.399C69.6743 116.44 69.5756 116.416 69.5015 116.317C69.4028 116.202 69.3699 116.202 69.1889 116.309C69.0243 116.408 68.9585 116.416 68.8598 116.325C68.7528 116.243 68.7281 116.251 68.7364 116.35C68.7364 116.449 68.7199 116.449 68.6376 116.375C68.58 116.325 68.4731 116.301 68.4073 116.325C68.3415 116.358 68.2592 116.416 68.218 116.465C68.1796 116.525 68.1248 116.509 68.0535 116.416C68.0041 116.334 67.9219 116.268 67.8725 116.268C67.8314 116.26 67.7326 116.325 67.6668 116.399C67.5763 116.498 67.4529 116.523 67.2143 116.49C67.0333 116.473 66.8194 116.482 66.7453 116.523C66.6466 116.572 66.5643 116.561 66.4985 116.49C66.4409 116.432 66.3175 116.358 66.227 116.334C66.1365 116.309 66.0049 116.26 65.939 116.235C65.865 116.202 65.7251 116.26 65.5935 116.391C65.4619 116.506 65.3138 116.572 65.2644 116.539C65.2068 116.514 65.0587 116.49 64.9353 116.498C64.8037 116.506 64.6885 116.482 64.6638 116.432C64.6391 116.383 64.5898 116.35 64.5404 116.35C64.4993 116.35 64.4746 116.383 64.4993 116.432C64.5239 116.482 64.5075 116.531 64.4581 116.556C64.417 116.58 64.3758 116.564 64.3758 116.514C64.3758 116.465 64.1948 116.449 63.9233 116.473C63.5942 116.506 63.4708 116.49 63.4708 116.408C63.4708 116.334 63.3639 116.325 63.043 116.375C62.8044 116.416 62.5 116.44 62.3601 116.432C62.2285 116.432 62.0392 116.424 61.9487 116.424C61.8582 116.424 61.5291 116.44 61.2083 116.465C60.8956 116.49 60.6159 116.547 60.5912 116.588C60.5665 116.638 60.476 116.671 60.3855 116.671C60.295 116.671 60.0564 116.695 59.8508 116.728C59.6451 116.761 59.3818 116.761 59.2584 116.728C59.1267 116.704 59.0445 116.646 59.0691 116.597C59.0938 116.547 59.0774 116.498 59.028 116.473C58.9869 116.449 58.8964 116.498 58.8388 116.572C58.773 116.654 58.6495 116.745 58.5673 116.778C58.485 116.802 58.3204 116.786 58.2053 116.728C58.0901 116.671 57.9091 116.654 57.7939 116.679C57.6787 116.704 57.3496 116.72 57.0534 116.704C56.7572 116.695 56.5022 116.662 56.4775 116.646C56.4528 116.621 56.3047 116.63 56.1484 116.654C55.9921 116.679 55.7782 116.662 55.6794 116.605C55.5313 116.531 55.4573 116.539 55.3503 116.638C55.2681 116.704 55.1035 116.753 54.9719 116.736C54.8485 116.728 54.7497 116.704 54.7497 116.679C54.7497 116.654 54.577 116.63 54.3548 116.621C54.1409 116.605 53.9106 116.621 53.8447 116.654C53.7789 116.679 53.6555 116.72 53.5815 116.736C53.4992 116.745 53.4334 116.736 53.4334 116.695C53.4334 116.662 53.2935 116.63 53.1207 116.621C52.9562 116.613 52.6271 116.597 52.3885 116.58C52.1581 116.564 51.9853 116.531 52.0018 116.49C52.0182 116.457 52.0018 116.416 51.9524 116.391C51.9113 116.366 51.8701 116.375 51.8701 116.408C51.8701 116.449 51.7138 116.523 51.5246 116.588C51.3271 116.646 51.0885 116.671 50.9898 116.646C50.8746 116.613 50.817 116.556 50.8499 116.49C50.8746 116.44 50.8499 116.449 50.7841 116.523C50.7101 116.613 50.6278 116.638 50.5126 116.588C50.4221 116.556 50.3234 116.523 50.2905 116.523C50.2493 116.514 50.2493 116.556 50.2905 116.613C50.3316 116.687 50.2576 116.695 49.9778 116.654C49.7228 116.621 49.5336 116.638 49.3608 116.728C49.2291 116.794 49.0235 116.852 48.9083 116.852C48.7931 116.852 48.6285 116.884 48.538 116.917C48.4475 116.95 48.2089 116.95 48.0033 116.909C47.7729 116.868 47.6001 116.876 47.5507 116.926C47.5096 116.975 47.3944 117.008 47.2875 117.008C47.1805 117.008 47.0818 116.975 47.0571 116.926C47.0297 116.871 46.9611 116.871 46.8514 116.926C46.7609 116.975 46.366 117.008 45.9711 117.008C45.5679 117.016 45.1977 116.975 45.1483 116.926C45.0907 116.884 45.0249 116.868 45.0085 116.901C44.992 116.942 44.6465 116.967 44.2351 116.967C43.7579 116.967 43.4617 117 43.3877 117.074C43.3136 117.139 42.8776 117.205 42.2441 117.246C41.6764 117.279 40.977 117.296 40.6808 117.279C40.3847 117.263 40.1132 117.213 40.0638 117.172C40.0227 117.131 39.5784 117.074 39.0765 117.049C38.5829 117.024 38.1468 116.983 38.1139 116.958C38.0728 116.942 37.7601 116.909 37.4146 116.884C37.0608 116.86 36.7399 116.835 36.6905 116.827C36.6494 116.827 36.5425 116.843 36.4684 116.876C36.3861 116.901 36.3203 116.893 36.3203 116.843C36.3203 116.794 36.2627 116.778 36.1969 116.802C36.1311 116.827 36.0241 116.81 35.9748 116.769C35.9172 116.72 35.7279 116.679 35.5552 116.662C35.3659 116.646 35.2178 116.679 35.1849 116.745C35.152 116.81 34.9134 116.86 34.5514 116.868C34.066 116.884 33.9508 116.86 33.8192 116.72C33.6875 116.58 33.6546 116.572 33.597 116.679C33.5477 116.761 33.523 116.767 33.523 116.695C33.523 116.621 33.4243 116.613 33.1528 116.654C32.873 116.704 32.7825 116.695 32.7825 116.613C32.7825 116.539 32.7332 116.539 32.5768 116.597C32.4617 116.646 32.2889 116.679 32.1901 116.671C32.0832 116.662 31.6471 116.687 31.2193 116.72C30.7915 116.753 30.4295 116.794 30.4213 116.81C30.4048 116.827 30.2567 116.786 30.0922 116.712C29.9194 116.646 29.7631 116.621 29.7384 116.662C29.7137 116.704 29.5985 116.761 29.4751 116.786C29.3435 116.819 29.1954 116.802 29.146 116.761C29.072 116.704 28.965 116.72 28.7922 116.794C28.6606 116.86 28.5125 116.893 28.4631 116.868C28.422 116.835 28.2328 116.802 28.0518 116.786C27.8707 116.769 27.4018 116.745 27.0151 116.736C26.5215 116.728 26.2664 116.679 26.1677 116.597C26.0689 116.506 26.0278 116.506 26.036 116.572C26.036 116.646 25.8468 116.695 25.4848 116.728C25.0487 116.769 24.876 116.753 24.7032 116.646C24.4975 116.531 24.4646 116.531 24.4317 116.638C24.407 116.712 24.3247 116.745 24.226 116.72C24.1355 116.695 23.9874 116.712 23.8969 116.761C23.7872 116.816 23.6912 116.816 23.6089 116.761C23.5184 116.704 23.4526 116.712 23.3621 116.802C23.2963 116.868 23.1729 116.909 23.0988 116.893C23.0166 116.868 22.8191 116.827 22.6628 116.802C22.4571 116.761 22.4077 116.728 22.4982 116.679C22.5887 116.63 22.597 116.605 22.5229 116.564C22.4653 116.539 22.3995 116.547 22.3748 116.597C22.3501 116.646 22.2596 116.679 22.1691 116.679C22.0786 116.679 21.9881 116.728 21.9799 116.778C21.9552 116.852 21.7742 116.876 21.3793 116.868C21.0667 116.86 20.6471 116.827 20.4414 116.802C20.2357 116.778 19.9477 116.728 19.7996 116.695C19.6516 116.662 19.5117 116.588 19.4952 116.531C19.4705 116.482 19.4212 116.432 19.3718 116.432C19.3307 116.432 19.2978 116.482 19.3142 116.531C19.3225 116.588 19.2402 116.654 19.125 116.662C19.0098 116.679 18.8535 116.638 18.7794 116.564C18.6396 116.44 18.6231 116.44 18.5408 116.572C18.4833 116.679 18.4503 116.687 18.4174 116.613C18.3928 116.539 18.3269 116.547 18.1624 116.654C17.9896 116.769 17.9567 116.778 18.0143 116.679C18.0801 116.58 18.0719 116.572 17.9732 116.638C17.9073 116.679 17.7017 116.728 17.5206 116.736C17.3396 116.745 17.0435 116.761 16.8625 116.769C16.6814 116.769 16.2619 116.753 15.941 116.728C15.5625 116.695 15.3404 116.712 15.3404 116.761C15.3404 116.81 15.2746 116.827 15.2005 116.802C15.1182 116.786 14.8138 116.753 14.5176 116.728C14.0898 116.704 13.9582 116.662 13.8594 116.514C13.7443 116.35 13.7278 116.35 13.6126 116.473C13.5468 116.547 13.4398 116.605 13.3905 116.597C13.3329 116.597 13.3 116.539 13.3247 116.473C13.3493 116.399 13.3164 116.35 13.2424 116.35C13.1766 116.35 13.0943 116.408 13.0614 116.482C13.0202 116.547 12.8886 116.613 12.7487 116.613C12.6171 116.621 12.2057 116.671 11.8437 116.728C11.3007 116.819 11.0539 116.819 10.4039 116.728C9.90205 116.654 9.5565 116.638 9.44131 116.687C9.33436 116.728 9.09576 116.753 8.90653 116.753C8.70907 116.745 8.47048 116.687 8.37175 116.63C8.24834 116.556 8.16606 116.547 8.14138 116.597C8.1167 116.646 7.71355 116.679 7.21991 116.687C6.72626 116.695 6.18325 116.704 6.00225 116.704C5.79657 116.712 5.61556 116.662 5.53329 116.572C5.45101 116.498 5.3276 116.449 5.26178 116.473C5.19596 116.498 5.13837 116.539 5.13837 116.572C5.13837 116.613 4.99028 116.687 4.80927 116.736C4.58713 116.81 4.41436 116.819 4.29917 116.769C4.19222 116.728 4.00299 116.662 3.86312 116.63C3.73148 116.597 3.58339 116.564 3.53402 116.556C3.49289 116.556 3.36125 116.506 3.24606 116.457C3.13088 116.408 2.96633 116.358 2.87583 116.342C2.78533 116.317 2.71128 116.268 2.70305 116.227C2.70305 116.177 2.66192 116.079 2.62078 115.996C2.55496 115.873 2.53028 115.865 2.40687 115.98C2.27523 116.087 2.24232 116.087 2.10245 115.955C2.01195 115.881 1.95436 115.766 1.97904 115.709C1.99549 115.659 1.95436 115.61 1.88854 115.61C1.82272 115.61 1.76513 115.552 1.76513 115.487C1.76513 115.421 1.80626 115.38 1.8474 115.404C1.89677 115.429 1.95436 115.396 1.98727 115.339C2.02018 115.289 2.05309 115.15 2.06954 115.034C2.07777 114.919 2.11068 114.664 2.13536 114.459C2.16004 114.253 2.19295 113.982 2.21763 113.842C2.25054 113.702 2.25877 113.332 2.25054 113.02C2.24232 112.708 2.23409 112.231 2.22586 111.976C2.21763 111.663 2.25054 111.483 2.32459 111.458C2.38218 111.433 2.40687 111.343 2.37396 111.228C2.34105 111.129 2.37396 110.965 2.43155 110.858C2.51382 110.718 2.52205 110.652 2.45623 110.611C2.40687 110.578 2.33282 110.463 2.29991 110.348C2.267 110.233 2.23409 110.019 2.22586 109.879C2.22586 109.731 2.24232 109.608 2.28345 109.608C2.31636 109.608 2.34105 109.509 2.33282 109.378C2.33282 109.254 2.37396 109.131 2.43978 109.09C2.52205 109.041 2.52205 109.008 2.41509 108.925C2.34105 108.876 2.25054 108.736 2.21763 108.621C2.1765 108.506 2.15182 108.358 2.16827 108.292C2.18473 108.227 2.24232 108.112 2.30814 108.046C2.41509 107.939 2.41509 107.857 2.29991 107.388C2.22586 107.092 2.18473 106.804 2.20941 106.747C2.24232 106.697 2.23409 106.648 2.20118 106.648C2.16004 106.648 2.13536 106.442 2.13536 106.196C2.13536 105.949 2.16004 105.744 2.20118 105.744C2.23409 105.744 2.24232 105.587 2.21763 105.39C2.18473 105.168 2.20941 105.004 2.27523 104.938C2.34927 104.856 2.3575 104.814 2.29168 104.773C2.23409 104.74 2.22586 104.65 2.25877 104.551C2.29168 104.461 2.29168 104.313 2.25877 104.222C2.23409 104.132 2.20941 103.779 2.21763 103.441C2.22586 103.006 2.20118 102.792 2.11891 102.701C2.05309 102.636 2.03663 102.562 2.07777 102.537C2.11891 102.512 2.16827 102.438 2.19295 102.373C2.21763 102.307 2.20118 102.159 2.16004 102.044C2.11891 101.904 2.12713 101.797 2.19295 101.723C2.27523 101.624 2.27523 101.616 2.20118 101.657C2.11891 101.698 2.09422 101.616 2.10245 101.32C2.10245 101.106 2.13536 100.86 2.16827 100.769C2.20118 100.679 2.20941 100.498 2.1765 100.358C2.1381 100.194 2.15456 100.076 2.22586 100.005C2.29168 99.9553 2.34105 99.8566 2.34105 99.799C2.34105 99.7497 2.29168 99.7744 2.10245 100.029V99.8648C2.10245 99.7744 2.07777 99.6017 2.05309 99.4702C2.0284 99.3304 2.05309 99.24 2.11891 99.2153C2.16827 99.1988 2.21763 99.0919 2.21763 98.9768C2.21763 98.8617 2.19295 98.7384 2.15182 98.6973C2.11891 98.6644 2.09422 98.5822 2.09422 98.5246C2.09422 98.4753 2.13536 98.3273 2.19295 98.1957C2.24232 98.0724 2.29991 97.908 2.31636 97.8258C2.32459 97.7518 2.30814 97.686 2.25877 97.686C2.21763 97.686 2.1765 97.6284 2.1765 97.5627C2.1765 97.4804 2.21763 97.4558 2.30814 97.4969C2.41509 97.5544 2.43155 97.5298 2.37396 97.3982C2.34105 97.3078 2.27523 97.2091 2.22586 97.1762C2.1765 97.1433 2.12713 96.9789 2.11068 96.8062C2.10245 96.6336 2.09422 96.4034 2.09422 96.2882C2.09422 96.1731 2.10245 95.9758 2.10245 95.836C2.11068 95.6963 2.09422 95.2769 2.06131 94.8905C2.03663 94.5041 1.99549 93.8299 1.97081 93.3859C1.9379 92.7034 1.94613 92.5966 2.05309 92.6294C2.11891 92.6541 2.1765 92.6294 2.1765 92.5883C2.1765 92.5472 2.14359 92.5061 2.09422 92.5061C2.04486 92.5061 2.0284 92.391 2.05309 92.2348C2.06954 92.095 2.05309 91.8237 2.01195 91.6428C1.96258 91.4044 1.97081 91.2975 2.03663 91.2646C2.11068 91.2235 2.10245 91.1906 2.02018 91.1413C1.94613 91.0919 1.92967 90.985 1.97081 90.7795C2.00372 90.6233 2.06954 90.467 2.11891 90.4342C2.18473 90.3931 2.16827 90.3273 2.05309 90.204C1.95436 90.1053 1.92967 90.0313 1.99549 90.0395C2.04486 90.0395 2.07777 89.982 2.05309 89.9162C2.0284 89.8504 2.03663 89.7764 2.07777 89.76C2.11068 89.7435 2.12713 89.5626 2.11891 89.3653C2.11891 89.1762 2.086 88.872 2.06131 88.6993C2.0284 88.4855 2.04486 88.3622 2.13536 88.2718C2.20941 88.1978 2.22586 88.132 2.1765 88.1073C2.13536 88.0827 2.11068 87.9676 2.12713 87.836C2.14359 87.7127 2.19295 87.5482 2.22586 87.466C2.27523 87.3591 2.267 87.2934 2.19295 87.2605C2.12713 87.2276 2.07777 87.1618 2.07777 87.1207C2.07777 87.0796 2.05309 86.9809 2.0284 86.9151C2.00372 86.8494 2.0284 86.726 2.086 86.6438C2.14359 86.5534 2.14359 86.4958 2.09422 86.4794C2.03663 86.4711 2.03663 86.3725 2.086 86.2163C2.13536 86.0683 2.13536 85.9367 2.086 85.8874C2.04486 85.8463 2.00372 85.6736 1.99549 85.5174C1.98727 85.3612 2.04486 85.1392 2.11891 85.0241C2.20118 84.909 2.25877 84.7445 2.25877 84.6541C2.25877 84.5636 2.20941 84.3992 2.15182 84.2841C2.09422 84.169 2.05309 83.8648 2.06954 83.5852C2.07777 83.3139 2.12713 83.0508 2.1765 83.0097C2.22586 82.9686 2.25877 82.8781 2.25877 82.8206C2.25877 82.7712 2.22586 82.7383 2.1765 82.763C2.13536 82.7877 2.11891 82.8535 2.14359 82.9028C2.16827 82.9603 2.14359 82.9521 2.07777 82.8781C2.01195 82.7959 1.97081 82.5492 1.97904 82.2204C1.98727 81.9326 2.00372 81.653 2.01195 81.6119C2.0284 81.5708 2.01195 81.4722 1.97904 81.4064C1.94613 81.3406 1.95436 81.2008 2.00372 81.0939C2.06131 80.9788 2.06131 80.9048 2.01195 80.8884C1.97081 80.8802 1.92967 80.5924 1.92145 80.2553C1.91322 79.9182 1.91322 79.4989 1.92145 79.3262C1.92967 79.096 1.97081 79.0138 2.09422 78.9809C2.24232 78.9398 2.25054 78.9233 2.13536 78.7507C2.06131 78.6356 2.0284 78.4382 2.05309 78.1751C2.07777 77.9614 2.11068 77.7476 2.13536 77.7065C2.16004 77.6654 2.10245 77.4927 2.01195 77.3365C1.88031 77.1063 1.85563 76.9665 1.89677 76.6129C1.92967 76.3827 1.99549 76.1114 2.05309 76.021C2.13536 75.8894 2.13536 75.8401 2.04486 75.7496C1.97904 75.7003 1.90499 75.6756 1.88031 75.7085C1.8474 75.7496 1.86386 75.6921 1.92145 75.5852C1.97904 75.4619 1.98727 75.3632 1.92967 75.281C1.87208 75.1905 1.88031 75.1494 1.97081 75.1165C2.04486 75.0919 2.07777 75.0097 2.05309 74.911C2.0284 74.8205 1.97904 74.7465 1.92967 74.7465C1.88854 74.7465 1.8474 74.615 1.8474 74.4588C1.8474 74.2532 1.88031 74.1874 1.95436 74.2286C2.0284 74.2697 2.0284 74.2614 1.95436 74.1628C1.90499 74.097 1.86386 73.9161 1.87208 73.7599C1.88854 73.6037 1.92145 73.4228 1.95436 73.3652C1.98727 73.3077 1.96258 73.2501 1.88854 73.2255C1.79804 73.1926 1.77335 73.0857 1.78981 72.8226C1.79804 72.5348 1.83917 72.4444 1.97081 72.4033C2.12713 72.3622 2.11891 72.3457 1.91322 72.1566C1.72399 71.9922 1.69931 71.9182 1.7569 71.7619C1.79804 71.6633 1.81449 71.5071 1.78981 71.4166C1.76513 71.3262 1.78981 71.2275 1.83917 71.1864C1.90499 71.1453 1.88854 71.0877 1.79804 70.9809C1.71576 70.9069 1.69108 70.8329 1.73222 70.8246C1.77335 70.8082 1.80626 70.6602 1.79804 70.4958C1.79804 70.3231 1.74867 70.1011 1.69931 69.9942C1.61703 69.8462 1.62526 69.7887 1.73222 69.69C1.79804 69.6242 1.82272 69.5667 1.77335 69.5667C1.71576 69.5667 1.69931 69.394 1.72399 69.0733C1.74867 68.7691 1.73222 68.58 1.68285 68.58C1.64172 68.58 1.60058 68.5389 1.60058 68.4978C1.60058 68.4567 1.65817 68.432 1.72399 68.4567C1.81449 68.4896 1.83917 68.4485 1.82272 68.3087C1.80626 68.21 1.74044 68.0374 1.68285 67.9223C1.61703 67.8072 1.55944 67.6592 1.55121 67.5934C1.53476 67.5276 1.59235 67.4043 1.6664 67.3221C1.74044 67.2398 1.78158 67.1741 1.74867 67.1823C1.70753 67.1823 1.72399 67.1083 1.76513 67.0178C1.82272 66.8945 1.82272 66.8534 1.74867 66.8534C1.68285 66.8616 1.69108 66.8041 1.78981 66.7136C1.91322 66.5821 1.91322 66.5574 1.80626 66.4999C1.74044 66.467 1.70753 66.4012 1.74867 66.3519C1.78158 66.3025 1.74867 66.2285 1.68285 66.1874C1.59235 66.1381 1.55944 65.9654 1.55121 65.6037C1.54299 65.3159 1.5759 65.0692 1.61703 65.0446C1.64994 65.0199 1.63349 64.8966 1.56767 64.7568C1.50185 64.617 1.46071 64.4855 1.48539 64.4444C1.50185 64.4115 1.52653 64.2388 1.54299 64.0579C1.55121 63.877 1.58412 63.729 1.62526 63.729C1.65817 63.729 1.68285 63.581 1.68285 63.4002C1.68285 63.2193 1.72399 63.0548 1.76513 63.0302C1.81449 63.0055 1.80626 62.9397 1.74867 62.8575C1.67737 62.7698 1.66914 62.7095 1.72399 62.6766C1.77335 62.6437 1.80626 62.578 1.80626 62.5368C1.79804 62.4957 1.74867 62.3066 1.68285 62.1257C1.62526 61.9449 1.55944 61.6653 1.54299 61.5091C1.53476 61.3529 1.5183 61.1144 1.52653 60.9747C1.52653 60.8349 1.55121 60.6869 1.5759 60.6458C1.60881 60.6047 1.62526 60.1853 1.61703 59.7167C1.60881 59.2563 1.62526 58.8945 1.6664 58.9109C1.69931 58.9274 1.72399 58.8616 1.73222 58.7712C1.73222 58.6725 1.68285 58.5492 1.62526 58.5081C1.55121 58.4505 1.51008 58.1874 1.49362 57.7434C1.48539 57.2336 1.50185 57.0774 1.58412 57.1103C1.65817 57.1432 1.67462 57.061 1.64172 56.8225C1.61703 56.6417 1.58412 56.4525 1.55944 56.4114C1.53476 56.3703 1.55944 56.321 1.60881 56.3046C1.68285 56.2963 1.68285 56.2388 1.61703 56.1237C1.5759 56.0332 1.53476 55.7619 1.52653 55.5235C1.5183 55.2932 1.50185 55.0713 1.47717 55.0301C1.46071 54.9973 1.5183 54.8246 1.60058 54.6437C1.69108 54.4628 1.76513 54.3066 1.76513 54.2902C1.76513 54.2819 1.72399 54.2984 1.6664 54.3313C1.59235 54.3806 1.58412 54.2984 1.62526 53.9859C1.65817 53.7475 1.64172 53.542 1.60058 53.4926C1.55121 53.4515 1.51008 52.9417 1.49362 52.3744C1.47717 51.4289 1.49362 51.3138 1.64172 51.1576C1.78981 51.0013 1.79804 50.9767 1.67462 50.8369C1.58412 50.7465 1.55121 50.5738 1.56767 50.3271C1.58412 50.1216 1.63349 49.8585 1.67462 49.7269C1.72399 49.6036 1.81449 49.5049 1.87208 49.5049C1.94613 49.5132 1.94613 49.4885 1.87208 49.4063C1.82272 49.3487 1.74867 48.987 1.71576 48.6005C1.68285 48.1976 1.69108 47.877 1.73222 47.8441C1.77335 47.8112 1.78158 47.6303 1.7569 47.433C1.72399 47.2357 1.71576 46.915 1.74044 46.7094C1.7569 46.5039 1.77335 46.2984 1.77335 46.2572C1.77335 46.2161 1.7569 46.0106 1.74044 45.805C1.72399 45.5995 1.74044 45.3693 1.78158 45.287C1.82272 45.2048 1.80626 45.0568 1.74044 44.917C1.68285 44.7937 1.63349 44.6539 1.64172 44.6128C1.64994 44.5717 1.68285 44.4731 1.71576 44.4073C1.74867 44.3415 1.78158 43.8975 1.79804 43.4206C1.80626 42.9438 1.85563 42.4833 1.89677 42.3929C1.94613 42.2696 1.9379 42.2449 1.86386 42.286C1.80626 42.3271 1.76513 42.3107 1.7569 42.2449C1.74867 42.1956 1.74044 42.0887 1.73222 42.0229C1.72399 41.9571 1.77335 41.8338 1.8474 41.7598C1.92145 41.6694 1.94613 41.5625 1.91322 41.4885C1.87208 41.4227 1.88031 41.3651 1.92967 41.3651C1.97904 41.3651 1.99549 41.2418 1.96258 41.0527C1.9379 40.8883 1.91322 40.3538 1.90499 39.8687C1.89677 39.3754 1.90499 38.9808 1.92967 38.9808C1.95436 38.9808 1.97081 38.7341 1.97081 38.4299C1.97081 37.9941 1.99549 37.8708 2.09422 37.8708C2.16004 37.8708 2.22586 37.805 2.23409 37.7228C2.25054 37.6488 2.20941 37.583 2.16004 37.583C2.086 37.583 2.0284 37.361 1.98727 36.9088C1.95436 36.5306 1.94613 36.1359 1.97081 36.0208C1.99549 35.9057 2.04486 35.6426 2.07777 35.4206C2.11068 35.1904 2.10245 35.0013 2.05309 34.952C1.99824 34.8971 2.01743 34.782 2.11068 34.6066C2.23409 34.36 2.23409 34.3106 2.11891 34.0887C2.04486 33.9489 1.99549 33.7433 2.00372 33.6118C2.01195 33.4556 1.96258 33.3733 1.8474 33.324C1.7569 33.2911 1.64172 33.1596 1.60058 33.0198C1.55121 32.88 1.5183 32.6662 1.5183 32.5265C1.52653 32.3867 1.46894 32.2305 1.39489 32.1729C1.32907 32.1236 1.28794 32.0085 1.30439 31.9263C1.32907 31.8523 1.36198 31.6385 1.38666 31.4576C1.41957 31.2274 1.40312 31.1698 1.35376 31.2521C1.29891 31.3343 1.27148 31.3398 1.27148 31.2685C1.27148 31.2192 1.22212 31.1698 1.17275 31.1698C1.11516 31.1698 1.02466 31.0547 0.967066 30.9067C0.917701 30.7587 0.8272 30.471 0.769608 30.2654C0.712016 30.0599 0.670879 29.8132 0.679106 29.7063C0.687334 29.6076 0.670879 29.4761 0.637969 29.4185C0.596832 29.3692 0.563922 29.2459 0.555695 29.1554C0.555695 29.065 0.498103 28.7279 0.448738 28.4155C0.391146 28.103 0.325327 27.8235 0.292417 27.7988C0.259507 27.7741 0.169006 27.5933 0.0949589 27.3877C-0.0366799 27.0342 -0.0366799 27.0013 0.127869 26.5244C0.21837 26.2531 0.317099 25.99 0.341782 25.9489C0.366464 25.8995 0.415828 25.916 0.456966 25.99C0.50633 26.0804 0.531012 26.0557 0.580377 25.8666C0.613287 25.7269 0.646196 25.5953 0.662651 25.5542C0.679106 25.5213 0.753153 25.546 0.8272 25.5953C0.934156 25.6857 0.967066 25.6775 1.02466 25.5789C1.08225 25.4966 1.23857 25.4555 1.55121 25.4555C1.89677 25.4555 2.04486 25.4144 2.19295 25.2829C2.29991 25.1842 2.54673 25.0773 2.75242 25.0444C2.9581 25.0115 3.22138 24.9129 3.35302 24.8307C3.47643 24.7402 3.63275 24.6744 3.69857 24.6744C3.76439 24.6744 3.82198 24.6251 3.82198 24.5676C3.82198 24.5182 3.83844 24.4936 3.86312 24.5264C3.8878 24.5676 3.95362 24.5429 4.01121 24.4853C4.06058 24.4278 4.3074 24.3538 4.546 24.3209C4.80105 24.288 4.97382 24.2222 4.97382 24.1564C4.96559 24.0742 4.99028 24.0742 5.09723 24.1564C5.17128 24.2304 5.22887 24.2304 5.24533 24.1811C5.25355 24.1318 5.40988 24.0742 5.59088 24.0496C5.77188 24.0249 5.99402 24.0085 6.08453 24.0085C6.17503 24.0085 6.26553 24.0578 6.28198 24.1153C6.29844 24.1976 6.31489 24.1976 6.36426 24.1153C6.38894 24.0413 6.56172 24.0002 6.78386 24.0002C6.98954 24.0002 7.21991 23.9427 7.30218 23.8851C7.37623 23.8193 7.48319 23.7865 7.52432 23.8111C7.57369 23.8358 7.92747 23.8111 8.33061 23.7618C8.72553 23.7125 9.19449 23.6385 9.3755 23.5891C9.5565 23.5398 9.79509 23.474 9.91028 23.4329C10.0255 23.3918 10.2476 23.3342 10.4039 23.3096C10.5602 23.2767 10.7659 23.2438 10.8564 23.2356C10.9469 23.2274 11.1115 23.178 11.2267 23.1123C11.3419 23.0547 11.457 22.9643 11.4899 22.9149C11.5311 22.8574 11.5969 22.8738 11.6956 22.9725C11.8355 23.104 11.852 23.104 11.9671 22.9807C12.0494 22.8903 12.1646 22.8656 12.3209 22.8985C12.4937 22.9396 12.5513 22.9149 12.5842 22.7834C12.6089 22.6847 12.6994 22.6107 12.8146 22.6025C12.9133 22.6025 13.0367 22.5943 13.0861 22.586C13.1354 22.5778 13.2259 22.5367 13.2917 22.4874C13.3576 22.4298 13.5715 22.364 13.7772 22.3229C13.9829 22.2901 14.3366 22.2572 14.567 22.2572C14.7974 22.2489 15.036 22.2078 15.1018 22.1585C15.1676 22.1092 15.5461 22.0598 15.9574 22.0598C16.4182 22.0598 16.772 22.0105 16.8871 21.9447C17.0435 21.8625 17.1093 21.8543 17.2409 21.9365C17.3726 22.0269 17.4219 22.0187 17.5453 21.9118C17.6358 21.8214 17.7675 21.7967 17.932 21.8296C18.0719 21.8543 18.22 21.8461 18.2611 21.805C18.3105 21.7721 18.5162 21.6981 18.7383 21.6405C18.9522 21.5912 19.2237 21.5501 19.3554 21.5501C19.4788 21.5501 19.6516 21.5007 19.7421 21.435C19.8572 21.361 20.0711 21.3281 20.4249 21.3527C20.8528 21.3774 20.9268 21.3692 20.8939 21.2623C20.8692 21.1965 20.8939 21.139 20.935 21.139C20.9844 21.139 21.0173 21.2047 21.0255 21.2787C21.0255 21.4021 21.0338 21.4021 21.0914 21.2623C21.1243 21.1719 21.2148 21.0732 21.2888 21.0321C21.3875 20.991 21.4287 21.0156 21.4287 21.1143C21.4287 21.2376 21.4616 21.2212 21.6179 21.0485C21.766 20.8759 21.8812 20.8348 22.2514 20.8265C22.4982 20.8101 22.7451 20.843 22.7862 20.8923C22.8438 20.9499 22.9096 20.9334 22.9919 20.8512C23.0577 20.7772 23.1647 20.7196 23.2223 20.7279C23.2716 20.7279 23.3374 20.6785 23.3539 20.621C23.3786 20.5388 23.4197 20.5388 23.5596 20.621C23.6501 20.6785 23.7982 20.7279 23.8804 20.7279C24.0039 20.7361 24.0039 20.7196 23.8969 20.6045C23.7899 20.4894 23.7899 20.473 23.9216 20.4812C23.9956 20.4812 24.0614 20.5305 24.0614 20.5799C24.0532 20.6539 24.1108 20.6374 24.2013 20.547C24.2836 20.4648 24.4317 20.399 24.5386 20.399C24.6374 20.399 24.7196 20.4401 24.7196 20.4812C24.7196 20.5305 24.8266 20.5059 24.9665 20.4401C25.1063 20.3743 25.312 20.3332 25.4437 20.3497C25.5918 20.3771 25.7015 20.3442 25.7728 20.251C25.8633 20.1194 25.8797 20.1194 25.9784 20.251C26.0689 20.3908 26.1019 20.3825 26.4885 20.2017C26.7354 20.0783 26.9657 20.0208 27.0562 20.0537C27.1385 20.0865 27.2537 20.1605 27.3031 20.2181C27.3524 20.2757 27.4182 20.325 27.4594 20.3168C27.4923 20.3168 27.5334 20.2428 27.5581 20.1523C27.5855 20.0427 27.6678 19.9879 27.8049 19.9879C27.9201 19.9879 28.0106 20.029 28.0106 20.0701C28.0106 20.1112 27.9613 20.1688 27.9119 20.1852C27.8543 20.2099 27.8872 20.2263 27.9942 20.2263C28.1011 20.2345 28.2081 20.1688 28.2574 20.0701C28.3068 19.9797 28.3973 19.9057 28.4631 19.9057C28.5289 19.9057 28.677 19.8481 28.7922 19.7823C28.9074 19.7166 29.0473 19.6754 29.1049 19.6919C29.1542 19.7166 29.253 19.6837 29.3105 19.6343C29.3928 19.5603 29.4257 19.5768 29.4504 19.7166C29.4751 19.8317 29.5491 19.9057 29.6396 19.9057C29.7137 19.9057 29.87 19.807 29.9852 19.6919C30.1004 19.5768 30.2814 19.4617 30.3966 19.437C30.5117 19.4123 30.6598 19.4288 30.7257 19.4781C30.7915 19.5192 30.8902 19.5357 30.9396 19.511C30.9889 19.4781 31.0548 19.3795 31.0959 19.289C31.1535 19.141 31.1617 19.141 31.1946 19.2643C31.2029 19.3466 31.2769 19.4123 31.3427 19.4123C31.4085 19.4123 31.4744 19.3466 31.4908 19.2726C31.5073 19.1492 31.532 19.1575 31.8775 19.5357L32.0996 19.3219C32.2313 19.1986 32.4123 19.0588 32.5192 19.0095C32.618 18.9601 32.7249 18.9355 32.7661 18.9519C32.799 18.9766 32.9224 19.0095 33.054 19.0341C33.1774 19.0588 33.2926 19.0424 33.3173 19.0012C33.342 18.9601 33.4983 18.8615 33.6711 18.7957C33.8356 18.7217 33.992 18.697 34.0166 18.7299C34.0413 18.771 34.14 18.8039 34.247 18.8121C34.3457 18.8286 34.428 18.7957 34.428 18.7546C34.428 18.7135 34.4691 18.6724 34.5103 18.6724C34.5596 18.6724 34.5926 18.7299 34.5926 18.7957C34.5926 18.8697 34.6666 18.919 34.7818 18.9108C34.8805 18.9108 34.9134 18.8944 34.8641 18.8697C34.8065 18.8532 34.7571 18.7957 34.7571 18.7546C34.7571 18.7135 34.8476 18.7299 34.9628 18.7957C35.078 18.8615 35.2343 18.8944 35.3166 18.8615C35.3906 18.8286 35.4976 18.7464 35.5552 18.6806C35.6045 18.6066 35.6292 18.5079 35.6045 18.4668C35.5716 18.4257 35.5881 18.4093 35.6292 18.4421C35.6703 18.4833 35.7526 18.4586 35.8184 18.401C35.8843 18.3517 36.0653 18.2941 36.2298 18.2777C36.3944 18.2613 36.7152 18.2366 36.9374 18.2201C37.1677 18.1955 37.4228 18.1297 37.5133 18.0639C37.6038 17.9982 37.8506 17.9406 38.0728 17.9242C38.2867 17.9077 38.6734 17.8913 38.9366 17.8913C39.1917 17.8913 39.4714 17.9242 39.5537 17.957C39.6524 17.9982 39.6936 17.9735 39.6936 17.8913C39.6936 17.8255 39.7347 17.7515 39.7758 17.7268C39.8252 17.7022 39.9157 17.7104 39.9897 17.7433C40.0638 17.7844 40.1049 17.8419 40.0885 17.883C40.0802 17.9242 40.1132 17.9735 40.1707 17.9899C40.2201 18.0064 40.2695 17.9406 40.2695 17.8502C40.2695 17.7351 40.3518 17.6611 40.541 17.6035C40.6809 17.5542 40.8125 17.5213 40.8289 17.5213C40.8372 17.5213 40.8372 17.5459 40.8372 17.5788C40.8289 17.6199 40.8289 17.6857 40.8372 17.7268C40.8454 17.7679 40.8865 17.7515 40.9277 17.6857C41.0017 17.5788 41.0182 17.5788 41.0922 17.6857C41.1471 17.7679 41.1745 17.7734 41.1745 17.7022C41.1745 17.6528 41.2568 17.6035 41.3637 17.6035C41.4707 17.6035 41.5859 17.5706 41.6352 17.5213C41.6764 17.4802 41.9314 17.4226 42.2029 17.3979C42.4744 17.3733 42.7953 17.3568 42.9269 17.3568C43.0503 17.3568 43.1738 17.3075 43.2067 17.25C43.2478 17.1842 43.2725 17.1924 43.3054 17.2993C43.3548 17.4391 43.3712 17.4391 43.6016 17.2582C43.7908 17.1102 43.832 17.0937 43.7826 17.2088C43.7497 17.2911 43.7661 17.3733 43.8073 17.3979C43.8566 17.4226 43.9225 17.3733 43.9636 17.2911C44.0294 17.176 44.1528 17.1513 44.6547 17.1513C45.0002 17.1513 45.3129 17.1102 45.3787 17.0526C45.4445 17.0033 45.6584 16.9457 45.8641 16.9211C46.1356 16.8964 46.259 16.9211 46.3331 17.0197C46.4236 17.1348 46.4318 17.1348 46.4318 16.9868C46.4318 16.8471 46.4565 16.8389 46.5635 16.9211C46.6293 16.9786 46.7774 17.0115 46.8926 16.9868C47.0077 16.9622 47.0982 16.8964 47.0982 16.8389C47.0982 16.7895 47.1723 16.6909 47.2628 16.6333C47.3533 16.584 47.5178 16.5511 47.633 16.5757C47.7893 16.6086 47.8305 16.584 47.7976 16.4935C47.7647 16.4031 47.8387 16.3538 48.0279 16.3209C48.1678 16.288 48.3159 16.2222 48.3488 16.1729C48.3899 16.1071 48.4804 16.1235 48.6615 16.2222C48.7931 16.3044 48.9905 16.3702 49.0975 16.362C49.1962 16.362 49.2291 16.3455 49.1798 16.3209C49.1222 16.3044 49.0728 16.2469 49.0728 16.2058C49.0728 16.1646 49.1304 16.1235 49.1962 16.1235C49.2621 16.1235 49.4184 16.0495 49.55 15.9673C49.6734 15.8851 50.0107 15.77 50.3069 15.7124C50.6031 15.6549 50.9322 15.5727 51.0474 15.5315C51.1626 15.4822 51.4176 15.4411 51.6233 15.4329C51.829 15.4247 52.0429 15.4493 52.1005 15.4822C52.1581 15.5233 52.2157 15.4987 52.2404 15.4247C52.2678 15.3424 52.3501 15.315 52.4872 15.3424C52.6024 15.3671 52.6764 15.3589 52.66 15.3178C52.6435 15.2849 52.734 15.2602 52.8657 15.2602C52.9973 15.2602 53.1043 15.2849 53.1043 15.3178C53.1043 15.3589 53.2194 15.3836 53.3511 15.3836C53.5156 15.3836 53.639 15.3205 53.7213 15.1944C53.7871 15.0958 53.8694 15.0382 53.9023 15.0711C53.9435 15.104 54.0422 15.0793 54.1327 15.0136C54.2232 14.9396 54.396 14.8902 54.5276 14.8902C54.651 14.8902 54.7662 14.9313 54.7909 14.9725C54.8156 15.0136 54.8732 15.0547 54.9143 15.0547C54.9637 15.0547 54.9966 14.9971 54.9966 14.9313C54.9966 14.8327 55.0706 14.8162 55.3668 14.8491C55.663 14.882 55.737 14.8656 55.737 14.7669C55.737 14.7011 55.7946 14.6271 55.8604 14.6025C55.9263 14.5778 56.0415 14.5778 56.1073 14.6025C56.1731 14.6271 56.2307 14.6847 56.2307 14.7258C56.2307 14.7669 56.2883 14.7505 56.3541 14.6847C56.4446 14.5942 56.5186 14.586 56.6421 14.6436C56.7655 14.7093 56.8148 14.6929 56.8477 14.6025C56.8724 14.5367 56.93 14.4791 56.9712 14.4791C57.0205 14.4791 57.1522 14.5696 57.2838 14.6847C57.4072 14.7998 57.5718 14.8985 57.654 14.8902C57.7281 14.8902 57.8104 14.8327 57.835 14.7669C57.8679 14.6765 57.9502 14.6518 58.123 14.6847C58.3122 14.7176 58.4109 14.6765 58.559 14.5285C58.666 14.4134 58.8799 14.3147 59.0691 14.29C59.2501 14.2654 59.4887 14.2325 59.6039 14.216C59.7191 14.1996 59.859 14.142 59.9166 14.0845C59.9742 14.0351 60.1058 13.9858 60.2045 13.9858C60.3033 13.9858 60.4678 13.9694 60.5748 13.9447C60.6735 13.92 60.7558 13.9447 60.7558 13.9858C60.7558 14.0269 60.6735 14.1091 60.5748 14.1502C60.4102 14.2242 60.4102 14.2325 60.6324 14.1914C60.7722 14.1667 61.0026 14.0845 61.1589 14.0023C61.3728 13.8954 61.4469 13.8871 61.4633 13.9611C61.4798 14.0269 61.6279 14.068 61.8089 14.068C62.0804 14.0763 62.1051 14.0598 61.9899 13.9447C61.9241 13.8789 61.8994 13.7885 61.9323 13.7556C61.9734 13.7227 62.1956 13.6652 62.4259 13.6323C62.6645 13.5994 62.9689 13.55 63.1006 13.5254C63.2405 13.5089 63.4955 13.476 63.6765 13.4596C63.8575 13.4349 64.3018 13.3609 64.6638 13.2869C65.0258 13.2129 65.396 13.1472 65.4865 13.1472C65.577 13.1472 65.7251 13.1554 65.8156 13.1636C65.9061 13.1718 66.1859 13.1554 66.4327 13.1225C66.6795 13.0814 66.9346 13.0074 66.9922 12.9498C67.0497 12.8841 67.2225 12.8429 67.42 12.8512C67.601 12.8676 67.7573 12.8512 67.7655 12.8265C67.782 12.7936 67.9959 12.7443 68.2427 12.7032C68.5142 12.6703 68.6705 12.6703 68.6376 12.7196C68.613 12.7607 68.6952 12.8018 68.8269 12.8101C68.9585 12.8265 69.0655 12.7936 69.0655 12.7525C69.0655 12.7114 68.9996 12.6538 68.9256 12.6374C68.8433 12.621 68.9174 12.6045 69.0901 12.5963C69.2547 12.5963 69.411 12.6292 69.4357 12.6703C69.4604 12.7196 69.5673 12.6867 69.7072 12.5963C69.8388 12.4976 70.2584 12.3825 70.7932 12.3003C71.2704 12.2181 71.8134 12.1605 72.0109 12.1687C72.2412 12.177 72.3564 12.1441 72.3564 12.0701C72.3564 11.9961 72.4223 11.9879 72.6197 12.0372C72.7678 12.0783 73.0146 12.1194 73.1627 12.1441C73.3602 12.1687 73.426 12.1441 73.426 12.0536C73.426 11.9879 73.4754 11.9056 73.533 11.8727C73.5823 11.8399 73.8374 11.7823 74.0842 11.7494C74.331 11.7165 74.5614 11.6425 74.5943 11.585C74.6437 11.4945 74.6766 11.4945 74.7589 11.585C74.8164 11.6425 74.9316 11.6836 75.0057 11.6836C75.0797 11.6836 75.2031 11.6261 75.269 11.5603C75.343 11.4945 75.4911 11.4452 75.598 11.4534C75.705 11.4699 75.8284 11.5028 75.8695 11.5439C75.9025 11.5768 76.0176 11.5439 76.1246 11.4781C76.2233 11.4123 76.3467 11.3712 76.3879 11.3959C76.4372 11.4205 76.5277 11.3959 76.5936 11.3548C76.6676 11.3054 76.7581 11.2972 76.8239 11.3465C76.8733 11.3959 76.9885 11.4205 77.0708 11.4123C77.153 11.4041 77.2518 11.3301 77.3011 11.2479C77.3423 11.1657 77.4163 11.1328 77.4821 11.1657C77.5315 11.1985 77.6631 11.2314 77.7701 11.2479C77.8688 11.2643 77.9346 11.2397 77.91 11.1903C77.8853 11.1492 77.9511 11.0752 78.058 11.0259C78.1568 10.9848 78.5352 10.8697 78.8972 10.7792C79.2592 10.6806 79.6048 10.623 79.6624 10.6477C79.7118 10.6723 79.7611 10.6559 79.7611 10.6148C79.7611 10.5737 79.8023 10.5326 79.8434 10.5326C79.8928 10.5326 79.9257 10.5983 79.9257 10.6723C79.9174 10.8039 79.9339 10.8039 80.0491 10.697C80.1231 10.6312 80.1807 10.5243 80.1725 10.4668C80.1725 10.4175 80.2136 10.3681 80.2548 10.3681C80.3041 10.3681 80.337 10.4339 80.3453 10.5079C80.3453 10.6312 80.3699 10.623 80.444 10.475C80.5016 10.3763 80.625 10.2777 80.7237 10.2695C80.8471 10.253 80.9294 10.2941 80.9541 10.3846C80.9788 10.4668 81.0364 10.5326 81.0775 10.5326C81.1269 10.5326 81.1598 10.4915 81.1598 10.4503C81.1598 10.4092 81.2256 10.3928 81.3079 10.4175C81.4011 10.4449 81.4642 10.4092 81.4971 10.3106C81.53 10.2037 81.6617 10.1461 81.9496 10.0968C82.2047 10.0639 82.361 10.0639 82.3774 10.1215C82.3857 10.1626 82.4515 10.2037 82.5173 10.2037C82.5831 10.2037 82.6407 10.1461 82.6407 10.0803C82.6407 10.0146 82.6654 9.9488 82.7065 9.9488C82.7394 9.94057 82.8793 9.92413 83.011 9.91591C83.1508 9.90769 83.3236 9.86658 83.4141 9.82547C83.5211 9.76791 83.5869 9.79258 83.6362 9.89124C83.7103 10.031 83.7185 10.031 83.8748 9.89124C83.9982 9.78436 84.0558 9.77613 84.1381 9.85013C84.2122 9.91591 84.2862 9.92413 84.3685 9.8748C84.4343 9.82547 84.459 9.79258 84.4096 9.8008C84.3603 9.8008 84.3767 9.74325 84.4343 9.66925C84.4837 9.60347 84.5742 9.56236 84.6153 9.58703C84.6647 9.61169 84.7552 9.5788 84.8292 9.52125C84.9115 9.4637 85.1419 9.43081 85.364 9.43903C85.5861 9.45547 85.833 9.43081 85.9152 9.3897C85.9893 9.34859 86.2773 9.29103 86.5488 9.27459C86.8203 9.25815 87.1576 9.19237 87.2892 9.14304C87.4291 9.08548 87.7664 9.02793 88.0544 9.00326C88.3588 8.98682 88.5645 9.00326 88.5645 9.0526C88.5645 9.09371 88.6221 9.13482 88.6879 9.13482C88.7537 9.13482 88.8442 9.06904 88.8853 8.98682C88.9511 8.87171 88.9923 8.86349 89.1322 8.94571C89.2803 9.03615 89.3296 9.02793 89.4695 8.84705C89.56 8.73194 89.6998 8.64972 89.7821 8.65794C89.8562 8.66616 89.9796 8.64149 90.0454 8.60038C90.1112 8.55928 90.3745 8.45239 90.6213 8.37017C90.8681 8.27973 91.0985 8.17284 91.1314 8.12351C91.1726 8.04951 91.2548 8.04951 91.4605 8.12351C91.6086 8.18106 91.8143 8.19751 91.9213 8.16462C92.0282 8.13173 92.1269 8.02484 92.1516 7.91796C92.1681 7.80285 92.2421 7.73707 92.3491 7.73707C92.4396 7.73707 92.5301 7.79463 92.5548 7.8604C92.5795 7.92618 92.637 7.96729 92.6782 7.94262C92.7276 7.91796 92.7605 7.82752 92.7605 7.73707C92.7605 7.64663 92.8098 7.54797 92.8674 7.51508C92.9168 7.49041 93.0649 7.46575 93.1965 7.47397C93.3199 7.48219 93.4351 7.4493 93.4598 7.40819C93.4845 7.36708 93.6902 7.32597 93.9123 7.32597C94.1427 7.32597 94.3401 7.28486 94.3648 7.24375C94.3895 7.20264 94.4471 7.16153 94.4882 7.16153C94.5376 7.16153 94.5705 7.21909 94.5705 7.28486C94.5705 7.35064 94.6116 7.40819 94.6528 7.40819C94.7021 7.40819 94.7762 7.33419 94.8173 7.24375C94.8667 7.15331 94.949 7.09576 95.0065 7.1122C95.0559 7.12864 95.1793 7.09576 95.2698 7.02998C95.3603 6.9642 95.492 6.91487 95.5578 6.90665C95.6236 6.90665 95.7388 6.9642 95.8046 7.0382C95.8704 7.1122 95.9527 7.16975 95.9938 7.16153C96.0267 7.16153 96.0514 7.10398 96.0514 7.0382C96.0514 6.95598 96.1474 6.90665 96.3394 6.8902C96.5368 6.88198 96.6356 6.91487 96.6602 6.99709C96.6767 7.06287 96.6932 7.0382 96.7014 6.93131C96.7096 6.78332 96.7425 6.75865 96.8988 6.79976C97.014 6.82443 97.1621 6.78332 97.3102 6.67643C97.4336 6.57777 97.59 6.50377 97.6558 6.50377C97.7463 6.50377 97.771 6.56132 97.7298 6.72576C97.7051 6.87376 97.7134 6.93131 97.7627 6.87376C97.8121 6.83265 97.8615 6.71754 97.8779 6.63532C97.8861 6.54488 97.952 6.46266 98.0096 6.44622C98.0589 6.42977 98.1083 6.49555 98.1083 6.58599C98.1083 6.67643 98.133 6.75043 98.1741 6.75043C98.207 6.75865 98.3386 6.66821 98.4621 6.56955C98.5937 6.46266 98.676 6.33111 98.6513 6.27355C98.6184 6.19955 98.7089 6.17489 98.9968 6.19133C99.2108 6.19955 99.4329 6.24066 99.4905 6.29C99.5481 6.33933 99.6221 6.34755 99.655 6.31466C99.6879 6.28177 99.655 6.216 99.5892 6.17489C99.4823 6.10911 99.4905 6.09267 99.6304 6.04334C99.7455 6.00223 99.8278 6.03511 99.9101 6.142C100.009 6.29 100.017 6.29 99.9677 6.11733C99.9265 5.94467 99.943 5.93645 100.149 5.98578C100.272 6.01045 100.379 6.068 100.396 6.10911C100.404 6.142 100.453 6.17489 100.494 6.17489C100.544 6.17489 100.577 6.12556 100.577 6.07622C100.577 6.01867 100.692 5.90356 100.823 5.82956C100.971 5.73912 101.416 5.64046 101.918 5.5829C102.452 5.52535 102.781 5.45135 102.823 5.37735C102.872 5.28691 102.913 5.29513 103.069 5.3938C103.168 5.45957 103.316 5.50068 103.399 5.47602C103.473 5.45135 103.538 5.3938 103.538 5.35269C103.538 5.31158 103.588 5.28691 103.645 5.30335C103.695 5.32802 103.859 5.28691 103.991 5.22113C104.131 5.15536 104.443 5.08136 104.69 5.04847C104.937 5.02381 105.283 5.00736 105.455 5.01558C105.628 5.02381 105.743 4.99092 105.719 4.94159C105.694 4.90048 105.735 4.8347 105.809 4.80181C105.891 4.7607 105.965 4.78537 106.007 4.85937C106.072 4.96625 106.097 4.96625 106.229 4.84292C106.311 4.7607 106.5 4.69493 106.648 4.69493C106.788 4.69493 106.912 4.73604 106.912 4.77714C106.912 4.81826 106.953 4.85937 106.994 4.85937C107.043 4.85937 107.076 4.80181 107.076 4.73604C107.076 4.66204 107.15 4.6127 107.282 4.6127C107.397 4.6127 107.504 4.55515 107.529 4.48937C107.553 4.41538 107.627 4.38249 107.718 4.41538C107.792 4.44826 107.899 4.47293 107.948 4.48115C107.998 4.48115 108.031 4.53871 108.014 4.58804C107.998 4.64559 108.014 4.69493 108.047 4.69493C108.08 4.69493 108.154 4.64559 108.203 4.59626C108.261 4.53871 108.277 4.43182 108.253 4.36604C108.22 4.25916 108.22 4.25916 108.302 4.36604C108.368 4.46471 108.409 4.46471 108.491 4.39071C108.563 4.31945 108.634 4.31123 108.705 4.36604C108.771 4.4236 108.812 4.40715 108.845 4.30027C108.87 4.2016 108.985 4.15227 109.232 4.14405C109.446 4.12761 109.61 4.16049 109.643 4.22627C109.692 4.30027 109.709 4.29205 109.709 4.2016C109.709 4.09472 109.717 4.09472 109.791 4.2016C109.857 4.30849 109.882 4.30027 109.972 4.16872C110.03 4.0865 110.129 4.03716 110.186 4.06183C110.236 4.09472 110.334 4.0865 110.392 4.04539C110.441 4.00428 110.803 3.95494 111.19 3.9385C111.577 3.92206 111.914 3.87272 111.947 3.83161C111.98 3.78228 112.054 3.79872 112.136 3.87272C112.21 3.9385 112.268 3.95494 112.276 3.91383C112.276 3.87272 112.276 3.80695 112.268 3.76584C112.268 3.73295 112.342 3.70828 112.449 3.70828C112.556 3.70828 112.687 3.65895 112.737 3.6014C112.819 3.5274 112.852 3.5274 112.901 3.6014C112.951 3.68362 113.016 3.68362 113.239 3.6014C113.461 3.5274 113.526 3.5274 113.551 3.6014C113.559 3.65895 113.617 3.70828 113.658 3.70828C113.707 3.70828 113.757 3.62606 113.773 3.51918C113.806 3.38762 113.847 3.35474 113.963 3.38762C114.045 3.42051 114.176 3.46162 114.259 3.49451C114.352 3.5274 114.399 3.50273 114.399 3.42051C114.399 3.35474 114.44 3.28074 114.481 3.25607C114.53 3.23141 114.678 3.23141 114.81 3.25607C114.95 3.28074 115.04 3.33829 115.016 3.3794C114.991 3.42051 115.032 3.46162 115.098 3.46162C115.164 3.46162 115.246 3.40407 115.287 3.33007C115.328 3.23963 115.427 3.20674 115.608 3.22318C115.756 3.23963 115.888 3.21496 115.904 3.17385C115.921 3.12452 116.011 3.13274 116.151 3.1903C116.34 3.28074 116.381 3.28074 116.414 3.17385C116.439 3.10807 116.497 3.06696 116.538 3.09163C116.587 3.1163 116.826 3.10807 117.073 3.06696C117.476 3.01763 117.517 3.02585 117.5 3.14919C117.484 3.25607 117.533 3.29718 117.665 3.29718C117.797 3.29718 117.846 3.25607 117.838 3.15741C117.821 3.06696 117.903 2.9683 118.06 2.90252C118.2 2.83675 118.504 2.76275 118.743 2.72986C119.08 2.68875 119.195 2.7052 119.261 2.80386C119.327 2.91075 119.351 2.91075 119.442 2.80386C119.5 2.73808 119.598 2.66409 119.664 2.64764C119.73 2.6312 119.845 2.61475 119.911 2.60653C119.977 2.59831 120.174 2.56542 120.347 2.53253C120.544 2.49142 120.693 2.50787 120.775 2.57364C120.882 2.66409 120.906 2.65586 120.898 2.53253C120.898 2.42565 120.972 2.38454 121.219 2.36809C121.441 2.35987 121.524 2.38454 121.507 2.45031C121.491 2.50787 121.532 2.5572 121.598 2.5572C121.663 2.5572 121.737 2.49965 121.762 2.43387C121.787 2.35987 121.869 2.32698 121.968 2.35165C122.067 2.37631 122.19 2.32698 122.28 2.22832C122.355 2.13788 122.47 2.06388 122.527 2.06388C122.585 2.06388 122.7 2.01455 122.766 1.95699C122.848 1.89122 123.046 1.85833 123.26 1.87477C123.449 1.89122 123.613 1.87477 123.613 1.84188C123.613 1.80077 123.778 1.77611 123.975 1.77611C124.206 1.76789 124.387 1.71855 124.485 1.61989C124.625 1.48834 124.65 1.48834 124.708 1.60344C124.74 1.67744 124.823 1.735 124.889 1.735C124.954 1.735 125.037 1.67744 125.078 1.60344C125.111 1.53767 125.185 1.49656 125.242 1.52122C125.292 1.54589 125.366 1.513 125.39 1.44723C125.415 1.38145 125.506 1.3239 125.596 1.3239C125.678 1.3239 125.785 1.38967 125.826 1.46367C125.892 1.59522 125.917 1.59522 126.04 1.48834C126.164 1.38145 126.188 1.38145 126.254 1.48834C126.304 1.57056 126.328 1.57604 126.328 1.50478C126.328 1.45545 126.386 1.42256 126.452 1.44723C126.518 1.47189 126.575 1.44723 126.575 1.40612C126.575 1.36501 126.649 1.34034 126.74 1.36501C126.847 1.38967 126.904 1.36501 126.896 1.29923C126.888 1.23345 127.028 1.11835 127.2 1.03613C127.381 0.962127 127.587 0.912795 127.669 0.945683C127.743 0.970349 127.867 0.978571 127.933 0.953905C127.999 0.929239 128.056 0.863463 128.056 0.814131Z" fill="#FF5D00"/>
</svg>
