<svg width="104" height="118" viewBox="0 0 104 118" fill="none" xmlns="http://www.w3.org/2000/svg">
<path fill-rule="evenodd" clip-rule="evenodd" d="M23.7079 0.476013C23.749 0.492493 23.9216 0.525451 24.0777 0.533691C24.2338 0.541931 24.7597 0.591369 25.2528 0.640807C25.7376 0.690246 26.206 0.772643 26.2964 0.813841C26.3867 0.85504 26.8058 0.904478 27.2249 0.920958C27.6358 0.929197 28.022 0.962156 28.0631 0.986875C28.1041 1.01983 28.3507 1.10223 28.5972 1.17639C28.8437 1.25879 29.1888 1.39062 29.3614 1.48126C29.6325 1.62133 29.6818 1.62133 29.7887 1.51422C29.8544 1.4483 29.9119 1.34942 29.9119 1.30822C29.9119 1.26703 30.027 1.23407 30.1584 1.25055C30.2981 1.25879 30.4378 1.30822 30.4707 1.3659C30.5036 1.41534 30.635 1.50598 30.7747 1.55542C30.9884 1.64605 31.013 1.63781 30.9555 1.52246C30.9227 1.44006 30.9391 1.39062 30.9966 1.39062C31.0541 1.38238 31.1938 1.45654 31.3089 1.54718C31.4239 1.63781 31.5307 1.69549 31.5554 1.67077C31.58 1.64605 31.7279 1.68725 31.8841 1.74493C32.0402 1.81085 32.2621 1.95092 32.3771 2.05804C32.5168 2.19811 32.6729 2.25579 32.8948 2.25579C33.0673 2.25579 33.2317 2.30523 33.2646 2.36291C33.2974 2.42883 33.3796 2.44531 33.4864 2.40411C33.6179 2.34643 33.6343 2.36291 33.585 2.5277C33.5439 2.6513 33.5686 2.72546 33.6508 2.75017C33.7165 2.77489 33.8151 2.7337 33.8562 2.66778C33.9302 2.56066 33.9795 2.5689 34.2013 2.75017C34.3492 2.85729 34.5218 2.95617 34.5711 2.95617C34.6286 2.95617 34.8012 3.03032 34.9409 3.11272C35.0888 3.20336 35.2367 3.36815 35.2696 3.48351C35.3271 3.68126 35.3682 3.69774 35.7872 3.69774C36.1159 3.69774 36.2228 3.72246 36.1735 3.79662C36.1324 3.86254 36.1652 3.87902 36.2967 3.83782C36.4035 3.80486 36.5021 3.82134 36.5268 3.86254C36.5514 3.90373 36.6501 3.94493 36.7487 3.94493C36.8719 3.94493 36.987 4.02733 37.0774 4.19212C37.2006 4.39812 37.2417 4.42284 37.3485 4.34044C37.4553 4.2498 37.5046 4.26628 37.6361 4.42284C37.7265 4.52171 37.8251 4.58763 37.858 4.56291C37.8991 4.54643 38.047 4.63707 38.1867 4.7689C38.3757 4.94194 38.4414 5.06553 38.4168 5.18089C38.3839 5.29625 38.425 5.35392 38.54 5.38688C38.6304 5.4116 38.7208 5.48576 38.7454 5.55168C38.7701 5.62583 38.8523 5.65879 38.9509 5.63407C39.0659 5.60936 39.1974 5.68351 39.3782 5.87303C39.5261 6.02958 39.8137 6.35093 40.0191 6.58988C40.2245 6.82059 40.4628 7.08427 40.5532 7.16666C40.6436 7.24906 40.6847 7.34794 40.6518 7.38089C40.619 7.42209 40.5943 7.39737 40.5943 7.34794C40.5943 7.29026 40.5532 7.24082 40.5122 7.24082C40.4574 7.24082 40.4574 7.29575 40.5122 7.40561C40.5532 7.49625 40.6518 7.57041 40.7176 7.57041C40.7998 7.57041 40.8271 7.62534 40.7998 7.7352C40.7669 7.86704 40.7915 7.89176 40.923 7.8588C41.0545 7.82584 41.0874 7.8588 41.0874 8.04831C41.0874 8.17191 41.112 8.24606 41.1449 8.21311C41.186 8.18015 41.3092 8.28726 41.4325 8.4603C41.5557 8.62509 41.679 8.88876 41.7036 9.03708C41.7283 9.17715 41.7858 9.28427 41.8269 9.25955C41.868 9.23483 41.9502 9.27603 41.9913 9.34195C42.0488 9.43258 42.0406 9.47378 41.9666 9.4985C41.9009 9.52047 41.9091 9.53421 41.9913 9.5397C42.057 9.5397 42.172 9.61386 42.2378 9.68801C42.3117 9.77041 42.3528 9.90225 42.3446 9.98464C42.3282 10.0588 42.361 10.1742 42.4021 10.2318C42.4514 10.2813 42.5007 10.4625 42.5089 10.6273C42.5254 10.8581 42.5582 10.9157 42.6651 10.891C42.7472 10.8828 42.8869 10.9405 42.9773 11.0311C43.0924 11.1464 43.1252 11.2453 43.0759 11.3607C43.0348 11.476 43.0595 11.5584 43.1663 11.6326C43.2567 11.682 43.3307 11.8221 43.3471 11.9375C43.3553 12.0528 43.3717 12.3 43.38 12.4978C43.38 12.6873 43.4128 12.8273 43.4457 12.8026C43.4868 12.7861 43.5854 12.8356 43.6758 12.9345C43.7662 13.0251 43.799 13.0993 43.758 13.0993C43.7169 13.0993 43.7662 13.1734 44.0866 13.4453L43.6758 13.3135L43.8976 13.536C44.0291 13.6513 44.1277 13.8326 44.1277 13.9397C44.1195 14.0386 44.177 14.1787 44.251 14.2446C44.3249 14.3105 44.3825 14.4423 44.3742 14.533C44.3742 14.6236 44.4236 14.8131 44.4975 14.945C44.5632 15.085 44.6208 15.1345 44.6208 15.0685C44.6208 14.9614 44.629 14.9614 44.744 15.0685C44.8426 15.1674 44.8508 15.2416 44.7851 15.4229C44.7194 15.5877 44.7276 15.6453 44.8015 15.6453C44.8591 15.6371 44.9659 15.6948 45.0316 15.7689C45.1302 15.8843 45.1385 15.9172 45.0481 15.9584C44.9823 15.9914 44.933 16.0573 44.933 16.0985C44.933 16.1397 44.9741 16.1974 45.0234 16.2221C45.0727 16.2468 45.1302 16.3539 45.1467 16.4693C45.1549 16.5847 45.2042 16.8318 45.2453 17.0296C45.2864 17.2191 45.3685 17.3757 45.4178 17.3757C45.4918 17.3757 45.5164 17.4993 45.5 17.7794C45.4918 18.0019 45.4589 18.1667 45.4178 18.1502C45.385 18.1337 45.3603 18.2326 45.3603 18.3644C45.3603 18.5704 45.385 18.6034 45.5247 18.5704C45.6342 18.543 45.689 18.5704 45.689 18.6528C45.689 18.7187 45.6479 18.7764 45.6068 18.7764C45.5657 18.7764 45.5411 18.8341 45.5657 18.9C45.5904 18.9659 45.5657 19.0236 45.5247 19.0236C45.4836 19.0236 45.4589 19.0648 45.4836 19.106C45.5082 19.1472 45.5986 19.1719 45.689 19.1472C45.7794 19.1225 45.8533 19.1472 45.8533 19.1884C45.8533 19.2296 45.8123 19.2708 45.7712 19.2708C45.7301 19.2708 45.6972 19.3779 45.7054 19.518C45.7219 19.6498 45.7712 19.7652 45.8123 19.7652C45.8533 19.7652 45.8862 19.9053 45.8698 20.0783C45.8533 20.2431 45.8862 20.4244 45.9273 20.4656C45.9766 20.5068 46.0013 20.6963 45.993 20.8775C45.9766 21.0588 45.9437 21.2566 45.9109 21.3143C45.878 21.3637 45.8944 21.4131 45.9355 21.4131C45.9766 21.4131 46.0177 21.4955 46.0259 21.6026C46.0259 21.7015 46.0341 21.9487 46.0423 22.1547C46.0506 22.3607 46.0834 22.5667 46.1163 22.6079C46.1492 22.6491 46.1903 22.8221 46.2149 22.9787C46.2396 23.1352 46.3053 23.3907 46.3628 23.539C46.4532 23.7697 46.4532 23.8191 46.3464 23.885C46.2478 23.9427 46.2396 23.9922 46.3217 24.1487C46.3792 24.2558 46.445 24.4865 46.4614 24.6678C46.4861 24.8491 46.56 25.2611 46.634 25.5742C46.6997 25.8873 46.7901 26.1922 46.8312 26.2334C46.8723 26.2746 46.9298 26.4806 47.0284 27.0573L47.1517 26.563C47.2174 26.291 47.2667 25.9203 47.2749 25.739C47.2749 25.5577 47.2503 25.1375 47.2256 24.8161C47.1928 24.4865 47.1928 24.2146 47.2256 24.2146C47.2667 24.2146 47.2914 23.9674 47.2996 23.6543C47.2996 23.2259 47.3407 23.0446 47.4804 22.8551C47.579 22.715 47.6694 22.4678 47.6776 22.303C47.694 22.13 47.6611 21.9899 47.6201 21.9981C47.5707 21.9981 47.5872 21.9405 47.6365 21.8663C47.694 21.8004 47.7269 21.7015 47.7022 21.6603C47.6776 21.6191 47.7269 21.4626 47.8008 21.3225C47.9159 21.1247 47.9241 21.0588 47.8419 21.0341C47.7926 21.0176 47.7433 20.9352 47.7433 20.8611C47.7433 20.7375 47.7597 20.7292 47.8173 20.8363C47.8748 20.9352 47.8994 20.9187 47.9487 20.754C47.9871 20.6166 47.9679 20.5287 47.8912 20.4903C47.809 20.4491 47.809 20.4161 47.883 20.3255C47.9405 20.2678 47.9652 20.1937 47.9241 20.1607C47.8912 20.1277 47.9077 20.0536 47.957 19.9959C48.0063 19.9382 48.1049 19.7075 48.1788 19.4768C48.2856 19.1472 48.2939 19.0401 48.2117 18.9577C48.1377 18.8753 48.146 18.8259 48.2528 18.7105C48.3349 18.6363 48.4007 18.4963 48.4007 18.4056C48.4007 18.2656 48.4171 18.2656 48.4829 18.3644C48.5568 18.4715 48.5732 18.4715 48.6472 18.3644C48.6883 18.2985 48.7294 18.2161 48.7294 18.1832C48.7294 18.142 48.6801 18.1008 48.6226 18.076C48.5732 18.0596 48.4993 17.9854 48.4582 17.9113C48.4253 17.8371 48.4664 17.7217 48.5732 17.6064C48.6636 17.4993 48.7951 17.2933 48.8609 17.1532C48.943 16.9637 48.9512 16.8401 48.8937 16.7577C48.828 16.6671 48.8526 16.6176 48.9759 16.5517C49.0663 16.5105 49.1402 16.3951 49.1402 16.3045C49.1402 16.2056 49.206 16.1232 49.3046 16.0985C49.395 16.0738 49.5018 15.9914 49.5347 15.9172C49.5757 15.8348 49.6497 15.5547 49.699 15.2993C49.7565 15.0109 49.8551 14.7802 49.9455 14.7225C50.0277 14.6648 50.2249 14.3599 50.381 14.0468C50.5372 13.742 50.7426 13.4288 50.8412 13.3712C50.948 13.3052 51.0302 13.1899 51.0302 13.1157C51.0302 13.0333 51.0795 12.9015 51.137 12.8273C51.1945 12.7449 51.2767 12.679 51.3178 12.679C51.3589 12.679 51.4739 12.6131 51.5725 12.5307C51.6629 12.4566 51.7697 12.3082 51.7944 12.2094C51.8273 12.1023 51.9587 11.9622 52.0984 11.8963C52.2381 11.8303 52.3614 11.7067 52.3778 11.6326C52.4025 11.5502 52.5093 11.4184 52.6243 11.3442C52.7394 11.2618 52.8791 11.2124 52.9202 11.2371C52.9612 11.2618 53.1338 11.1547 53.2899 11.0146C53.4461 10.8663 53.5775 10.6933 53.5775 10.6438C53.5775 10.5861 53.6268 10.4873 53.6761 10.4296C53.7337 10.3637 53.8569 10.3307 53.9473 10.3472C54.0706 10.3719 54.1363 10.3142 54.2103 10.133C54.2842 9.96817 54.3746 9.87753 54.4814 9.87753C54.5718 9.87753 54.6458 9.81985 54.6458 9.75393C54.6458 9.68801 54.7444 9.58914 54.8676 9.54794C54.9991 9.4985 55.1717 9.4161 55.2703 9.35843C55.3607 9.30075 55.4922 9.21835 55.5579 9.16891C55.6236 9.11123 55.7962 9.05356 55.9359 9.0206C56.0838 8.99588 56.207 8.92996 56.207 8.88876C56.207 8.83932 56.1495 8.83108 56.0674 8.87228C55.9688 8.91348 55.9441 8.897 55.977 8.80637C56.0016 8.74045 56.0756 8.69101 56.1577 8.70749C56.2317 8.71573 56.3139 8.66629 56.3467 8.59213C56.3878 8.51797 56.5193 8.38614 56.659 8.30374C56.7987 8.22135 57.0123 8.13071 57.152 8.10599C57.2917 8.08127 57.4478 8.09775 57.4972 8.14719C57.5711 8.20487 57.6122 8.19663 57.6451 8.10599C57.6697 8.03183 57.7519 7.99887 57.8505 8.02359C57.9491 8.04831 58.0148 8.02359 58.0148 7.96591C58.0066 7.88352 58.0313 7.88352 58.1381 7.96591C58.2367 8.04831 58.286 8.04831 58.4011 7.96591C58.4832 7.90824 58.5983 7.80936 58.6476 7.75992C58.7133 7.694 58.8694 7.66928 59.0173 7.68576C59.1899 7.71048 59.3214 7.67752 59.3707 7.61161C59.42 7.54569 59.6583 7.46329 59.9048 7.41385C60.2664 7.35618 60.3814 7.36442 60.48 7.45505C60.5868 7.55393 60.6279 7.54569 60.8087 7.35618C60.9813 7.18314 61.0306 7.16666 61.0963 7.27378C61.1538 7.35618 61.2689 7.38089 61.4661 7.35618C61.6222 7.3397 61.7865 7.28202 61.8358 7.24082C61.8852 7.19138 61.8687 7.15842 61.7948 7.15842C61.7372 7.15842 61.7126 7.14194 61.7372 7.11722C61.7701 7.0925 61.9016 7.15018 62.0413 7.24082C62.181 7.33146 62.3535 7.38913 62.4275 7.36441C62.5097 7.3397 62.6247 7.37265 62.6904 7.42209C62.7562 7.48801 63.0356 7.52921 63.3643 7.52921C63.6847 7.52921 63.9723 7.57041 64.0299 7.62809C64.0874 7.67752 64.1695 7.71048 64.2188 7.68576C64.2681 7.66104 64.4407 7.79288 64.6133 7.98239C64.7776 8.16367 64.983 8.31198 65.0652 8.31198C65.1392 8.31198 65.3446 8.36142 65.5172 8.43558C65.6815 8.5015 65.8787 8.54269 65.9445 8.51797C66.0184 8.49326 66.1006 8.55093 66.1499 8.64157C66.1992 8.73221 66.2978 8.80637 66.38 8.80637C66.4539 8.80637 66.5854 8.87228 66.6676 8.95468C66.7497 9.02884 66.8155 9.14419 66.8073 9.20187C66.8073 9.25131 66.8566 9.30899 66.9141 9.30899C66.9634 9.31723 67.0374 9.31723 67.0784 9.30899C67.1113 9.30899 67.2181 9.40786 67.325 9.53146C67.4236 9.6633 67.6043 9.78689 67.7358 9.81985C67.8591 9.85281 67.9495 9.90225 67.9412 9.94345C67.9412 9.97641 67.9577 10.067 67.9823 10.1494C68.0152 10.2236 68.1138 10.2895 68.2042 10.2895C68.3357 10.2895 68.3685 10.3472 68.3685 10.5367C68.3685 10.6685 68.4014 10.7839 68.4507 10.7839C68.5 10.7839 68.5986 10.8498 68.6726 10.9322C68.7712 11.0311 68.8123 11.0393 68.8369 10.9734C68.8534 10.9157 68.9191 10.8663 68.9848 10.8663C69.0506 10.8663 69.1245 10.924 69.1492 10.9899C69.1738 11.0558 69.1903 11.1794 69.1903 11.2618C69.1903 11.336 69.2642 11.4513 69.3546 11.509C69.445 11.5584 69.519 11.6491 69.519 11.6903C69.519 11.7315 69.6258 11.8715 69.7573 12.0034C69.8887 12.127 70.0695 12.2835 70.1681 12.3494C70.2667 12.4154 70.3407 12.5142 70.3407 12.5554C70.3407 12.5966 70.4475 12.7285 70.579 12.8438C70.7187 12.9592 70.8091 13.0745 70.7844 13.1157C70.768 13.1487 70.7844 13.1899 70.8337 13.2146C70.883 13.2393 70.9159 13.3794 70.9241 13.5277C70.9241 13.7172 70.9405 13.7502 70.9816 13.6431C71.0391 13.4948 71.0474 13.4948 71.1788 13.6431C71.2528 13.7255 71.3761 13.9315 71.4418 14.1045C71.5157 14.2693 71.7047 14.5494 71.8609 14.7225C72.0252 14.8873 72.1403 15.085 72.1156 15.1509C72.0992 15.2169 72.2389 15.4476 72.4443 15.67C72.6497 15.8925 72.7894 16.1068 72.7648 16.1809C72.7401 16.2551 72.6826 16.2798 72.6251 16.2468C72.5538 16.2029 72.5402 16.2166 72.584 16.288C72.6168 16.3375 72.699 16.3704 72.7648 16.3457C72.8634 16.3127 72.8798 16.3539 72.8469 16.5517C72.8141 16.7495 72.8387 16.7989 72.9455 16.8071C73.0277 16.8071 73.0441 16.8236 72.9866 16.8483C72.9373 16.8648 72.888 16.9225 72.888 16.9637C72.888 17.0049 72.9455 17.0296 73.0113 17.0049C73.0852 16.9802 73.151 17.0296 73.1756 17.1285C73.2003 17.2191 73.266 17.2933 73.3153 17.2933C73.3975 17.2933 73.3975 17.3098 73.3153 17.3592C73.2331 17.4004 73.2578 17.4581 73.4139 17.5652C73.529 17.6393 73.6111 17.73 73.5865 17.7712C73.5618 17.8041 73.5865 17.8701 73.6276 17.9113C73.6769 17.9524 73.7262 18.1914 73.7344 18.4304C73.7426 18.7352 73.7837 18.8506 73.8494 18.8176C73.907 18.7929 73.9727 18.8176 73.9973 18.8588C74.022 18.9 73.9809 18.9577 73.9152 18.9824C73.833 19.0071 73.8083 19.073 73.8494 19.1884C73.8905 19.2955 73.9645 19.345 74.0384 19.312C74.1042 19.2873 74.2028 19.3367 74.2603 19.4109C74.3096 19.4933 74.3343 19.6251 74.3178 19.7075C74.2932 19.8146 74.326 19.8393 74.4657 19.7981C74.5808 19.7734 74.6136 19.7817 74.5561 19.8229C74.4822 19.8723 74.4986 19.9382 74.6465 20.0948C74.7862 20.2513 74.8191 20.342 74.7615 20.4903C74.7287 20.5892 74.7205 20.6551 74.7533 20.6304C74.7944 20.6139 74.8848 20.6551 74.967 20.7375C75.0656 20.8363 75.1067 20.9764 75.0902 21.2236C75.0656 21.512 75.0902 21.5779 75.2053 21.5779C75.2874 21.5779 75.4354 21.718 75.534 21.891C75.6326 22.0558 75.7476 22.2041 75.7805 22.2206C75.8133 22.2289 75.8298 22.2783 75.8051 22.3195C75.7805 22.3607 75.7969 22.4019 75.8462 22.4019C75.8955 22.4019 75.912 22.4596 75.8873 22.5255C75.8626 22.5914 75.8791 22.6656 75.9284 22.6903C75.9777 22.715 75.9941 22.7892 75.9695 22.8551C75.9448 22.921 76.0023 23.0281 76.0845 23.0858C76.2324 23.1764 76.2324 23.1929 76.1092 23.2835C75.9859 23.3742 75.9859 23.3824 76.1503 23.3907C76.2982 23.3907 76.3803 23.4895 76.52 23.7862C76.6104 24.0004 76.7008 24.2888 76.7008 24.4289C76.709 24.5772 76.7912 24.7667 76.898 24.882C77.0048 24.9892 77.0788 25.1045 77.0624 25.1375C77.0459 25.1704 77.1035 25.2446 77.1774 25.3023C77.2678 25.3682 77.3418 25.5742 77.3746 25.8214C77.4075 26.085 77.4979 26.3075 77.6211 26.4394C77.7526 26.5794 77.8348 26.8019 77.8759 27.1315C77.917 27.4199 77.9909 27.6341 78.0649 27.6753C78.1306 27.7083 78.2374 27.8978 78.3032 28.0955C78.3607 28.2933 78.5168 28.6806 78.6401 28.9525C78.7633 29.2244 78.8948 29.5292 78.9195 29.6364C78.9605 29.7764 78.9359 29.8176 78.8291 29.8176C78.7058 29.8176 78.714 29.8506 78.8866 30.0319C79.0345 30.1967 79.0509 30.2379 78.9523 30.2049C78.8455 30.1637 78.8126 30.1802 78.8455 30.2708C78.8702 30.3367 78.9195 30.3779 78.9688 30.3532C79.0181 30.3285 79.0756 30.3779 79.1085 30.4603C79.1331 30.5345 79.2399 30.7322 79.3385 30.8888C79.4371 31.0454 79.5111 31.2678 79.5029 31.3832C79.4947 31.4985 79.5193 31.6798 79.5522 31.7952C79.5933 31.9105 79.7165 32.0506 79.8316 32.1083C79.9795 32.1824 80.0288 32.2648 80.0206 32.4214C80.0041 32.5367 80.0452 32.6768 80.111 32.7263C80.1685 32.7839 80.2589 32.9158 80.3082 33.0311C80.3575 33.1465 80.3986 33.2536 80.4068 33.2783C80.415 33.303 80.4807 33.4596 80.5547 33.6326C80.6286 33.7974 80.6862 33.9457 80.6779 33.9622C80.6615 33.9787 80.719 34.0611 80.8012 34.1517C80.8834 34.2341 80.9327 34.3577 80.908 34.4154C80.8834 34.4648 80.8998 34.539 80.9573 34.5802C81.0149 34.6132 81.1217 34.7944 81.2038 34.9922C81.286 35.1817 81.3353 35.4042 81.3107 35.4866C81.286 35.5607 81.3189 35.6843 81.3928 35.7502C81.4668 35.8162 81.5243 35.9233 81.5161 35.9809C81.5161 36.0304 81.549 36.0798 81.5983 36.0798C81.6476 36.0798 81.6969 36.1622 81.7215 36.2693C81.738 36.3682 81.7791 36.4259 81.8037 36.3929C81.8284 36.3517 81.9352 36.5 82.0502 36.7225C82.1653 36.9368 82.2392 37.1592 82.2146 37.2169C82.1899 37.2663 82.231 37.4229 82.2967 37.563C82.3625 37.703 82.4118 37.8349 82.4036 37.8761C82.4036 37.909 82.42 37.9997 82.4446 38.0821C82.4775 38.1562 82.5597 38.2221 82.6254 38.2221C82.6912 38.2221 82.7569 38.2881 82.7569 38.3705C82.7651 38.4446 82.7651 38.56 82.7569 38.6177C82.7569 38.6671 82.8309 38.733 82.9377 38.7495C83.0692 38.7742 83.102 38.8236 83.0609 38.9143C83.0199 38.9884 83.0199 39.0461 83.0609 39.0461C83.0938 39.0461 83.1267 39.1285 83.1349 39.2274C83.1431 39.3345 83.2335 39.4746 83.3321 39.5405C83.4389 39.6147 83.5047 39.7547 83.5047 39.9113C83.5129 40.0514 83.5622 40.2079 83.6197 40.2656C83.6855 40.315 83.7265 40.4881 83.7183 40.6446C83.7019 40.8589 83.7183 40.9083 83.8005 40.8506C83.8662 40.8012 83.9238 40.8259 83.9731 40.9248C84.0059 40.9989 84.0306 41.1143 84.0141 41.172C83.9977 41.2214 84.0552 41.312 84.1456 41.3532C84.236 41.3944 84.2935 41.4768 84.2689 41.518C84.2442 41.5592 84.2771 41.6004 84.3346 41.6004C84.4086 41.5922 84.4086 41.6169 84.3264 41.6993C84.2607 41.7735 84.2524 41.8723 84.2935 42.0124C84.3346 42.1278 84.425 42.2431 84.499 42.2843C84.5976 42.3255 84.6386 42.4491 84.6386 42.6963C84.6386 42.8858 84.6715 43.0836 84.7044 43.1248C84.7373 43.166 84.8194 43.2072 84.8852 43.2072C84.9591 43.2072 85.0495 43.372 85.1317 43.6192C85.1974 43.8499 85.2878 44.0888 85.3289 44.1547C85.37 44.2207 85.4357 44.3772 85.4768 44.509C85.5261 44.6903 85.5179 44.7233 85.4193 44.6903C85.3371 44.6656 85.296 44.6986 85.296 44.7974C85.296 44.8716 85.4439 45.0776 85.6247 45.2506C85.8055 45.4154 85.9781 45.6544 86.0027 45.7862C86.0274 45.9098 86.0767 46.0252 86.1095 46.0499C86.1506 46.0746 86.1999 46.1735 86.2328 46.2806C86.2574 46.3795 86.315 46.4619 86.3643 46.4619C86.4136 46.4619 86.4464 46.5031 86.4464 46.5443C86.4464 46.5855 86.5286 46.7997 86.619 47.0222C86.7258 47.2446 86.7916 47.5577 86.7833 47.7637C86.7751 48.0274 86.8162 48.1345 86.9395 48.2169C87.0381 48.2746 87.1038 48.4064 87.1038 48.5465C87.1038 48.7113 87.1367 48.7607 87.2271 48.7278C87.301 48.7031 87.3914 48.769 87.4654 48.9173C87.5229 49.0409 87.564 49.1892 87.5475 49.2469C87.5311 49.2963 87.5558 49.3458 87.6133 49.3458C87.6626 49.3458 87.679 49.3705 87.6544 49.4117C87.6215 49.4446 87.679 49.56 87.7694 49.6754C87.8598 49.7907 87.9338 49.9225 87.9338 49.9637C87.9338 50.0049 87.9831 50.1038 88.0406 50.1697C88.1063 50.2357 88.2214 50.5158 88.3035 50.7877C88.3857 51.0596 88.4679 51.3727 88.4843 51.4881C88.509 51.6034 88.5254 51.8094 88.5336 51.9495C88.5336 52.0978 88.5583 52.1885 88.5829 52.1555C88.6076 52.1308 88.6733 52.0978 88.7308 52.0896C88.7801 52.0731 88.813 52.1061 88.7883 52.1473C88.7637 52.1885 88.7801 52.2956 88.8212 52.378C88.8705 52.4521 88.9198 52.6581 88.9445 52.8312C88.9773 52.996 89.0513 53.1525 89.117 53.1772C89.1828 53.202 89.2403 53.3008 89.2403 53.4079C89.2403 53.5068 89.2978 53.6634 89.3635 53.754C89.4457 53.8639 89.4594 53.9463 89.4046 54.0012C89.3499 54.0561 89.3663 54.1248 89.4539 54.2072C89.5279 54.2731 89.6594 54.4791 89.7498 54.6604C89.8812 54.9158 89.8977 55.0229 89.8237 55.1383C89.758 55.2454 89.758 55.3031 89.8566 55.3855C89.9305 55.4349 89.9963 55.542 90.0045 55.6079C90.0209 55.6739 90.0702 55.8057 90.1278 55.8963C90.1771 55.987 90.1935 56.0859 90.1606 56.1188C90.1277 56.1518 90.1524 56.2342 90.2099 56.3083C90.2921 56.4072 90.2921 56.4402 90.2099 56.4649C90.1524 56.4896 90.1688 56.5061 90.251 56.5061C90.3414 56.5143 90.44 56.6462 90.5222 56.8686C90.6098 57.0993 90.6235 57.2229 90.5633 57.2394C90.503 57.2504 90.5112 57.3328 90.5879 57.4866C90.6537 57.6102 90.8016 57.8079 90.9166 57.9398C91.0645 58.0963 91.1138 58.2199 91.081 58.3518C91.0563 58.4671 91.0892 58.5907 91.1878 58.6978C91.2782 58.7885 91.4096 58.9615 91.4836 59.0933C91.5658 59.2252 91.5904 59.3323 91.5411 59.357C91.4918 59.3817 91.5165 59.4971 91.6069 59.6454C91.6808 59.7855 91.7712 59.8926 91.8123 59.8926C91.8452 59.8926 91.8698 59.9338 91.8698 59.975C91.8698 60.0162 91.7959 60.0409 91.7055 60.0162C91.5658 59.9832 91.5493 59.9997 91.6069 60.1398C91.6397 60.2304 91.7548 60.354 91.8616 60.4117C91.9684 60.4611 92.0752 60.593 92.0917 60.7001C92.0999 60.799 92.0835 60.8978 92.0341 60.9226C91.9766 60.9473 91.9766 61.0132 92.0341 61.1121C92.0752 61.1862 92.0835 61.2769 92.0506 61.3098C92.0177 61.3428 92.0752 61.384 92.1821 61.4087C92.3382 61.4499 92.3628 61.5158 92.3628 61.8289C92.3628 62.1338 92.3957 62.208 92.5272 62.2409C92.6176 62.2656 92.6915 62.3233 92.6915 62.3645C92.6915 62.4057 92.7162 62.5128 92.749 62.5952C92.7983 62.7106 92.7819 62.7271 92.6504 62.6611C92.519 62.6117 92.4943 62.6199 92.5436 62.7271C92.5847 62.8012 92.6094 62.9248 92.6094 63.0072C92.6094 63.1308 92.6176 63.1308 92.7326 62.9825C92.7983 62.8919 92.8559 62.8589 92.8477 62.9001C92.8394 62.9413 92.8641 63.0484 92.9052 63.1308C92.9545 63.2462 92.9463 63.3038 92.8559 63.3533C92.7655 63.4027 92.7819 63.4274 92.9627 63.4686C93.086 63.4934 93.1846 63.5593 93.1846 63.6005C93.1846 63.6417 93.1517 63.6993 93.1024 63.7241C93.0531 63.7488 93.0942 63.8477 93.1846 63.9548C93.316 64.0949 93.3242 64.1608 93.2421 64.2432C93.1681 64.3256 93.1681 64.3668 93.2339 64.408C93.2914 64.4409 93.316 64.581 93.2996 64.7376C93.2749 64.9271 93.2996 65.0012 93.39 65.0012C93.4557 65.0012 93.5297 65.0589 93.5543 65.1248C93.579 65.2072 93.5461 65.2402 93.464 65.2319C93.3818 65.2155 93.3078 65.2567 93.2996 65.3143C93.2749 65.372 93.4064 65.4544 93.6201 65.5203C93.957 65.6192 93.9652 65.6274 93.9652 65.9735C93.9652 66.196 94.0063 66.3525 94.0885 66.402C94.1542 66.4432 94.1871 66.4844 94.146 66.4844C94.1131 66.4844 94.1788 66.6327 94.2939 66.814C94.4089 66.9952 94.524 67.2424 94.5486 67.3743C94.5815 67.4979 94.6472 67.6462 94.6965 67.7038C94.7623 67.7862 94.7541 67.811 94.6637 67.811C94.587 67.8165 94.5787 67.8302 94.639 67.8522C94.6965 67.8686 94.7294 67.9346 94.7212 67.9922C94.7047 68.0417 94.7047 68.0664 94.7212 68.0334C94.7294 67.9922 94.8034 67.9675 94.8691 67.9675C94.9348 67.9675 94.9923 68.0087 94.9923 68.0499C94.9923 68.0911 94.943 68.1323 94.8855 68.1323C94.8198 68.1323 94.828 68.1598 94.9102 68.2147C94.9759 68.2559 95.0088 68.3218 94.9759 68.3548C94.943 68.3877 94.9513 68.4866 94.9923 68.569C95.0471 68.6624 95.0471 68.6954 94.9923 68.6679C94.943 68.6432 94.9102 68.6844 94.9102 68.7503C94.9102 68.8162 94.9677 68.8986 95.0416 68.9398C95.1485 68.9892 95.1567 69.0304 95.0827 69.187C95.017 69.3188 95.017 69.4012 95.091 69.4919C95.1485 69.566 95.2553 69.6237 95.321 69.6237C95.3868 69.6237 95.5265 69.6979 95.6251 69.7803C95.7565 69.8956 95.7976 70.0027 95.773 70.1346C95.7483 70.2582 95.7976 70.3818 95.9373 70.5218C96.0524 70.6372 96.1674 70.8349 96.1921 70.975C96.2249 71.1398 96.2003 71.2469 96.1263 71.2799C96.0442 71.3293 96.0606 71.3458 96.1592 71.3458C96.2414 71.3458 96.3071 71.4035 96.3071 71.4694C96.3071 71.5353 96.2742 71.5765 96.2249 71.5518C96.1756 71.5271 96.1428 71.5353 96.1428 71.5765C96.1428 71.6095 96.2085 71.7331 96.2907 71.8484C96.3646 71.9638 96.4797 72.0462 96.529 72.0297C96.5947 72.0132 96.6194 72.0544 96.5947 72.1286C96.5701 72.1945 96.6029 72.3346 96.6687 72.4417C96.7344 72.5406 96.759 72.6642 96.7262 72.7054C96.6851 72.7466 96.6933 72.9114 96.7262 73.0597C96.7673 73.208 96.8577 73.3233 96.9234 73.3233C97.0138 73.3233 97.0384 73.3893 97.0056 73.5705C96.9809 73.7188 97.0056 73.8424 97.0631 73.8836C97.137 73.9248 97.1453 73.9001 97.1042 73.8012C97.0713 73.7106 97.0795 73.6694 97.1288 73.6941C97.1781 73.7188 97.1863 73.8589 97.1617 74.0072C97.1288 74.1967 97.1371 74.2379 97.1946 74.1473C97.2603 74.0484 97.3014 74.0484 97.3918 74.1226C97.4493 74.172 97.4904 74.3368 97.4739 74.4687C97.4657 74.6087 97.4904 74.7241 97.5397 74.7241C97.589 74.7241 97.6137 74.79 97.6137 74.8724C97.6054 74.9466 97.6054 75.0866 97.6137 75.1773C97.6219 75.3173 97.6383 75.3256 97.704 75.2185C97.778 75.1114 97.7862 75.1114 97.7944 75.2185C97.7944 75.2844 97.8191 75.4327 97.8355 75.5481C97.8602 75.6634 97.9259 75.8117 97.9834 75.8776C98.0492 75.9436 98.1149 76.0836 98.1478 76.1908C98.1724 76.2896 98.1642 76.372 98.1149 76.372C98.0656 76.372 98.0409 76.4215 98.0492 76.4874C98.0656 76.5451 98.1395 76.6687 98.2135 76.7511C98.2957 76.8417 98.3614 76.957 98.3614 77.0147C98.3614 77.0642 98.4107 77.1136 98.46 77.1136C98.5312 77.1136 98.5258 77.1411 98.4436 77.196C98.3614 77.2509 98.3505 77.3004 98.4107 77.3443C98.46 77.3773 98.5258 77.4597 98.5586 77.5256C98.5915 77.5915 98.6655 77.7398 98.7312 77.8552C98.7969 77.9788 98.8134 78.0776 98.7641 78.1024C98.723 78.1271 98.7147 78.2177 98.7394 78.3084C98.7723 78.399 98.8709 78.572 98.953 78.7039C99.0352 78.8275 99.0927 79.0335 99.0763 79.1735C99.0681 79.363 99.0927 79.4207 99.1996 79.4207C99.2817 79.4207 99.4214 79.5443 99.5118 79.6926C99.6022 79.8327 99.7008 80.0469 99.7337 80.1623C99.7583 80.2777 99.8734 80.4754 99.972 80.6155C100.12 80.7968 100.153 80.9286 100.12 81.1099C100.079 81.2911 100.103 81.3735 100.202 81.423C100.276 81.4559 100.334 81.5219 100.334 81.563C100.334 81.6042 100.301 81.629 100.251 81.6042C100.202 81.5795 100.169 81.5878 100.169 81.629C100.169 81.6619 100.219 81.7608 100.292 81.8514C100.358 81.9421 100.391 82.041 100.358 82.0822C100.334 82.1151 100.35 82.1398 100.399 82.1398C100.457 82.1398 100.498 82.2387 100.498 82.3705C100.49 82.4941 100.547 82.6425 100.621 82.7001C100.695 82.7578 100.736 82.8979 100.72 83.0297C100.703 83.1533 100.744 83.3263 100.802 83.417C100.859 83.5076 100.917 83.6559 100.925 83.7548C100.942 83.8455 100.999 83.9773 101.048 84.0432C101.106 84.1091 101.139 84.1833 101.114 84.2245C101.09 84.2574 101.163 84.414 101.279 84.5705C101.394 84.7271 101.468 84.9001 101.443 84.9413C101.418 84.9825 101.451 85.1803 101.517 85.378C101.599 85.6087 101.613 85.7735 101.558 85.8724C101.5 85.9795 101.517 86.0042 101.624 85.996C101.739 85.9795 101.772 86.0372 101.78 86.2185C101.788 86.3586 101.837 86.5728 101.895 86.7129C101.961 86.8859 101.961 86.9683 101.903 86.9848C101.854 86.993 101.829 87.0589 101.854 87.1249C101.881 87.2073 101.941 87.2292 102.035 87.1908C102.158 87.1331 102.166 87.1661 102.117 87.4792C102.076 87.7016 102.092 87.8088 102.141 87.784C102.191 87.7593 102.224 87.8335 102.224 87.9488C102.224 88.0642 102.232 88.2207 102.248 88.3031C102.265 88.3773 102.306 88.575 102.347 88.7316C102.38 88.8882 102.429 89.1024 102.437 89.2095C102.462 89.3166 102.421 89.4072 102.347 89.432C102.256 89.4649 102.232 89.5803 102.24 89.8687C102.248 90.1324 102.297 90.2724 102.38 90.3054C102.462 90.3383 102.519 90.4702 102.528 90.6762C102.536 90.8492 102.552 91.3189 102.569 91.7144C102.577 92.1181 102.569 92.4395 102.528 92.4395C102.495 92.4395 102.503 92.5384 102.544 92.6702C102.577 92.7938 102.577 92.9751 102.544 93.0822C102.503 93.181 102.495 93.3788 102.528 93.5189C102.569 93.659 102.618 93.7908 102.651 93.8073C102.692 93.8237 102.717 93.9144 102.717 94.005C102.717 94.0956 102.749 94.1698 102.799 94.1698C102.848 94.1698 102.873 94.3428 102.864 94.5653C102.856 94.7796 102.881 95.241 102.906 95.5953C102.938 95.9414 102.988 96.2792 103.021 96.3369C103.045 96.3863 103.119 96.6582 103.168 96.9301C103.226 97.202 103.275 97.7211 103.284 98.0837C103.292 98.4462 103.259 98.7841 103.21 98.8253C103.168 98.8665 103.07 99.1713 102.996 99.4844C102.922 99.7975 102.856 100.457 102.848 100.943C102.848 101.421 102.815 101.849 102.782 101.89C102.749 101.923 102.758 102.055 102.807 102.187C102.864 102.36 102.848 102.434 102.733 102.525C102.618 102.624 102.593 102.756 102.618 103.291C102.626 103.645 102.618 103.992 102.585 104.057C102.56 104.123 102.536 104.346 102.536 104.552C102.536 104.758 102.486 105.005 102.421 105.112C102.355 105.211 102.306 105.368 102.306 105.458C102.306 105.549 102.273 105.623 102.224 105.623C102.174 105.623 102.15 105.705 102.158 105.813C102.166 105.911 102.141 106.051 102.1 106.117C102.043 106.208 102.051 106.225 102.125 106.183C102.191 106.139 102.182 106.186 102.1 106.323C102.035 106.439 101.944 106.529 101.895 106.529C101.846 106.529 101.829 106.612 101.846 106.719C101.87 106.818 101.804 107.081 101.706 107.296C101.558 107.625 101.5 107.683 101.361 107.634C101.229 107.584 101.205 107.601 101.254 107.708C101.295 107.79 101.27 107.947 101.196 108.078C101.131 108.202 101.073 108.35 101.073 108.408C101.073 108.457 100.942 108.589 100.785 108.696C100.605 108.812 100.481 108.968 100.449 109.125C100.416 109.265 100.325 109.504 100.243 109.66C100.161 109.817 100.021 110.031 99.9227 110.138C99.8323 110.237 99.7255 110.303 99.6762 110.278C99.6269 110.254 99.594 110.287 99.594 110.344C99.594 110.394 99.5694 110.419 99.5365 110.386C99.4954 110.344 99.3968 110.443 99.2982 110.592C99.1996 110.732 99.0681 110.995 98.9941 111.168C98.8955 111.374 98.8134 111.457 98.7312 111.432C98.6572 111.407 98.5751 111.465 98.534 111.58C98.4929 111.679 98.3778 111.828 98.2875 111.91C98.1478 112.017 98.0985 112.025 98.0245 111.951C97.9505 111.869 97.9341 111.877 97.9834 111.992C98.0081 112.066 98.0081 112.124 97.967 112.116C97.9341 112.099 97.8109 112.174 97.704 112.281C97.589 112.38 97.4657 112.462 97.4164 112.47C97.3671 112.47 97.1617 112.627 96.9563 112.816C96.7508 113.006 96.4797 113.237 96.3482 113.327C96.2249 113.418 96.1017 113.484 96.0935 113.475C96.077 113.459 95.9702 113.541 95.8552 113.657C95.7401 113.772 95.5922 113.863 95.5265 113.863C95.4607 113.863 95.2635 113.937 95.091 114.028C94.9266 114.118 94.7376 114.192 94.6801 114.192C94.6308 114.192 94.5815 114.225 94.5815 114.275C94.5815 114.324 94.5075 114.374 94.4171 114.398C94.3185 114.423 94.2364 114.39 94.2117 114.316C94.1871 114.25 94.1378 114.201 94.0885 114.217C94.0474 114.225 94.0063 114.258 94.0063 114.299C94.0063 114.332 93.9405 114.423 93.8584 114.505C93.7844 114.596 93.694 114.646 93.6529 114.629C93.6201 114.621 93.4229 114.687 93.201 114.786C92.9873 114.884 92.7655 114.975 92.708 114.992C92.6587 115.008 92.6094 114.983 92.6094 114.934C92.6094 114.884 92.5354 114.868 92.445 114.893C92.3546 114.917 92.2807 114.901 92.2807 114.851C92.2807 114.802 92.2231 114.794 92.1328 114.843C92.0588 114.884 91.9027 114.95 91.7876 115C91.6726 115.041 91.4918 115.115 91.3768 115.156C91.2206 115.222 91.1467 115.214 91.0645 115.132C91.0152 115.066 90.8837 115.016 90.7769 115.016C90.6372 115.016 90.6208 115.033 90.7194 115.099C90.7851 115.14 90.818 115.206 90.7851 115.239C90.7523 115.272 90.6701 115.255 90.5961 115.206C90.4975 115.115 90.4564 115.123 90.3989 115.247C90.3332 115.362 90.1935 115.387 89.5115 115.395C88.9527 115.404 88.6487 115.371 88.5172 115.296C88.4186 115.231 88.2624 115.181 88.1721 115.181C88.0817 115.181 87.9913 115.148 87.9666 115.099C87.942 115.049 87.868 115.016 87.8023 115.016C87.7201 115.016 87.6954 115.057 87.7365 115.156C87.7858 115.272 87.7694 115.288 87.6544 115.239C87.5804 115.206 87.4818 115.181 87.4325 115.181C87.3832 115.181 87.3668 115.123 87.3914 115.057C87.4243 114.95 87.3996 114.95 87.1449 115.057C86.9888 115.123 86.8737 115.148 86.8984 115.099C86.923 115.049 86.9066 115.016 86.8573 115.016C86.808 115.016 86.7916 114.983 86.8162 114.934C86.8409 114.884 86.7998 114.868 86.734 114.893C86.6683 114.917 86.6108 114.901 86.6108 114.851C86.6108 114.802 86.5533 114.769 86.4875 114.769C86.4218 114.769 86.3643 114.72 86.3643 114.67C86.3643 114.588 86.3478 114.588 86.2985 114.662C86.2657 114.72 86.1506 114.786 86.0356 114.81C85.9205 114.827 85.8137 114.81 85.7891 114.769C85.7644 114.728 85.6576 114.678 85.5425 114.654C85.4275 114.637 85.3289 114.613 85.3125 114.613C85.3042 114.604 85.2714 114.596 85.2303 114.58C85.1974 114.563 85.0659 114.514 84.9427 114.472C84.7866 114.423 84.729 114.357 84.7619 114.275C84.803 114.176 84.7948 114.168 84.7126 114.258C84.6551 114.308 84.5647 114.357 84.5154 114.357C84.4743 114.357 84.3839 114.266 84.3264 114.151C84.2771 114.036 84.1949 113.962 84.1456 113.986C84.0963 114.011 83.9648 113.962 83.8416 113.887C83.7183 113.805 83.5786 113.739 83.5293 113.731C83.4882 113.731 83.3896 113.706 83.3239 113.681C83.2582 113.657 83.1349 113.607 83.0527 113.583C82.9788 113.558 82.9212 113.467 82.9295 113.393C82.9459 113.294 82.8911 113.239 82.7651 113.228C82.6665 113.212 82.535 113.129 82.4775 113.039C82.4282 112.948 82.3543 112.89 82.3132 112.915C82.2803 112.94 82.1981 112.899 82.1324 112.833C82.0667 112.767 82.0256 112.676 82.0502 112.627C82.0749 112.577 82.0584 112.544 82.0091 112.544C81.9598 112.544 81.927 112.487 81.927 112.421C81.927 112.355 81.8694 112.281 81.8037 112.256C81.738 112.231 81.6311 112.24 81.5736 112.264C81.5243 112.289 81.3764 112.207 81.2614 112.075C81.1463 111.951 80.982 111.803 80.8916 111.753C80.8012 111.696 80.7437 111.589 80.7519 111.481C80.7683 111.374 80.7026 111.251 80.5711 111.168C80.4643 111.086 80.3903 110.995 80.4068 110.962C80.4314 110.921 80.2917 110.789 80.0945 110.666C79.8644 110.501 79.733 110.344 79.6837 110.171C79.6508 109.998 79.544 109.866 79.3796 109.784C79.2317 109.71 79.1331 109.595 79.1331 109.496C79.1331 109.405 79.0838 109.339 79.0263 109.339C78.977 109.347 78.8619 109.347 78.7798 109.339C78.6976 109.331 78.6236 109.248 78.599 109.125C78.5743 109.01 78.4429 108.795 78.3114 108.655C78.1717 108.507 78.0402 108.317 78.0238 108.243C77.9991 108.161 77.8923 108.078 77.7773 108.054C77.6622 108.029 77.5883 107.98 77.6129 107.93C77.6376 107.881 77.5965 107.831 77.5307 107.807C77.465 107.782 77.4075 107.691 77.4075 107.601C77.4075 107.51 77.2842 107.312 77.1281 107.172C76.972 107.024 76.8241 106.801 76.7994 106.678C76.7748 106.546 76.7255 106.463 76.6844 106.488C76.6515 106.505 76.5447 106.431 76.4379 106.323C76.3392 106.208 76.2735 106.117 76.2982 106.117C76.3228 106.117 76.2489 105.977 76.1338 105.813C76.0188 105.64 75.9202 105.466 75.9284 105.417C75.9284 105.368 75.8298 105.252 75.723 105.153C75.6079 105.046 75.5175 104.914 75.5175 104.865C75.5175 104.807 75.386 104.626 75.2299 104.469C75.0656 104.313 74.9423 104.132 74.9423 104.082C74.9423 104.025 74.8766 103.909 74.7944 103.827C74.7205 103.744 74.5972 103.596 74.5315 103.497C74.4657 103.398 74.3589 103.316 74.3014 103.316C74.2521 103.316 74.2192 103.275 74.2439 103.233C74.2685 103.192 74.2356 103.126 74.1781 103.093C74.1206 103.052 74.0302 102.929 73.9727 102.805C73.9234 102.673 73.8248 102.574 73.7673 102.574C73.718 102.566 73.6276 102.508 73.5783 102.426C73.5043 102.319 73.5125 102.261 73.6194 102.187C73.7344 102.105 73.718 102.096 73.5454 102.129C73.3728 102.171 73.3646 102.162 73.4797 102.088C73.6111 102.006 73.6111 101.981 73.5043 101.874C73.4386 101.808 73.3646 101.75 73.34 101.75C73.3153 101.75 73.2496 101.701 73.1921 101.651C73.1345 101.594 73.0441 101.437 72.9866 101.297C72.9373 101.157 72.9127 101.025 72.9373 100.992C72.9538 100.951 72.9209 100.877 72.8634 100.811C72.8141 100.745 72.5922 100.506 72.3703 100.275C72.1567 100.045 71.9841 99.8058 71.9841 99.7563C71.9841 99.6987 71.8937 99.5668 71.7787 99.4679C71.6637 99.3608 71.565 99.2125 71.565 99.1384C71.5568 99.056 71.5568 98.9406 71.565 98.8912C71.565 98.8335 71.5404 98.7676 71.4911 98.7429C71.4418 98.7181 71.4089 98.5698 71.4089 98.4133C71.4089 98.2237 71.3514 98.0754 71.2446 97.9848C71.1542 97.9024 71.0802 97.7706 71.0802 97.6964C71.0802 97.5975 71.0391 97.5646 70.957 97.5893C70.8748 97.6168 70.7926 97.5344 70.7104 97.3421C70.6447 97.1855 70.5625 97.0537 70.5215 97.0537C70.4886 97.0537 70.4639 96.9713 70.4639 96.8642C70.4722 96.7653 70.4311 96.5923 70.39 96.4769C70.3407 96.3616 70.2832 96.2545 70.2585 96.2297C70.2338 96.205 70.1024 96.0238 69.9709 95.826C69.8312 95.6283 69.634 95.3646 69.5272 95.2492C69.4203 95.1339 69.2231 94.7713 69.0917 94.4582C68.9602 94.1451 68.878 93.8237 68.9027 93.7578C68.9273 93.6837 68.8534 93.5848 68.7219 93.5024C68.5904 93.4282 68.4589 93.2634 68.4261 93.1316C68.385 92.9998 68.2782 92.8103 68.1796 92.7031C68.0809 92.6043 68.0234 92.5219 68.0563 92.5219C68.0974 92.5219 68.0645 92.3818 67.9906 92.217C67.9248 92.044 67.7523 91.6732 67.6208 91.393C67.4893 91.1046 67.3496 90.8739 67.3003 90.8739C67.251 90.8739 67.2181 90.7833 67.2181 90.6679C67.2181 90.5361 67.1688 90.4619 67.0949 90.4619C67.0291 90.4619 66.9388 90.396 66.8977 90.3219C66.8648 90.2395 66.8401 90.1241 66.8566 90.0747C66.873 90.017 66.8566 89.9676 66.8073 89.9676C66.758 89.9676 66.7251 89.9264 66.7251 89.8852C66.7251 89.844 66.6676 89.7451 66.6018 89.6792C66.5361 89.6132 66.495 89.4814 66.5197 89.3908C66.5471 89.2809 66.5197 89.226 66.4375 89.226C66.3718 89.226 66.2978 89.1518 66.2731 89.0612C66.2485 88.9706 66.2814 88.8799 66.3307 88.8634C66.4046 88.8305 66.3964 88.7975 66.2978 88.7151C66.2156 88.6574 66.1581 88.5503 66.1581 88.4844C66.1581 88.4185 66.1006 88.3031 66.0266 88.2372C65.9527 88.1713 65.9034 88.023 65.9034 87.9076C65.9034 87.7923 65.8541 87.644 65.7801 87.578C65.7062 87.5121 65.55 87.2979 65.4432 87.1084C65.2789 86.8118 65.2624 86.7294 65.3446 86.614C65.4268 86.5069 65.4268 86.4904 65.3446 86.5316C65.2953 86.5646 65.1885 86.5398 65.1145 86.4904C65.0406 86.4327 64.9091 86.2185 64.8269 86.0125C64.7365 85.8065 64.7037 85.6252 64.7448 85.6005C64.7941 85.5758 64.7941 85.378 64.753 85.1061C64.7201 84.8589 64.6872 84.7518 64.679 84.8837C64.679 85.0073 64.6544 85.1061 64.6297 85.1061C64.6051 85.1061 64.5393 85.0896 64.4818 85.0649C64.4325 85.0402 64.3914 84.9084 64.3996 84.7765C64.4161 84.6365 64.3585 84.4552 64.2764 84.3481C64.1942 84.241 64.0956 84.0926 64.0709 84.0185C64.0381 83.9361 64.0545 83.7878 64.112 83.6889C64.1942 83.5159 64.1942 83.5076 64.0709 83.6065C63.9559 83.6889 63.923 83.6807 63.8819 83.5653C63.8491 83.4829 63.8819 83.3263 63.9559 83.211C64.0299 83.0956 64.0627 82.9803 64.0299 82.9391C63.997 82.9061 63.9066 82.8814 63.8244 82.8814C63.7505 82.8814 63.6683 82.8155 63.6436 82.7413C63.619 82.6589 63.5861 82.5024 63.5615 82.387C63.545 82.2717 63.4546 82.0162 63.3643 81.8102C63.2739 81.6042 63.2163 81.4147 63.241 81.3818C63.2574 81.3406 63.3232 81.3406 63.3725 81.3818C63.4437 81.4202 63.4574 81.4065 63.4136 81.3406C63.3807 81.2829 63.3314 81.2499 63.2903 81.2747C63.2574 81.2911 63.167 81.2499 63.0849 81.1675C63.0109 81.0934 62.9616 80.9615 62.9863 80.8874C63.0109 80.7885 62.9698 80.7061 62.863 80.6567C62.7397 80.599 62.7069 80.5166 62.7397 80.3683C62.7644 80.2529 62.748 80.1458 62.6987 80.1211C62.6494 80.0964 62.6411 80.0305 62.674 79.981C62.7151 79.9151 62.7069 79.8986 62.6576 79.9316C62.6083 79.9645 62.4932 79.9233 62.3864 79.8327C62.2878 79.7421 62.2221 79.6102 62.2467 79.5443C62.2714 79.4784 62.2138 79.2889 62.1235 79.1323C62.0331 78.9758 61.992 78.8439 62.0413 78.8439C62.0906 78.8439 62.107 78.6956 62.0906 78.4979C62.0659 78.3001 61.992 78.1024 61.9262 78.0612C61.8605 78.02 61.803 77.9129 61.7948 77.8387C61.7948 77.7563 61.7372 77.6327 61.6715 77.5668C61.5893 77.4844 61.5729 77.4102 61.6222 77.3443C61.6797 77.2702 61.6633 77.163 61.5893 77.0312C61.5236 76.9159 61.4332 76.7428 61.3839 76.6439C61.3428 76.5368 61.2442 76.4544 61.1785 76.4544C61.1127 76.4544 61.0716 76.4132 61.0963 76.372C61.121 76.3308 61.1045 76.2732 61.0552 76.2484C61.0059 76.2237 60.9895 76.166 61.0141 76.1248C61.0388 76.0836 60.9895 75.9188 60.9073 75.7788C60.8334 75.6305 60.7347 75.4821 60.6854 75.4574C60.6361 75.4245 60.6444 75.3833 60.7019 75.3503C60.784 75.3091 60.784 75.2432 60.7183 75.0784C60.669 74.9466 60.6115 74.7158 60.595 74.5593C60.5704 74.4027 60.5293 74.2544 60.4964 74.2297C60.4636 74.205 60.3896 74.1143 60.3321 74.0237C60.2828 73.9331 60.2006 73.7848 60.1595 73.6941C60.1185 73.6035 60.0774 73.4222 60.0609 73.2821C60.0445 73.1421 59.9952 72.9855 59.9459 72.9278C59.8884 72.8537 59.8966 72.8207 59.9623 72.8289C60.0198 72.8289 60.0691 72.7878 60.0691 72.7466C60.0691 72.7054 60.0281 72.6724 59.9705 72.6889C59.9212 72.6971 59.8637 72.5653 59.8473 72.3758C59.8226 72.1945 59.7322 71.8896 59.6336 71.7001C59.535 71.5024 59.4775 71.3211 59.5104 71.2881C59.5432 71.2469 59.5022 71.0986 59.4118 70.9585C59.3214 70.8102 59.2639 70.6454 59.2885 70.6042C59.3132 70.563 59.2721 70.4642 59.2063 70.3982C59.1406 70.3323 59.0256 70.1016 58.9516 69.8874C58.8366 69.5578 58.8366 69.4836 58.927 69.4342C58.9927 69.4012 59.0173 69.3436 58.9845 69.3106C58.9516 69.2776 58.9598 69.1623 59.0009 69.0634C59.0584 68.9316 59.0502 68.8162 58.9763 68.6844C58.927 68.5773 58.8283 68.5031 58.7708 68.5196C58.7215 68.5361 58.6065 68.4784 58.5243 68.4042C58.4421 68.3218 58.3846 68.2065 58.4011 68.157C58.4175 68.0994 58.3928 68.0005 58.3435 67.951C58.3024 67.8934 58.2531 67.7533 58.2367 67.6379C58.2285 67.5226 58.1463 67.2919 58.0559 67.1106C57.9655 66.9376 57.8669 66.781 57.8258 66.7645C57.793 66.748 57.7848 66.6739 57.8094 66.608C57.8341 66.5421 57.8258 66.4844 57.7848 66.4844C57.7519 66.4844 57.7437 66.3855 57.7683 66.2784C57.8012 66.1218 57.7601 66.0394 57.6204 65.9488C57.4725 65.8417 57.4561 65.8005 57.5382 65.6934C57.6286 65.578 57.6204 65.5698 57.4889 65.6357C57.3493 65.6934 57.3328 65.6686 57.3739 65.372C57.3985 65.1743 57.3739 64.96 57.3082 64.8364C57.2506 64.7211 57.2013 64.5316 57.1931 64.408C57.1931 64.2679 57.1109 64.1031 56.9877 63.996C56.8644 63.8889 56.7247 63.6087 56.6508 63.3533C56.5604 63.0402 56.5522 62.8919 56.6097 62.8836C56.659 62.8671 56.7001 62.8177 56.7001 62.7765C56.7001 62.7353 56.6426 62.6941 56.5768 62.6941C56.5029 62.6941 56.47 62.6447 56.4947 62.5705C56.5193 62.5046 56.4864 62.4469 56.4289 62.4469C56.3632 62.4469 56.344 62.3645 56.3714 62.1997C56.396 62.0267 56.3714 61.9196 56.2728 61.8537C56.1988 61.796 56.1002 61.5982 56.0509 61.4169C56.0016 61.2357 55.9852 61.0709 56.0016 61.0462C56.0181 61.0214 55.9605 60.9473 55.8701 60.8814C55.7469 60.7907 55.6976 60.6589 55.6894 60.387C55.6811 60.181 55.6483 59.9997 55.6154 59.975C55.5825 59.9503 55.5415 59.7772 55.5332 59.5877C55.5168 59.3735 55.4675 59.2334 55.4018 59.2334C55.3525 59.2334 55.2456 59.1263 55.1799 58.9862C55.1142 58.8462 55.0731 58.6978 55.0977 58.6566C55.1224 58.6154 55.0895 58.4918 55.0402 58.393C54.9827 58.2859 54.9252 58.1128 54.9169 57.9975C54.9087 57.8821 54.8759 57.7091 54.8512 57.6102C54.8266 57.4866 54.769 57.4372 54.6869 57.4619C54.6211 57.4866 54.5472 57.4619 54.5225 57.4207C54.4979 57.3795 54.5143 57.3218 54.5636 57.2971C54.6129 57.2724 54.539 57.0581 54.3993 56.7862C54.2596 56.5226 54.1034 56.1765 54.0459 56.0199C53.9966 55.8634 53.9473 55.6903 53.9473 55.6409C53.9473 55.5915 53.8487 55.4184 53.7172 55.2536C53.594 55.0888 53.4954 54.8993 53.4954 54.8499C53.4954 54.7922 53.4707 54.7675 53.4378 54.8005C53.3968 54.8417 53.3228 54.8169 53.2653 54.7593C53.2078 54.7098 53.1585 54.5533 53.1585 54.4132C53.1585 54.2731 53.142 54.2154 53.1174 54.2731C53.1009 54.3226 53.0434 54.372 53.0023 54.372C52.9612 54.372 52.9448 54.3061 52.9695 54.2319C52.9941 54.1495 52.9859 54.0589 52.953 54.0259C52.9119 54.0012 52.8873 53.8199 52.8955 53.6387C52.9119 53.4491 52.8791 53.2102 52.838 53.0948C52.7832 52.9575 52.7832 52.8888 52.838 52.8888C52.8791 52.8888 52.9119 52.8147 52.8955 52.724C52.8873 52.6334 52.8298 52.5593 52.7723 52.5593C52.6983 52.5593 52.7065 52.4933 52.7969 52.2709C52.9037 52.0154 52.9037 51.9825 52.7969 51.9825C52.7229 51.9825 52.6654 51.8918 52.649 51.7765C52.6408 51.6611 52.649 51.5458 52.6736 51.521C52.6983 51.4963 52.7147 51.3892 52.7147 51.2821C52.7147 51.1255 52.6819 51.1008 52.5093 51.1338C52.345 51.1585 52.3203 51.1503 52.4025 51.0596C52.4764 50.9772 52.4353 50.8701 52.2381 50.59C52.0656 50.351 52.008 50.2192 52.0738 50.2027C52.1313 50.1862 52.1806 50.1038 52.1806 50.0297C52.1724 49.9473 52.082 49.7989 51.9752 49.7001C51.8601 49.593 51.7697 49.4529 51.7697 49.387C51.7697 49.321 51.8273 49.2057 51.9012 49.1398C51.967 49.0739 51.9916 49.0162 51.9423 49.0162C51.893 49.0162 51.8684 48.9585 51.893 48.8926C51.9177 48.8267 51.8519 48.6783 51.7451 48.5795C51.6465 48.4724 51.4986 48.2004 51.4082 47.978C51.326 47.7555 51.2274 47.533 51.1863 47.4918C51.1452 47.4424 51.1699 47.3765 51.2439 47.327C51.3507 47.2529 51.3342 47.2034 51.1206 46.981C50.9234 46.7667 50.8741 46.6596 50.9152 46.4866C50.9398 46.3547 50.9973 46.157 51.0384 46.0334C51.0959 45.8521 51.0795 45.7697 50.9562 45.6626C50.8741 45.5802 50.7837 45.3825 50.759 45.2259C50.7344 45.0694 50.6933 44.8716 50.6686 44.7974C50.6358 44.6986 50.6604 44.6491 50.7426 44.6491C50.8083 44.6491 50.8659 44.6326 50.8659 44.6079C50.8659 44.5832 50.7919 44.4843 50.7015 44.3855C50.6029 44.2783 50.57 44.1877 50.6193 44.1795C50.6604 44.163 50.7015 44.1135 50.7015 44.0723C50.7015 44.0311 50.6276 43.9735 50.5372 43.9487C50.4221 43.9158 50.3728 43.8416 50.3728 43.6604C50.3728 43.5203 50.4139 43.3967 50.455 43.372C50.5043 43.3473 50.5125 43.2154 50.4879 43.0671C50.455 42.9188 50.3893 42.7705 50.34 42.7375C50.2906 42.7046 50.2578 42.5233 50.266 42.3255C50.2824 42.0207 50.2496 41.9383 50.0195 41.7405C49.8798 41.6087 49.8058 41.5263 49.8551 41.551C49.9127 41.5757 49.962 41.5592 49.962 41.518C49.962 41.4768 49.9209 41.4356 49.8798 41.4356C49.8387 41.4356 49.773 41.3532 49.7483 41.2544C49.7154 41.1472 49.6826 40.9907 49.6744 40.9001C49.6744 40.8094 49.7154 40.5869 49.773 40.4057C49.8305 40.2244 49.8798 40.0678 49.8798 40.0596C49.8798 40.0431 49.8387 40.0514 49.7976 40.0761C49.7565 40.1008 49.699 40.0678 49.6826 40.0184C49.6661 39.9607 49.6004 39.7383 49.5347 39.5158C49.4771 39.3016 49.4114 39.1285 49.3868 39.1285C49.3621 39.1285 49.3375 38.9637 49.321 38.7577C49.3128 38.5517 49.3375 38.3869 49.3868 38.3869C49.4278 38.3869 49.4689 38.2963 49.4689 38.181C49.4689 38.0326 49.4278 37.975 49.3046 37.975C49.2142 37.975 49.1402 37.9173 49.1402 37.8514C49.1402 37.7854 49.0909 37.7113 49.0334 37.703C48.9759 37.6866 48.9348 37.5382 48.9348 37.3405C48.9348 37.1015 48.9019 37.0109 48.8115 37.0191C48.7376 37.0274 48.6965 36.9697 48.7047 36.8873C48.7212 36.8049 48.6883 36.7225 48.6472 36.6978C48.6061 36.6731 48.5815 36.5989 48.6061 36.533C48.6308 36.4671 48.6061 36.4094 48.5568 36.4094C48.5075 36.4094 48.5322 36.3517 48.5979 36.2858C48.7212 36.1705 48.7129 36.1375 48.5568 35.9397C48.4582 35.8079 48.4007 35.6514 48.4253 35.5854C48.45 35.5195 48.4171 35.2641 48.3514 35.0334C48.2692 34.7285 48.261 34.5472 48.3185 34.4319C48.376 34.3083 48.3678 34.2506 48.2774 34.1847C48.2035 34.1353 48.1706 34.0281 48.1953 33.8963C48.2199 33.7645 48.2035 33.6903 48.1295 33.6903C48.0802 33.6985 47.9652 33.5173 47.883 33.303C47.8008 33.0888 47.6447 32.7015 47.5379 32.4543C47.4311 32.2072 47.3324 31.8611 47.316 31.6881C47.2996 31.5068 47.2585 31.342 47.2174 31.3173C47.1681 31.2843 47.1681 31.3749 47.201 31.548C47.2421 31.721 47.2256 31.9764 47.1599 32.2072C47.1106 32.4131 47.0284 32.6274 46.9873 32.6851C46.9545 32.7427 46.9545 32.8004 47.0038 32.8251C47.0448 32.8499 47.0695 32.9323 47.0448 33.0146C47.0202 33.0888 46.9873 33.4349 46.9709 33.7727C46.9627 34.1105 46.9216 34.4401 46.8969 34.4978C46.8641 34.5472 46.8558 34.6873 46.8805 34.8027C46.9052 34.918 46.8723 35.0663 46.8148 35.1323C46.7326 35.2394 46.7326 35.2641 46.8148 35.2559C46.8887 35.2559 46.9134 35.3794 46.8969 35.6926C46.8805 35.9233 46.8969 36.1622 46.9216 36.2034C46.9545 36.2446 47.0284 36.4589 47.0777 36.6813C47.127 36.8956 47.1435 37.0686 47.1024 37.0686C47.0695 37.0686 47.0366 37.2416 47.0284 37.4641C47.0202 37.6783 47.012 37.9914 47.012 38.1645C47.0038 38.3293 46.9462 38.5765 46.8805 38.7165C46.7737 38.939 46.7737 38.9637 46.8805 38.9637C46.9545 38.9637 46.9873 39.0132 46.9627 39.0873C46.938 39.1532 46.9791 39.2274 47.0448 39.2521C47.127 39.2796 47.1572 39.3702 47.1352 39.524C47.1106 39.6476 47.0941 39.763 47.0859 39.7877C47.0777 39.8124 47.0777 40.0349 47.0859 40.2821C47.0941 40.5293 47.127 40.7929 47.1681 40.8589C47.201 40.9248 47.2174 41.0484 47.201 41.1308C47.1845 41.2049 47.1106 41.2708 47.0448 41.2708C46.9545 41.2708 46.938 41.3203 46.9709 41.4604C47.0038 41.5592 47.0366 41.6993 47.0448 41.7652C47.0531 41.8311 47.0777 41.9877 47.1106 42.1195C47.1435 42.2431 47.127 42.3997 47.0859 42.4656C47.0448 42.5315 47.0284 42.6716 47.0613 42.7787C47.0942 42.8776 47.1188 43.0177 47.127 43.0836C47.127 43.1495 47.0777 43.3143 47.0038 43.4379C46.9134 43.6109 46.9052 43.6851 46.9791 43.7263C47.0448 43.7592 47.0777 43.957 47.0695 44.2371C47.0613 44.4843 47.0695 44.8716 47.0942 45.0858C47.1106 45.3083 47.1024 45.5061 47.0613 45.5225C47.0284 45.539 47.0284 45.6049 47.0613 45.6626C47.0942 45.7121 47.1188 45.9016 47.127 46.0664C47.127 46.2394 47.1024 46.3795 47.0613 46.3795C47.0284 46.3795 47.0038 46.4783 47.0038 46.6102C47.0038 46.7338 47.0448 46.8739 47.1024 46.9315C47.1845 47.0057 47.1845 47.0634 47.0613 47.2199C46.9873 47.327 46.9216 47.4671 46.9216 47.533C46.9216 47.5989 46.9873 47.7225 47.0695 47.8049C47.1928 47.9368 47.1928 47.9615 47.0859 48.0274C46.9873 48.0851 46.9709 48.2004 47.0202 48.5959C47.0613 48.9173 47.0531 49.0986 47.0038 49.0986C46.9545 49.0986 46.9709 49.181 47.0366 49.2881C47.1106 49.4117 47.1435 49.7083 47.1352 50.2109C47.127 50.6229 47.0942 51.1173 47.0613 51.3233C47.0366 51.5293 46.9873 51.999 46.9627 52.378C46.9298 52.8971 46.8805 53.0948 46.7572 53.2431C46.6669 53.342 46.5929 53.4491 46.5929 53.4903C46.5929 53.5233 46.5847 53.6551 46.5682 53.7952C46.56 53.9353 46.5765 54.0424 46.6093 54.0424C46.6504 54.0424 46.6915 54.1001 46.7162 54.166C46.7435 54.2484 46.7162 54.2759 46.634 54.2484C46.5436 54.2154 46.5189 54.2566 46.5354 54.3967C46.5518 54.4956 46.6258 54.6769 46.6997 54.8087C46.823 55.0064 46.8312 55.0559 46.7162 55.3031C46.6422 55.4431 46.5929 55.6162 46.5929 55.6739C46.5929 55.7233 46.6422 55.7727 46.6915 55.7727C46.7737 55.7645 46.7737 55.7892 46.6997 55.8716C46.6504 55.9293 46.5765 56.2589 46.5436 56.5967C46.5107 56.9345 46.4368 57.2971 46.3793 57.4042C46.3053 57.5196 46.2971 57.602 46.3464 57.6267C46.3875 57.6514 46.4121 57.7915 46.3875 57.9398C46.3628 58.0799 46.3053 58.2447 46.2642 58.2859C46.2231 58.3271 46.2067 58.393 46.2478 58.4259C46.2806 58.4589 46.3464 58.4671 46.3875 58.4424C46.4286 58.4177 46.4943 58.4671 46.5354 58.5495C46.5682 58.6319 46.5682 58.739 46.5272 58.7802C46.4943 58.8214 46.4696 58.9697 46.4779 59.1098C46.4861 59.2499 46.5189 59.4806 46.56 59.6372C46.634 59.9091 46.6258 59.9173 46.4286 59.8514C46.2806 59.802 46.2396 59.802 46.2806 59.8761C46.3217 59.9338 46.3135 60.0409 46.2642 60.1233C46.2149 60.214 46.2231 60.2963 46.2889 60.3705C46.3464 60.4282 46.3875 60.6095 46.3875 60.7578C46.3875 60.9143 46.3628 61.0462 46.3217 61.0462C46.2889 61.0462 46.2642 60.9967 46.256 60.9473C46.256 60.8814 46.2313 60.8896 46.2067 60.9638C46.1903 61.0297 46.2313 61.145 46.3053 61.211C46.4039 61.3098 46.4203 61.4087 46.371 61.6559C46.3382 61.8289 46.256 61.9937 46.1985 62.0102C46.1492 62.0184 46.0999 62.1256 46.0999 62.2409C46.0999 62.3563 46.0588 62.4469 46.0177 62.4469C45.9766 62.4469 45.9355 62.4881 45.9355 62.5293C45.9355 62.5705 45.9766 62.5952 46.0177 62.5705C46.0588 62.5458 46.0999 62.6035 46.0999 62.6941C46.0999 62.7847 46.141 62.8754 46.182 62.9001C46.2231 62.9248 46.2478 63.0814 46.2231 63.2544C46.2067 63.4192 46.1656 63.6499 46.141 63.7653C46.1163 63.8806 46.0588 64.0125 46.0177 64.0537C45.9766 64.0949 45.9602 64.169 46.0013 64.2102C46.0341 64.2514 46.0095 64.2597 45.952 64.2349C45.8944 64.202 45.8287 64.2349 45.804 64.3256C45.7712 64.3997 45.7465 64.5975 45.7383 64.754C45.7301 64.9106 45.7054 65.0919 45.6644 65.1495C45.6315 65.2072 45.6726 65.3061 45.7547 65.3967C45.8451 65.4874 45.9109 65.6769 45.9191 65.9076C45.9273 66.1136 45.8944 66.3278 45.8533 66.3855C45.804 66.4349 45.7794 66.5091 45.7794 66.5503C45.7876 66.5832 45.7876 66.6904 45.7794 66.7975C45.7794 66.8964 45.7301 66.9623 45.689 66.9376C45.6479 66.9128 45.5986 66.987 45.5822 67.1023C45.574 67.2095 45.6068 67.3166 45.6479 67.3331C45.6972 67.3578 45.6972 67.4237 45.6397 67.5226C45.5822 67.6215 45.574 67.7533 45.6233 67.8851C45.6644 68.0005 45.6808 68.1735 45.6561 68.2806C45.6233 68.3795 45.5657 68.4619 45.5247 68.4619C45.4836 68.4619 45.4425 68.5361 45.4425 68.6267C45.4425 68.7173 45.5082 68.8574 45.5822 68.9398C45.6644 69.014 45.7301 69.1705 45.7301 69.2859C45.7301 69.4012 45.7547 69.566 45.7876 69.6567C45.8205 69.7555 45.7958 69.8956 45.7219 70.011C45.6561 70.1098 45.6233 70.2499 45.6479 70.3158C45.6726 70.3818 45.6315 70.4559 45.5657 70.4806C45.5 70.5054 45.4589 70.563 45.4836 70.6042C45.5082 70.6454 45.4836 70.7773 45.4425 70.8926C45.3877 71.03 45.3877 71.0986 45.4425 71.0986C45.4836 71.0986 45.5247 71.1398 45.5247 71.181C45.5247 71.2222 45.4836 71.2469 45.4425 71.2222C45.4014 71.1975 45.3603 71.1892 45.3603 71.2057C45.3603 71.214 45.4096 71.3293 45.4836 71.4694C45.5493 71.6095 45.574 71.7248 45.5247 71.7413C45.4754 71.7495 45.4178 71.9143 45.3768 72.0956C45.3439 72.2851 45.2946 72.4499 45.2535 72.4664C45.2206 72.4829 45.196 72.6065 45.196 72.7466C45.196 72.9278 45.2371 72.9937 45.3439 73.002C45.4178 73.002 45.4343 73.0185 45.3768 73.0432C45.3192 73.0597 45.2781 73.2245 45.2781 73.4469C45.2781 73.6694 45.2288 73.8672 45.1549 73.9413C45.0645 74.032 45.0563 74.0979 45.1138 74.1885C45.1549 74.2544 45.1713 74.3615 45.1385 74.4192C45.1056 74.4687 45.0727 74.6664 45.0645 74.8477C45.0563 75.029 45.0234 75.3173 44.9988 75.4904C44.9741 75.6552 44.8919 75.8529 44.8262 75.9188C44.7605 75.9848 44.7029 76.0836 44.7029 76.1248C44.7029 76.166 44.7276 76.2072 44.7687 76.2072C44.8015 76.2072 44.8262 76.4297 44.8262 76.7016C44.8262 76.9735 44.8015 77.196 44.7605 77.196C44.7276 77.196 44.6947 77.2619 44.6783 77.3443C44.6618 77.4185 44.7112 77.5503 44.7769 77.6327C44.8508 77.7151 44.8673 77.781 44.8262 77.7728C44.7769 77.7728 44.744 78.0529 44.744 78.4567C44.7358 78.8275 44.7112 79.2971 44.6865 79.5031C44.6536 79.7091 44.6043 79.981 44.5632 80.1046C44.5222 80.2447 44.4564 80.3189 44.3989 80.2859C44.3332 80.2612 44.2839 80.3189 44.2674 80.4507C44.2592 80.5578 44.2756 80.6567 44.3167 80.6567C44.3496 80.6567 44.3578 80.6979 44.3332 80.7391C44.3085 80.7803 44.3496 80.8462 44.4235 80.8874C44.5386 80.9368 44.5468 80.9863 44.4646 81.2335C44.4153 81.39 44.3742 81.6207 44.3742 81.7526C44.3742 81.8762 44.3332 81.975 44.2921 81.975C44.251 81.975 44.2346 82.0245 44.2592 82.0822C44.2839 82.1316 44.2428 82.2387 44.1688 82.3046C44.0949 82.3705 44.0373 82.4035 44.0456 82.3705C44.0456 82.3293 44.0045 82.3211 43.9634 82.3458C43.9141 82.3705 43.9552 82.4612 44.0456 82.5518C44.1688 82.6754 44.2017 82.8072 44.1935 83.0874C44.177 83.2934 44.1277 83.4911 44.0866 83.5241C44.0373 83.5571 44.0045 83.7136 44.0045 83.8702C44.0127 84.0267 43.9963 84.208 43.9716 84.2657C43.947 84.3233 43.873 84.3563 43.8237 84.3316C43.7415 84.2904 43.7415 84.3234 43.8237 84.4882C43.8976 84.6365 43.8976 84.7106 43.8319 84.793C43.7744 84.8507 43.7497 84.999 43.7662 85.1308C43.7908 85.3039 43.758 85.3616 43.6347 85.3945C43.5361 85.4192 43.495 85.4769 43.5279 85.5428C43.5607 85.5923 43.5854 85.6994 43.5936 85.7736C43.5936 85.8559 43.569 85.8971 43.5361 85.8807C43.495 85.8642 43.4293 85.9219 43.3882 86.0125C43.3224 86.1443 43.3307 86.1773 43.4293 86.1773C43.5279 86.1773 43.5197 86.2267 43.3882 86.4245C43.2978 86.5646 43.2403 86.7293 43.2649 86.7953C43.2896 86.8612 43.2649 86.9189 43.2238 86.9189C43.1827 86.9189 43.1581 86.9601 43.1827 87.0013C43.2074 87.0425 43.1581 87.0837 43.0841 87.0837C42.9527 87.0754 42.9527 87.0919 43.0595 87.2155C43.1252 87.2979 43.1828 87.4956 43.191 87.6522C43.191 87.817 43.1499 88.0477 43.0841 88.1795C43.0266 88.3031 42.9938 88.4432 43.0184 88.4844C43.0431 88.5256 43.002 88.7069 42.928 88.8799C42.8623 89.0447 42.7555 89.2095 42.7062 89.2425C42.6322 89.2754 42.6486 89.3331 42.7555 89.4237C42.8294 89.4979 42.8951 89.5721 42.8951 89.5968C42.8951 89.6215 42.8376 89.6956 42.7719 89.7616C42.6733 89.8604 42.6651 89.9099 42.7555 90.0252C42.8376 90.1324 42.8376 90.1653 42.7555 90.19C42.6733 90.2065 42.6733 90.2395 42.7555 90.3466C42.8048 90.4207 42.813 90.4702 42.7719 90.4619C42.7308 90.4537 42.6486 90.4455 42.6075 90.4455C42.5665 90.4537 42.5829 90.5114 42.6486 90.5855C42.7144 90.6597 42.7308 90.7174 42.6897 90.7091C42.6486 90.7091 42.5993 90.8822 42.5829 91.1046C42.5747 91.3189 42.5418 91.6649 42.5254 91.8874C42.4925 92.217 42.4596 92.2747 42.3035 92.2994C42.1638 92.3076 42.1145 92.3736 42.1145 92.5219C42.1145 92.6372 42.1392 92.8185 42.1803 92.9339C42.2131 93.0492 42.2542 93.2552 42.2624 93.4035C42.2706 93.6013 42.2131 93.7331 42.0323 93.9144C41.868 94.0792 41.8023 94.2028 41.8516 94.2934C41.8899 94.3758 41.8762 94.4033 41.8105 94.3758C41.7393 94.3483 41.7036 94.4143 41.7036 94.5736C41.7036 94.7548 41.753 94.829 41.868 94.8619C41.9995 94.8949 42.0159 94.9361 41.9584 95.0515C41.9173 95.1339 41.8926 95.2822 41.8926 95.3893C41.9009 95.4882 41.8844 95.5541 41.8516 95.5376C41.8105 95.5211 41.7776 95.7106 41.7612 95.9661C41.753 96.2297 41.7201 96.444 41.679 96.4604C41.6461 96.4687 41.6379 96.617 41.6543 96.79C41.6708 97.0043 41.6379 97.1526 41.5311 97.2844C41.4407 97.3833 41.3339 97.6635 41.2928 97.9024C41.227 98.265 41.186 98.3226 41.0463 98.2979C40.8901 98.2732 40.8901 98.2814 41.0134 98.4215C41.0874 98.5122 41.1695 98.644 41.1942 98.7264C41.2353 98.8252 41.2024 98.8747 41.0874 98.9076C40.997 98.9324 40.923 98.9983 40.923 99.056C40.923 99.1219 40.9504 99.1136 41.0052 99.0312C41.0709 98.9241 41.0874 98.9324 41.0874 99.056C41.0874 99.1301 41.0134 99.2125 40.923 99.2372C40.7751 99.2784 40.7669 99.3196 40.8244 99.7646C40.8655 100.144 40.8573 100.275 40.7587 100.383C40.6929 100.457 40.6601 100.547 40.6929 100.58C40.734 100.613 40.7094 100.687 40.6518 100.753C40.5779 100.844 40.5779 100.877 40.6601 100.902C40.7094 100.91 40.7587 100.976 40.7587 101.034C40.7669 101.083 40.6929 101.231 40.5943 101.363C40.5039 101.487 40.4464 101.66 40.4711 101.75C40.4957 101.841 40.4875 101.965 40.4546 102.022C40.4218 102.072 40.3807 102.146 40.3725 102.187C40.356 102.22 40.3478 102.286 40.3478 102.327C40.3478 102.368 40.2903 102.393 40.2245 102.368C40.1588 102.344 40.1013 102.368 40.1013 102.41C40.1013 102.451 40.1424 102.492 40.1835 102.492C40.2245 102.492 40.2656 102.583 40.2656 102.698C40.2656 102.813 40.2245 102.92 40.1835 102.945C40.1424 102.97 40.1095 103.036 40.1177 103.093C40.1177 103.143 40.1013 103.258 40.0766 103.341C40.0438 103.415 39.9534 103.481 39.8794 103.481C39.7397 103.472 39.7397 103.489 39.863 103.662C39.9616 103.802 39.978 103.917 39.9205 104.14C39.8794 104.305 39.7644 104.486 39.6493 104.552C39.5014 104.651 39.4686 104.717 39.5179 104.84C39.559 104.931 39.5754 105.129 39.559 105.277C39.5343 105.434 39.4768 105.541 39.411 105.541C39.3453 105.541 39.2303 105.598 39.1645 105.664C39.0906 105.73 39.0495 105.845 39.0741 105.911C39.0988 105.986 39.0659 106.035 38.992 106.035C38.9262 106.035 38.8851 106.068 38.9098 106.117C38.9344 106.167 38.8687 106.216 38.7701 106.241C38.614 106.274 38.6058 106.299 38.7044 106.365C38.7701 106.406 38.8358 106.529 38.8441 106.628C38.8605 106.768 38.7783 106.867 38.5565 106.999C38.2853 107.156 38.2524 107.213 38.2771 107.469C38.2853 107.633 38.2524 107.765 38.2113 107.765C38.1702 107.765 38.1209 107.716 38.1045 107.666C38.0881 107.609 37.9977 107.699 37.8991 107.872C37.8005 108.037 37.7183 108.21 37.7183 108.26C37.7183 108.309 37.6526 108.334 37.5786 108.326C37.4636 108.309 37.4389 108.35 37.4553 108.507C37.4718 108.622 37.4225 108.845 37.3567 109.001C37.291 109.158 37.1431 109.372 37.028 109.479C36.913 109.578 36.7898 109.636 36.7651 109.603C36.7322 109.562 36.7322 109.693 36.7651 109.891C36.7898 110.081 36.7733 110.328 36.7322 110.443C36.6911 110.559 36.5761 110.723 36.4857 110.814C36.3953 110.905 36.3214 111.053 36.3214 111.144C36.3214 111.234 36.2721 111.358 36.2228 111.424C36.1652 111.481 36.042 111.547 35.9598 111.564C35.8694 111.58 35.7626 111.712 35.7133 111.869C35.664 112.017 35.5983 112.116 35.5572 112.075C35.5243 112.042 35.4996 112.075 35.4996 112.157C35.4996 112.231 35.4586 112.281 35.4175 112.256C35.3764 112.231 35.2367 112.272 35.1134 112.338C34.982 112.404 34.908 112.454 34.9409 112.462C34.9737 112.462 34.9162 112.544 34.8176 112.651C34.719 112.759 34.5793 112.923 34.5136 113.022C34.4478 113.113 34.3657 113.179 34.3328 113.154C34.2917 113.138 34.1356 113.212 33.9795 113.327C33.8233 113.442 33.6508 113.517 33.6097 113.492C33.5686 113.467 33.5111 113.5 33.5029 113.558C33.4864 113.607 33.2563 113.805 32.9852 113.986C32.7222 114.168 32.4757 114.308 32.4428 114.291C32.4018 114.283 32.3607 114.332 32.336 114.398C32.3114 114.464 32.2538 114.505 32.2128 114.481C32.1717 114.456 32.1306 114.472 32.1306 114.522C32.1306 114.571 31.9909 114.629 31.8265 114.662C31.654 114.687 31.4896 114.72 31.4486 114.72C31.4157 114.728 31.2513 114.893 31.0788 115.09C30.824 115.395 30.7501 115.437 30.6104 115.371C30.4625 115.296 30.4461 115.305 30.4707 115.502C30.4954 115.667 30.4789 115.684 30.4214 115.593C30.3474 115.486 30.3228 115.486 30.1995 115.618C30.1256 115.692 29.953 115.758 29.8215 115.758C29.6627 115.758 29.5832 115.799 29.5832 115.881C29.5832 115.947 29.4929 116.063 29.3778 116.129C29.2628 116.195 29.1724 116.219 29.1724 116.17C29.1724 116.12 29.0738 116.129 28.9259 116.195C28.7862 116.244 28.6793 116.318 28.6793 116.359C28.6793 116.392 28.5561 116.491 28.4164 116.582C28.2685 116.672 28.1206 116.747 28.0877 116.747C28.0466 116.747 28.022 116.689 28.022 116.623C28.022 116.557 27.9727 116.508 27.9234 116.524C27.8658 116.532 27.759 116.582 27.6933 116.623C27.6275 116.664 27.4796 116.755 27.3728 116.821C27.192 116.944 27.1838 116.944 27.2496 116.788C27.2989 116.656 27.266 116.664 27.0688 116.854C26.9373 116.977 26.7565 117.093 26.6661 117.117C26.5429 117.15 26.5182 117.134 26.5675 117.035C26.6004 116.969 26.6004 116.911 26.5675 116.911C26.5264 116.903 26.4443 116.961 26.3785 117.035C26.3128 117.109 26.1567 117.2 26.0334 117.241C25.9019 117.29 25.7869 117.299 25.7705 117.266C25.7458 117.225 25.639 117.208 25.5239 117.225C25.376 117.233 25.3267 117.208 25.376 117.142C25.4171 117.068 25.3842 117.06 25.2281 117.109C25.1131 117.15 24.7269 117.192 23.7079 117.233L23.4368 116.928C23.1656 116.623 23.1574 116.623 22.5904 116.648C22.1713 116.656 21.9905 116.631 21.9001 116.541C21.8344 116.475 21.6865 116.409 21.5715 116.401C21.4564 116.384 21.3496 116.326 21.3249 116.277C21.3003 116.219 21.1359 116.112 20.9552 116.046C20.7744 115.98 20.6265 115.89 20.6265 115.84C20.6265 115.791 20.5689 115.774 20.5032 115.799C20.4375 115.824 20.3717 115.791 20.3717 115.741C20.3635 115.684 20.3635 115.61 20.3717 115.577C20.3717 115.535 20.306 115.511 20.2156 115.511C20.1252 115.511 20.043 115.544 20.0348 115.585C20.0184 115.634 19.813 115.61 19.5582 115.544C19.3035 115.478 18.9995 115.321 18.868 115.198C18.7365 115.074 18.6543 115.025 18.679 115.082C18.7173 115.148 18.668 115.181 18.5311 115.181C18.416 115.181 18.3092 115.148 18.2846 115.099C18.2599 115.049 18.1695 115.016 18.0791 115.016C17.9887 115.016 17.8983 114.959 17.8737 114.893C17.849 114.827 17.7587 114.769 17.6683 114.769C17.5779 114.769 17.4382 114.67 17.3642 114.547C17.2903 114.415 17.2163 114.299 17.1999 114.275C17.1917 114.25 17.1341 114.283 17.0766 114.341C16.9862 114.423 16.9452 114.415 16.8465 114.316C16.7808 114.242 16.6575 114.184 16.5836 114.192C16.5014 114.192 16.2713 114.06 16.0659 113.904C15.8605 113.747 15.6797 113.64 15.655 113.681C15.6304 113.714 15.54 113.665 15.4496 113.574C15.3592 113.484 15.2771 113.335 15.2853 113.245C15.2853 113.113 15.2688 113.105 15.2113 113.204C15.1538 113.302 15.1209 113.294 15.047 113.146C14.9812 112.998 14.8908 112.956 14.6936 112.965C14.4882 112.973 14.3896 112.932 14.2992 112.783C14.2335 112.676 14.0938 112.503 13.9952 112.404C13.8883 112.297 13.8062 112.19 13.8062 112.157C13.8062 112.116 13.5843 111.91 13.3131 111.679C13.0009 111.416 12.8119 111.185 12.779 111.045C12.7544 110.913 12.6968 110.814 12.6558 110.814C12.6147 110.814 12.5079 110.748 12.4339 110.666C12.3517 110.592 12.212 110.41 12.1216 110.278C12.0313 110.138 11.9737 110.007 11.9819 109.974C11.9902 109.932 11.9491 109.908 11.8998 109.908C11.8423 109.916 11.719 109.842 11.6286 109.743C11.5218 109.644 11.4889 109.529 11.53 109.454C11.5629 109.38 11.5464 109.331 11.4889 109.323C11.4314 109.314 11.3328 109.314 11.2835 109.323C11.226 109.323 11.1109 109.224 11.037 109.092C10.9548 108.952 10.8562 108.869 10.8069 108.902C10.7658 108.935 10.7494 108.927 10.7822 108.878C10.8151 108.828 10.6754 108.614 10.47 108.383C10.2728 108.161 10.0427 107.864 9.97695 107.724C9.87012 107.526 9.82903 107.502 9.77151 107.601C9.71399 107.699 9.69756 107.691 9.69756 107.559C9.69756 107.469 9.64004 107.312 9.5743 107.213C9.49213 107.087 9.39626 107.037 9.2867 107.065C9.19631 107.09 9.12235 107.073 9.12235 107.024C9.12235 106.974 9.05662 106.875 8.98266 106.801C8.90049 106.727 8.75258 106.538 8.65397 106.389C8.54715 106.233 8.48141 106.043 8.50606 105.953C8.53345 105.843 8.49237 105.76 8.3828 105.705C8.29242 105.656 8.23489 105.574 8.25955 105.499C8.2842 105.425 8.23489 105.359 8.13629 105.335C8.00481 105.302 7.97194 105.219 7.95551 104.906C7.93086 104.535 7.91442 104.511 7.70077 104.511C7.54465 104.511 7.40495 104.437 7.30635 104.305C7.21596 104.189 7.16666 104.033 7.19131 103.959C7.21596 103.868 7.18309 103.794 7.10913 103.769C7.0434 103.744 6.92836 103.522 6.86262 103.275C6.78866 102.986 6.68184 102.789 6.57502 102.739C6.48463 102.698 6.4271 102.616 6.45176 102.574C6.47641 102.533 6.45176 102.475 6.41067 102.451C6.36958 102.426 6.35315 102.36 6.3778 102.311C6.41067 102.253 6.35315 102.146 6.25454 102.08C6.1395 101.998 6.06555 101.841 6.04089 101.627C6.01624 101.437 6.03268 101.281 6.08198 101.256C6.13676 101.229 6.1395 101.146 6.0902 101.009C6.04911 100.893 6.00803 100.852 6.00803 100.91C5.99981 100.959 5.97516 101.009 5.94229 101.009C5.9012 101.009 5.8026 100.893 5.72042 100.745C5.6136 100.564 5.58895 100.465 5.65469 100.457C5.72042 100.44 5.73412 100.344 5.69577 100.168C5.6629 100.02 5.53964 99.7893 5.40817 99.6492C5.23561 99.4679 5.21096 99.3938 5.30134 99.3856C5.36708 99.3691 5.4246 99.3196 5.4246 99.2784C5.4246 99.2372 5.38352 99.1713 5.33421 99.1384C5.28491 99.0972 5.25204 98.99 5.26848 98.8994C5.28491 98.8005 5.24382 98.6852 5.17809 98.644C5.11235 98.5945 5.05483 98.4874 5.04661 98.405C5.03839 98.3226 5.07948 98.2237 5.12878 98.1908C5.18904 98.1578 5.17261 98.0974 5.07948 98.0095C4.99731 97.9354 4.92335 97.8942 4.91514 97.9189C4.8987 97.9436 4.83296 97.9024 4.76723 97.8365C4.6604 97.7211 4.6604 97.7047 4.79188 97.7129C4.86583 97.7129 4.93157 97.6717 4.93157 97.6305C4.93157 97.5893 4.89048 97.5481 4.8494 97.5481C4.80831 97.5481 4.79188 97.4987 4.81653 97.4492C4.84118 97.3915 4.80009 97.3174 4.73436 97.2844C4.6604 97.2432 4.57823 97.0784 4.55358 96.9136C4.52071 96.7406 4.45497 96.5428 4.39745 96.4769C4.33993 96.411 4.27419 96.2627 4.26597 96.1473C4.24954 96.032 4.26597 95.8919 4.29884 95.8425C4.33171 95.7766 4.29884 95.7189 4.19202 95.6942C4.09341 95.6694 4.02768 95.587 4.02768 95.4882C4.02768 95.3975 3.99481 95.2575 3.9455 95.1833C3.88798 95.0762 3.91263 94.9855 4.02768 94.8537C4.1345 94.7384 4.15093 94.6642 4.09341 94.6642C4.03589 94.6724 3.93729 94.6148 3.88798 94.5406C3.82224 94.4664 3.80581 94.3758 3.8469 94.3181C3.88798 94.2605 3.9455 94.1451 3.97015 94.0709C4.00302 93.9885 4.00302 93.9391 3.97015 93.9556C3.92907 93.9803 3.8469 93.9638 3.78116 93.9226C3.67433 93.8649 3.67433 93.8402 3.80581 93.7249C3.87977 93.6507 3.97015 93.6178 4.01124 93.659C4.04411 93.6919 4.03589 93.6754 4.00302 93.6342C3.96194 93.593 3.83046 93.5518 3.71542 93.5518C3.54286 93.5518 3.49356 93.5106 3.47712 93.3458C3.46069 93.2305 3.39495 93.0822 3.32921 93.0163C3.25526 92.9503 3.19774 92.8103 3.20595 92.7114C3.20595 92.6043 3.24704 92.5054 3.28812 92.4807C3.32921 92.4559 3.3703 92.3488 3.3703 92.2335C3.3703 92.1181 3.4196 92.0275 3.47712 92.0275C3.52642 92.0275 3.43603 91.9369 3.27169 91.8215C3.09913 91.7061 2.95944 91.5743 2.95944 91.5331C2.95944 91.4919 2.91835 91.3518 2.86083 91.2282C2.81153 91.0964 2.75401 90.8904 2.73757 90.7503C2.71292 90.6103 2.63896 90.4372 2.56501 90.3548C2.44997 90.2312 2.44175 90.2065 2.54857 90.2147C2.64718 90.2147 2.6554 90.1983 2.56501 90.1159C2.50749 90.0582 2.4664 89.9264 2.4664 89.8275C2.4664 89.7204 2.44175 89.6215 2.40888 89.605C2.3678 89.5885 2.33493 89.399 2.32671 89.193C2.31028 88.987 2.34314 88.7398 2.38423 88.6492C2.44175 88.5256 2.43353 88.4432 2.34314 88.3196C2.26919 88.2207 2.25275 88.1383 2.30206 88.1136C2.34314 88.0889 2.40066 88.1219 2.42532 88.1795C2.44997 88.229 2.44175 88.1466 2.4171 87.99C2.38423 87.8335 2.31849 87.6769 2.26919 87.644C2.21989 87.611 2.15415 87.578 2.12128 87.578C2.08019 87.578 2.07198 87.6192 2.09663 87.6604C2.12128 87.7016 2.09663 87.7428 2.05554 87.7428C2.01445 87.7428 1.95693 87.7181 1.9405 87.6852C1.92407 87.644 1.8912 87.5204 1.85833 87.3968C1.82546 87.2402 1.84189 87.166 1.91585 87.166C1.9898 87.166 1.99802 87.0672 1.93228 86.7211C1.8912 86.4739 1.82546 86.2844 1.79259 86.3091C1.7515 86.3256 1.72685 86.2844 1.72685 86.2185C1.72685 86.1526 1.73507 86.0702 1.7515 86.0372C1.75972 85.996 1.80902 85.9878 1.85011 85.996C1.8912 86.0125 1.89941 85.996 1.86655 85.9548C1.82546 85.9219 1.75972 85.8807 1.71863 85.8724C1.67755 85.8559 1.62003 85.8477 1.58716 85.8477C1.54607 85.8477 1.57894 85.8065 1.64468 85.7653C1.7515 85.6994 1.7515 85.6582 1.62825 85.4357C1.49677 85.2132 1.48855 85.172 1.60359 85.0072C1.66933 84.9001 1.72685 84.7518 1.72685 84.6777C1.72685 84.5953 1.7022 84.5294 1.66933 84.5294C1.62825 84.5294 1.53786 84.3481 1.4639 84.1174C1.38173 83.8949 1.33243 83.6147 1.35708 83.4994C1.38173 83.384 1.35708 83.244 1.31599 83.1945C1.26669 83.1368 1.2256 82.9308 1.20917 82.7413C1.20095 82.5436 1.1763 82.387 1.15165 82.387C1.12699 82.387 1.10234 82.2305 1.08591 82.041C1.06947 81.8432 1.02839 81.629 0.987302 81.563C0.946216 81.4971 0.896913 81.0687 0.872261 80.6155C0.847609 80.1623 0.781871 79.6267 0.732568 79.4207C0.683265 79.2147 0.642179 78.8687 0.642179 78.6379C0.642179 78.4155 0.642179 77.987 0.650396 77.6904C0.650396 77.3938 0.650396 76.9488 0.650396 76.7016C0.642179 76.4544 0.658613 75.8364 0.691482 75.3421C0.724351 74.8477 0.75722 74.3121 0.765437 74.172C0.773654 74.0237 0.798306 73.9001 0.822958 73.9001C0.847609 73.9001 0.847609 73.4305 0.831175 72.8537C0.81474 72.2686 0.798306 71.1892 0.798306 70.4394C0.798306 69.6896 0.81474 68.9975 0.847609 68.8986C0.880478 68.7832 0.872261 68.7256 0.822958 68.7503C0.773654 68.775 0.75722 68.6597 0.790089 68.4454C0.822958 68.2065 0.798306 68.0087 0.716134 67.8439C0.633961 67.6791 0.617527 67.5473 0.66683 67.4567C0.716134 67.366 0.707916 67.2919 0.658613 67.2671C0.60931 67.2424 0.592875 67.0364 0.617527 66.7975C0.633961 66.5585 0.675047 66.2289 0.699699 66.0724C0.724351 65.9158 0.749003 65.7263 0.749003 65.6604C0.75722 65.5945 0.806523 65.5121 0.855826 65.4791C0.913347 65.4379 0.888695 65.4132 0.806523 65.4132C0.707916 65.4132 0.675047 65.3638 0.699699 65.2731C0.724351 65.1907 0.75722 64.5316 0.781871 63.8065C0.806523 63.0814 0.839392 62.1832 0.864044 61.8125C0.888695 61.4334 0.921564 61.0874 0.946216 61.0462C0.970868 61.005 0.946216 60.8402 0.896913 60.7001C0.81474 60.4694 0.822958 60.4199 0.937999 60.3705C1.05304 60.3128 1.05304 60.2881 0.954433 60.1645C0.888695 60.0821 0.847609 59.9091 0.855826 59.769C0.872261 59.6289 0.921564 59.4312 0.979085 59.3158C1.03661 59.2005 1.06947 59.0357 1.04482 58.945C1.02017 58.8544 1.04482 58.6731 1.08591 58.533C1.15986 58.3518 1.15165 58.2776 1.08591 58.2694C1.01195 58.2529 1.01195 58.2117 1.07769 58.1046C1.13521 58.0222 1.15165 57.8574 1.11878 57.7338C1.09413 57.602 1.04482 57.5196 1.01195 57.536C0.970868 57.5525 0.946216 57.5196 0.946216 57.4536C0.946216 57.3877 0.995519 57.3548 1.05304 57.3795C1.10234 57.4042 1.15165 57.396 1.15165 57.363C1.15165 57.3218 1.11056 57.2477 1.05304 57.19C0.96265 57.1076 0.979085 57.0911 1.11056 57.0911C1.24204 57.0993 1.25847 57.0746 1.1763 56.9922C1.09413 56.9098 1.09413 56.8274 1.19273 56.6214C1.29134 56.4154 1.29134 56.3083 1.2256 56.1682C1.15986 56.0282 1.15986 55.9293 1.2256 55.7975C1.2749 55.6903 1.29956 55.5503 1.2749 55.4844C1.25025 55.4184 1.2749 55.3608 1.31599 55.3608C1.35708 55.3608 1.34064 55.3031 1.2749 55.2372C1.20917 55.1712 1.15165 55.0394 1.15165 54.9488C1.15165 54.8581 1.19273 54.784 1.23382 54.784C1.2749 54.784 1.29956 54.7345 1.28312 54.6851C1.26669 54.6274 1.32421 54.4132 1.40638 54.2072C1.49677 54.0012 1.56251 53.7705 1.56251 53.6963C1.56251 53.6139 1.53786 53.5563 1.50499 53.5563C1.4639 53.5645 1.4146 53.5645 1.38173 53.5563C1.34064 53.5563 1.34886 53.4244 1.38995 53.2843C1.43925 53.0866 1.42281 52.9877 1.34886 52.9136C1.28312 52.8559 1.21738 52.8312 1.19273 52.8724C1.16808 52.9053 1.14343 52.8559 1.14343 52.7652C1.14343 52.6746 1.20095 52.551 1.2749 52.5016C1.34064 52.4439 1.38173 52.3368 1.35708 52.2709C1.33243 52.2049 1.38173 52.0978 1.47212 52.0484C1.57894 51.9742 1.62003 51.8671 1.59538 51.6941C1.57894 51.554 1.5132 51.3975 1.43925 51.348C1.34886 51.2656 1.33243 51.1997 1.39816 51.0761C1.43925 50.9855 1.4639 50.8701 1.43925 50.8289C1.4146 50.7877 1.43925 50.7465 1.48034 50.7465C1.52142 50.7465 1.56251 50.7053 1.56251 50.6641C1.56251 50.6229 1.48034 50.557 1.38173 50.5323C1.19273 50.4746 1.19273 50.4746 1.35708 50.3592C1.50499 50.2604 1.52142 50.1533 1.52142 49.3375C1.52142 48.7937 1.48855 48.4064 1.43103 48.3735C1.38995 48.3405 1.34886 48.1345 1.35708 47.9038C1.35708 47.6813 1.38995 47.4424 1.42281 47.393C1.45568 47.3353 1.45568 47.2199 1.43103 47.1458C1.39816 47.0634 1.37351 46.9233 1.36529 46.8327C1.35708 46.742 1.40638 46.6267 1.47212 46.5855C1.53786 46.5443 1.56251 46.4536 1.53786 46.4042C1.48855 46.3218 1.45568 46.3218 1.35708 46.4042C1.25025 46.4866 1.20917 46.4783 1.12699 46.3877C1.05304 46.2971 1.05304 46.2806 1.13521 46.33C1.18452 46.3547 1.23382 46.3383 1.23382 46.2971C1.23382 46.2559 1.31599 46.1817 1.42281 46.1405C1.52964 46.0911 1.55429 46.0581 1.48034 46.0499C1.4146 46.0499 1.28312 45.9922 1.19273 45.9263C1.04482 45.8192 1.04482 45.7944 1.15165 45.6791C1.24204 45.5885 1.24204 45.5473 1.1763 45.5555C1.11878 45.5555 1.06947 45.5143 1.06947 45.4731C1.06947 45.4319 1.13521 45.3907 1.21738 45.3907C1.29956 45.3907 1.39816 45.366 1.42281 45.333C1.45568 45.2918 1.4146 45.2259 1.34064 45.1847C1.26669 45.1435 1.23382 45.0529 1.25847 45.0034C1.29134 44.9458 1.35708 44.9128 1.39816 44.9375C1.43925 44.9622 1.49677 44.9375 1.52142 44.8963C1.54607 44.8551 1.52142 44.7974 1.48034 44.7727C1.43925 44.748 1.4146 44.6738 1.43925 44.6079C1.4639 44.5338 1.54607 44.5008 1.64468 44.5255C1.73507 44.5503 1.82546 44.5255 1.85011 44.4843C1.87476 44.4431 1.83368 44.4019 1.76794 44.4019C1.67755 44.4019 1.66111 44.3525 1.7022 44.2207C1.73507 44.1135 1.76794 43.6768 1.76794 43.2484C1.77616 42.8199 1.80902 42.3914 1.84189 42.3008C1.87476 42.2102 1.9405 42.0701 1.98159 41.9959C2.02267 41.9135 2.08019 41.6911 2.10484 41.5016C2.13771 41.2791 2.12128 41.0648 2.05554 40.9413C1.97337 40.7765 1.98159 40.727 2.07198 40.6776C2.15415 40.6281 2.16237 40.5869 2.08019 40.4469C2.02267 40.3562 2.01445 40.2986 2.05554 40.3233C2.09663 40.348 2.16237 40.3068 2.20345 40.2326C2.23632 40.1585 2.21989 40.0843 2.16237 40.0514C2.10484 40.0184 2.05554 39.8783 2.03911 39.7383C2.02267 39.5982 2.08019 39.3839 2.17058 39.2439C2.27741 39.0873 2.29384 38.9967 2.23632 38.9884C2.16237 38.972 2.16237 38.9308 2.24454 38.8319C2.29384 38.7577 2.33493 38.56 2.31849 38.3952C2.31028 38.2304 2.34314 37.9667 2.39245 37.8102C2.44175 37.6536 2.51571 37.4641 2.54036 37.3982C2.57323 37.3323 2.58966 37.0768 2.57323 36.8461C2.54857 36.4671 2.57323 36.3847 2.75401 36.2281C2.943 36.0551 2.95122 36.0304 2.83618 35.915C2.73757 35.8244 2.72114 35.7008 2.75401 35.4618C2.77866 35.2806 2.86083 34.918 2.92657 34.6626C3.00874 34.3248 3.01696 34.1353 2.95944 34.0199C2.90465 33.91 2.90465 33.8414 2.95944 33.8139C3.01422 33.7864 3.01422 33.6903 2.95944 33.5255C2.8937 33.336 2.90192 33.2783 2.98409 33.2783C3.04983 33.2783 3.04161 33.2509 2.95944 33.1959C2.87726 33.141 2.87179 33.1135 2.943 33.1135C2.9923 33.1135 3.05804 33.0394 3.08269 32.9487C3.10735 32.8581 3.08269 32.7839 3.04161 32.7839C2.9923 32.7839 2.97587 32.6603 3.00874 32.4791C3.03339 32.306 3.11556 31.96 3.1813 31.7128C3.25526 31.4656 3.33743 31.1854 3.3703 31.0948C3.41138 31.0042 3.46069 30.8476 3.48534 30.7487C3.51821 30.6251 3.50177 30.5592 3.43603 30.5592C3.35386 30.5592 3.34565 30.4686 3.38673 30.2131C3.4196 30.0154 3.45247 29.8012 3.4689 29.727C3.48534 29.6528 3.54286 29.5375 3.60038 29.4633C3.68255 29.348 3.67433 29.315 3.57573 29.2821C3.50999 29.2573 3.4689 29.1832 3.49356 29.1173C3.51821 29.0513 3.59216 28.9937 3.6579 28.9937C3.73186 28.9937 3.79759 28.8948 3.81403 28.7712C3.83046 28.6394 3.81403 28.491 3.77294 28.4416C3.73186 28.3757 3.73186 28.318 3.78116 28.2933C3.83594 28.2658 3.83594 28.1779 3.78116 28.0296C3.7209 27.8758 3.71816 27.7165 3.77294 27.5517C3.82224 27.4116 3.91263 27.2798 3.97837 27.2468C4.06876 27.1974 4.10985 27.0656 4.10985 26.7937C4.10985 26.5712 4.10985 26.2993 4.10985 26.1757C4.10985 26.0438 4.15093 25.945 4.19202 25.945C4.23311 25.945 4.26597 25.8461 4.26597 25.7225C4.25776 25.5907 4.33171 25.3517 4.43032 25.1869C4.52071 25.0139 4.57823 24.8738 4.54536 24.8738C4.51249 24.8738 4.52893 24.8244 4.57823 24.7749C4.63575 24.7173 4.6604 24.6184 4.63575 24.5689C4.61932 24.5113 4.6604 24.4453 4.72614 24.4206C4.81653 24.3877 4.82475 24.3465 4.76723 24.2558C4.70149 24.1652 4.73436 24.0993 4.88227 23.9922C5.01374 23.8933 5.06305 23.8109 5.00553 23.7614C4.95622 23.712 4.97266 23.5555 5.05483 23.333C5.12057 23.1352 5.17809 22.9622 5.17809 22.9375C5.17809 22.9128 5.22739 22.7809 5.28491 22.6491C5.33421 22.509 5.40817 22.3937 5.44925 22.4019C5.48212 22.4019 5.49034 22.3277 5.46569 22.2371C5.44104 22.1382 5.46569 22.0723 5.53143 22.0641C5.58073 22.0558 5.65469 22.0558 5.69577 22.0641C5.72864 22.0641 5.75329 22.0311 5.75329 21.9899C5.75329 21.9487 5.70399 21.891 5.65469 21.8746C5.57251 21.8498 5.59717 21.751 5.73686 21.5038C5.83546 21.3225 5.9012 21.0918 5.87655 21.0011C5.8519 20.9105 5.87655 20.8199 5.91764 20.7952C5.95872 20.7704 5.99981 20.6798 5.99981 20.5892C5.99981 20.4985 6.0902 20.309 6.20524 20.1772C6.32028 20.0453 6.41067 19.8723 6.41067 19.8064C6.41067 19.7405 6.36958 19.6993 6.3285 19.724C6.28741 19.7487 6.26276 19.7075 6.28741 19.6416C6.31206 19.5757 6.35315 19.5345 6.39424 19.551C6.4271 19.5674 6.52571 19.4109 6.60788 19.2049C6.69006 18.9907 6.82153 18.7435 6.89549 18.6528C7.01874 18.5045 7.01874 18.4963 6.87905 18.6116C6.8051 18.6775 6.70649 18.7105 6.67362 18.6775C6.64075 18.6446 6.64075 18.5539 6.68184 18.488C6.71471 18.4221 6.79688 18.3809 6.86262 18.4056C6.95301 18.4386 6.99409 18.3562 7.02696 18.0596C7.05161 17.8371 7.08448 17.5487 7.0927 17.4004C7.10092 17.2438 7.15844 17.1202 7.23239 17.1038C7.30635 17.0873 7.35565 16.9802 7.35565 16.8318C7.35565 16.7 7.32278 16.5435 7.28991 16.494C7.25704 16.4363 7.24883 16.3127 7.27348 16.2221C7.29813 16.1232 7.36387 16.0738 7.43782 16.0985C7.52821 16.1315 7.5693 16.0573 7.60217 15.8513C7.62682 15.6948 7.68434 15.5629 7.72543 15.5629C7.76651 15.5629 7.79938 15.3899 7.79938 15.1757C7.79116 14.9532 7.84868 14.6401 7.92264 14.4753C7.99659 14.3023 8.12807 14.1127 8.21846 14.0633C8.30885 14.0056 8.3828 13.9315 8.3828 13.8985C8.3828 13.8573 8.44032 13.7749 8.50606 13.709C8.5718 13.6431 8.62932 13.5442 8.62932 13.503C8.62932 13.4618 8.56358 13.3629 8.48963 13.2888C8.37459 13.1899 8.36637 13.1487 8.44854 13.1075C8.51428 13.0663 8.53071 12.9921 8.48963 12.885C8.44032 12.7532 8.45676 12.7285 8.5718 12.7861C8.69506 12.8356 8.70328 12.8191 8.6211 12.6626C8.54715 12.5142 8.55537 12.4401 8.67041 12.3082C8.74436 12.2176 8.81832 11.9787 8.84297 11.7727C8.8594 11.542 8.93336 11.3524 9.04018 11.2618C9.13057 11.1794 9.20453 11.064 9.20453 11.0146C9.19631 10.9569 9.27848 10.8333 9.36887 10.7427C9.45926 10.6521 9.54143 10.5532 9.53322 10.5202C9.53322 10.479 9.47569 10.4543 9.40996 10.4543C9.34422 10.4543 9.2867 10.512 9.2867 10.5779C9.2867 10.6438 9.24561 10.7015 9.20453 10.7015C9.15522 10.7015 9.14701 10.6356 9.18809 10.5367C9.22096 10.4461 9.29492 10.3472 9.35244 10.3307C9.40174 10.306 9.49213 10.133 9.54965 9.94345C9.59895 9.74569 9.64826 9.54794 9.65647 9.50674C9.65647 9.46554 9.70578 9.32547 9.7633 9.20187C9.82082 9.07004 9.88656 8.98764 9.92764 9.01236C9.96051 9.02884 10.0345 8.95468 10.092 8.84756C10.1413 8.73221 10.2317 8.64157 10.2728 8.64157C10.3139 8.64157 10.3714 8.56741 10.396 8.47678C10.4207 8.38614 10.396 8.2955 10.3549 8.27078C10.3056 8.24606 10.3139 8.18015 10.3796 8.09775C10.4289 8.03183 10.5275 7.99063 10.585 8.01535C10.659 8.04831 10.6754 7.99887 10.6425 7.8176C10.6097 7.64457 10.6425 7.55393 10.7329 7.51273C10.8069 7.47153 10.9959 7.27378 11.1438 7.05955C11.2999 6.83707 11.5136 6.62284 11.6286 6.58164C11.7765 6.52396 11.8258 6.45805 11.793 6.33445C11.7683 6.22733 11.8012 6.15318 11.8998 6.11198C11.9737 6.08726 12.0888 6.07078 12.1463 6.07078C12.1956 6.07902 12.2449 6.03782 12.2449 5.98838C12.2531 5.9307 12.4175 5.71647 12.6147 5.51048C12.8201 5.30449 12.9845 5.11497 12.9845 5.08201C12.9845 5.04082 13.0502 5.04082 13.1324 5.06553C13.2392 5.09849 13.2885 5.04906 13.3214 4.87602C13.3542 4.73595 13.4857 4.57939 13.6747 4.46404C13.839 4.35692 14.0034 4.19212 14.0445 4.09325C14.0938 3.98613 14.1266 3.94493 14.1349 3.98613C14.1349 4.02733 14.1677 4.01909 14.2006 3.96965C14.2335 3.91197 14.4225 3.8543 14.6279 3.84606C14.9402 3.82134 14.9977 3.78838 15.0388 3.61534C15.0716 3.47802 15.1072 3.44506 15.1456 3.51647C15.1867 3.59063 15.2442 3.56591 15.3428 3.43407C15.425 3.32695 15.4825 3.21984 15.4661 3.18688C15.4578 3.14568 15.5236 3.10448 15.614 3.07976C15.7126 3.05504 15.7783 3.07976 15.7783 3.14568C15.7783 3.19512 15.803 3.2116 15.8358 3.17864C15.8687 3.13744 15.9016 3.07152 15.9016 3.02209C15.9016 2.97265 16.0577 2.87377 16.2467 2.79961C16.4439 2.72546 16.7069 2.5689 16.8465 2.44531C16.9945 2.30523 17.1506 2.23107 17.241 2.25579C17.3149 2.28051 17.4464 2.23931 17.5286 2.17339C17.6025 2.10748 17.7094 2.06628 17.7504 2.091C17.7915 2.11572 17.8408 2.08276 17.8408 2.03332C17.849 1.97564 17.849 1.90148 17.8408 1.86853C17.8408 1.82733 17.8737 1.80261 17.9148 1.80261C17.9559 1.80261 17.997 1.85205 17.997 1.90972C17.9887 1.99212 18.0134 1.99212 18.1202 1.90972C18.186 1.85205 18.2353 1.75317 18.227 1.70373C18.2106 1.62957 18.301 1.60485 18.5146 1.62133C18.7447 1.62957 18.8269 1.60485 18.8598 1.49774C18.8762 1.41534 18.9912 1.29998 19.1063 1.25055C19.2213 1.19287 19.3528 1.15991 19.3939 1.18463C19.435 1.20935 19.5336 1.17639 19.5993 1.12695C19.6733 1.06927 19.7308 1.04455 19.7226 1.08575C19.7226 1.11871 19.8212 1.10223 19.9527 1.05279C20.0759 1.01159 20.3224 0.953917 20.5032 0.929197C20.684 0.904478 20.9141 0.838561 21.0209 0.772643C21.1195 0.706725 21.2017 0.673766 21.2017 0.714965C21.1935 0.747924 21.251 0.714965 21.3249 0.649047C21.4153 0.55841 21.4564 0.55841 21.4482 0.632568C21.4482 0.682006 21.4975 0.706725 21.555 0.673766C21.6043 0.649047 21.818 0.607849 22.0234 0.591369C22.2288 0.57489 22.6726 0.533691 23.0095 0.500732C23.3464 0.467773 23.6668 0.459534 23.7079 0.476013ZM26.8716 17.1697C26.8305 17.145 26.7894 17.1862 26.7894 17.2521C26.7894 17.318 26.7401 17.3592 26.6908 17.3509C26.6333 17.3345 26.5182 17.2933 26.4443 17.2686C26.3621 17.2356 26.2388 17.2438 26.1649 17.285C26.0909 17.318 25.8362 17.3839 25.6061 17.4169C25.376 17.4498 25.0227 17.491 24.8173 17.4993C24.6118 17.5075 24.3817 17.491 24.2914 17.4581C24.201 17.4251 24.0777 17.4581 23.9791 17.5487C23.8887 17.6229 23.6997 17.7135 23.56 17.7465C23.4121 17.7794 23.1656 17.8124 23.0095 17.8289C22.8533 17.8453 22.6972 17.9195 22.6561 17.9936C22.6233 18.0596 22.5575 18.1172 22.5164 18.1172C22.4753 18.1172 22.3521 18.2079 22.2453 18.3232C22.1467 18.4304 21.9577 18.5539 21.818 18.5951C21.6783 18.6363 21.5632 18.7105 21.5468 18.7599C21.5386 18.8176 21.5304 18.9 21.5304 18.9412C21.5304 18.9824 21.4564 19.0236 21.366 19.0236C21.2565 19.0236 21.1743 19.106 21.1195 19.2708C21.0784 19.4109 21.0127 19.518 20.9716 19.518C20.9387 19.518 20.8648 19.6086 20.8072 19.724C20.7497 19.8476 20.6511 19.9217 20.5607 19.9135C20.4621 19.897 20.4293 19.9382 20.4375 20.0783C20.4539 20.1937 20.38 20.3255 20.232 20.4408C20.1088 20.5315 20.0759 20.5892 20.1499 20.5644C20.2813 20.515 20.2896 20.5315 20.191 20.754C20.1417 20.894 20.0513 21.0011 20.0102 21.0011C19.9691 21.0011 19.8787 21.1 19.8212 21.2319C19.7637 21.3554 19.7226 21.5038 19.7226 21.5614C19.7226 21.6109 19.7637 21.6603 19.8047 21.6603C19.8458 21.6603 19.8869 21.7345 19.8869 21.8251C19.8869 21.9158 19.8212 22.0393 19.739 22.097C19.6568 22.1465 19.5582 22.2865 19.5254 22.4019C19.4843 22.5667 19.4925 22.5996 19.5993 22.5502C19.6651 22.509 19.7226 22.509 19.7226 22.5502C19.7308 22.5832 19.6733 22.6573 19.5993 22.715C19.5336 22.7644 19.4761 22.9128 19.4843 23.0446C19.4925 23.1682 19.4514 23.3659 19.4021 23.4978C19.3446 23.6461 19.3364 23.7367 19.3939 23.7614C19.435 23.7862 19.4761 23.8274 19.4761 23.8686C19.4761 23.9015 19.3775 23.918 19.2706 23.9098C19.1556 23.8933 19.0652 23.9262 19.0652 23.9674C19.0652 24.0086 19.1227 24.0498 19.1885 24.0498C19.2542 24.0498 19.3117 24.091 19.3117 24.1322C19.3117 24.1734 19.2542 24.2146 19.1885 24.2146C19.1227 24.2146 19.0652 24.2394 19.0652 24.2806C19.0734 24.3135 19.1309 24.3794 19.2131 24.4371C19.3446 24.536 19.3446 24.536 19.2049 24.5442C19.1309 24.5442 19.0816 24.5937 19.0981 24.6513C19.1227 24.7008 19.0898 24.8409 19.0323 24.9562C18.9748 25.0716 18.9009 25.2364 18.868 25.327C18.8105 25.4588 18.8269 25.4835 18.9337 25.4341C19.0077 25.3929 19.0652 25.3929 19.0652 25.4341C19.0652 25.4671 18.9912 25.5577 18.9009 25.6401C18.8105 25.7143 18.7365 25.8214 18.7365 25.8626C18.7365 25.9038 18.8022 25.9779 18.8762 26.0191C19.0077 26.085 18.9995 26.1098 18.794 26.3075C18.6708 26.4229 18.5968 26.5382 18.6297 26.5547C18.6708 26.5712 18.6872 26.8513 18.6708 27.1727C18.6626 27.6259 18.6297 27.7577 18.5311 27.7577C18.4653 27.7577 18.3914 27.8401 18.3749 27.9472C18.3503 28.0543 18.3914 28.1697 18.4736 28.2274C18.5639 28.2933 18.5722 28.3263 18.5064 28.3345C18.4407 28.3345 18.4078 28.5075 18.4078 28.936C18.4078 29.2573 18.3667 29.5704 18.3174 29.6116C18.2763 29.6528 18.2188 29.9165 18.2024 30.1884C18.1777 30.4603 18.1613 30.7322 18.1613 30.7899C18.1613 30.8394 18.1613 30.9712 18.1613 31.0783C18.1613 31.1772 18.1531 31.3997 18.1367 31.5645C18.1284 31.7457 18.0791 31.8776 18.0134 31.8776C17.9641 31.8776 17.9312 31.9188 17.9559 31.96C17.9805 32.0012 17.9477 32.0424 17.8901 32.0424C17.8244 32.0424 17.8326 32.0698 17.9148 32.1248C17.997 32.1797 18.0024 32.2072 17.9312 32.2072C17.8819 32.2072 17.8326 32.306 17.8326 32.4379C17.8326 32.6109 17.849 32.6356 17.9148 32.5367C17.9805 32.4296 17.997 32.4379 17.997 32.5615C17.997 32.6356 17.9887 32.7263 17.9723 32.7675C17.9641 32.8004 17.9312 32.8169 17.8901 32.8087C17.8573 32.7922 17.8326 32.8251 17.8326 32.8663C17.8326 32.9075 17.8737 32.9487 17.9148 32.9487C17.9559 32.9487 17.997 33.0311 17.9887 33.1382C17.9887 33.2371 18.0052 33.4431 18.0298 33.5914C18.0545 33.7315 18.0545 33.8551 18.0134 33.8551C17.9805 33.8551 17.9559 34.2588 17.9559 34.7532C17.9559 35.2476 17.9805 35.6761 18.0134 35.7008C18.0545 35.7255 18.0134 35.8738 17.9394 36.0221C17.8655 36.1622 17.7915 36.5248 17.7751 36.8214C17.7587 37.118 17.7176 37.3982 17.6765 37.4394C17.6354 37.4806 17.5779 37.7278 17.5614 37.975C17.5368 38.2221 17.5532 38.4776 17.5943 38.5353C17.6436 38.6012 17.6135 38.6891 17.5039 38.7989C17.4135 38.8896 17.3396 39.0049 17.3396 39.0461C17.3396 39.0873 17.3889 39.1038 17.4382 39.0791C17.4957 39.0544 17.5697 39.0956 17.6025 39.1615C17.6436 39.2356 17.6436 39.3922 17.619 39.524C17.5943 39.6476 17.5697 39.9607 17.5614 40.2244C17.5532 40.5457 17.5039 40.7188 17.4218 40.7682C17.3149 40.8259 17.3149 40.8424 17.4382 40.8918C17.5286 40.9248 17.5861 41.0237 17.5861 41.172C17.5861 41.2956 17.5532 41.4521 17.5121 41.518C17.4628 41.5922 17.4711 41.724 17.5121 41.8476C17.5697 41.9877 17.5697 42.0619 17.5121 42.0783C17.4628 42.0866 17.4382 42.136 17.4628 42.1772C17.4875 42.2184 17.4546 42.3173 17.3971 42.3832C17.3149 42.4903 17.3231 42.5398 17.43 42.6551C17.5368 42.7622 17.5614 42.9105 17.5286 43.372C17.5121 43.6851 17.4793 44.0559 17.4628 44.1959C17.4546 44.336 17.4382 44.6738 17.43 44.9622C17.4218 45.333 17.3807 45.5143 17.2738 45.6214C17.1588 45.7285 17.1424 45.8192 17.1917 46.0087C17.2245 46.1488 17.2328 46.2806 17.2081 46.3218C17.1917 46.3547 17.2163 46.3795 17.2574 46.3795C17.3067 46.3795 17.3231 46.536 17.2903 46.775C17.2656 46.9892 17.2492 47.2529 17.2574 47.3682C17.2656 47.4836 17.2821 48.2087 17.2903 48.975C17.3067 49.7413 17.3396 50.524 17.3724 50.7053C17.4053 50.8948 17.3971 51.1338 17.3478 51.2656C17.2875 51.4139 17.2848 51.5018 17.3396 51.5293C17.3889 51.554 17.3971 51.7435 17.3724 52.0072C17.3396 52.2379 17.2903 52.4769 17.2492 52.5181C17.2163 52.5593 17.1999 52.7076 17.2163 52.8476C17.2328 52.9877 17.2656 53.1855 17.2903 53.3008C17.3149 53.4162 17.3067 53.548 17.2821 53.5892C17.2492 53.6304 17.2328 54.2319 17.2492 54.9076C17.2656 55.5915 17.2821 56.3166 17.2821 56.5308C17.2903 56.7533 17.3231 56.9263 17.356 56.9263C17.3971 56.9263 17.4218 56.9922 17.4218 57.0746C17.4218 57.19 17.4053 57.1982 17.3396 57.0911C17.2738 56.9922 17.2574 57.0005 17.2574 57.157C17.2574 57.2559 17.3067 57.4124 17.356 57.4948C17.4382 57.6267 17.4382 57.7008 17.356 57.8656C17.2738 58.0387 17.2738 58.1046 17.356 58.2117C17.43 58.3023 17.4464 58.4671 17.3971 58.7473C17.3642 59.0109 17.3724 59.1345 17.4218 59.1098C17.4628 59.0851 17.5286 59.151 17.5532 59.2581C17.5861 59.3653 17.5697 59.4477 17.5121 59.4641C17.4628 59.4724 17.4218 59.5383 17.4218 59.6042C17.4218 59.6701 17.4628 59.7278 17.5039 59.7278C17.545 59.7278 17.5861 59.9256 17.5861 60.1645C17.5943 60.3952 17.6107 60.7578 17.6354 60.9638C17.6601 61.1698 17.6765 61.4334 17.6683 61.5653C17.6683 61.6889 17.7094 61.8784 17.7504 61.9937C17.808 62.1338 17.808 62.208 17.7422 62.2244C17.6929 62.2327 17.7258 62.3398 17.8244 62.4716C17.923 62.5952 17.997 62.7847 17.997 62.9001C17.997 63.0155 18.038 63.1226 18.0791 63.1473C18.1202 63.172 18.1449 63.2297 18.1202 63.2709C18.0956 63.3121 18.1202 63.3698 18.1613 63.3945C18.2024 63.4192 18.227 63.4769 18.2024 63.5181C18.1777 63.5593 18.1942 63.6664 18.2353 63.7488C18.2763 63.8229 18.375 64.0537 18.4489 64.2596C18.5311 64.4656 18.6543 64.6881 18.7283 64.754C18.8022 64.8199 18.868 64.9353 18.8844 65.0012C18.9009 65.0671 18.983 65.199 19.057 65.2896C19.1392 65.3802 19.1967 65.4956 19.172 65.5368C19.1556 65.578 19.2295 65.6851 19.3446 65.7675C19.4678 65.8417 19.5582 65.9653 19.5582 66.0312C19.5582 66.0971 19.6075 66.1713 19.6568 66.1877C19.7226 66.2097 19.7171 66.2234 19.6404 66.2289C19.5418 66.2289 19.55 66.2701 19.6815 66.402C19.7719 66.4926 19.8951 66.575 19.9444 66.5668C20.002 66.5668 20.0841 66.6327 20.117 66.7151C20.1581 66.7892 20.1827 66.9293 20.1827 67.02C20.1745 67.1188 20.2978 67.2754 20.4786 67.4155C20.6511 67.5391 20.8319 67.6379 20.873 67.6379C20.9141 67.6379 21.1031 67.7945 21.2838 67.9922C21.4646 68.1817 21.6125 68.4042 21.6125 68.4866C21.6125 68.5608 21.6372 68.6185 21.6701 68.6102C21.7111 68.6102 21.8097 68.6267 21.9001 68.6597C21.9905 68.6926 22.1302 68.7585 22.2042 68.7997C22.2863 68.8409 22.3932 68.8574 22.4343 68.8327C22.4753 68.808 22.5329 68.8327 22.5575 68.8739C22.5822 68.9233 22.6561 68.9151 22.7712 68.8574C22.9109 68.7668 22.9519 68.775 23.0177 68.8986C23.0588 68.981 23.1902 69.0387 23.3382 69.0387C23.5107 69.0387 23.5682 69.0716 23.5189 69.1376C23.4778 69.2035 23.5107 69.22 23.6422 69.1788C23.7819 69.1376 23.8558 69.1705 23.9462 69.3106L24.0613 69.4919C24.2749 69.154 24.3324 69.1458 24.8337 69.1952C25.2774 69.2364 25.4089 69.22 25.5322 69.1046C25.6143 69.0304 25.7787 68.9563 25.8937 68.9398C26.017 68.9233 26.2635 68.8162 26.4525 68.6926C26.6415 68.5608 26.8058 68.4949 26.8305 68.5443C26.8551 68.5855 26.9209 68.6102 26.9702 68.5855C27.0277 68.569 27.1099 68.4619 27.1509 68.363C27.1838 68.2559 27.2331 68.0664 27.2496 67.9263C27.266 67.7862 27.2906 67.6627 27.3153 67.6379C27.3399 67.6132 27.4221 67.6544 27.5043 67.7203C27.6275 67.8357 27.6358 67.8274 27.5865 67.7038C27.5536 67.6215 27.57 67.5391 27.6111 67.5143C27.6522 67.4896 27.6768 67.4155 27.6522 67.3495C27.6275 67.2671 27.6768 67.2095 27.7919 67.193C27.9398 67.16 27.9645 67.1188 27.9151 66.987C27.8741 66.8469 27.8905 66.814 28.022 66.814C28.1124 66.814 28.1781 66.7892 28.1617 66.748C28.1534 66.7151 28.2603 66.575 28.4082 66.4432C28.5561 66.3031 28.6793 66.1548 28.6793 66.1136C28.6793 66.0724 28.7944 65.7922 28.9341 65.4956C29.0738 65.199 29.1642 64.9106 29.1395 64.8612C29.1066 64.8035 29.1477 64.754 29.2135 64.754C29.2792 64.754 29.3614 64.6716 29.386 64.5728C29.4107 64.4656 29.4518 64.342 29.4682 64.3008C29.4846 64.2597 29.5093 64.1443 29.5175 64.0537C29.5339 63.963 29.5915 63.8394 29.6408 63.79C29.6983 63.7323 29.7476 63.5922 29.7476 63.4769C29.7476 63.3615 29.7887 63.2709 29.8298 63.2709C29.8708 63.2709 29.9448 63.1473 29.9941 63.0072C30.0352 62.8589 30.0598 62.7271 30.0352 62.7188C30.0105 62.7023 30.0434 62.6447 30.0927 62.587C30.1584 62.5211 30.1995 62.2821 30.1913 61.9855C30.1831 61.6724 30.2324 61.384 30.331 61.1698C30.4132 60.9885 30.52 60.6177 30.5775 60.3458C30.6268 60.0739 30.7008 59.6701 30.7337 59.4394C30.7665 59.2169 30.783 59.0027 30.7665 58.9697C30.7501 58.9286 30.7583 58.9038 30.7912 58.9038C30.8323 58.9038 30.8651 58.7638 30.8816 58.599C30.898 58.4259 30.9227 58.1952 30.9309 58.0799C30.9473 57.9645 30.9637 57.8244 30.9637 57.775C30.972 57.7173 31.0213 57.6844 31.0623 57.7091C31.1034 57.7338 31.1445 57.7008 31.1445 57.6514C31.1445 57.5937 31.1116 57.4866 31.0706 57.4207C31.0213 57.3383 31.0459 57.2147 31.1445 57.0499C31.2349 56.9098 31.2842 56.7862 31.2678 56.7615C31.2513 56.7368 31.2185 56.5802 31.1938 56.4154C31.161 56.2177 31.1774 56.1188 31.2267 56.1435C31.2678 56.1682 31.3499 56.0282 31.391 55.8387C31.4403 55.6409 31.5143 55.3937 31.5636 55.2784C31.6211 55.1218 31.6211 55.0559 31.5389 55.0147C31.4486 54.9735 31.4486 54.9158 31.5389 54.6851C31.6047 54.5368 31.6704 54.0836 31.6869 53.6716C31.7033 53.2596 31.7608 52.7076 31.8101 52.4357C31.8594 52.1637 31.958 51.9001 32.0238 51.8589C32.1306 51.7847 32.1388 51.7106 32.0484 51.3233C31.9909 51.0679 31.9662 50.6971 31.9991 50.4828C32.0238 50.2604 32.0977 50.0132 32.147 49.9225C32.2182 49.8182 32.2264 49.7385 32.1717 49.6836C32.1224 49.6259 32.1141 49.387 32.1552 49.0409C32.1881 48.736 32.2292 48.2169 32.2456 47.9038C32.2621 47.5907 32.3196 47.2282 32.3689 47.1046C32.4182 46.9727 32.4346 46.8244 32.4018 46.775C32.3689 46.7173 32.3278 46.536 32.3196 46.3795C32.3031 46.2229 32.2867 45.8192 32.2703 45.4896C32.2621 45.1682 32.2785 44.8963 32.3114 44.8963C32.3524 44.8963 32.3689 44.7974 32.3689 44.6738C32.3607 44.542 32.3935 44.2371 32.4346 43.99C32.4757 43.7428 32.5004 43.3967 32.4839 43.2319C32.4757 43.0589 32.5004 42.9023 32.5414 42.8776C32.5825 42.8529 32.599 42.7869 32.5743 42.7375C32.5414 42.6798 32.525 42.4244 32.525 42.1772C32.525 41.93 32.5414 41.6664 32.5579 41.6004C32.5743 41.5345 32.6236 41.4521 32.6647 41.4192C32.714 41.3862 32.7387 40.9907 32.7222 40.4716C32.714 39.9855 32.7058 39.4499 32.6976 39.2933C32.6976 39.1368 32.6976 38.8731 32.6976 38.7165C32.7058 38.56 32.6565 38.4034 32.599 38.3705C32.525 38.3293 32.525 38.2963 32.6072 38.2057C32.6565 38.148 32.6894 38.0326 32.6647 37.9585C32.64 37.8761 32.6647 37.8102 32.7058 37.8102C32.7469 37.8102 32.7962 37.7278 32.8126 37.6289C32.8208 37.5218 32.7962 37.3652 32.7469 37.2746C32.6976 37.1839 32.6647 36.8791 32.6811 36.5989C32.6976 36.2941 32.6729 36.0798 32.6236 36.0798C32.5825 36.0798 32.5661 36.0304 32.599 35.9809C32.6236 35.9233 32.6647 35.7667 32.6894 35.6266C32.7058 35.4866 32.6811 35.2394 32.6318 35.0746C32.5743 34.8603 32.5661 34.7203 32.6236 34.6379C32.6647 34.572 32.6811 34.4648 32.6483 34.4154C32.6044 34.344 32.6181 34.3303 32.6894 34.3742C32.7387 34.4072 32.788 34.3907 32.788 34.3495C32.788 34.3083 32.7387 34.2671 32.6811 34.2671C32.6154 34.2671 32.5825 34.0693 32.5743 33.5832C32.5661 33.1712 32.599 32.8828 32.6565 32.8499C32.7222 32.8087 32.7058 32.718 32.599 32.5367C32.4921 32.3472 32.4675 32.1824 32.5086 31.8199C32.5332 31.5562 32.5743 31.3173 32.5907 31.2843C32.6072 31.2431 32.5661 31.2184 32.5004 31.2184C32.4182 31.2184 32.3935 31.169 32.4264 31.0783C32.4511 30.9959 32.4921 30.8394 32.5168 30.724C32.5414 30.5839 32.5168 30.5015 32.4264 30.4603C32.3524 30.4191 32.3114 30.3532 32.336 30.312C32.3607 30.2708 32.3771 30.0072 32.3771 29.7352C32.3771 29.4304 32.4182 29.1997 32.4839 29.142C32.5497 29.0843 32.5743 28.9772 32.5497 28.9113C32.525 28.8454 32.4264 28.6806 32.336 28.557C32.2045 28.3674 32.1963 28.3098 32.2785 28.2686C32.3607 28.2274 32.3689 28.145 32.3278 28.0049C32.2867 27.8895 32.2538 27.6506 32.2538 27.4693C32.2456 27.288 32.2128 26.8266 32.1717 26.4394C32.1388 26.0521 32.1059 25.6648 32.1141 25.5742C32.1141 25.4836 32.0813 25.327 32.0402 25.2281C31.9909 25.1045 31.9991 24.9644 32.0484 24.8326C32.1059 24.6925 32.1059 24.6184 32.0484 24.6101C31.9991 24.5937 31.9498 24.2888 31.9334 23.9262C31.9169 23.5637 31.8841 23.1929 31.8594 23.1023C31.8348 23.0116 31.7937 22.8716 31.769 22.7974C31.7362 22.6903 31.7608 22.6491 31.8594 22.6491C31.9991 22.6491 31.9909 22.6408 31.8512 22.5502C31.7444 22.4678 31.6951 22.3195 31.6704 21.9487C31.6458 21.5532 31.6047 21.4296 31.4568 21.3143C31.3499 21.2319 31.3171 21.1659 31.3664 21.1659C31.4403 21.1659 31.465 21.0671 31.4486 20.8775C31.4376 20.6853 31.3965 20.6029 31.3253 20.6304C31.276 20.6551 31.1692 20.6551 31.1034 20.6304C31.0377 20.6056 30.9802 20.5397 30.9802 20.4903C30.9802 20.4326 30.8898 20.2513 30.7747 20.0948C30.6679 19.9382 30.594 19.7899 30.6186 19.7652C30.635 19.7405 30.594 19.6663 30.5282 19.6004C30.4543 19.5345 30.405 19.4191 30.405 19.3532C30.405 19.2873 30.3557 19.1802 30.2817 19.1307C30.1831 19.0483 30.1338 19.0483 30.0352 19.1307C29.9284 19.2131 29.9037 19.2131 29.9119 19.1307C29.9119 19.073 29.8626 19.0401 29.8051 19.0648C29.7558 19.0895 29.6243 19.0319 29.5175 18.9412C29.4189 18.8506 29.3203 18.8011 29.2956 18.8423C29.271 18.8753 29.2546 18.8588 29.2546 18.8176C29.2546 18.7764 29.1477 18.6775 28.9998 18.6116C28.8601 18.5457 28.6711 18.3644 28.589 18.2244C28.4986 18.076 28.3835 17.9689 28.326 17.9936C28.2767 18.0184 28.1534 17.9277 28.0631 17.7959C27.9727 17.6558 27.8823 17.5817 27.8576 17.6311C27.833 17.6805 27.7179 17.6723 27.5454 17.6229C27.4057 17.5817 27.2413 17.4581 27.1838 17.3592C27.1263 17.2521 27.0852 17.145 27.0934 17.112C27.0934 17.0708 27.0852 17.0461 27.0688 17.0461C27.0606 17.0461 27.0277 17.0873 26.9948 17.1285C26.9702 17.1697 26.9126 17.1944 26.8716 17.1697Z" fill="#FF5D00"/>
</svg>
